G75*
G70*
%OFA0B0*%
%FSLAX24Y24*%
%IPPOS*%
%LPD*%
%AMOC8*
5,1,8,0,0,1.08239X$1,22.5*
%
%ADD10R,0.0315X0.0591*%
%ADD11R,0.0512X0.0551*%
%ADD12R,0.0551X0.0748*%
%ADD13R,0.0394X0.0374*%
%ADD14R,0.0472X0.0217*%
%ADD15R,0.0236X0.0236*%
%ADD16R,0.0197X0.0236*%
%ADD17R,0.0236X0.0197*%
%ADD18R,0.0079X0.0079*%
%ADD19R,0.0197X0.0315*%
%ADD20C,0.0050*%
%ADD21C,0.0120*%
%ADD22R,0.0748X0.0551*%
%ADD23R,0.0315X0.0354*%
%ADD24R,0.0354X0.0315*%
%ADD25R,0.0217X0.0472*%
%ADD26R,0.0315X0.1063*%
%ADD27R,0.0240X0.0870*%
D10*
X005492Y003857D03*
X005925Y004014D03*
X006358Y003857D03*
X006791Y003778D03*
X007224Y003857D03*
X007657Y003778D03*
X008090Y003857D03*
X008523Y003857D03*
D11*
X008204Y008132D03*
X005960Y008132D03*
D12*
X008834Y002955D03*
X003657Y002561D03*
D13*
X007657Y008221D03*
D14*
X006767Y015834D03*
X006767Y016209D03*
X006767Y016583D03*
X005744Y016583D03*
X005744Y015834D03*
D15*
X006056Y015259D03*
X006456Y015259D03*
X006456Y014659D03*
X006056Y014659D03*
X005956Y013959D03*
X005556Y013959D03*
X005556Y013359D03*
X005956Y013359D03*
X006556Y013959D03*
X006956Y013959D03*
X006956Y017209D03*
X006556Y017209D03*
X006556Y017809D03*
X006956Y017809D03*
X005956Y017809D03*
X005556Y017809D03*
X005556Y017209D03*
X005956Y017209D03*
X002750Y019659D03*
X002350Y019659D03*
X002350Y020259D03*
X002750Y020259D03*
X004800Y022359D03*
X005200Y022359D03*
X005000Y022977D03*
X005000Y023377D03*
X002750Y023409D03*
X002350Y023409D03*
X010220Y023399D03*
X010220Y022999D03*
X011150Y020449D03*
X011550Y020449D03*
D16*
X003677Y021034D03*
X003677Y021625D03*
X003677Y022215D03*
X002535Y022215D03*
X002535Y021625D03*
X002535Y021034D03*
D17*
X003106Y021034D03*
D18*
X003106Y024774D03*
D19*
X003106Y024184D03*
X003500Y024184D03*
X002712Y024184D03*
X002712Y025365D03*
X003106Y025365D03*
X003500Y025365D03*
D20*
X003519Y024991D02*
X002850Y024991D01*
X002673Y024814D01*
X002673Y024558D01*
X003519Y024558D01*
X003519Y024991D01*
X003519Y024960D02*
X002819Y024960D01*
X002771Y024912D02*
X003519Y024912D01*
X003519Y024863D02*
X002722Y024863D01*
X002674Y024815D02*
X003519Y024815D01*
X003519Y024766D02*
X002673Y024766D01*
X002673Y024718D02*
X003519Y024718D01*
X003519Y024669D02*
X002673Y024669D01*
X002673Y024621D02*
X003519Y024621D01*
X003519Y024572D02*
X002673Y024572D01*
D21*
X006059Y023687D03*
X006256Y023687D03*
X006453Y023687D03*
X006453Y023490D03*
X006453Y023293D03*
X006256Y023293D03*
X006059Y023293D03*
X006059Y023490D03*
D22*
X001450Y022059D03*
X001450Y021059D03*
D23*
X007950Y023027D03*
X007950Y023627D03*
X009590Y023339D03*
X009590Y022739D03*
D24*
X010890Y019809D03*
X011490Y019809D03*
X006556Y020059D03*
X005956Y020059D03*
D25*
X010806Y022377D03*
X011180Y022377D03*
X011554Y022377D03*
X011554Y023400D03*
X010806Y023400D03*
D26*
X010847Y021419D03*
X011713Y021419D03*
D27*
X000900Y002729D03*
X001400Y002729D03*
X001900Y002729D03*
X002400Y002729D03*
X002400Y004789D03*
X001900Y004789D03*
X001400Y004789D03*
X000900Y004789D03*
M02*
