G75*
G70*
%OFA0B0*%
%FSLAX24Y24*%
%IPPOS*%
%LPD*%
%AMOC8*
5,1,8,0,0,1.08239X$1,22.5*
%
%ADD10C,0.0436*%
%ADD11C,0.0531*%
%ADD12C,0.0591*%
%ADD13C,0.0600*%
%ADD14C,0.0475*%
%ADD15C,0.0420*%
%ADD16C,0.0709*%
%ADD17C,0.0280*%
%ADD18C,0.0080*%
%ADD19C,0.0278*%
%ADD20C,0.0396*%
%ADD21C,0.0100*%
%ADD22C,0.0120*%
D10*
X008968Y024381D03*
X009968Y024381D03*
X010968Y024381D03*
D11*
X006756Y021375D03*
X005756Y021375D03*
D12*
X010600Y012964D03*
X011600Y012964D03*
D13*
X011500Y008059D03*
X011500Y007059D03*
X011500Y006059D03*
X011500Y005059D03*
X001080Y008659D03*
X001080Y009659D03*
X001080Y010659D03*
D14*
X005756Y012332D03*
X006756Y012332D03*
D15*
X010600Y011339D03*
X011100Y011339D03*
X011100Y010839D03*
X010600Y010839D03*
X010600Y010339D03*
X011100Y010339D03*
X011100Y009839D03*
X010600Y009839D03*
D16*
X007328Y025680D03*
X005183Y025680D03*
D17*
X005500Y025129D03*
X006130Y025129D03*
X006620Y025129D03*
X007200Y023909D03*
X007600Y024159D03*
X008450Y023359D03*
X010150Y021309D03*
X010990Y022889D03*
X011310Y022889D03*
X011700Y022889D03*
X011660Y019339D03*
X011520Y019089D03*
X011380Y019339D03*
X007500Y020209D03*
X005550Y018409D03*
X004550Y019409D03*
X004100Y019409D03*
X003700Y019809D03*
X003350Y020309D03*
X001800Y020259D03*
X003150Y022409D03*
X004500Y023409D03*
X004600Y026009D03*
X002000Y026059D03*
X001400Y025109D03*
X001400Y024609D03*
X001000Y022909D03*
X004150Y017709D03*
X006550Y013359D03*
X005350Y010909D03*
X004800Y010909D03*
X003980Y010289D03*
X003700Y011309D03*
X003700Y012859D03*
X004750Y008809D03*
X005900Y009009D03*
X006950Y009009D03*
X007650Y007609D03*
X006740Y006539D03*
X006740Y005589D03*
X006600Y004659D03*
X006050Y004659D03*
X005740Y005589D03*
X005740Y006539D03*
X004800Y006709D03*
X004800Y007209D03*
X003800Y007309D03*
X003800Y007709D03*
X003750Y008209D03*
X001950Y006109D03*
X001400Y005809D03*
X000900Y004009D03*
X002450Y003409D03*
X002950Y003709D03*
X003350Y003259D03*
X003650Y001459D03*
X006200Y003209D03*
X007150Y004659D03*
X007650Y004659D03*
X007650Y003159D03*
X008250Y003159D03*
X009290Y008339D03*
X009800Y008809D03*
X008800Y010959D03*
D18*
X000490Y000899D02*
X000490Y026209D01*
X001811Y026209D01*
X001797Y026194D01*
X001760Y026106D01*
X001760Y026011D01*
X001797Y025923D01*
X001864Y025855D01*
X001952Y025819D01*
X002048Y025819D01*
X002136Y025855D01*
X002203Y025923D01*
X002240Y026011D01*
X002240Y026106D01*
X002203Y026194D01*
X002189Y026209D01*
X004461Y026209D01*
X004397Y026144D01*
X004360Y026056D01*
X004360Y025961D01*
X004397Y025873D01*
X004464Y025805D01*
X004552Y025769D01*
X004648Y025769D01*
X004736Y025805D01*
X004748Y025817D01*
X004728Y025770D01*
X004728Y025589D01*
X004798Y025422D01*
X004925Y025295D01*
X005092Y025225D01*
X005273Y025225D01*
X005440Y025295D01*
X005568Y025422D01*
X005637Y025589D01*
X005637Y025770D01*
X005568Y025937D01*
X005440Y026065D01*
X005273Y026134D01*
X005092Y026134D01*
X004925Y026065D01*
X004840Y025980D01*
X004840Y026056D01*
X004803Y026144D01*
X004739Y026209D01*
X012021Y026209D01*
X012021Y002530D01*
X005468Y002530D01*
X005468Y000899D01*
X000490Y000899D01*
X000490Y000916D02*
X005468Y000916D01*
X005468Y000994D02*
X000490Y000994D01*
X000490Y001073D02*
X005468Y001073D01*
X005468Y001151D02*
X000490Y001151D01*
X000490Y001230D02*
X003576Y001230D01*
X003602Y001219D02*
X003698Y001219D01*
X003786Y001255D01*
X003853Y001323D01*
X003890Y001411D01*
X003890Y001506D01*
X003853Y001594D01*
X003786Y001662D01*
X003698Y001699D01*
X003602Y001699D01*
X003514Y001662D01*
X003447Y001594D01*
X003410Y001506D01*
X003410Y001411D01*
X003447Y001323D01*
X003514Y001255D01*
X003602Y001219D01*
X003724Y001230D02*
X005468Y001230D01*
X005468Y001308D02*
X003839Y001308D01*
X003880Y001387D02*
X005468Y001387D01*
X005468Y001465D02*
X003890Y001465D01*
X003875Y001544D02*
X005468Y001544D01*
X005468Y001622D02*
X003826Y001622D01*
X003474Y001622D02*
X000490Y001622D01*
X000490Y001544D02*
X003425Y001544D01*
X003410Y001465D02*
X000490Y001465D01*
X000490Y001387D02*
X003420Y001387D01*
X003461Y001308D02*
X000490Y001308D01*
X000490Y001701D02*
X005468Y001701D01*
X005468Y001779D02*
X000490Y001779D01*
X000490Y001858D02*
X005468Y001858D01*
X005468Y001936D02*
X000490Y001936D01*
X000490Y002015D02*
X005468Y002015D01*
X005468Y002093D02*
X000490Y002093D01*
X000490Y002172D02*
X005468Y002172D01*
X005468Y002250D02*
X000490Y002250D01*
X000490Y002329D02*
X005468Y002329D01*
X005468Y002407D02*
X000490Y002407D01*
X000490Y002486D02*
X005468Y002486D01*
X006034Y003035D02*
X003438Y003035D01*
X003398Y003019D02*
X003486Y003055D01*
X003553Y003123D01*
X003590Y003211D01*
X003590Y003306D01*
X003553Y003394D01*
X003486Y003462D01*
X003398Y003499D01*
X003352Y003499D01*
X003562Y003709D01*
X006285Y003709D01*
X006850Y003100D01*
X006850Y003096D01*
X006892Y003054D01*
X006932Y003011D01*
X006936Y003011D01*
X006938Y003009D01*
X006997Y003009D01*
X007057Y003006D01*
X007059Y003009D01*
X007461Y003009D01*
X007514Y002955D01*
X007602Y002919D01*
X007698Y002919D01*
X007786Y002955D01*
X007853Y003023D01*
X007890Y003111D01*
X007890Y003206D01*
X007853Y003294D01*
X007786Y003362D01*
X007698Y003399D01*
X007602Y003399D01*
X007514Y003362D01*
X007461Y003309D01*
X007065Y003309D01*
X006500Y003917D01*
X006500Y003921D01*
X006458Y003963D01*
X006418Y004006D01*
X006414Y004006D01*
X006412Y004009D01*
X006353Y004009D01*
X006314Y004010D01*
X006412Y004109D01*
X006500Y004196D01*
X006500Y004346D01*
X006572Y004419D01*
X006648Y004419D01*
X006736Y004455D01*
X006803Y004523D01*
X006840Y004611D01*
X006840Y004706D01*
X006803Y004794D01*
X006736Y004862D01*
X006648Y004899D01*
X006552Y004899D01*
X006464Y004862D01*
X006397Y004794D01*
X006360Y004706D01*
X006360Y004631D01*
X006255Y004525D01*
X006290Y004611D01*
X006290Y004706D01*
X006253Y004794D01*
X006186Y004862D01*
X006098Y004899D01*
X006002Y004899D01*
X005914Y004862D01*
X005847Y004794D01*
X005810Y004706D01*
X005810Y004611D01*
X005847Y004523D01*
X005914Y004455D01*
X006002Y004419D01*
X006098Y004419D01*
X006186Y004455D01*
X006200Y004469D01*
X006200Y004321D01*
X006188Y004309D01*
X005962Y004309D01*
X005704Y004566D01*
X002696Y004566D01*
X002608Y004479D01*
X002238Y004109D01*
X001118Y004109D01*
X001103Y004144D01*
X001036Y004212D01*
X000948Y004249D01*
X000852Y004249D01*
X000764Y004212D01*
X000697Y004144D01*
X000660Y004056D01*
X000660Y003961D01*
X000697Y003873D01*
X000764Y003805D01*
X000852Y003769D01*
X000948Y003769D01*
X001036Y003805D01*
X001039Y003809D01*
X002362Y003809D01*
X002450Y003896D01*
X002820Y004266D01*
X005580Y004266D01*
X005750Y004096D01*
X005838Y004009D01*
X006291Y004009D01*
X006291Y004009D01*
X003438Y004009D01*
X003189Y003759D01*
X003153Y003844D01*
X003086Y003912D01*
X002998Y003949D01*
X002902Y003949D01*
X002814Y003912D01*
X002747Y003844D01*
X002710Y003756D01*
X002710Y003661D01*
X002747Y003573D01*
X002761Y003559D01*
X002639Y003559D01*
X002586Y003612D01*
X002498Y003649D01*
X002402Y003649D01*
X002314Y003612D01*
X002247Y003544D01*
X002210Y003456D01*
X002210Y003361D01*
X002247Y003273D01*
X002314Y003205D01*
X002402Y003169D01*
X002498Y003169D01*
X002586Y003205D01*
X002639Y003259D01*
X003110Y003259D01*
X003110Y003211D01*
X003147Y003123D01*
X003214Y003055D01*
X003302Y003019D01*
X003398Y003019D01*
X003262Y003035D02*
X000490Y003035D01*
X000490Y002957D02*
X007513Y002957D01*
X007787Y002957D02*
X008113Y002957D01*
X008114Y002955D02*
X008202Y002919D01*
X008298Y002919D01*
X008386Y002955D01*
X008453Y003023D01*
X008490Y003111D01*
X008490Y003172D01*
X008660Y003342D01*
X008660Y008325D01*
X008566Y008419D01*
X008210Y008775D01*
X008210Y013475D01*
X008116Y013569D01*
X006910Y014775D01*
X006910Y018675D01*
X006816Y018769D01*
X003333Y022252D01*
X003353Y022273D01*
X003390Y022361D01*
X003390Y022456D01*
X003353Y022544D01*
X003286Y022612D01*
X003198Y022649D01*
X003102Y022649D01*
X003014Y022612D01*
X002947Y022544D01*
X002910Y022456D01*
X002910Y022361D01*
X002947Y022273D01*
X002990Y022229D01*
X002990Y022142D01*
X006590Y018542D01*
X006590Y014642D01*
X007890Y013342D01*
X007890Y008642D01*
X008340Y008192D01*
X008340Y003475D01*
X008264Y003399D01*
X008202Y003399D01*
X008114Y003362D01*
X008047Y003294D01*
X008010Y003206D01*
X008010Y003111D01*
X008047Y003023D01*
X008114Y002955D01*
X008041Y003035D02*
X007859Y003035D01*
X007890Y003114D02*
X008010Y003114D01*
X008010Y003192D02*
X007890Y003192D01*
X007863Y003271D02*
X008037Y003271D01*
X008101Y003349D02*
X007799Y003349D01*
X007501Y003349D02*
X007028Y003349D01*
X006955Y003428D02*
X008293Y003428D01*
X008340Y003506D02*
X006882Y003506D01*
X006809Y003585D02*
X008340Y003585D01*
X008340Y003663D02*
X006736Y003663D01*
X006663Y003742D02*
X008340Y003742D01*
X008340Y003820D02*
X006590Y003820D01*
X006518Y003899D02*
X008340Y003899D01*
X008340Y003977D02*
X006445Y003977D01*
X006359Y004056D02*
X008340Y004056D01*
X008340Y004134D02*
X006438Y004134D01*
X006500Y004213D02*
X008340Y004213D01*
X008340Y004291D02*
X006500Y004291D01*
X006523Y004370D02*
X008340Y004370D01*
X008340Y004448D02*
X007769Y004448D01*
X007786Y004455D02*
X007853Y004523D01*
X007890Y004611D01*
X007890Y004706D01*
X007853Y004794D01*
X007786Y004862D01*
X007698Y004899D01*
X007602Y004899D01*
X007514Y004862D01*
X007447Y004794D01*
X007410Y004706D01*
X007410Y004611D01*
X007447Y004523D01*
X007514Y004455D01*
X007602Y004419D01*
X007698Y004419D01*
X007786Y004455D01*
X007855Y004527D02*
X008340Y004527D01*
X008340Y004605D02*
X007888Y004605D01*
X007890Y004684D02*
X008340Y004684D01*
X008340Y004762D02*
X007867Y004762D01*
X007807Y004841D02*
X008340Y004841D01*
X008340Y004919D02*
X007300Y004919D01*
X007300Y004921D02*
X007212Y005009D01*
X006962Y005259D01*
X003012Y005259D01*
X002650Y005621D01*
X002562Y005709D01*
X001712Y005709D01*
X001640Y005781D01*
X001640Y005856D01*
X001603Y005944D01*
X001536Y006012D01*
X001448Y006049D01*
X001352Y006049D01*
X001264Y006012D01*
X001197Y005944D01*
X001160Y005856D01*
X001160Y005761D01*
X001197Y005673D01*
X001264Y005605D01*
X001352Y005569D01*
X001428Y005569D01*
X001588Y005409D01*
X002438Y005409D01*
X002800Y005046D01*
X002888Y004959D01*
X006838Y004959D01*
X006974Y004822D01*
X006947Y004794D01*
X006910Y004706D01*
X006910Y004611D01*
X006947Y004523D01*
X007014Y004455D01*
X007102Y004419D01*
X007198Y004419D01*
X007286Y004455D01*
X007353Y004523D01*
X007390Y004611D01*
X007390Y004706D01*
X007353Y004794D01*
X007300Y004848D01*
X007300Y004921D01*
X007307Y004841D02*
X007493Y004841D01*
X007433Y004762D02*
X007367Y004762D01*
X007390Y004684D02*
X007410Y004684D01*
X007412Y004605D02*
X007388Y004605D01*
X007355Y004527D02*
X007445Y004527D01*
X007531Y004448D02*
X007269Y004448D01*
X007031Y004448D02*
X006719Y004448D01*
X006805Y004527D02*
X006945Y004527D01*
X006912Y004605D02*
X006838Y004605D01*
X006840Y004684D02*
X006910Y004684D01*
X006933Y004762D02*
X006817Y004762D01*
X006757Y004841D02*
X006956Y004841D01*
X006877Y004919D02*
X000490Y004919D01*
X000490Y004841D02*
X005893Y004841D01*
X005833Y004762D02*
X000490Y004762D01*
X000490Y004684D02*
X005810Y004684D01*
X005812Y004605D02*
X000490Y004605D01*
X000490Y004527D02*
X002656Y004527D01*
X002577Y004448D02*
X000490Y004448D01*
X000490Y004370D02*
X002499Y004370D01*
X002420Y004291D02*
X000490Y004291D01*
X000490Y004213D02*
X000765Y004213D01*
X000692Y004134D02*
X000490Y004134D01*
X000490Y004056D02*
X000660Y004056D01*
X000660Y003977D02*
X000490Y003977D01*
X000490Y003899D02*
X000686Y003899D01*
X000749Y003820D02*
X000490Y003820D01*
X000490Y003742D02*
X002710Y003742D01*
X002710Y003663D02*
X000490Y003663D01*
X000490Y003585D02*
X002287Y003585D01*
X002231Y003506D02*
X000490Y003506D01*
X000490Y003428D02*
X002210Y003428D01*
X002215Y003349D02*
X000490Y003349D01*
X000490Y003271D02*
X002249Y003271D01*
X002346Y003192D02*
X000490Y003192D01*
X000490Y003114D02*
X003156Y003114D01*
X003118Y003192D02*
X002554Y003192D01*
X002613Y003585D02*
X002742Y003585D01*
X002736Y003820D02*
X002374Y003820D01*
X002452Y003899D02*
X002801Y003899D01*
X002609Y004056D02*
X005791Y004056D01*
X005712Y004134D02*
X002688Y004134D01*
X002766Y004213D02*
X005634Y004213D01*
X005823Y004448D02*
X005931Y004448D01*
X005901Y004370D02*
X006200Y004370D01*
X006200Y004448D02*
X006169Y004448D01*
X006255Y004527D02*
X006256Y004527D01*
X006288Y004605D02*
X006334Y004605D01*
X006360Y004684D02*
X006290Y004684D01*
X006267Y004762D02*
X006383Y004762D01*
X006443Y004841D02*
X006207Y004841D01*
X005845Y004527D02*
X005744Y004527D01*
X006327Y003663D02*
X003517Y003663D01*
X003438Y003585D02*
X006400Y003585D01*
X006473Y003506D02*
X003360Y003506D01*
X003520Y003428D02*
X006102Y003428D01*
X006064Y003412D02*
X005997Y003344D01*
X005960Y003256D01*
X005960Y003161D01*
X005997Y003073D01*
X006064Y003005D01*
X006152Y002969D01*
X006248Y002969D01*
X006336Y003005D01*
X006403Y003073D01*
X006440Y003161D01*
X006440Y003256D01*
X006403Y003344D01*
X006336Y003412D01*
X006248Y003449D01*
X006152Y003449D01*
X006064Y003412D01*
X006001Y003349D02*
X003572Y003349D01*
X003590Y003271D02*
X005966Y003271D01*
X005960Y003192D02*
X003582Y003192D01*
X003544Y003114D02*
X005980Y003114D01*
X006366Y003035D02*
X006910Y003035D01*
X006837Y003114D02*
X006420Y003114D01*
X006440Y003192D02*
X006764Y003192D01*
X006691Y003271D02*
X006434Y003271D01*
X006399Y003349D02*
X006618Y003349D01*
X006546Y003428D02*
X006298Y003428D01*
X007223Y004998D02*
X008340Y004998D01*
X008340Y005076D02*
X007145Y005076D01*
X007066Y005155D02*
X008340Y005155D01*
X008340Y005233D02*
X006988Y005233D01*
X008340Y005312D02*
X002959Y005312D01*
X002881Y005390D02*
X008340Y005390D01*
X008340Y005469D02*
X002802Y005469D01*
X002724Y005547D02*
X008340Y005547D01*
X008340Y005626D02*
X002645Y005626D01*
X002567Y005704D02*
X008340Y005704D01*
X008340Y005783D02*
X001640Y005783D01*
X001638Y005861D02*
X008340Y005861D01*
X008340Y005940D02*
X002120Y005940D01*
X002153Y005973D02*
X002086Y005905D01*
X001998Y005869D01*
X001902Y005869D01*
X001814Y005905D01*
X001747Y005973D01*
X001710Y006061D01*
X001710Y006156D01*
X001747Y006244D01*
X001814Y006312D01*
X001902Y006349D01*
X001998Y006349D01*
X002086Y006312D01*
X002153Y006244D01*
X002190Y006156D01*
X002190Y006061D01*
X002153Y005973D01*
X002172Y006018D02*
X008340Y006018D01*
X008340Y006097D02*
X002190Y006097D01*
X002182Y006175D02*
X008340Y006175D01*
X008340Y006254D02*
X002144Y006254D01*
X002038Y006332D02*
X008340Y006332D01*
X008340Y006411D02*
X000490Y006411D01*
X000490Y006489D02*
X004703Y006489D01*
X004664Y006505D02*
X004752Y006469D01*
X004848Y006469D01*
X004936Y006505D01*
X005003Y006573D01*
X005040Y006661D01*
X005040Y006756D01*
X005003Y006844D01*
X004936Y006912D01*
X004848Y006949D01*
X004752Y006949D01*
X004664Y006912D01*
X004597Y006844D01*
X004560Y006756D01*
X004560Y006661D01*
X004597Y006573D01*
X004664Y006505D01*
X004602Y006568D02*
X000490Y006568D01*
X000490Y006646D02*
X004566Y006646D01*
X004560Y006725D02*
X000490Y006725D01*
X000490Y006803D02*
X004579Y006803D01*
X004634Y006882D02*
X000490Y006882D01*
X000490Y006960D02*
X008340Y006960D01*
X008340Y006882D02*
X004966Y006882D01*
X005021Y006803D02*
X008340Y006803D01*
X008340Y006725D02*
X005040Y006725D01*
X005034Y006646D02*
X008340Y006646D01*
X008340Y006568D02*
X004998Y006568D01*
X004897Y006489D02*
X008340Y006489D01*
X008660Y006489D02*
X012021Y006489D01*
X012021Y006411D02*
X011695Y006411D01*
X011727Y006398D02*
X011580Y006459D01*
X011420Y006459D01*
X011273Y006398D01*
X011161Y006285D01*
X011100Y006138D01*
X011100Y005979D01*
X011161Y005832D01*
X011273Y005719D01*
X011420Y005659D01*
X011580Y005659D01*
X011727Y005719D01*
X011839Y005832D01*
X011900Y005979D01*
X011900Y006138D01*
X011839Y006285D01*
X011727Y006398D01*
X011792Y006332D02*
X012021Y006332D01*
X012021Y006254D02*
X011852Y006254D01*
X011885Y006175D02*
X012021Y006175D01*
X012021Y006097D02*
X011900Y006097D01*
X011900Y006018D02*
X012021Y006018D01*
X012021Y005940D02*
X011884Y005940D01*
X011851Y005861D02*
X012021Y005861D01*
X012021Y005783D02*
X011790Y005783D01*
X011689Y005704D02*
X012021Y005704D01*
X012021Y005626D02*
X008660Y005626D01*
X008660Y005704D02*
X011311Y005704D01*
X011210Y005783D02*
X008660Y005783D01*
X008660Y005861D02*
X011149Y005861D01*
X011116Y005940D02*
X008660Y005940D01*
X008660Y006018D02*
X011100Y006018D01*
X011100Y006097D02*
X008660Y006097D01*
X008660Y006175D02*
X011115Y006175D01*
X011148Y006254D02*
X008660Y006254D01*
X008660Y006332D02*
X011208Y006332D01*
X011305Y006411D02*
X008660Y006411D01*
X008660Y006568D02*
X012021Y006568D01*
X012021Y006646D02*
X008660Y006646D01*
X008660Y006725D02*
X011268Y006725D01*
X011273Y006719D02*
X011420Y006659D01*
X011580Y006659D01*
X011727Y006719D01*
X011839Y006832D01*
X011900Y006979D01*
X011900Y007138D01*
X011839Y007285D01*
X011727Y007398D01*
X011580Y007459D01*
X011420Y007459D01*
X011273Y007398D01*
X011161Y007285D01*
X011100Y007138D01*
X011100Y006979D01*
X011161Y006832D01*
X011273Y006719D01*
X011190Y006803D02*
X008660Y006803D01*
X008660Y006882D02*
X011140Y006882D01*
X011108Y006960D02*
X008660Y006960D01*
X008660Y007039D02*
X011100Y007039D01*
X011100Y007117D02*
X008660Y007117D01*
X008660Y007196D02*
X011124Y007196D01*
X011156Y007274D02*
X008660Y007274D01*
X008660Y007353D02*
X011228Y007353D01*
X011354Y007431D02*
X008660Y007431D01*
X008660Y007510D02*
X012021Y007510D01*
X012021Y007588D02*
X008660Y007588D01*
X008660Y007667D02*
X011401Y007667D01*
X011420Y007659D02*
X011580Y007659D01*
X011727Y007719D01*
X011839Y007832D01*
X011900Y007979D01*
X011900Y008138D01*
X011839Y008285D01*
X011727Y008398D01*
X011580Y008459D01*
X011420Y008459D01*
X011273Y008398D01*
X011161Y008285D01*
X011100Y008138D01*
X011100Y007979D01*
X011161Y007832D01*
X011273Y007719D01*
X011420Y007659D01*
X011599Y007667D02*
X012021Y007667D01*
X012021Y007745D02*
X011752Y007745D01*
X011831Y007824D02*
X012021Y007824D01*
X012021Y007902D02*
X011868Y007902D01*
X011900Y007981D02*
X012021Y007981D01*
X012021Y008059D02*
X011900Y008059D01*
X011900Y008138D02*
X012021Y008138D01*
X012021Y008216D02*
X011868Y008216D01*
X011830Y008295D02*
X012021Y008295D01*
X012021Y008373D02*
X011751Y008373D01*
X011596Y008452D02*
X012021Y008452D01*
X012021Y008530D02*
X008455Y008530D01*
X008533Y008452D02*
X011404Y008452D01*
X011249Y008373D02*
X008612Y008373D01*
X008660Y008295D02*
X011170Y008295D01*
X011132Y008216D02*
X008660Y008216D01*
X008660Y008138D02*
X011100Y008138D01*
X011100Y008059D02*
X008660Y008059D01*
X008660Y007981D02*
X011100Y007981D01*
X011132Y007902D02*
X008660Y007902D01*
X008660Y007824D02*
X011169Y007824D01*
X011248Y007745D02*
X008660Y007745D01*
X008340Y007745D02*
X007853Y007745D01*
X007853Y007744D02*
X007786Y007812D01*
X007698Y007849D01*
X007602Y007849D01*
X007514Y007812D01*
X007447Y007744D01*
X007410Y007656D01*
X007410Y007561D01*
X007447Y007473D01*
X007514Y007405D01*
X007602Y007369D01*
X007698Y007369D01*
X007786Y007405D01*
X007853Y007473D01*
X007890Y007561D01*
X007890Y007656D01*
X007853Y007744D01*
X007886Y007667D02*
X008340Y007667D01*
X008340Y007588D02*
X007890Y007588D01*
X007869Y007510D02*
X008340Y007510D01*
X008340Y007431D02*
X007812Y007431D01*
X007488Y007431D02*
X004890Y007431D01*
X004848Y007449D02*
X004752Y007449D01*
X004664Y007412D01*
X004597Y007344D01*
X004560Y007256D01*
X004560Y007161D01*
X004597Y007073D01*
X004664Y007005D01*
X004752Y006969D01*
X004848Y006969D01*
X004936Y007005D01*
X005003Y007073D01*
X005040Y007161D01*
X005040Y007256D01*
X005003Y007344D01*
X004936Y007412D01*
X004848Y007449D01*
X004710Y007431D02*
X004009Y007431D01*
X004003Y007444D02*
X003939Y007509D01*
X004003Y007573D01*
X004040Y007661D01*
X004040Y007756D01*
X004003Y007844D01*
X003936Y007912D01*
X003848Y007949D01*
X003752Y007949D01*
X003664Y007912D01*
X003597Y007844D01*
X003560Y007756D01*
X003560Y007661D01*
X003597Y007573D01*
X003661Y007509D01*
X003611Y007459D01*
X003412Y007459D01*
X002200Y008671D01*
X002200Y010221D01*
X001700Y010721D01*
X001612Y010809D01*
X001451Y010809D01*
X001419Y010885D01*
X004560Y010885D01*
X004560Y010861D02*
X004597Y010773D01*
X004664Y010705D01*
X004752Y010669D01*
X004848Y010669D01*
X004936Y010705D01*
X005003Y010773D01*
X005040Y010861D01*
X005040Y010956D01*
X005003Y011044D01*
X004936Y011112D01*
X004848Y011149D01*
X004752Y011149D01*
X004664Y011112D01*
X004597Y011044D01*
X004560Y010956D01*
X004560Y010861D01*
X004582Y010807D02*
X001614Y010807D01*
X001693Y010728D02*
X004641Y010728D01*
X004563Y010964D02*
X001341Y010964D01*
X001307Y010998D02*
X001419Y010885D01*
X001307Y010998D02*
X001160Y011059D01*
X001000Y011059D01*
X000853Y010998D01*
X000741Y010885D01*
X000490Y010885D01*
X000490Y010807D02*
X000708Y010807D01*
X000680Y010738D02*
X000680Y010579D01*
X000741Y010432D01*
X000853Y010319D01*
X001000Y010259D01*
X001160Y010259D01*
X001307Y010319D01*
X001419Y010432D01*
X001451Y010509D01*
X001488Y010509D01*
X001900Y010096D01*
X001900Y008546D01*
X001988Y008459D01*
X003288Y007159D01*
X003611Y007159D01*
X003664Y007105D01*
X003752Y007069D01*
X003848Y007069D01*
X003936Y007105D01*
X004003Y007173D01*
X004040Y007261D01*
X004040Y007356D01*
X004003Y007444D01*
X003940Y007510D02*
X007431Y007510D01*
X007410Y007588D02*
X004010Y007588D01*
X004040Y007667D02*
X007414Y007667D01*
X007447Y007745D02*
X004040Y007745D01*
X004012Y007824D02*
X007542Y007824D01*
X007758Y007824D02*
X008340Y007824D01*
X008340Y007902D02*
X003946Y007902D01*
X003886Y008005D02*
X003953Y008073D01*
X003990Y008161D01*
X003990Y008256D01*
X003953Y008344D01*
X003886Y008412D01*
X003798Y008449D01*
X003702Y008449D01*
X003614Y008412D01*
X003547Y008344D01*
X003510Y008256D01*
X003510Y008161D01*
X003547Y008073D01*
X003614Y008005D01*
X003702Y007969D01*
X003798Y007969D01*
X003886Y008005D01*
X003827Y007981D02*
X008340Y007981D01*
X008340Y008059D02*
X003940Y008059D01*
X003980Y008138D02*
X008340Y008138D01*
X008316Y008216D02*
X003990Y008216D01*
X003974Y008295D02*
X008238Y008295D01*
X008159Y008373D02*
X003925Y008373D01*
X003575Y008373D02*
X002498Y008373D01*
X002576Y008295D02*
X003526Y008295D01*
X003510Y008216D02*
X002655Y008216D01*
X002733Y008138D02*
X003520Y008138D01*
X003560Y008059D02*
X002812Y008059D01*
X002890Y007981D02*
X003673Y007981D01*
X003654Y007902D02*
X002969Y007902D01*
X003047Y007824D02*
X003588Y007824D01*
X003560Y007745D02*
X003126Y007745D01*
X003204Y007667D02*
X003560Y007667D01*
X003590Y007588D02*
X003283Y007588D01*
X003361Y007510D02*
X003660Y007510D01*
X004013Y007196D02*
X004560Y007196D01*
X004567Y007274D02*
X004040Y007274D01*
X004040Y007353D02*
X004605Y007353D01*
X004578Y007117D02*
X003948Y007117D01*
X003652Y007117D02*
X000490Y007117D01*
X000490Y007039D02*
X004631Y007039D01*
X004969Y007039D02*
X008340Y007039D01*
X008340Y007117D02*
X005022Y007117D01*
X005040Y007196D02*
X008340Y007196D01*
X008340Y007274D02*
X005033Y007274D01*
X004995Y007353D02*
X008340Y007353D01*
X008081Y008452D02*
X002419Y008452D01*
X002341Y008530D02*
X008002Y008530D01*
X007924Y008609D02*
X004889Y008609D01*
X004886Y008605D02*
X004953Y008673D01*
X004990Y008761D01*
X004990Y008856D01*
X004953Y008944D01*
X004886Y009012D01*
X004798Y009049D01*
X004702Y009049D01*
X004614Y009012D01*
X004547Y008944D01*
X004510Y008856D01*
X004510Y008761D01*
X004547Y008673D01*
X004614Y008605D01*
X004702Y008569D01*
X004798Y008569D01*
X004886Y008605D01*
X004959Y008687D02*
X007890Y008687D01*
X007890Y008766D02*
X004990Y008766D01*
X004990Y008844D02*
X005725Y008844D01*
X005697Y008873D02*
X005764Y008805D01*
X005852Y008769D01*
X005948Y008769D01*
X006036Y008805D01*
X006103Y008873D01*
X006140Y008961D01*
X006140Y009056D01*
X006103Y009144D01*
X006036Y009212D01*
X005948Y009249D01*
X005852Y009249D01*
X005764Y009212D01*
X005697Y009144D01*
X005660Y009056D01*
X005660Y008961D01*
X005697Y008873D01*
X005676Y008923D02*
X004963Y008923D01*
X004897Y009001D02*
X005660Y009001D01*
X005670Y009080D02*
X002200Y009080D01*
X002200Y009158D02*
X005710Y009158D01*
X005823Y009237D02*
X002200Y009237D01*
X002200Y009315D02*
X007890Y009315D01*
X007890Y009237D02*
X007027Y009237D01*
X006998Y009249D02*
X006902Y009249D01*
X006814Y009212D01*
X006747Y009144D01*
X006710Y009056D01*
X006710Y008961D01*
X006747Y008873D01*
X006814Y008805D01*
X006902Y008769D01*
X006998Y008769D01*
X007086Y008805D01*
X007153Y008873D01*
X007190Y008961D01*
X007190Y009056D01*
X007153Y009144D01*
X007086Y009212D01*
X006998Y009249D01*
X006873Y009237D02*
X005977Y009237D01*
X006090Y009158D02*
X006760Y009158D01*
X006720Y009080D02*
X006130Y009080D01*
X006140Y009001D02*
X006710Y009001D01*
X006726Y008923D02*
X006124Y008923D01*
X006075Y008844D02*
X006775Y008844D01*
X007125Y008844D02*
X007890Y008844D01*
X007890Y008923D02*
X007174Y008923D01*
X007190Y009001D02*
X007890Y009001D01*
X007890Y009080D02*
X007180Y009080D01*
X007140Y009158D02*
X007890Y009158D01*
X007890Y009394D02*
X002200Y009394D01*
X002200Y009472D02*
X007890Y009472D01*
X007890Y009551D02*
X002200Y009551D01*
X002200Y009629D02*
X007890Y009629D01*
X007890Y009708D02*
X002200Y009708D01*
X002200Y009786D02*
X007890Y009786D01*
X007890Y009865D02*
X002200Y009865D01*
X002200Y009943D02*
X007890Y009943D01*
X007890Y010022D02*
X002200Y010022D01*
X002200Y010100D02*
X003829Y010100D01*
X003844Y010085D02*
X003932Y010049D01*
X004028Y010049D01*
X004116Y010085D01*
X004183Y010153D01*
X004220Y010241D01*
X004220Y010336D01*
X004183Y010424D01*
X004116Y010492D01*
X004028Y010529D01*
X003932Y010529D01*
X003844Y010492D01*
X003777Y010424D01*
X003740Y010336D01*
X003740Y010241D01*
X003777Y010153D01*
X003844Y010085D01*
X003766Y010179D02*
X002200Y010179D01*
X002164Y010257D02*
X003740Y010257D01*
X003740Y010336D02*
X002085Y010336D01*
X002007Y010414D02*
X003772Y010414D01*
X003845Y010493D02*
X001928Y010493D01*
X001850Y010571D02*
X007890Y010571D01*
X007890Y010493D02*
X004115Y010493D01*
X004188Y010414D02*
X007890Y010414D01*
X007890Y010336D02*
X004220Y010336D01*
X004220Y010257D02*
X007890Y010257D01*
X007890Y010179D02*
X004194Y010179D01*
X004131Y010100D02*
X007890Y010100D01*
X008210Y010100D02*
X010400Y010100D01*
X010412Y010089D02*
X010337Y010014D01*
X010290Y009900D01*
X010290Y009777D01*
X010337Y009663D01*
X010424Y009576D01*
X010538Y009529D01*
X010662Y009529D01*
X010776Y009576D01*
X010850Y009650D01*
X010924Y009576D01*
X011038Y009529D01*
X011162Y009529D01*
X011276Y009576D01*
X011363Y009663D01*
X011410Y009777D01*
X011410Y009900D01*
X011363Y010014D01*
X011288Y010089D01*
X011363Y010163D01*
X011410Y010277D01*
X011410Y010400D01*
X011363Y010514D01*
X011301Y010576D01*
X011310Y010582D01*
X011356Y010628D01*
X011392Y010682D01*
X011417Y010742D01*
X011430Y010806D01*
X011430Y010814D01*
X011125Y010814D01*
X011125Y010864D01*
X011430Y010864D01*
X011430Y010871D01*
X011417Y010935D01*
X011392Y010995D01*
X011356Y011049D01*
X011310Y011095D01*
X011301Y011101D01*
X011363Y011163D01*
X011410Y011277D01*
X011410Y011400D01*
X011363Y011514D01*
X011276Y011601D01*
X011162Y011649D01*
X011038Y011649D01*
X010924Y011601D01*
X010850Y011527D01*
X010776Y011601D01*
X010662Y011649D01*
X010538Y011649D01*
X010424Y011601D01*
X010337Y011514D01*
X010290Y011400D01*
X010290Y011277D01*
X010337Y011163D01*
X010412Y011089D01*
X010337Y011014D01*
X010290Y010900D01*
X010290Y010777D01*
X010337Y010663D01*
X010412Y010589D01*
X010337Y010514D01*
X010290Y010400D01*
X010290Y010277D01*
X010337Y010163D01*
X010412Y010089D01*
X010345Y010022D02*
X008210Y010022D01*
X008210Y009943D02*
X010308Y009943D01*
X010290Y009865D02*
X008210Y009865D01*
X008210Y009786D02*
X010290Y009786D01*
X010319Y009708D02*
X008210Y009708D01*
X008210Y009629D02*
X010371Y009629D01*
X010485Y009551D02*
X008210Y009551D01*
X008210Y009472D02*
X012021Y009472D01*
X012021Y009394D02*
X008210Y009394D01*
X008210Y009315D02*
X012021Y009315D01*
X012021Y009237D02*
X008210Y009237D01*
X008210Y009158D02*
X012021Y009158D01*
X012021Y009080D02*
X008210Y009080D01*
X008210Y009001D02*
X009653Y009001D01*
X009664Y009012D02*
X009597Y008944D01*
X009560Y008856D01*
X009560Y008761D01*
X009597Y008673D01*
X009664Y008605D01*
X009752Y008569D01*
X009848Y008569D01*
X009936Y008605D01*
X010003Y008673D01*
X010040Y008761D01*
X010040Y008856D01*
X010003Y008944D01*
X009936Y009012D01*
X009848Y009049D01*
X009752Y009049D01*
X009664Y009012D01*
X009587Y008923D02*
X008210Y008923D01*
X008210Y008844D02*
X009560Y008844D01*
X009560Y008766D02*
X008219Y008766D01*
X008298Y008687D02*
X009591Y008687D01*
X009661Y008609D02*
X008376Y008609D01*
X009939Y008609D02*
X012021Y008609D01*
X012021Y008687D02*
X010009Y008687D01*
X010040Y008766D02*
X012021Y008766D01*
X012021Y008844D02*
X010040Y008844D01*
X010013Y008923D02*
X012021Y008923D01*
X012021Y009001D02*
X009947Y009001D01*
X010715Y009551D02*
X010985Y009551D01*
X010871Y009629D02*
X010829Y009629D01*
X011215Y009551D02*
X012021Y009551D01*
X012021Y009629D02*
X011329Y009629D01*
X011381Y009708D02*
X012021Y009708D01*
X012021Y009786D02*
X011410Y009786D01*
X011410Y009865D02*
X012021Y009865D01*
X012021Y009943D02*
X011392Y009943D01*
X011355Y010022D02*
X012021Y010022D01*
X012021Y010100D02*
X011300Y010100D01*
X011369Y010179D02*
X012021Y010179D01*
X012021Y010257D02*
X011402Y010257D01*
X011410Y010336D02*
X012021Y010336D01*
X012021Y010414D02*
X011404Y010414D01*
X011372Y010493D02*
X012021Y010493D01*
X012021Y010571D02*
X011306Y010571D01*
X011371Y010650D02*
X012021Y010650D01*
X012021Y010728D02*
X011411Y010728D01*
X011430Y010807D02*
X012021Y010807D01*
X012021Y010885D02*
X011427Y010885D01*
X011405Y010964D02*
X012021Y010964D01*
X012021Y011042D02*
X011361Y011042D01*
X011320Y011121D02*
X012021Y011121D01*
X012021Y011199D02*
X011378Y011199D01*
X011410Y011278D02*
X012021Y011278D01*
X012021Y011356D02*
X011410Y011356D01*
X011396Y011435D02*
X012021Y011435D01*
X012021Y011513D02*
X011363Y011513D01*
X011285Y011592D02*
X012021Y011592D01*
X012021Y011670D02*
X008210Y011670D01*
X008210Y011592D02*
X010415Y011592D01*
X010337Y011513D02*
X008210Y011513D01*
X008210Y011435D02*
X010304Y011435D01*
X010290Y011356D02*
X008210Y011356D01*
X008210Y011278D02*
X010290Y011278D01*
X010322Y011199D02*
X008210Y011199D01*
X008210Y011121D02*
X008623Y011121D01*
X008597Y011094D02*
X008560Y011006D01*
X008560Y010911D01*
X008597Y010823D01*
X008664Y010755D01*
X008752Y010719D01*
X008848Y010719D01*
X008936Y010755D01*
X009003Y010823D01*
X009040Y010911D01*
X009040Y011006D01*
X009003Y011094D01*
X008936Y011162D01*
X008848Y011199D01*
X008752Y011199D01*
X008664Y011162D01*
X008597Y011094D01*
X008575Y011042D02*
X008210Y011042D01*
X008210Y010964D02*
X008560Y010964D01*
X008571Y010885D02*
X008210Y010885D01*
X008210Y010807D02*
X008613Y010807D01*
X008729Y010728D02*
X008210Y010728D01*
X008210Y010650D02*
X010351Y010650D01*
X010310Y010728D02*
X008871Y010728D01*
X008987Y010807D02*
X010290Y010807D01*
X010290Y010885D02*
X009029Y010885D01*
X009040Y010964D02*
X010316Y010964D01*
X010365Y011042D02*
X009025Y011042D01*
X008977Y011121D02*
X010380Y011121D01*
X010394Y010571D02*
X008210Y010571D01*
X008210Y010493D02*
X010328Y010493D01*
X010296Y010414D02*
X008210Y010414D01*
X008210Y010336D02*
X010290Y010336D01*
X010298Y010257D02*
X008210Y010257D01*
X008210Y010179D02*
X010331Y010179D01*
X010785Y011592D02*
X010915Y011592D01*
X010679Y012569D02*
X010521Y012569D01*
X010376Y012629D01*
X010265Y012740D01*
X010205Y012885D01*
X010205Y013043D01*
X010265Y013188D01*
X010376Y013299D01*
X010521Y013359D01*
X010679Y013359D01*
X010824Y013299D01*
X010935Y013188D01*
X010995Y013043D01*
X010995Y012885D01*
X010935Y012740D01*
X010824Y012629D01*
X010679Y012569D01*
X010783Y012612D02*
X011417Y012612D01*
X011376Y012629D02*
X011521Y012569D01*
X011679Y012569D01*
X011824Y012629D01*
X011935Y012740D01*
X011995Y012885D01*
X011995Y013043D01*
X011935Y013188D01*
X011824Y013299D01*
X011679Y013359D01*
X011521Y013359D01*
X011376Y013299D01*
X011265Y013188D01*
X011205Y013043D01*
X011205Y012885D01*
X011265Y012740D01*
X011376Y012629D01*
X011314Y012691D02*
X010886Y012691D01*
X010947Y012769D02*
X011253Y012769D01*
X011220Y012848D02*
X010980Y012848D01*
X010995Y012926D02*
X011205Y012926D01*
X011205Y013005D02*
X010995Y013005D01*
X010979Y013083D02*
X011221Y013083D01*
X011254Y013162D02*
X010946Y013162D01*
X010883Y013240D02*
X011317Y013240D01*
X011423Y013319D02*
X010777Y013319D01*
X010423Y013319D02*
X008210Y013319D01*
X008210Y013397D02*
X012021Y013397D01*
X012021Y013319D02*
X011777Y013319D01*
X011883Y013240D02*
X012021Y013240D01*
X012021Y013162D02*
X011946Y013162D01*
X011979Y013083D02*
X012021Y013083D01*
X012021Y013005D02*
X011995Y013005D01*
X011995Y012926D02*
X012021Y012926D01*
X012021Y012848D02*
X011980Y012848D01*
X011947Y012769D02*
X012021Y012769D01*
X012021Y012691D02*
X011886Y012691D01*
X011783Y012612D02*
X012021Y012612D01*
X012021Y012534D02*
X008210Y012534D01*
X008210Y012612D02*
X010417Y012612D01*
X010314Y012691D02*
X008210Y012691D01*
X008210Y012769D02*
X010253Y012769D01*
X010220Y012848D02*
X008210Y012848D01*
X008210Y012926D02*
X010205Y012926D01*
X010205Y013005D02*
X008210Y013005D01*
X008210Y013083D02*
X010221Y013083D01*
X010254Y013162D02*
X008210Y013162D01*
X008210Y013240D02*
X010317Y013240D01*
X012021Y013476D02*
X008209Y013476D01*
X008131Y013554D02*
X012021Y013554D01*
X012021Y013633D02*
X008052Y013633D01*
X007974Y013711D02*
X012021Y013711D01*
X012021Y013790D02*
X007895Y013790D01*
X007817Y013868D02*
X012021Y013868D01*
X012021Y013947D02*
X007738Y013947D01*
X007660Y014025D02*
X012021Y014025D01*
X012021Y014104D02*
X007581Y014104D01*
X007503Y014182D02*
X012021Y014182D01*
X012021Y014261D02*
X007424Y014261D01*
X007346Y014339D02*
X012021Y014339D01*
X012021Y014418D02*
X007267Y014418D01*
X007189Y014496D02*
X012021Y014496D01*
X012021Y014575D02*
X007110Y014575D01*
X007032Y014653D02*
X012021Y014653D01*
X012021Y014732D02*
X006953Y014732D01*
X006910Y014810D02*
X012021Y014810D01*
X012021Y014889D02*
X006910Y014889D01*
X006910Y014967D02*
X012021Y014967D01*
X012021Y015046D02*
X006910Y015046D01*
X006910Y015124D02*
X012021Y015124D01*
X012021Y015203D02*
X006910Y015203D01*
X006910Y015281D02*
X012021Y015281D01*
X012021Y015360D02*
X006910Y015360D01*
X006910Y015438D02*
X012021Y015438D01*
X012021Y015517D02*
X006910Y015517D01*
X006910Y015595D02*
X012021Y015595D01*
X012021Y015674D02*
X006910Y015674D01*
X006910Y015752D02*
X012021Y015752D01*
X012021Y015831D02*
X006910Y015831D01*
X006910Y015909D02*
X012021Y015909D01*
X012021Y015988D02*
X006910Y015988D01*
X006910Y016066D02*
X012021Y016066D01*
X012021Y016145D02*
X006910Y016145D01*
X006910Y016223D02*
X012021Y016223D01*
X012021Y016302D02*
X006910Y016302D01*
X006910Y016380D02*
X012021Y016380D01*
X012021Y016459D02*
X006910Y016459D01*
X006910Y016537D02*
X011298Y016537D01*
X011352Y016515D02*
X011548Y016515D01*
X011730Y016590D01*
X011869Y016729D01*
X011944Y016910D01*
X011944Y017107D01*
X011869Y017288D01*
X011730Y017427D01*
X011548Y017502D01*
X011352Y017502D01*
X011170Y017427D01*
X011031Y017288D01*
X010956Y017107D01*
X010956Y016910D01*
X011031Y016729D01*
X011170Y016590D01*
X011352Y016515D01*
X011145Y016616D02*
X006910Y016616D01*
X006910Y016694D02*
X011066Y016694D01*
X011013Y016773D02*
X006910Y016773D01*
X006910Y016851D02*
X010981Y016851D01*
X010956Y016930D02*
X006910Y016930D01*
X006910Y017008D02*
X010956Y017008D01*
X010956Y017087D02*
X006910Y017087D01*
X006910Y017165D02*
X010980Y017165D01*
X011013Y017244D02*
X006910Y017244D01*
X006910Y017322D02*
X011065Y017322D01*
X011144Y017401D02*
X006910Y017401D01*
X006910Y017479D02*
X011296Y017479D01*
X011604Y017479D02*
X012021Y017479D01*
X012021Y017401D02*
X011756Y017401D01*
X011835Y017322D02*
X012021Y017322D01*
X012021Y017244D02*
X011887Y017244D01*
X011920Y017165D02*
X012021Y017165D01*
X012021Y017087D02*
X011944Y017087D01*
X011944Y017008D02*
X012021Y017008D01*
X012021Y016930D02*
X011944Y016930D01*
X011919Y016851D02*
X012021Y016851D01*
X012021Y016773D02*
X011887Y016773D01*
X011834Y016694D02*
X012021Y016694D01*
X012021Y016616D02*
X011755Y016616D01*
X011602Y016537D02*
X012021Y016537D01*
X012021Y017558D02*
X006910Y017558D01*
X006910Y017636D02*
X012021Y017636D01*
X012021Y017715D02*
X006910Y017715D01*
X006910Y017793D02*
X012021Y017793D01*
X012021Y017872D02*
X006910Y017872D01*
X006910Y017950D02*
X012021Y017950D01*
X012021Y018029D02*
X006910Y018029D01*
X006910Y018107D02*
X012021Y018107D01*
X012021Y018186D02*
X006910Y018186D01*
X006910Y018264D02*
X012021Y018264D01*
X012021Y018343D02*
X006910Y018343D01*
X006910Y018421D02*
X012021Y018421D01*
X012021Y018500D02*
X006910Y018500D01*
X006910Y018578D02*
X012021Y018578D01*
X012021Y018657D02*
X006910Y018657D01*
X006850Y018735D02*
X012021Y018735D01*
X012021Y018814D02*
X006771Y018814D01*
X006693Y018892D02*
X011377Y018892D01*
X011384Y018885D02*
X011472Y018849D01*
X011568Y018849D01*
X011656Y018885D01*
X011723Y018953D01*
X011760Y019041D01*
X011760Y019120D01*
X011796Y019135D01*
X011863Y019203D01*
X011900Y019291D01*
X011900Y019386D01*
X011863Y019474D01*
X011796Y019542D01*
X011708Y019579D01*
X011612Y019579D01*
X011524Y019542D01*
X011520Y019538D01*
X011516Y019542D01*
X011428Y019579D01*
X011332Y019579D01*
X011244Y019542D01*
X011177Y019474D01*
X011140Y019386D01*
X011140Y019291D01*
X011177Y019203D01*
X011244Y019135D01*
X011280Y019120D01*
X011280Y019041D01*
X011317Y018953D01*
X011384Y018885D01*
X011309Y018971D02*
X006614Y018971D01*
X006536Y019049D02*
X011280Y019049D01*
X011262Y019128D02*
X006457Y019128D01*
X006379Y019206D02*
X011175Y019206D01*
X011143Y019285D02*
X006300Y019285D01*
X006222Y019363D02*
X011140Y019363D01*
X011163Y019442D02*
X006143Y019442D01*
X006065Y019520D02*
X011222Y019520D01*
X011818Y019520D02*
X012021Y019520D01*
X012021Y019442D02*
X011877Y019442D01*
X011900Y019363D02*
X012021Y019363D01*
X012021Y019285D02*
X011897Y019285D01*
X011865Y019206D02*
X012021Y019206D01*
X012021Y019128D02*
X011778Y019128D01*
X011760Y019049D02*
X012021Y019049D01*
X012021Y018971D02*
X011731Y018971D01*
X011663Y018892D02*
X012021Y018892D01*
X012021Y019599D02*
X005986Y019599D01*
X005908Y019677D02*
X012021Y019677D01*
X012021Y019756D02*
X005829Y019756D01*
X005751Y019834D02*
X012021Y019834D01*
X012021Y019913D02*
X005672Y019913D01*
X005594Y019991D02*
X007398Y019991D01*
X007364Y020005D02*
X007452Y019969D01*
X007548Y019969D01*
X007636Y020005D01*
X007703Y020073D01*
X007740Y020161D01*
X007740Y020256D01*
X007703Y020344D01*
X007636Y020412D01*
X007548Y020449D01*
X007452Y020449D01*
X007364Y020412D01*
X007297Y020344D01*
X007260Y020256D01*
X007260Y020161D01*
X007297Y020073D01*
X007364Y020005D01*
X007300Y020070D02*
X005515Y020070D01*
X005437Y020148D02*
X007265Y020148D01*
X007260Y020227D02*
X005358Y020227D01*
X005280Y020305D02*
X007280Y020305D01*
X007336Y020384D02*
X005201Y020384D01*
X005123Y020462D02*
X012021Y020462D01*
X012021Y020384D02*
X007664Y020384D01*
X007720Y020305D02*
X012021Y020305D01*
X012021Y020227D02*
X007740Y020227D01*
X007735Y020148D02*
X012021Y020148D01*
X012021Y020070D02*
X007700Y020070D01*
X007602Y019991D02*
X012021Y019991D01*
X012021Y020541D02*
X005044Y020541D01*
X004966Y020619D02*
X012021Y020619D01*
X012021Y020698D02*
X004887Y020698D01*
X004809Y020776D02*
X009153Y020776D01*
X009191Y020760D02*
X009309Y020760D01*
X009419Y020806D01*
X009503Y020890D01*
X009548Y020999D01*
X009548Y021118D01*
X009503Y021227D01*
X009419Y021311D01*
X009309Y021357D01*
X009191Y021357D01*
X009081Y021311D01*
X008997Y021227D01*
X008952Y021118D01*
X008952Y020999D01*
X008997Y020890D01*
X009081Y020806D01*
X009191Y020760D01*
X009347Y020776D02*
X012021Y020776D01*
X012021Y020855D02*
X009468Y020855D01*
X009521Y020933D02*
X012021Y020933D01*
X012021Y021012D02*
X009548Y021012D01*
X009548Y021090D02*
X010050Y021090D01*
X010014Y021105D02*
X010102Y021069D01*
X010198Y021069D01*
X010286Y021105D01*
X010353Y021173D01*
X010390Y021261D01*
X010390Y021356D01*
X010353Y021444D01*
X010286Y021512D01*
X010198Y021549D01*
X010102Y021549D01*
X010014Y021512D01*
X009947Y021444D01*
X009910Y021356D01*
X009910Y021261D01*
X009947Y021173D01*
X010014Y021105D01*
X009951Y021169D02*
X009527Y021169D01*
X009483Y021247D02*
X009916Y021247D01*
X009910Y021326D02*
X009384Y021326D01*
X009116Y021326D02*
X007121Y021326D01*
X007121Y021302D02*
X007066Y021167D01*
X006963Y021065D01*
X006828Y021009D01*
X006683Y021009D01*
X006548Y021065D01*
X006445Y021167D01*
X006390Y021302D01*
X006390Y021447D01*
X006445Y021582D01*
X006548Y021685D01*
X006683Y021740D01*
X006828Y021740D01*
X006963Y021685D01*
X007066Y021582D01*
X007121Y021447D01*
X007121Y021302D01*
X007099Y021247D02*
X009017Y021247D01*
X008973Y021169D02*
X007066Y021169D01*
X006988Y021090D02*
X008952Y021090D01*
X008952Y021012D02*
X006835Y021012D01*
X006676Y021012D02*
X005835Y021012D01*
X005828Y021009D02*
X005963Y021065D01*
X006066Y021167D01*
X006121Y021302D01*
X006121Y021447D01*
X006066Y021582D01*
X005963Y021685D01*
X005828Y021740D01*
X005683Y021740D01*
X005548Y021685D01*
X005445Y021582D01*
X005390Y021447D01*
X005390Y021302D01*
X005445Y021167D01*
X005548Y021065D01*
X005683Y021009D01*
X005828Y021009D01*
X005676Y021012D02*
X004573Y021012D01*
X004495Y021090D02*
X005523Y021090D01*
X005445Y021169D02*
X004416Y021169D01*
X004338Y021247D02*
X005412Y021247D01*
X005390Y021326D02*
X004259Y021326D01*
X004181Y021404D02*
X005390Y021404D01*
X005404Y021483D02*
X004102Y021483D01*
X004024Y021561D02*
X005437Y021561D01*
X005503Y021640D02*
X003945Y021640D01*
X003867Y021718D02*
X005629Y021718D01*
X005882Y021718D02*
X006629Y021718D01*
X006503Y021640D02*
X006008Y021640D01*
X006074Y021561D02*
X006437Y021561D01*
X006404Y021483D02*
X006107Y021483D01*
X006121Y021404D02*
X006390Y021404D01*
X006390Y021326D02*
X006121Y021326D01*
X006099Y021247D02*
X006412Y021247D01*
X006445Y021169D02*
X006066Y021169D01*
X005988Y021090D02*
X006523Y021090D01*
X007107Y021483D02*
X009985Y021483D01*
X009930Y021404D02*
X007121Y021404D01*
X007074Y021561D02*
X012021Y021561D01*
X012021Y021483D02*
X010315Y021483D01*
X010370Y021404D02*
X012021Y021404D01*
X012021Y021326D02*
X010390Y021326D01*
X010384Y021247D02*
X012021Y021247D01*
X012021Y021169D02*
X010349Y021169D01*
X010250Y021090D02*
X012021Y021090D01*
X012021Y021640D02*
X007008Y021640D01*
X006882Y021718D02*
X012021Y021718D01*
X012021Y021797D02*
X003788Y021797D01*
X003710Y021875D02*
X012021Y021875D01*
X012021Y021954D02*
X003631Y021954D01*
X003553Y022032D02*
X012021Y022032D01*
X012021Y022111D02*
X003474Y022111D01*
X003396Y022189D02*
X012021Y022189D01*
X012021Y022268D02*
X003348Y022268D01*
X003384Y022346D02*
X012021Y022346D01*
X012021Y022425D02*
X003390Y022425D01*
X003371Y022503D02*
X012021Y022503D01*
X012021Y022582D02*
X003316Y022582D01*
X002984Y022582D02*
X000490Y022582D01*
X000490Y022660D02*
X011624Y022660D01*
X011652Y022649D02*
X011748Y022649D01*
X011836Y022685D01*
X011903Y022753D01*
X011940Y022841D01*
X011940Y022936D01*
X011903Y023024D01*
X011836Y023092D01*
X011748Y023129D01*
X011652Y023129D01*
X011564Y023092D01*
X011497Y023024D01*
X011460Y022936D01*
X011460Y022841D01*
X011497Y022753D01*
X011564Y022685D01*
X011652Y022649D01*
X011776Y022660D02*
X012021Y022660D01*
X012021Y022739D02*
X011889Y022739D01*
X011930Y022817D02*
X012021Y022817D01*
X012021Y022896D02*
X011940Y022896D01*
X011924Y022974D02*
X012021Y022974D01*
X012021Y023053D02*
X011875Y023053D01*
X012021Y023131D02*
X008528Y023131D01*
X008498Y023119D02*
X008586Y023155D01*
X008653Y023223D01*
X008690Y023311D01*
X008690Y023406D01*
X008653Y023494D01*
X008586Y023562D01*
X008498Y023599D01*
X008402Y023599D01*
X008314Y023562D01*
X008247Y023494D01*
X008210Y023406D01*
X008210Y023311D01*
X008247Y023223D01*
X008314Y023155D01*
X008402Y023119D01*
X008498Y023119D01*
X008372Y023131D02*
X001090Y023131D01*
X001048Y023149D02*
X000952Y023149D01*
X000864Y023112D01*
X000797Y023044D01*
X000760Y022956D01*
X000760Y022861D01*
X000797Y022773D01*
X000864Y022705D01*
X000952Y022669D01*
X001048Y022669D01*
X001136Y022705D01*
X001203Y022773D01*
X001240Y022861D01*
X001240Y022956D01*
X001203Y023044D01*
X001136Y023112D01*
X001048Y023149D01*
X000910Y023131D02*
X000490Y023131D01*
X000490Y023053D02*
X000805Y023053D01*
X000767Y022974D02*
X000490Y022974D01*
X000490Y022896D02*
X000760Y022896D01*
X000778Y022817D02*
X000490Y022817D01*
X000490Y022739D02*
X000831Y022739D01*
X001169Y022739D02*
X011511Y022739D01*
X011470Y022817D02*
X001222Y022817D01*
X001240Y022896D02*
X011460Y022896D01*
X011476Y022974D02*
X001233Y022974D01*
X001195Y023053D02*
X011525Y023053D01*
X012021Y023210D02*
X008640Y023210D01*
X008681Y023288D02*
X012021Y023288D01*
X012021Y023367D02*
X008690Y023367D01*
X008674Y023445D02*
X012021Y023445D01*
X012021Y023524D02*
X008624Y023524D01*
X008276Y023524D02*
X004712Y023524D01*
X004703Y023544D02*
X004636Y023612D01*
X004548Y023649D01*
X004452Y023649D01*
X004364Y023612D01*
X004297Y023544D01*
X004260Y023456D01*
X004260Y023361D01*
X004297Y023273D01*
X004364Y023205D01*
X004452Y023169D01*
X004548Y023169D01*
X004636Y023205D01*
X004703Y023273D01*
X004740Y023361D01*
X004740Y023456D01*
X004703Y023544D01*
X004646Y023602D02*
X012021Y023602D01*
X012021Y023681D02*
X007277Y023681D01*
X007248Y023669D02*
X007336Y023705D01*
X007403Y023773D01*
X007440Y023861D01*
X007440Y023956D01*
X007424Y023995D01*
X007464Y023955D01*
X007552Y023919D01*
X007648Y023919D01*
X007736Y023955D01*
X007803Y024023D01*
X007840Y024111D01*
X007840Y024206D01*
X007803Y024294D01*
X007736Y024362D01*
X007648Y024399D01*
X007552Y024399D01*
X007496Y024375D01*
X007517Y024426D01*
X007517Y024548D01*
X007470Y024661D01*
X007384Y024747D01*
X007271Y024794D01*
X007149Y024794D01*
X007037Y024747D01*
X006950Y024661D01*
X006904Y024548D01*
X006904Y024426D01*
X006950Y024313D01*
X007037Y024227D01*
X007149Y024180D01*
X007271Y024180D01*
X007365Y024219D01*
X007360Y024206D01*
X007360Y024111D01*
X007376Y024072D01*
X007336Y024112D01*
X007248Y024149D01*
X007152Y024149D01*
X007064Y024112D01*
X006997Y024044D01*
X006960Y023956D01*
X006960Y023861D01*
X006997Y023773D01*
X007064Y023705D01*
X007152Y023669D01*
X007248Y023669D01*
X007123Y023681D02*
X000490Y023681D01*
X000490Y023759D02*
X007010Y023759D01*
X006970Y023838D02*
X000490Y023838D01*
X000490Y023916D02*
X006960Y023916D01*
X006976Y023995D02*
X000490Y023995D01*
X000490Y024073D02*
X007025Y024073D01*
X007033Y024230D02*
X005478Y024230D01*
X005475Y024227D02*
X005561Y024313D01*
X005607Y024426D01*
X005607Y024548D01*
X005561Y024661D01*
X005475Y024747D01*
X005362Y024794D01*
X005240Y024794D01*
X005127Y024747D01*
X005041Y024661D01*
X004994Y024548D01*
X004994Y024426D01*
X005041Y024313D01*
X005127Y024227D01*
X005240Y024180D01*
X005362Y024180D01*
X005475Y024227D01*
X005556Y024309D02*
X006955Y024309D01*
X006920Y024387D02*
X005591Y024387D01*
X005607Y024466D02*
X006904Y024466D01*
X006904Y024544D02*
X005607Y024544D01*
X005577Y024623D02*
X006934Y024623D01*
X006991Y024701D02*
X005520Y024701D01*
X005396Y024780D02*
X007116Y024780D01*
X007305Y024780D02*
X012021Y024780D01*
X012021Y024858D02*
X000490Y024858D01*
X000490Y024780D02*
X001232Y024780D01*
X001264Y024812D02*
X001197Y024744D01*
X001160Y024656D01*
X001160Y024561D01*
X001197Y024473D01*
X001264Y024405D01*
X001352Y024369D01*
X001448Y024369D01*
X001536Y024405D01*
X001603Y024473D01*
X001640Y024561D01*
X001640Y024656D01*
X001603Y024744D01*
X001536Y024812D01*
X001448Y024849D01*
X001352Y024849D01*
X001264Y024812D01*
X001264Y024905D02*
X001352Y024869D01*
X001448Y024869D01*
X001536Y024905D01*
X001603Y024973D01*
X001640Y025061D01*
X001640Y025156D01*
X001603Y025244D01*
X001536Y025312D01*
X001448Y025349D01*
X001352Y025349D01*
X001264Y025312D01*
X001197Y025244D01*
X001160Y025156D01*
X001160Y025061D01*
X001197Y024973D01*
X001264Y024905D01*
X001233Y024937D02*
X000490Y024937D01*
X000490Y025015D02*
X001179Y025015D01*
X001160Y025094D02*
X000490Y025094D01*
X000490Y025172D02*
X001167Y025172D01*
X001203Y025251D02*
X000490Y025251D01*
X000490Y025329D02*
X001305Y025329D01*
X001495Y025329D02*
X004891Y025329D01*
X004812Y025408D02*
X000490Y025408D01*
X000490Y025486D02*
X004771Y025486D01*
X004739Y025565D02*
X000490Y025565D01*
X000490Y025643D02*
X004728Y025643D01*
X004728Y025722D02*
X000490Y025722D01*
X000490Y025800D02*
X004476Y025800D01*
X004394Y025879D02*
X002159Y025879D01*
X002218Y025957D02*
X004362Y025957D01*
X004360Y026036D02*
X002240Y026036D01*
X002237Y026114D02*
X004384Y026114D01*
X004445Y026193D02*
X002204Y026193D01*
X001796Y026193D02*
X000490Y026193D01*
X000490Y026114D02*
X001763Y026114D01*
X001760Y026036D02*
X000490Y026036D01*
X000490Y025957D02*
X001782Y025957D01*
X001841Y025879D02*
X000490Y025879D01*
X000490Y024701D02*
X001179Y024701D01*
X001160Y024623D02*
X000490Y024623D01*
X000490Y024544D02*
X001167Y024544D01*
X001204Y024466D02*
X000490Y024466D01*
X000490Y024387D02*
X001307Y024387D01*
X001493Y024387D02*
X005010Y024387D01*
X004994Y024466D02*
X001596Y024466D01*
X001633Y024544D02*
X004994Y024544D01*
X005025Y024623D02*
X001640Y024623D01*
X001621Y024701D02*
X005081Y024701D01*
X005206Y024780D02*
X001568Y024780D01*
X001567Y024937D02*
X005983Y024937D01*
X005994Y024925D02*
X006082Y024889D01*
X006178Y024889D01*
X006266Y024925D01*
X006333Y024993D01*
X006370Y025081D01*
X006370Y025176D01*
X006333Y025264D01*
X006266Y025332D01*
X006178Y025369D01*
X006082Y025369D01*
X005994Y025332D01*
X005927Y025264D01*
X005890Y025176D01*
X005890Y025081D01*
X005927Y024993D01*
X005994Y024925D01*
X005917Y025015D02*
X001621Y025015D01*
X001640Y025094D02*
X005890Y025094D01*
X005890Y025172D02*
X005530Y025172D01*
X005532Y025170D02*
X005524Y025178D01*
X005524Y025179D01*
X005523Y025179D01*
X005518Y025188D01*
X005512Y025189D01*
X005508Y025193D01*
X005499Y025193D01*
X005494Y025196D01*
X005490Y025195D01*
X005486Y025196D01*
X005481Y025193D01*
X005471Y025193D01*
X005467Y025189D01*
X005462Y025188D01*
X005457Y025179D01*
X005456Y025179D01*
X005456Y025178D01*
X005448Y025170D01*
X005448Y025164D01*
X005445Y025159D01*
X005448Y025148D01*
X005448Y025148D01*
X005448Y025147D01*
X005448Y025146D01*
X005448Y025137D01*
X005452Y025133D01*
X005453Y025127D01*
X005462Y025122D01*
X005464Y025118D01*
X005467Y025117D01*
X005471Y025113D01*
X005472Y025113D01*
X005472Y025113D01*
X005478Y025113D01*
X005483Y025110D01*
X005490Y025111D01*
X005496Y025110D01*
X005501Y025113D01*
X005507Y025113D01*
X005508Y025113D01*
X005508Y025113D01*
X005512Y025117D01*
X005515Y025118D01*
X005518Y025122D01*
X005526Y025127D01*
X005528Y025133D01*
X005532Y025137D01*
X005532Y025146D01*
X005532Y025147D01*
X005532Y025148D01*
X005535Y025159D01*
X005532Y025164D01*
X005532Y025170D01*
X005532Y025148D02*
X005532Y025148D01*
X005450Y025172D02*
X001633Y025172D01*
X001597Y025251D02*
X005032Y025251D01*
X005334Y025251D02*
X005921Y025251D01*
X005991Y025329D02*
X005475Y025329D01*
X005553Y025408D02*
X006958Y025408D01*
X006943Y025422D02*
X007071Y025295D01*
X007238Y025225D01*
X007419Y025225D01*
X007586Y025295D01*
X007714Y025422D01*
X007783Y025589D01*
X007783Y025770D01*
X007714Y025937D01*
X007586Y026065D01*
X007419Y026134D01*
X007238Y026134D01*
X007071Y026065D01*
X006943Y025937D01*
X006874Y025770D01*
X006874Y025589D01*
X006943Y025422D01*
X006917Y025486D02*
X005594Y025486D01*
X005627Y025565D02*
X006884Y025565D01*
X006874Y025643D02*
X005637Y025643D01*
X005637Y025722D02*
X006874Y025722D01*
X006886Y025800D02*
X005625Y025800D01*
X005592Y025879D02*
X006919Y025879D01*
X006963Y025957D02*
X005548Y025957D01*
X005469Y026036D02*
X007042Y026036D01*
X007190Y026114D02*
X005321Y026114D01*
X005044Y026114D02*
X004816Y026114D01*
X004840Y026036D02*
X004896Y026036D01*
X004755Y026193D02*
X012021Y026193D01*
X012021Y026114D02*
X007467Y026114D01*
X007615Y026036D02*
X012021Y026036D01*
X012021Y025957D02*
X007694Y025957D01*
X007738Y025879D02*
X012021Y025879D01*
X012021Y025800D02*
X007770Y025800D01*
X007783Y025722D02*
X012021Y025722D01*
X012021Y025643D02*
X007783Y025643D01*
X007772Y025565D02*
X012021Y025565D01*
X012021Y025486D02*
X007740Y025486D01*
X007699Y025408D02*
X012021Y025408D01*
X012021Y025329D02*
X007620Y025329D01*
X007479Y025251D02*
X012021Y025251D01*
X012021Y025172D02*
X007065Y025172D01*
X007067Y025170D02*
X007059Y025178D01*
X007059Y025179D01*
X007058Y025179D01*
X007053Y025188D01*
X007048Y025189D01*
X007044Y025193D01*
X007034Y025193D01*
X007029Y025196D01*
X007025Y025195D01*
X007021Y025196D01*
X007016Y025193D01*
X007007Y025193D01*
X007003Y025189D01*
X006997Y025188D01*
X006992Y025179D01*
X006991Y025179D01*
X006991Y025178D01*
X006983Y025170D01*
X006983Y025164D01*
X006980Y025159D01*
X006983Y025148D01*
X006983Y025148D01*
X006983Y025147D01*
X006983Y025146D01*
X006983Y025137D01*
X006987Y025133D01*
X006989Y025127D01*
X006997Y025122D01*
X007000Y025118D01*
X007003Y025117D01*
X007007Y025113D01*
X007008Y025113D01*
X007014Y025113D01*
X007019Y025110D01*
X007025Y025111D01*
X007032Y025110D01*
X007037Y025113D01*
X007042Y025113D01*
X007043Y025113D01*
X007044Y025113D01*
X007048Y025117D01*
X007051Y025118D01*
X007053Y025122D01*
X007062Y025127D01*
X007063Y025133D01*
X007067Y025137D01*
X007067Y025146D01*
X007067Y025147D01*
X007067Y025148D01*
X007070Y025159D01*
X007067Y025164D01*
X007067Y025170D01*
X007067Y025148D02*
X007067Y025148D01*
X007007Y025113D02*
X007007Y025113D01*
X006985Y025172D02*
X006860Y025172D01*
X006860Y025176D02*
X006823Y025264D01*
X006756Y025332D01*
X006668Y025369D01*
X006572Y025369D01*
X006484Y025332D01*
X006417Y025264D01*
X006380Y025176D01*
X006380Y025081D01*
X006417Y024993D01*
X006484Y024925D01*
X006572Y024889D01*
X006668Y024889D01*
X006756Y024925D01*
X006823Y024993D01*
X006860Y025081D01*
X006860Y025176D01*
X006829Y025251D02*
X007177Y025251D01*
X007037Y025329D02*
X006759Y025329D01*
X006860Y025094D02*
X012021Y025094D01*
X012021Y025015D02*
X006833Y025015D01*
X006767Y024937D02*
X012021Y024937D01*
X012021Y024701D02*
X007430Y024701D01*
X007486Y024623D02*
X008761Y024623D01*
X008788Y024650D02*
X008699Y024561D01*
X008650Y024444D01*
X008650Y024317D01*
X008699Y024201D01*
X008788Y024111D01*
X008905Y024063D01*
X009031Y024063D01*
X009148Y024111D01*
X009238Y024201D01*
X009286Y024317D01*
X009286Y024444D01*
X009238Y024561D01*
X009148Y024650D01*
X009031Y024698D01*
X008905Y024698D01*
X008788Y024650D01*
X008692Y024544D02*
X007517Y024544D01*
X007517Y024466D02*
X008659Y024466D01*
X008650Y024387D02*
X007675Y024387D01*
X007789Y024309D02*
X008654Y024309D01*
X008686Y024230D02*
X007830Y024230D01*
X007840Y024152D02*
X008748Y024152D01*
X008880Y024073D02*
X007824Y024073D01*
X007775Y023995D02*
X012021Y023995D01*
X012021Y024073D02*
X011056Y024073D01*
X011031Y024063D02*
X011148Y024111D01*
X011238Y024201D01*
X011286Y024317D01*
X011286Y024444D01*
X011238Y024561D01*
X011148Y024650D01*
X011031Y024698D01*
X010905Y024698D01*
X010788Y024650D01*
X010699Y024561D01*
X010650Y024444D01*
X010650Y024317D01*
X010699Y024201D01*
X010788Y024111D01*
X010905Y024063D01*
X011031Y024063D01*
X010880Y024073D02*
X010056Y024073D01*
X010031Y024063D02*
X010148Y024111D01*
X010238Y024201D01*
X010286Y024317D01*
X010286Y024444D01*
X010238Y024561D01*
X010148Y024650D01*
X010031Y024698D01*
X009905Y024698D01*
X009788Y024650D01*
X009699Y024561D01*
X009650Y024444D01*
X009650Y024317D01*
X009699Y024201D01*
X009788Y024111D01*
X009905Y024063D01*
X010031Y024063D01*
X009880Y024073D02*
X009056Y024073D01*
X009189Y024152D02*
X009748Y024152D01*
X009686Y024230D02*
X009250Y024230D01*
X009282Y024309D02*
X009654Y024309D01*
X009650Y024387D02*
X009286Y024387D01*
X009277Y024466D02*
X009659Y024466D01*
X009692Y024544D02*
X009244Y024544D01*
X009176Y024623D02*
X009761Y024623D01*
X010176Y024623D02*
X010761Y024623D01*
X010692Y024544D02*
X010244Y024544D01*
X010277Y024466D02*
X010659Y024466D01*
X010650Y024387D02*
X010286Y024387D01*
X010282Y024309D02*
X010654Y024309D01*
X010686Y024230D02*
X010250Y024230D01*
X010189Y024152D02*
X010748Y024152D01*
X011189Y024152D02*
X012021Y024152D01*
X012021Y024230D02*
X011250Y024230D01*
X011282Y024309D02*
X012021Y024309D01*
X012021Y024387D02*
X011286Y024387D01*
X011277Y024466D02*
X012021Y024466D01*
X012021Y024544D02*
X011244Y024544D01*
X011176Y024623D02*
X012021Y024623D01*
X012021Y023916D02*
X007440Y023916D01*
X007430Y023838D02*
X012021Y023838D01*
X012021Y023759D02*
X007390Y023759D01*
X007424Y023995D02*
X007425Y023995D01*
X007375Y024073D02*
X007376Y024073D01*
X007360Y024152D02*
X000490Y024152D01*
X000490Y024230D02*
X005124Y024230D01*
X005045Y024309D02*
X000490Y024309D01*
X000490Y023602D02*
X004354Y023602D01*
X004288Y023524D02*
X000490Y023524D01*
X000490Y023445D02*
X004260Y023445D01*
X004260Y023367D02*
X000490Y023367D01*
X000490Y023288D02*
X004290Y023288D01*
X004360Y023210D02*
X000490Y023210D01*
X000490Y022503D02*
X002929Y022503D01*
X002910Y022425D02*
X000490Y022425D01*
X000490Y022346D02*
X002916Y022346D01*
X002952Y022268D02*
X000490Y022268D01*
X000490Y022189D02*
X002990Y022189D01*
X003022Y022111D02*
X000490Y022111D01*
X000490Y022032D02*
X003100Y022032D01*
X003179Y021954D02*
X000490Y021954D01*
X000490Y021875D02*
X003257Y021875D01*
X003336Y021797D02*
X000490Y021797D01*
X000490Y021718D02*
X003414Y021718D01*
X003493Y021640D02*
X000490Y021640D01*
X000490Y021561D02*
X003571Y021561D01*
X003650Y021483D02*
X000490Y021483D01*
X000490Y021404D02*
X003728Y021404D01*
X003807Y021326D02*
X000490Y021326D01*
X000490Y021247D02*
X003885Y021247D01*
X003964Y021169D02*
X000490Y021169D01*
X000490Y021090D02*
X004042Y021090D01*
X004121Y021012D02*
X000490Y021012D01*
X000490Y020933D02*
X004199Y020933D01*
X004278Y020855D02*
X000490Y020855D01*
X000490Y020776D02*
X004356Y020776D01*
X004435Y020698D02*
X000490Y020698D01*
X000490Y020619D02*
X004513Y020619D01*
X004592Y020541D02*
X003417Y020541D01*
X003398Y020549D02*
X003302Y020549D01*
X003214Y020512D01*
X003147Y020444D01*
X003110Y020356D01*
X003110Y020261D01*
X003147Y020173D01*
X003214Y020105D01*
X003302Y020069D01*
X003398Y020069D01*
X003486Y020105D01*
X003553Y020173D01*
X003590Y020261D01*
X003590Y020356D01*
X003553Y020444D01*
X003486Y020512D01*
X003398Y020549D01*
X003283Y020541D02*
X000490Y020541D01*
X000490Y020462D02*
X001664Y020462D01*
X001597Y020394D01*
X001560Y020306D01*
X001560Y020211D01*
X001597Y020123D01*
X001664Y020055D01*
X001752Y020019D01*
X001848Y020019D01*
X001936Y020055D01*
X002003Y020123D01*
X002040Y020211D01*
X002040Y020306D01*
X002003Y020394D01*
X001936Y020462D01*
X001848Y020499D01*
X001752Y020499D01*
X001664Y020462D01*
X001592Y020384D02*
X000490Y020384D01*
X000490Y020305D02*
X001560Y020305D01*
X001560Y020227D02*
X000490Y020227D01*
X000490Y020148D02*
X001586Y020148D01*
X001650Y020070D02*
X000490Y020070D01*
X000490Y019991D02*
X003543Y019991D01*
X003564Y020012D02*
X003497Y019944D01*
X003460Y019856D01*
X003460Y019761D01*
X003497Y019673D01*
X003564Y019605D01*
X003652Y019569D01*
X003748Y019569D01*
X003836Y019605D01*
X003903Y019673D01*
X003940Y019761D01*
X003940Y019856D01*
X003903Y019944D01*
X003836Y020012D01*
X003748Y020049D01*
X003652Y020049D01*
X003564Y020012D01*
X003483Y019913D02*
X000490Y019913D01*
X000490Y019834D02*
X003460Y019834D01*
X003462Y019756D02*
X000490Y019756D01*
X000490Y019677D02*
X003495Y019677D01*
X003580Y019599D02*
X000490Y019599D01*
X000490Y019520D02*
X000974Y019520D01*
X001052Y019552D02*
X000870Y019477D01*
X000731Y019338D01*
X000656Y019157D01*
X000656Y018960D01*
X000731Y018779D01*
X000870Y018640D01*
X001052Y018565D01*
X001248Y018565D01*
X001430Y018640D01*
X001569Y018779D01*
X001644Y018960D01*
X001644Y019157D01*
X001569Y019338D01*
X001430Y019477D01*
X001248Y019552D01*
X001052Y019552D01*
X000835Y019442D02*
X000490Y019442D01*
X000490Y019363D02*
X000756Y019363D01*
X000709Y019285D02*
X000490Y019285D01*
X000490Y019206D02*
X000677Y019206D01*
X000656Y019128D02*
X000490Y019128D01*
X000490Y019049D02*
X000656Y019049D01*
X000656Y018971D02*
X000490Y018971D01*
X000490Y018892D02*
X000685Y018892D01*
X000717Y018814D02*
X000490Y018814D01*
X000490Y018735D02*
X000775Y018735D01*
X000854Y018657D02*
X000490Y018657D01*
X000490Y018578D02*
X001020Y018578D01*
X001280Y018578D02*
X005380Y018578D01*
X005347Y018544D02*
X005310Y018456D01*
X005310Y018361D01*
X005347Y018273D01*
X005414Y018205D01*
X005502Y018169D01*
X005598Y018169D01*
X005686Y018205D01*
X005753Y018273D01*
X005790Y018361D01*
X005790Y018456D01*
X005753Y018544D01*
X005686Y018612D01*
X005598Y018649D01*
X005502Y018649D01*
X005414Y018612D01*
X005347Y018544D01*
X005328Y018500D02*
X000490Y018500D01*
X000490Y018421D02*
X005310Y018421D01*
X005318Y018343D02*
X000490Y018343D01*
X000490Y018264D02*
X005355Y018264D01*
X005461Y018186D02*
X000490Y018186D01*
X000490Y018107D02*
X006590Y018107D01*
X006590Y018029D02*
X000490Y018029D01*
X000490Y017950D02*
X006590Y017950D01*
X006590Y017872D02*
X004326Y017872D01*
X004353Y017844D02*
X004286Y017912D01*
X004198Y017949D01*
X004102Y017949D01*
X004014Y017912D01*
X003947Y017844D01*
X003910Y017756D01*
X003910Y017661D01*
X003947Y017573D01*
X004014Y017505D01*
X004102Y017469D01*
X004198Y017469D01*
X004286Y017505D01*
X004353Y017573D01*
X004390Y017661D01*
X004390Y017756D01*
X004353Y017844D01*
X004375Y017793D02*
X006590Y017793D01*
X006590Y017715D02*
X004390Y017715D01*
X004380Y017636D02*
X006590Y017636D01*
X006590Y017558D02*
X004338Y017558D01*
X004223Y017479D02*
X006590Y017479D01*
X006590Y017401D02*
X000490Y017401D01*
X000490Y017479D02*
X004077Y017479D01*
X003962Y017558D02*
X000490Y017558D01*
X000490Y017636D02*
X003920Y017636D01*
X003910Y017715D02*
X000490Y017715D01*
X000490Y017793D02*
X003925Y017793D01*
X003974Y017872D02*
X000490Y017872D01*
X000490Y017322D02*
X006590Y017322D01*
X006590Y017244D02*
X000490Y017244D01*
X000490Y017165D02*
X006590Y017165D01*
X006590Y017087D02*
X000490Y017087D01*
X000490Y017008D02*
X006590Y017008D01*
X006590Y016930D02*
X000490Y016930D01*
X000490Y016851D02*
X006590Y016851D01*
X006590Y016773D02*
X000490Y016773D01*
X000490Y016694D02*
X006590Y016694D01*
X006590Y016616D02*
X000490Y016616D01*
X000490Y016537D02*
X006590Y016537D01*
X006590Y016459D02*
X000490Y016459D01*
X000490Y016380D02*
X006590Y016380D01*
X006590Y016302D02*
X000490Y016302D01*
X000490Y016223D02*
X006590Y016223D01*
X006590Y016145D02*
X000490Y016145D01*
X000490Y016066D02*
X006590Y016066D01*
X006590Y015988D02*
X000490Y015988D01*
X000490Y015909D02*
X006590Y015909D01*
X006590Y015831D02*
X000490Y015831D01*
X000490Y015752D02*
X006590Y015752D01*
X006590Y015674D02*
X000490Y015674D01*
X000490Y015595D02*
X006590Y015595D01*
X006590Y015517D02*
X000490Y015517D01*
X000490Y015438D02*
X006590Y015438D01*
X006590Y015360D02*
X000490Y015360D01*
X000490Y015281D02*
X006590Y015281D01*
X006590Y015203D02*
X000490Y015203D01*
X000490Y015124D02*
X006590Y015124D01*
X006590Y015046D02*
X000490Y015046D01*
X000490Y014967D02*
X006590Y014967D01*
X006590Y014889D02*
X000490Y014889D01*
X000490Y014810D02*
X006590Y014810D01*
X006590Y014732D02*
X000490Y014732D01*
X000490Y014653D02*
X006590Y014653D01*
X006658Y014575D02*
X000490Y014575D01*
X000490Y014496D02*
X006736Y014496D01*
X006815Y014418D02*
X000490Y014418D01*
X000490Y014339D02*
X006893Y014339D01*
X006972Y014261D02*
X000490Y014261D01*
X000490Y014182D02*
X007050Y014182D01*
X007129Y014104D02*
X000490Y014104D01*
X000490Y014025D02*
X007207Y014025D01*
X007286Y013947D02*
X000490Y013947D01*
X000490Y013868D02*
X007364Y013868D01*
X007443Y013790D02*
X000490Y013790D01*
X000490Y013711D02*
X007521Y013711D01*
X007600Y013633D02*
X000490Y013633D01*
X000490Y013554D02*
X006406Y013554D01*
X006414Y013562D02*
X006347Y013494D01*
X006310Y013406D01*
X006310Y013311D01*
X006347Y013223D01*
X006414Y013155D01*
X006502Y013119D01*
X006598Y013119D01*
X006686Y013155D01*
X006753Y013223D01*
X006790Y013311D01*
X006790Y013406D01*
X006753Y013494D01*
X006686Y013562D01*
X006598Y013599D01*
X006502Y013599D01*
X006414Y013562D01*
X006339Y013476D02*
X001431Y013476D01*
X001430Y013477D02*
X001248Y013552D01*
X001052Y013552D01*
X000870Y013477D01*
X000731Y013338D01*
X000656Y013157D01*
X000656Y012960D01*
X000731Y012779D01*
X000870Y012640D01*
X001052Y012565D01*
X001248Y012565D01*
X001430Y012640D01*
X001569Y012779D01*
X001644Y012960D01*
X001644Y013157D01*
X001569Y013338D01*
X001430Y013477D01*
X001510Y013397D02*
X006310Y013397D01*
X006310Y013319D02*
X001577Y013319D01*
X001609Y013240D02*
X006339Y013240D01*
X006408Y013162D02*
X001642Y013162D01*
X001644Y013083D02*
X003615Y013083D01*
X003652Y013099D02*
X003564Y013062D01*
X003497Y012994D01*
X003460Y012906D01*
X003460Y012811D01*
X003497Y012723D01*
X003564Y012655D01*
X003652Y012619D01*
X003748Y012619D01*
X003836Y012655D01*
X003903Y012723D01*
X003940Y012811D01*
X003940Y012906D01*
X003903Y012994D01*
X003836Y013062D01*
X003748Y013099D01*
X003652Y013099D01*
X003785Y013083D02*
X007890Y013083D01*
X007890Y013005D02*
X003893Y013005D01*
X003932Y012926D02*
X007890Y012926D01*
X007890Y012848D02*
X003940Y012848D01*
X003923Y012769D02*
X007890Y012769D01*
X007890Y012691D02*
X003871Y012691D01*
X003529Y012691D02*
X001480Y012691D01*
X001559Y012769D02*
X003477Y012769D01*
X003460Y012848D02*
X001597Y012848D01*
X001630Y012926D02*
X003468Y012926D01*
X003507Y013005D02*
X001644Y013005D01*
X001362Y012612D02*
X005558Y012612D01*
X005564Y012618D02*
X005469Y012523D01*
X005418Y012399D01*
X005418Y012265D01*
X005469Y012141D01*
X000490Y012141D01*
X000490Y012063D02*
X005548Y012063D01*
X005564Y012046D02*
X005688Y011995D01*
X005823Y011995D01*
X005947Y012046D01*
X006042Y012141D01*
X006453Y012141D01*
X006439Y012163D02*
X006478Y012104D01*
X006528Y012054D01*
X006586Y012015D01*
X006651Y011988D01*
X006717Y011975D01*
X006717Y012293D01*
X006794Y012293D01*
X006794Y011975D01*
X006860Y011988D01*
X006925Y012015D01*
X006983Y012054D01*
X007033Y012104D01*
X007072Y012163D01*
X007099Y012228D01*
X007112Y012293D01*
X006794Y012293D01*
X006794Y012371D01*
X006717Y012371D01*
X006717Y012689D01*
X006651Y012676D01*
X006586Y012649D01*
X006528Y012610D01*
X006478Y012560D01*
X006439Y012501D01*
X006412Y012436D01*
X006399Y012371D01*
X006717Y012371D01*
X006717Y012293D01*
X006399Y012293D01*
X006412Y012228D01*
X006439Y012163D01*
X006415Y012220D02*
X006074Y012220D01*
X006093Y012265D02*
X006042Y012141D01*
X005963Y012063D02*
X006520Y012063D01*
X006673Y011984D02*
X000490Y011984D01*
X000490Y011906D02*
X007890Y011906D01*
X007890Y011984D02*
X006838Y011984D01*
X006794Y011984D02*
X006717Y011984D01*
X006717Y012063D02*
X006794Y012063D01*
X006794Y012141D02*
X006717Y012141D01*
X006717Y012220D02*
X006794Y012220D01*
X006794Y012298D02*
X007890Y012298D01*
X007890Y012220D02*
X007096Y012220D01*
X007058Y012141D02*
X007890Y012141D01*
X007890Y012063D02*
X006991Y012063D01*
X006717Y012298D02*
X006093Y012298D01*
X006093Y012265D02*
X006093Y012399D01*
X006042Y012523D01*
X005947Y012618D01*
X005823Y012670D01*
X005688Y012670D01*
X005564Y012618D01*
X005480Y012534D02*
X000490Y012534D01*
X000490Y012612D02*
X000938Y012612D01*
X000820Y012691D02*
X000490Y012691D01*
X000490Y012769D02*
X000741Y012769D01*
X000703Y012848D02*
X000490Y012848D01*
X000490Y012926D02*
X000670Y012926D01*
X000656Y013005D02*
X000490Y013005D01*
X000490Y013083D02*
X000656Y013083D01*
X000658Y013162D02*
X000490Y013162D01*
X000490Y013240D02*
X000691Y013240D01*
X000723Y013319D02*
X000490Y013319D01*
X000490Y013397D02*
X000790Y013397D01*
X000869Y013476D02*
X000490Y013476D01*
X000490Y012455D02*
X005441Y012455D01*
X005418Y012377D02*
X000490Y012377D01*
X000490Y012298D02*
X005418Y012298D01*
X005437Y012220D02*
X000490Y012220D01*
X000490Y011827D02*
X007890Y011827D01*
X007890Y011749D02*
X000490Y011749D01*
X000490Y011670D02*
X007890Y011670D01*
X007890Y011592D02*
X000490Y011592D01*
X000490Y011513D02*
X003567Y011513D01*
X003564Y011512D02*
X003497Y011444D01*
X003460Y011356D01*
X000490Y011356D01*
X000490Y011278D02*
X003460Y011278D01*
X003460Y011261D02*
X003497Y011173D01*
X003564Y011105D01*
X003652Y011069D01*
X003748Y011069D01*
X003836Y011105D01*
X003903Y011173D01*
X003940Y011261D01*
X003940Y011356D01*
X007890Y011356D01*
X007890Y011278D02*
X003940Y011278D01*
X003940Y011356D02*
X003903Y011444D01*
X003836Y011512D01*
X003748Y011549D01*
X003652Y011549D01*
X003564Y011512D01*
X003492Y011435D02*
X000490Y011435D01*
X000490Y011199D02*
X003486Y011199D01*
X003460Y011261D02*
X003460Y011356D01*
X003549Y011121D02*
X000490Y011121D01*
X000490Y011042D02*
X000961Y011042D01*
X000819Y010964D02*
X000490Y010964D01*
X000490Y010728D02*
X000680Y010728D01*
X000680Y010738D02*
X000741Y010885D01*
X000680Y010650D02*
X000490Y010650D01*
X000490Y010571D02*
X000683Y010571D01*
X000716Y010493D02*
X000490Y010493D01*
X000490Y010414D02*
X000759Y010414D01*
X000837Y010336D02*
X000490Y010336D01*
X000490Y010257D02*
X001739Y010257D01*
X001661Y010336D02*
X001323Y010336D01*
X001401Y010414D02*
X001582Y010414D01*
X001504Y010493D02*
X001444Y010493D01*
X001771Y010650D02*
X007890Y010650D01*
X007890Y010728D02*
X005509Y010728D01*
X005486Y010705D02*
X005553Y010773D01*
X005590Y010861D01*
X005590Y010956D01*
X005553Y011044D01*
X005486Y011112D01*
X005398Y011149D01*
X005302Y011149D01*
X005214Y011112D01*
X005147Y011044D01*
X005110Y010956D01*
X005110Y010861D01*
X005147Y010773D01*
X005214Y010705D01*
X005302Y010669D01*
X005398Y010669D01*
X005486Y010705D01*
X005568Y010807D02*
X007890Y010807D01*
X007890Y010885D02*
X005590Y010885D01*
X005587Y010964D02*
X007890Y010964D01*
X007890Y011042D02*
X005554Y011042D01*
X005465Y011121D02*
X007890Y011121D01*
X007890Y011199D02*
X003914Y011199D01*
X003851Y011121D02*
X004685Y011121D01*
X004596Y011042D02*
X001199Y011042D01*
X001818Y010179D02*
X000490Y010179D01*
X000490Y010100D02*
X001896Y010100D01*
X001900Y010022D02*
X001249Y010022D01*
X001307Y009998D02*
X001160Y010059D01*
X001000Y010059D01*
X000853Y009998D01*
X000741Y009885D01*
X000680Y009738D01*
X000680Y009579D01*
X000741Y009432D01*
X000853Y009319D01*
X001000Y009259D01*
X001160Y009259D01*
X001307Y009319D01*
X001419Y009432D01*
X001480Y009579D01*
X001480Y009738D01*
X001419Y009885D01*
X001307Y009998D01*
X001361Y009943D02*
X001900Y009943D01*
X001900Y009865D02*
X001428Y009865D01*
X001460Y009786D02*
X001900Y009786D01*
X001900Y009708D02*
X001480Y009708D01*
X001480Y009629D02*
X001900Y009629D01*
X001900Y009551D02*
X001468Y009551D01*
X001436Y009472D02*
X001900Y009472D01*
X001900Y009394D02*
X001381Y009394D01*
X001296Y009315D02*
X001900Y009315D01*
X001900Y009237D02*
X000490Y009237D01*
X000490Y009315D02*
X000864Y009315D01*
X000779Y009394D02*
X000490Y009394D01*
X000490Y009472D02*
X000724Y009472D01*
X000692Y009551D02*
X000490Y009551D01*
X000490Y009629D02*
X000680Y009629D01*
X000680Y009708D02*
X000490Y009708D01*
X000490Y009786D02*
X000700Y009786D01*
X000732Y009865D02*
X000490Y009865D01*
X000490Y009943D02*
X000799Y009943D01*
X000911Y010022D02*
X000490Y010022D01*
X000490Y009158D02*
X001900Y009158D01*
X001900Y009080D02*
X000490Y009080D01*
X000490Y009001D02*
X000862Y009001D01*
X000853Y008998D02*
X000741Y008885D01*
X000680Y008738D01*
X000680Y008579D01*
X000741Y008432D01*
X000853Y008319D01*
X001000Y008259D01*
X001160Y008259D01*
X001307Y008319D01*
X001419Y008432D01*
X001480Y008579D01*
X001480Y008738D01*
X001419Y008885D01*
X001307Y008998D01*
X001160Y009059D01*
X001000Y009059D01*
X000853Y008998D01*
X000778Y008923D02*
X000490Y008923D01*
X000490Y008844D02*
X000724Y008844D01*
X000691Y008766D02*
X000490Y008766D01*
X000490Y008687D02*
X000680Y008687D01*
X000680Y008609D02*
X000490Y008609D01*
X000490Y008530D02*
X000700Y008530D01*
X000733Y008452D02*
X000490Y008452D01*
X000490Y008373D02*
X000800Y008373D01*
X000913Y008295D02*
X000490Y008295D01*
X000490Y008216D02*
X002230Y008216D01*
X002152Y008295D02*
X001247Y008295D01*
X001360Y008373D02*
X002073Y008373D01*
X001995Y008452D02*
X001427Y008452D01*
X001460Y008530D02*
X001916Y008530D01*
X001900Y008609D02*
X001480Y008609D01*
X001480Y008687D02*
X001900Y008687D01*
X001900Y008766D02*
X001469Y008766D01*
X001436Y008844D02*
X001900Y008844D01*
X001900Y008923D02*
X001382Y008923D01*
X001298Y009001D02*
X001900Y009001D01*
X002200Y009001D02*
X004603Y009001D01*
X004537Y008923D02*
X002200Y008923D01*
X002200Y008844D02*
X004510Y008844D01*
X004510Y008766D02*
X002200Y008766D01*
X002200Y008687D02*
X004541Y008687D01*
X004611Y008609D02*
X002262Y008609D01*
X002309Y008138D02*
X000490Y008138D01*
X000490Y008059D02*
X002387Y008059D01*
X002466Y007981D02*
X000490Y007981D01*
X000490Y007902D02*
X002544Y007902D01*
X002623Y007824D02*
X000490Y007824D01*
X000490Y007745D02*
X002701Y007745D01*
X002780Y007667D02*
X000490Y007667D01*
X000490Y007588D02*
X002858Y007588D01*
X002937Y007510D02*
X000490Y007510D01*
X000490Y007431D02*
X003015Y007431D01*
X003094Y007353D02*
X000490Y007353D01*
X000490Y007274D02*
X003172Y007274D01*
X003251Y007196D02*
X000490Y007196D01*
X000490Y006332D02*
X001862Y006332D01*
X001756Y006254D02*
X000490Y006254D01*
X000490Y006175D02*
X001718Y006175D01*
X001710Y006097D02*
X000490Y006097D01*
X000490Y006018D02*
X001279Y006018D01*
X001194Y005940D02*
X000490Y005940D01*
X000490Y005861D02*
X001162Y005861D01*
X001160Y005783D02*
X000490Y005783D01*
X000490Y005704D02*
X001184Y005704D01*
X001244Y005626D02*
X000490Y005626D01*
X000490Y005547D02*
X001449Y005547D01*
X001528Y005469D02*
X000490Y005469D01*
X000490Y005390D02*
X002456Y005390D01*
X002535Y005312D02*
X000490Y005312D01*
X000490Y005233D02*
X002613Y005233D01*
X002692Y005155D02*
X000490Y005155D01*
X000490Y005076D02*
X002770Y005076D01*
X002849Y004998D02*
X000490Y004998D01*
X001035Y004213D02*
X002342Y004213D01*
X002263Y004134D02*
X001108Y004134D01*
X000490Y002878D02*
X012021Y002878D01*
X012021Y002800D02*
X000490Y002800D01*
X000490Y002721D02*
X012021Y002721D01*
X012021Y002643D02*
X000490Y002643D01*
X000490Y002564D02*
X012021Y002564D01*
X012021Y002957D02*
X008387Y002957D01*
X008459Y003035D02*
X012021Y003035D01*
X012021Y003114D02*
X011066Y003114D01*
X011130Y003140D02*
X011269Y003279D01*
X011344Y003460D01*
X011344Y003657D01*
X011269Y003838D01*
X011130Y003977D01*
X012021Y003977D01*
X012021Y003899D02*
X011208Y003899D01*
X011276Y003820D02*
X012021Y003820D01*
X012021Y003742D02*
X011309Y003742D01*
X011341Y003663D02*
X012021Y003663D01*
X012021Y003585D02*
X011344Y003585D01*
X011344Y003506D02*
X012021Y003506D01*
X012021Y003428D02*
X011330Y003428D01*
X011298Y003349D02*
X012021Y003349D01*
X012021Y003271D02*
X011260Y003271D01*
X011182Y003192D02*
X012021Y003192D01*
X012021Y004056D02*
X008660Y004056D01*
X008660Y004134D02*
X012021Y004134D01*
X012021Y004213D02*
X008660Y004213D01*
X008660Y004291D02*
X012021Y004291D01*
X012021Y004370D02*
X008660Y004370D01*
X008660Y004448D02*
X012021Y004448D01*
X012021Y004527D02*
X008660Y004527D01*
X008660Y004605D02*
X012021Y004605D01*
X012021Y004684D02*
X011689Y004684D01*
X011661Y004669D02*
X011720Y004699D01*
X011774Y004738D01*
X011820Y004785D01*
X011859Y004838D01*
X011889Y004897D01*
X011910Y004960D01*
X011919Y005019D01*
X011540Y005019D01*
X011540Y005099D01*
X011460Y005099D01*
X011460Y005477D01*
X011402Y005468D01*
X011339Y005448D01*
X011280Y005418D01*
X011226Y005379D01*
X011180Y005332D01*
X011141Y005279D01*
X011111Y005220D01*
X011090Y005157D01*
X011081Y005099D01*
X011460Y005099D01*
X011460Y005019D01*
X011081Y005019D01*
X011090Y004960D01*
X011111Y004897D01*
X011141Y004838D01*
X011180Y004785D01*
X011226Y004738D01*
X011280Y004699D01*
X011339Y004669D01*
X011402Y004649D01*
X011460Y004640D01*
X011460Y005018D01*
X011540Y005018D01*
X011540Y004640D01*
X011598Y004649D01*
X011661Y004669D01*
X011540Y004684D02*
X011460Y004684D01*
X011460Y004762D02*
X011540Y004762D01*
X011540Y004841D02*
X011460Y004841D01*
X011460Y004919D02*
X011540Y004919D01*
X011540Y004998D02*
X011460Y004998D01*
X011460Y005076D02*
X008660Y005076D01*
X008660Y004998D02*
X011084Y004998D01*
X011104Y004919D02*
X008660Y004919D01*
X008660Y004841D02*
X011140Y004841D01*
X011203Y004762D02*
X008660Y004762D01*
X008660Y004684D02*
X011311Y004684D01*
X011540Y005076D02*
X012021Y005076D01*
X012021Y004998D02*
X011916Y004998D01*
X011896Y004919D02*
X012021Y004919D01*
X012021Y004841D02*
X011860Y004841D01*
X011797Y004762D02*
X012021Y004762D01*
X011919Y005099D02*
X011910Y005157D01*
X011889Y005220D01*
X011859Y005279D01*
X011820Y005332D01*
X011774Y005379D01*
X011720Y005418D01*
X011661Y005448D01*
X011598Y005468D01*
X011540Y005477D01*
X011540Y005099D01*
X011919Y005099D01*
X011910Y005155D02*
X012021Y005155D01*
X012021Y005233D02*
X011882Y005233D01*
X011835Y005312D02*
X012021Y005312D01*
X012021Y005390D02*
X011758Y005390D01*
X011596Y005469D02*
X012021Y005469D01*
X012021Y005547D02*
X008660Y005547D01*
X008660Y005469D02*
X011404Y005469D01*
X011460Y005469D02*
X011540Y005469D01*
X011540Y005390D02*
X011460Y005390D01*
X011460Y005312D02*
X011540Y005312D01*
X011540Y005233D02*
X011460Y005233D01*
X011460Y005155D02*
X011540Y005155D01*
X011242Y005390D02*
X008660Y005390D01*
X008660Y005312D02*
X011165Y005312D01*
X011118Y005233D02*
X008660Y005233D01*
X008660Y005155D02*
X011090Y005155D01*
X010948Y004052D02*
X010752Y004052D01*
X010570Y003977D01*
X008660Y003977D01*
X008660Y003899D02*
X010492Y003899D01*
X010431Y003838D02*
X010570Y003977D01*
X010431Y003838D02*
X010356Y003657D01*
X010356Y003460D01*
X010431Y003279D01*
X010570Y003140D01*
X010752Y003065D01*
X010948Y003065D01*
X011130Y003140D01*
X010634Y003114D02*
X008490Y003114D01*
X008510Y003192D02*
X010518Y003192D01*
X010440Y003271D02*
X008588Y003271D01*
X008660Y003349D02*
X010402Y003349D01*
X010370Y003428D02*
X008660Y003428D01*
X008660Y003506D02*
X010356Y003506D01*
X010356Y003585D02*
X008660Y003585D01*
X008660Y003663D02*
X010359Y003663D01*
X010391Y003742D02*
X008660Y003742D01*
X008660Y003820D02*
X010424Y003820D01*
X010948Y004052D02*
X011130Y003977D01*
X011732Y006725D02*
X012021Y006725D01*
X012021Y006803D02*
X011810Y006803D01*
X011860Y006882D02*
X012021Y006882D01*
X012021Y006960D02*
X011892Y006960D01*
X011900Y007039D02*
X012021Y007039D01*
X012021Y007117D02*
X011900Y007117D01*
X011876Y007196D02*
X012021Y007196D01*
X012021Y007274D02*
X011844Y007274D01*
X011772Y007353D02*
X012021Y007353D01*
X012021Y007431D02*
X011646Y007431D01*
X012021Y011749D02*
X008210Y011749D01*
X008210Y011827D02*
X012021Y011827D01*
X012021Y011906D02*
X008210Y011906D01*
X008210Y011984D02*
X012021Y011984D01*
X012021Y012063D02*
X008210Y012063D01*
X008210Y012141D02*
X012021Y012141D01*
X012021Y012220D02*
X008210Y012220D01*
X008210Y012298D02*
X012021Y012298D01*
X012021Y012377D02*
X008210Y012377D01*
X008210Y012455D02*
X012021Y012455D01*
X007890Y012455D02*
X007092Y012455D01*
X007099Y012436D02*
X007072Y012501D01*
X007033Y012560D01*
X006983Y012610D01*
X006925Y012649D01*
X006860Y012676D01*
X006794Y012689D01*
X006794Y012371D01*
X007112Y012371D01*
X007099Y012436D01*
X007111Y012377D02*
X007890Y012377D01*
X007890Y012534D02*
X007051Y012534D01*
X006980Y012612D02*
X007890Y012612D01*
X007890Y013162D02*
X006692Y013162D01*
X006761Y013240D02*
X007890Y013240D01*
X007890Y013319D02*
X006790Y013319D01*
X006790Y013397D02*
X007835Y013397D01*
X007757Y013476D02*
X006761Y013476D01*
X006694Y013554D02*
X007678Y013554D01*
X006794Y012612D02*
X006717Y012612D01*
X006717Y012534D02*
X006794Y012534D01*
X006794Y012455D02*
X006717Y012455D01*
X006717Y012377D02*
X006794Y012377D01*
X006531Y012612D02*
X005953Y012612D01*
X006031Y012534D02*
X006460Y012534D01*
X006419Y012455D02*
X006070Y012455D01*
X006093Y012377D02*
X006400Y012377D01*
X005564Y012046D02*
X005469Y012141D01*
X005235Y011121D02*
X004915Y011121D01*
X005004Y011042D02*
X005146Y011042D01*
X005113Y010964D02*
X005037Y010964D01*
X005040Y010885D02*
X005110Y010885D01*
X005132Y010807D02*
X005018Y010807D01*
X004959Y010728D02*
X005191Y010728D01*
X003908Y011435D02*
X007890Y011435D01*
X007890Y011513D02*
X003833Y011513D01*
X001728Y006018D02*
X001521Y006018D01*
X001606Y005940D02*
X001780Y005940D01*
X002531Y003977D02*
X003406Y003977D01*
X003328Y003899D02*
X003099Y003899D01*
X003164Y003820D02*
X003249Y003820D01*
X005639Y018186D02*
X006590Y018186D01*
X006590Y018264D02*
X005745Y018264D01*
X005782Y018343D02*
X006590Y018343D01*
X006590Y018421D02*
X005790Y018421D01*
X005772Y018500D02*
X006590Y018500D01*
X006554Y018578D02*
X005720Y018578D01*
X006162Y018971D02*
X001644Y018971D01*
X001644Y019049D02*
X006083Y019049D01*
X006005Y019128D02*
X001644Y019128D01*
X001623Y019206D02*
X003963Y019206D01*
X003964Y019205D02*
X004052Y019169D01*
X004148Y019169D01*
X004236Y019205D01*
X004303Y019273D01*
X004325Y019325D01*
X004347Y019273D01*
X004414Y019205D01*
X004502Y019169D01*
X004598Y019169D01*
X004686Y019205D01*
X004753Y019273D01*
X004790Y019361D01*
X004790Y019456D01*
X004753Y019544D01*
X004686Y019612D01*
X004598Y019649D01*
X004502Y019649D01*
X004414Y019612D01*
X004347Y019544D01*
X004325Y019492D01*
X004303Y019544D01*
X004236Y019612D01*
X004148Y019649D01*
X004052Y019649D01*
X003964Y019612D01*
X003897Y019544D01*
X003860Y019456D01*
X003860Y019361D01*
X003897Y019273D01*
X003964Y019205D01*
X003892Y019285D02*
X001591Y019285D01*
X001544Y019363D02*
X003860Y019363D01*
X003860Y019442D02*
X001465Y019442D01*
X001326Y019520D02*
X003886Y019520D01*
X003820Y019599D02*
X003951Y019599D01*
X003905Y019677D02*
X005455Y019677D01*
X005377Y019756D02*
X003938Y019756D01*
X003940Y019834D02*
X005298Y019834D01*
X005220Y019913D02*
X003917Y019913D01*
X003857Y019991D02*
X005141Y019991D01*
X005063Y020070D02*
X003400Y020070D01*
X003300Y020070D02*
X001950Y020070D01*
X002014Y020148D02*
X003171Y020148D01*
X003124Y020227D02*
X002040Y020227D01*
X002040Y020305D02*
X003110Y020305D01*
X003121Y020384D02*
X002008Y020384D01*
X001936Y020462D02*
X003164Y020462D01*
X003536Y020462D02*
X004670Y020462D01*
X004749Y020384D02*
X003579Y020384D01*
X003590Y020305D02*
X004827Y020305D01*
X004906Y020227D02*
X003576Y020227D01*
X003529Y020148D02*
X004984Y020148D01*
X004699Y019599D02*
X005534Y019599D01*
X005612Y019520D02*
X004764Y019520D01*
X004790Y019442D02*
X005691Y019442D01*
X005769Y019363D02*
X004790Y019363D01*
X004758Y019285D02*
X005848Y019285D01*
X005926Y019206D02*
X004687Y019206D01*
X004413Y019206D02*
X004237Y019206D01*
X004308Y019285D02*
X004342Y019285D01*
X004336Y019520D02*
X004314Y019520D01*
X004249Y019599D02*
X004401Y019599D01*
X004730Y020855D02*
X009032Y020855D01*
X008979Y020933D02*
X004652Y020933D01*
X004640Y023210D02*
X008260Y023210D01*
X008219Y023288D02*
X004710Y023288D01*
X004740Y023367D02*
X008210Y023367D01*
X008226Y023445D02*
X004740Y023445D01*
X006277Y024937D02*
X006473Y024937D01*
X006407Y025015D02*
X006343Y025015D01*
X006370Y025094D02*
X006380Y025094D01*
X006370Y025172D02*
X006380Y025172D01*
X006411Y025251D02*
X006339Y025251D01*
X006269Y025329D02*
X006481Y025329D01*
X007501Y024387D02*
X007525Y024387D01*
X004741Y025800D02*
X004724Y025800D01*
X006240Y018892D02*
X001615Y018892D01*
X001583Y018814D02*
X006319Y018814D01*
X006397Y018735D02*
X001525Y018735D01*
X001446Y018657D02*
X006476Y018657D01*
D19*
X011830Y004369D03*
X011830Y003769D03*
X011830Y003169D03*
X011830Y002669D03*
X011330Y002669D03*
X010730Y002669D03*
X010130Y002669D03*
X009530Y002669D03*
X008330Y002669D03*
X007730Y002669D03*
X007130Y002669D03*
X006530Y002669D03*
X005930Y002669D03*
X005380Y002629D03*
X005330Y002229D03*
X005330Y001779D03*
X004630Y001579D03*
X004660Y001019D03*
X004110Y001019D03*
X003560Y001019D03*
X003010Y001019D03*
X002460Y001019D03*
X001910Y001019D03*
X001360Y001019D03*
X000810Y001019D03*
X004380Y003079D03*
X004280Y003429D03*
X004930Y003429D03*
X004630Y002779D03*
X004630Y002379D03*
X005310Y001019D03*
D20*
X009250Y021059D03*
D21*
X001550Y010659D02*
X001080Y010659D01*
X001550Y010659D02*
X002050Y010159D01*
X002050Y008609D01*
X003350Y007309D01*
X003800Y007309D01*
X002500Y005559D02*
X001650Y005559D01*
X001400Y005809D01*
X002500Y005559D02*
X002950Y005109D01*
X006900Y005109D01*
X007150Y004859D01*
X007150Y004659D01*
X006600Y004659D02*
X006350Y004409D01*
X006350Y004259D01*
X006250Y004159D01*
X005900Y004159D01*
X005642Y004416D01*
X002758Y004416D01*
X002300Y003959D01*
X000950Y003959D01*
X000900Y004009D01*
X002450Y003409D02*
X003050Y003409D01*
X003500Y003859D01*
X006350Y003859D01*
X007000Y003159D01*
X007650Y003159D01*
D22*
X008250Y003159D02*
X008500Y003409D01*
X008500Y008259D01*
X008050Y008709D01*
X008050Y013409D01*
X006750Y014709D01*
X006750Y018609D01*
X003150Y022209D01*
X003150Y022409D01*
M02*
