G75*
G70*
%OFA0B0*%
%FSLAX24Y24*%
%IPPOS*%
%LPD*%
%AMOC8*
5,1,8,0,0,1.08239X$1,22.5*
%
%ADD10C,0.0100*%
%ADD11C,0.0080*%
%ADD12C,0.0160*%
%ADD13C,0.0050*%
%ADD14C,0.0070*%
%ADD15C,0.0060*%
%ADD16C,0.0000*%
%ADD17C,0.0030*%
%ADD18C,0.0040*%
%ADD19R,0.0118X0.0118*%
%ADD20R,0.0394X0.0787*%
%ADD21C,0.0079*%
%ADD22C,0.0090*%
D10*
X010200Y009439D02*
X010200Y011739D01*
X011500Y011739D01*
X011500Y009439D01*
X010200Y009439D01*
X002401Y012653D02*
X002301Y012553D01*
X002301Y012753D01*
X002401Y012653D01*
X001851Y012653D01*
X002411Y012963D02*
X002411Y013563D01*
X002511Y013463D01*
X002521Y013453D02*
X002301Y013453D01*
X002311Y013463D02*
X002411Y013563D01*
X001813Y014417D02*
X001673Y014467D01*
X001763Y014517D01*
X001813Y014417D01*
X001763Y014496D02*
X001748Y014460D01*
X001729Y014426D01*
X001707Y014394D01*
X001682Y014364D01*
X001655Y014337D01*
X001624Y014312D01*
X001592Y014291D01*
X001557Y014273D01*
X001521Y014259D01*
X001483Y014248D01*
X001445Y014241D01*
X001406Y014238D01*
X001367Y014239D01*
X001329Y014243D01*
X001290Y014252D01*
X001253Y014264D01*
X001218Y014280D01*
X001184Y014299D01*
X001152Y014321D01*
X001123Y014347D01*
X001096Y014375D01*
X001072Y014406D01*
X001051Y014439D01*
X001034Y014474D01*
X001020Y014510D01*
X001010Y014548D01*
X001004Y014586D01*
X001201Y015103D02*
X001301Y015053D01*
X001251Y015203D01*
X001201Y015103D01*
X001229Y015105D01*
X001257Y015110D01*
X001284Y015119D01*
X001309Y015131D01*
X001333Y015146D01*
X001355Y015164D01*
X001374Y015185D01*
X001391Y015207D01*
X001405Y015232D01*
X001415Y015258D01*
X001422Y015286D01*
X001426Y015314D01*
X001426Y015342D01*
X001422Y015370D01*
X001415Y015398D01*
X001405Y015424D01*
X001391Y015449D01*
X001374Y015471D01*
X001355Y015492D01*
X001333Y015510D01*
X001309Y015525D01*
X001284Y015537D01*
X001257Y015546D01*
X001229Y015551D01*
X001201Y015553D01*
X001101Y015353D02*
X001751Y015353D01*
X001651Y015253D01*
X001651Y015453D01*
X001751Y015353D01*
X001411Y015763D02*
X001411Y016463D01*
X001511Y016363D01*
X001521Y016353D02*
X001301Y016353D01*
X001311Y016363D02*
X001411Y016463D01*
X001571Y015963D02*
X001711Y016013D01*
X001661Y015913D01*
X001571Y015963D01*
X001661Y015913D02*
X001659Y015943D01*
X001654Y015973D01*
X001645Y016002D01*
X001632Y016029D01*
X001617Y016055D01*
X001598Y016079D01*
X001577Y016100D01*
X001553Y016119D01*
X001527Y016134D01*
X001500Y016147D01*
X001471Y016156D01*
X001441Y016161D01*
X001411Y016163D01*
X001381Y016161D01*
X001351Y016156D01*
X001322Y016147D01*
X001295Y016134D01*
X001269Y016119D01*
X001245Y016100D01*
X001224Y016079D01*
X001205Y016055D01*
X001190Y016029D01*
X001177Y016002D01*
X001168Y015973D01*
X001163Y015943D01*
X001161Y015913D01*
X001625Y024543D02*
X001627Y024556D01*
X001632Y024569D01*
X001641Y024580D01*
X001652Y024587D01*
X001665Y024592D01*
X001678Y024593D01*
X001692Y024590D01*
X001704Y024584D01*
X001714Y024575D01*
X001721Y024563D01*
X001725Y024550D01*
X001725Y024536D01*
X001721Y024523D01*
X001714Y024511D01*
X001704Y024502D01*
X001692Y024496D01*
X001678Y024493D01*
X001665Y024494D01*
X001652Y024499D01*
X001641Y024506D01*
X001632Y024517D01*
X001627Y024530D01*
X001625Y024543D01*
D11*
X001111Y004090D02*
X001111Y001727D01*
X001308Y001727D01*
X001505Y002436D02*
X001505Y003401D01*
X002095Y003401D02*
X002095Y002416D01*
X002292Y001727D02*
X002489Y001727D01*
X002489Y004090D01*
X002292Y004090D01*
X002292Y004927D02*
X002489Y004927D01*
X002489Y007290D01*
X002292Y007290D01*
X002095Y006581D02*
X002095Y005616D01*
X001505Y005616D02*
X001505Y006601D01*
X001308Y007290D02*
X001111Y007290D01*
X001111Y004927D01*
X001308Y004927D01*
X001308Y004090D02*
X001111Y004090D01*
X002781Y002575D02*
X003219Y002575D01*
X003219Y001742D01*
X002781Y001742D01*
X002781Y002575D01*
X003431Y002575D02*
X003431Y001742D01*
X003869Y001742D01*
X003869Y002575D01*
X003431Y002575D01*
X005184Y002990D02*
X005184Y003427D01*
X006016Y003427D01*
X006016Y002990D01*
X005184Y002990D01*
X006384Y002990D02*
X006384Y003427D01*
X007216Y003427D01*
X007216Y002990D01*
X006384Y002990D01*
X008434Y002990D02*
X008434Y003427D01*
X009266Y003427D01*
X009266Y002990D01*
X008434Y002990D01*
X007769Y009242D02*
X007331Y009242D01*
X007331Y010075D01*
X007769Y010075D01*
X007769Y009242D01*
X007219Y009242D02*
X006781Y009242D01*
X006781Y010075D01*
X007219Y010075D01*
X007219Y009242D01*
X006669Y009242D02*
X006231Y009242D01*
X006231Y010075D01*
X006669Y010075D01*
X006669Y009242D01*
X006119Y009242D02*
X006119Y010075D01*
X005681Y010075D01*
X005681Y009242D01*
X006119Y009242D01*
X005569Y009242D02*
X005131Y009242D01*
X005131Y010075D01*
X005569Y010075D01*
X005569Y009242D01*
X005019Y009242D02*
X004581Y009242D01*
X004581Y010075D01*
X005019Y010075D01*
X005019Y009242D01*
X004469Y009242D02*
X004469Y010075D01*
X004031Y010075D01*
X004031Y009242D01*
X004469Y009242D01*
X003919Y009242D02*
X003481Y009242D01*
X003481Y010075D01*
X003919Y010075D01*
X003919Y009242D01*
X003369Y009242D02*
X002931Y009242D01*
X002931Y010075D01*
X003369Y010075D01*
X003369Y009242D01*
X002819Y009242D02*
X002819Y010075D01*
X002381Y010075D01*
X002381Y009242D01*
X002819Y009242D01*
X002269Y009242D02*
X001831Y009242D01*
X001831Y010075D01*
X002269Y010075D01*
X002269Y009242D01*
X002311Y011953D02*
X002621Y012263D01*
X002237Y012113D02*
X002239Y012142D01*
X002245Y012171D01*
X002254Y012199D01*
X002267Y012225D01*
X002283Y012249D01*
X002303Y012271D01*
X002325Y012291D01*
X002349Y012307D01*
X002375Y012320D01*
X002403Y012329D01*
X002432Y012335D01*
X002461Y012337D01*
X002490Y012335D01*
X002519Y012329D01*
X002547Y012320D01*
X002573Y012307D01*
X002597Y012291D01*
X002619Y012271D01*
X002639Y012249D01*
X002655Y012225D01*
X002668Y012199D01*
X002677Y012171D01*
X002683Y012142D01*
X002685Y012113D01*
X002683Y012084D01*
X002677Y012055D01*
X002668Y012027D01*
X002655Y012001D01*
X002639Y011977D01*
X002619Y011955D01*
X002597Y011935D01*
X002573Y011919D01*
X002547Y011906D01*
X002519Y011897D01*
X002490Y011891D01*
X002461Y011889D01*
X002432Y011891D01*
X002403Y011897D01*
X002375Y011906D01*
X002349Y011919D01*
X002325Y011935D01*
X002303Y011955D01*
X002283Y011977D01*
X002267Y012001D01*
X002254Y012027D01*
X002245Y012055D01*
X002239Y012084D01*
X002237Y012113D01*
X002301Y012263D02*
X002311Y012263D01*
X002611Y011963D01*
X000865Y014503D02*
X000651Y014503D01*
X000651Y014556D01*
X000865Y014769D01*
X000865Y014823D01*
X000651Y014823D01*
X000651Y015203D02*
X000865Y015523D01*
X000651Y015523D02*
X000865Y015203D01*
X000758Y015853D02*
X000758Y016013D01*
X000865Y016119D01*
X000865Y016173D01*
X000758Y016013D02*
X000651Y016119D01*
X000651Y016173D01*
X001149Y014627D02*
X001151Y014656D01*
X001157Y014685D01*
X001166Y014713D01*
X001179Y014739D01*
X001195Y014763D01*
X001215Y014785D01*
X001237Y014805D01*
X001261Y014821D01*
X001287Y014834D01*
X001315Y014843D01*
X001344Y014849D01*
X001373Y014851D01*
X001402Y014849D01*
X001431Y014843D01*
X001459Y014834D01*
X001485Y014821D01*
X001509Y014805D01*
X001531Y014785D01*
X001551Y014763D01*
X001567Y014739D01*
X001580Y014713D01*
X001589Y014685D01*
X001595Y014656D01*
X001597Y014627D01*
X001595Y014598D01*
X001589Y014569D01*
X001580Y014541D01*
X001567Y014515D01*
X001551Y014491D01*
X001531Y014469D01*
X001509Y014449D01*
X001485Y014433D01*
X001459Y014420D01*
X001431Y014411D01*
X001402Y014405D01*
X001373Y014403D01*
X001344Y014405D01*
X001315Y014411D01*
X001287Y014420D01*
X001261Y014433D01*
X001237Y014449D01*
X001215Y014469D01*
X001195Y014491D01*
X001179Y014515D01*
X001166Y014541D01*
X001157Y014569D01*
X001151Y014598D01*
X001149Y014627D01*
X005706Y019456D02*
X005706Y019856D01*
X006216Y020286D02*
X006296Y020286D01*
X006806Y019856D02*
X006806Y019456D01*
X006296Y019026D02*
X006216Y019026D01*
X004129Y021412D02*
X003691Y021412D01*
X003691Y022245D01*
X004129Y022245D01*
X004129Y021412D01*
X003539Y021412D02*
X003539Y022245D01*
X003101Y022245D01*
X003101Y021412D01*
X003539Y021412D01*
X002939Y021412D02*
X002501Y021412D01*
X002501Y022245D01*
X002939Y022245D01*
X002939Y021412D01*
X003274Y022806D02*
X003412Y022806D01*
X003412Y022944D01*
X003412Y024243D02*
X003412Y024381D01*
X003274Y024381D01*
X003205Y025039D02*
X003205Y025539D01*
X004355Y025539D01*
X004355Y025039D01*
X003205Y025039D01*
X002896Y025070D02*
X002064Y025070D01*
X002064Y025507D01*
X002896Y025507D01*
X002896Y025070D01*
X001975Y024381D02*
X001837Y024243D01*
X001837Y022944D02*
X001837Y022806D01*
X001975Y022806D01*
X004980Y022674D02*
X005480Y022674D01*
X005480Y023824D01*
X004980Y023824D01*
X004980Y022674D01*
X007611Y022715D02*
X007611Y021882D01*
X008049Y021882D01*
X008049Y022715D01*
X007611Y022715D01*
X007611Y022952D02*
X008049Y022952D01*
X008049Y023785D01*
X007611Y023785D01*
X007611Y022952D01*
X008827Y023444D02*
X009811Y023444D01*
X009811Y022971D01*
X010205Y023759D02*
X008827Y023759D01*
X008827Y023444D01*
X009811Y021396D02*
X009811Y020924D01*
X008827Y020924D01*
X008827Y020609D01*
X010205Y020609D01*
X011780Y021396D02*
X011780Y022971D01*
X004347Y013120D02*
X004349Y013214D01*
X004356Y013307D01*
X004368Y013400D01*
X004384Y013492D01*
X004404Y013584D01*
X004429Y013674D01*
X004459Y013763D01*
X004492Y013851D01*
X004530Y013936D01*
X004572Y014020D01*
X004619Y014101D01*
X004669Y014181D01*
X004723Y014257D01*
X004780Y014331D01*
X004842Y014402D01*
X004906Y014470D01*
X004974Y014534D01*
X005045Y014596D01*
X005119Y014653D01*
X005195Y014707D01*
X005275Y014757D01*
X005356Y014804D01*
X005440Y014846D01*
X005525Y014884D01*
X005613Y014917D01*
X005702Y014947D01*
X005792Y014972D01*
X005884Y014992D01*
X005976Y015008D01*
X006069Y015020D01*
X006162Y015027D01*
X006256Y015029D01*
X006350Y015027D01*
X006443Y015020D01*
X006536Y015008D01*
X006628Y014992D01*
X006720Y014972D01*
X006810Y014947D01*
X006899Y014917D01*
X006987Y014884D01*
X007072Y014846D01*
X007156Y014804D01*
X007237Y014757D01*
X007317Y014707D01*
X007393Y014653D01*
X007467Y014596D01*
X007538Y014534D01*
X007606Y014470D01*
X007670Y014402D01*
X007732Y014331D01*
X007789Y014257D01*
X007843Y014181D01*
X007893Y014101D01*
X007940Y014020D01*
X007982Y013936D01*
X008020Y013851D01*
X008053Y013763D01*
X008083Y013674D01*
X008108Y013584D01*
X008128Y013492D01*
X008144Y013400D01*
X008156Y013307D01*
X008163Y013214D01*
X008165Y013120D01*
X008163Y013026D01*
X008156Y012933D01*
X008144Y012840D01*
X008128Y012748D01*
X008108Y012656D01*
X008083Y012566D01*
X008053Y012477D01*
X008020Y012389D01*
X007982Y012304D01*
X007940Y012220D01*
X007893Y012139D01*
X007843Y012059D01*
X007789Y011983D01*
X007732Y011909D01*
X007670Y011838D01*
X007606Y011770D01*
X007538Y011706D01*
X007467Y011644D01*
X007393Y011587D01*
X007317Y011533D01*
X007237Y011483D01*
X007156Y011436D01*
X007072Y011394D01*
X006987Y011356D01*
X006899Y011323D01*
X006810Y011293D01*
X006720Y011268D01*
X006628Y011248D01*
X006536Y011232D01*
X006443Y011220D01*
X006350Y011213D01*
X006256Y011211D01*
X006162Y011213D01*
X006069Y011220D01*
X005976Y011232D01*
X005884Y011248D01*
X005792Y011268D01*
X005702Y011293D01*
X005613Y011323D01*
X005525Y011356D01*
X005440Y011394D01*
X005356Y011436D01*
X005275Y011483D01*
X005195Y011533D01*
X005119Y011587D01*
X005045Y011644D01*
X004974Y011706D01*
X004906Y011770D01*
X004842Y011838D01*
X004780Y011909D01*
X004723Y011983D01*
X004669Y012059D01*
X004619Y012139D01*
X004572Y012220D01*
X004530Y012304D01*
X004492Y012389D01*
X004459Y012477D01*
X004429Y012566D01*
X004404Y012656D01*
X004384Y012748D01*
X004368Y012840D01*
X004356Y012933D01*
X004349Y013026D01*
X004347Y013120D01*
D12*
X001362Y014628D02*
X001364Y014633D01*
X001368Y014637D01*
X001373Y014638D01*
X001379Y014636D01*
X001382Y014631D01*
X001382Y014625D01*
X001379Y014620D01*
X001373Y014618D01*
X001368Y014619D01*
X001364Y014623D01*
X001362Y014628D01*
X007006Y020256D02*
X007008Y020269D01*
X007013Y020282D01*
X007022Y020293D01*
X007033Y020300D01*
X007046Y020305D01*
X007059Y020306D01*
X007073Y020303D01*
X007085Y020297D01*
X007095Y020288D01*
X007102Y020276D01*
X007106Y020263D01*
X007106Y020249D01*
X007102Y020236D01*
X007095Y020224D01*
X007085Y020215D01*
X007073Y020209D01*
X007059Y020206D01*
X007046Y020207D01*
X007033Y020212D01*
X007022Y020219D01*
X007013Y020230D01*
X007008Y020243D01*
X007006Y020256D01*
X003738Y007899D02*
X003740Y007913D01*
X003745Y007927D01*
X003754Y007939D01*
X003765Y007948D01*
X003778Y007954D01*
X003792Y007957D01*
X003807Y007956D01*
X003821Y007951D01*
X003833Y007944D01*
X003843Y007933D01*
X003850Y007920D01*
X003854Y007906D01*
X003854Y007892D01*
X003850Y007878D01*
X003843Y007865D01*
X003833Y007854D01*
X003821Y007847D01*
X003807Y007842D01*
X003792Y007841D01*
X003778Y007844D01*
X003765Y007850D01*
X003754Y007859D01*
X003745Y007871D01*
X003740Y007885D01*
X003738Y007899D01*
D13*
X002585Y013713D02*
X002627Y013755D01*
X002627Y013963D01*
X002502Y013963D01*
X002460Y013922D01*
X002460Y013838D01*
X002502Y013797D01*
X002627Y013797D01*
X002585Y013713D02*
X002543Y013713D01*
X002351Y013797D02*
X002225Y013797D01*
X002184Y013838D01*
X002225Y013880D01*
X002351Y013880D01*
X002351Y013922D02*
X002351Y013797D01*
X002351Y013922D02*
X002309Y013963D01*
X002225Y013963D01*
X002074Y014047D02*
X002074Y013797D01*
X001907Y013797D02*
X001907Y014047D01*
X001991Y013963D01*
X002074Y014047D01*
X001695Y016608D02*
X001611Y016608D01*
X001653Y016608D02*
X001653Y016858D01*
X001611Y016858D01*
X001502Y016733D02*
X001502Y016691D01*
X001335Y016691D01*
X001335Y016649D02*
X001335Y016733D01*
X001377Y016774D01*
X001460Y016774D01*
X001502Y016733D01*
X001460Y016608D02*
X001377Y016608D01*
X001335Y016649D01*
X001226Y016608D02*
X001101Y016608D01*
X001059Y016649D01*
X001059Y016733D01*
X001101Y016774D01*
X001226Y016774D01*
X001160Y016997D02*
X001160Y017163D01*
X001160Y017080D02*
X001243Y017163D01*
X001285Y017163D01*
X001390Y017122D02*
X001390Y017038D01*
X001432Y016997D01*
X001515Y016997D01*
X001557Y017038D01*
X001557Y017122D01*
X001515Y017163D01*
X001432Y017163D01*
X001390Y017122D01*
X001051Y017163D02*
X001051Y016955D01*
X001009Y016913D01*
X000967Y016913D01*
X000925Y016997D02*
X001051Y016997D01*
X000925Y016997D02*
X000884Y017038D01*
X000884Y017163D01*
X000774Y017122D02*
X000691Y017122D01*
X000774Y017122D02*
X000774Y017038D01*
X000733Y016997D01*
X000649Y016997D01*
X000607Y017038D01*
X000607Y017205D01*
X000649Y017247D01*
X000733Y017247D01*
X000774Y017205D01*
X000590Y016858D02*
X000673Y016774D01*
X000673Y016608D01*
X000783Y016649D02*
X000783Y016733D01*
X000824Y016774D01*
X000950Y016774D01*
X000950Y016608D02*
X000824Y016608D01*
X000783Y016649D01*
X000673Y016733D02*
X000506Y016733D01*
X000506Y016774D02*
X000590Y016858D01*
X000506Y016774D02*
X000506Y016608D01*
X006036Y019656D02*
X006038Y019685D01*
X006044Y019714D01*
X006053Y019742D01*
X006067Y019768D01*
X006083Y019792D01*
X006103Y019814D01*
X006126Y019833D01*
X006150Y019849D01*
X006177Y019861D01*
X006205Y019870D01*
X006234Y019875D01*
X006263Y019876D01*
X006293Y019873D01*
X006321Y019866D01*
X006349Y019856D01*
X006374Y019841D01*
X006398Y019824D01*
X006419Y019804D01*
X006437Y019781D01*
X006452Y019755D01*
X006464Y019728D01*
X006472Y019700D01*
X006476Y019671D01*
X006476Y019641D01*
X006472Y019612D01*
X006464Y019584D01*
X006452Y019557D01*
X006437Y019531D01*
X006419Y019508D01*
X006398Y019488D01*
X006374Y019471D01*
X006349Y019456D01*
X006321Y019446D01*
X006293Y019439D01*
X006263Y019436D01*
X006234Y019437D01*
X006205Y019442D01*
X006177Y019451D01*
X006150Y019463D01*
X006126Y019479D01*
X006103Y019498D01*
X006083Y019520D01*
X006067Y019544D01*
X006053Y019570D01*
X006044Y019598D01*
X006038Y019627D01*
X006036Y019656D01*
X006256Y019656D02*
X006256Y019876D01*
X006304Y019871D01*
X006351Y019854D01*
X006393Y019828D01*
X006428Y019793D01*
X006454Y019752D01*
X006470Y019705D01*
X006476Y019656D01*
X006256Y019656D01*
X006256Y019674D02*
X006474Y019674D01*
X006464Y019722D02*
X006256Y019722D01*
X006256Y019771D02*
X006442Y019771D01*
X006402Y019819D02*
X006256Y019819D01*
X006256Y019868D02*
X006313Y019868D01*
X007535Y024381D02*
X007732Y024381D01*
X007732Y026349D01*
X008000Y026192D02*
X008000Y024814D01*
X011937Y024814D01*
X011937Y026192D01*
X008000Y026192D01*
X008868Y024781D02*
X008868Y024681D01*
X009068Y024681D02*
X009068Y024781D01*
X009868Y024781D02*
X009868Y024681D01*
X010068Y024681D02*
X010068Y024781D01*
X010868Y024781D02*
X010868Y024681D01*
X011068Y024681D02*
X011068Y024781D01*
X004976Y024381D02*
X004779Y024381D01*
X004779Y026349D01*
X010100Y013464D02*
X010100Y012464D01*
X011100Y012464D01*
X011100Y013464D01*
X012100Y013464D01*
X012100Y012464D01*
X011100Y012464D01*
X011100Y013464D02*
X010100Y013464D01*
D14*
X010506Y013694D02*
X010506Y014024D01*
X010671Y014024D01*
X010726Y013969D01*
X010726Y013914D01*
X010671Y013859D01*
X010506Y013859D01*
X010671Y013859D02*
X010726Y013804D01*
X010726Y013749D01*
X010671Y013694D01*
X010506Y013694D01*
X010875Y013749D02*
X010930Y013694D01*
X011040Y013694D01*
X011095Y013749D01*
X011095Y014024D01*
X011243Y014024D02*
X011463Y014024D01*
X011463Y013969D01*
X011243Y013749D01*
X011243Y013694D01*
X011463Y013694D01*
X011611Y013694D02*
X011831Y013694D01*
X011611Y013694D02*
X011611Y013749D01*
X011831Y013969D01*
X011831Y014024D01*
X011611Y014024D01*
X010875Y014024D02*
X010875Y013749D01*
X010982Y012204D02*
X010872Y012094D01*
X010872Y011874D01*
X010872Y012039D02*
X011092Y012039D01*
X011092Y012094D02*
X011092Y011874D01*
X011240Y011929D02*
X011240Y012149D01*
X011295Y012204D01*
X011405Y012204D01*
X011460Y012149D01*
X011460Y012039D02*
X011350Y012039D01*
X011460Y012039D02*
X011460Y011929D01*
X011405Y011874D01*
X011295Y011874D01*
X011240Y011929D01*
X011092Y012094D02*
X010982Y012204D01*
X010724Y012204D02*
X010503Y012204D01*
X010613Y012204D02*
X010613Y011874D01*
X010300Y011929D02*
X010300Y012204D01*
X010245Y012204D02*
X010355Y012204D01*
X010300Y011929D02*
X010245Y011874D01*
X010190Y011874D01*
X010135Y011929D01*
X002787Y012843D02*
X002787Y012898D01*
X002787Y012843D02*
X002677Y012733D01*
X002677Y012568D01*
X002677Y012733D02*
X002566Y012843D01*
X002566Y012898D01*
X002167Y013048D02*
X001946Y013378D01*
X002167Y013378D02*
X001946Y013048D01*
X001846Y012278D02*
X002067Y012278D01*
X002067Y012223D01*
X001846Y012003D01*
X001846Y011948D01*
X002067Y011948D01*
D15*
X004628Y016118D02*
X004855Y016118D01*
X004742Y016118D02*
X004742Y016458D01*
X004628Y016344D01*
X004996Y016401D02*
X005053Y016458D01*
X005167Y016458D01*
X005223Y016401D01*
X005223Y016344D01*
X004996Y016118D01*
X005223Y016118D01*
X005733Y016118D02*
X005733Y016458D01*
X005846Y016344D01*
X005960Y016458D01*
X005960Y016118D01*
X006101Y016118D02*
X006101Y016344D01*
X006215Y016458D01*
X006328Y016344D01*
X006328Y016118D01*
X006328Y016288D02*
X006101Y016288D01*
X006066Y016718D02*
X006009Y016774D01*
X006066Y016718D02*
X006179Y016718D01*
X006236Y016774D01*
X006236Y016831D01*
X006179Y016888D01*
X006123Y016888D01*
X006179Y016888D02*
X006236Y016944D01*
X006236Y017001D01*
X006179Y017058D01*
X006066Y017058D01*
X006009Y017001D01*
X005868Y016944D02*
X005754Y016718D01*
X005641Y016944D01*
X005733Y017318D02*
X005960Y017318D01*
X006101Y017318D02*
X006101Y017658D01*
X006328Y017318D01*
X006328Y017658D01*
X006470Y017601D02*
X006470Y017544D01*
X006526Y017488D01*
X006640Y017488D01*
X006697Y017431D01*
X006697Y017374D01*
X006640Y017318D01*
X006526Y017318D01*
X006470Y017374D01*
X006470Y017601D02*
X006526Y017658D01*
X006640Y017658D01*
X006697Y017601D01*
X006838Y017488D02*
X006838Y017374D01*
X006895Y017318D01*
X007065Y017318D01*
X007065Y017261D02*
X007065Y017544D01*
X006895Y017544D01*
X006838Y017488D01*
X006951Y017204D02*
X007008Y017204D01*
X007065Y017261D01*
X006732Y017058D02*
X006562Y016888D01*
X006789Y016888D01*
X006732Y016718D02*
X006732Y017058D01*
X006434Y016774D02*
X006434Y016718D01*
X006378Y016718D01*
X006378Y016774D01*
X006434Y016774D01*
X006470Y016458D02*
X006470Y016401D01*
X006583Y016288D01*
X006583Y016118D01*
X006583Y016288D02*
X006697Y016401D01*
X006697Y016458D01*
X007206Y016344D02*
X007320Y016458D01*
X007320Y016118D01*
X007433Y016118D02*
X007206Y016118D01*
X007575Y016174D02*
X007631Y016118D01*
X007745Y016118D01*
X007801Y016174D01*
X007801Y016288D01*
X007745Y016344D01*
X007688Y016344D01*
X007575Y016288D01*
X007575Y016458D01*
X007801Y016458D01*
X005960Y017658D02*
X005733Y017658D01*
X005733Y017318D01*
X005592Y017374D02*
X005535Y017318D01*
X005421Y017318D01*
X005365Y017374D01*
X005421Y017488D02*
X005535Y017488D01*
X005592Y017431D01*
X005592Y017374D01*
X005733Y017488D02*
X005846Y017488D01*
X005592Y017601D02*
X005535Y017658D01*
X005421Y017658D01*
X005365Y017601D01*
X005365Y017544D01*
X005421Y017488D01*
X008365Y021124D02*
X008365Y021351D01*
X008478Y021238D02*
X008251Y021238D01*
X007016Y022828D02*
X007016Y023308D01*
X006536Y023408D02*
X006276Y023408D01*
X005796Y023308D02*
X005796Y023188D01*
X005796Y022948D01*
X005796Y022828D01*
X002310Y025959D02*
X002310Y026132D01*
X002267Y026176D01*
X002137Y026176D01*
X002137Y025915D01*
X002267Y025915D01*
X002310Y025959D01*
X002016Y025915D02*
X001842Y025915D01*
X001842Y026176D01*
X002016Y026176D01*
X001929Y026045D02*
X001842Y026045D01*
X001721Y025915D02*
X001548Y025915D01*
X001548Y026176D01*
X011250Y008559D02*
X011750Y008559D01*
X012000Y008309D01*
X012000Y007809D01*
X011750Y007559D01*
X012000Y007309D01*
X012000Y006809D01*
X011750Y006559D01*
X012000Y006309D01*
X012000Y005809D01*
X011750Y005559D01*
X012000Y005309D01*
X012000Y004809D01*
X011750Y004559D01*
X011250Y004559D01*
X011000Y004809D01*
X011000Y005309D01*
X011250Y005559D01*
X011000Y005809D01*
X011000Y006309D01*
X011250Y006559D01*
X011000Y006809D01*
X011000Y007309D01*
X011250Y007559D01*
X011000Y007809D01*
X011000Y008309D01*
X011250Y008559D01*
X010689Y008172D02*
X010689Y008115D01*
X010632Y008059D01*
X010689Y008002D01*
X010689Y007945D01*
X010632Y007889D01*
X010518Y007889D01*
X010462Y007945D01*
X010320Y008002D02*
X010320Y008229D01*
X010462Y008172D02*
X010518Y008229D01*
X010632Y008229D01*
X010689Y008172D01*
X010632Y008059D02*
X010575Y008059D01*
X010320Y008002D02*
X010207Y007889D01*
X010093Y008002D01*
X010093Y008229D01*
X009952Y008172D02*
X009952Y008115D01*
X009895Y008059D01*
X009952Y008002D01*
X009952Y007945D01*
X009895Y007889D01*
X009782Y007889D01*
X009725Y007945D01*
X009838Y008059D02*
X009895Y008059D01*
X009952Y008172D02*
X009895Y008229D01*
X009782Y008229D01*
X009725Y008172D01*
X010093Y007229D02*
X010320Y007229D01*
X010207Y007229D02*
X010207Y006889D01*
X010462Y006889D02*
X010689Y007229D01*
X010462Y007229D02*
X010689Y006889D01*
X010689Y006229D02*
X010462Y005889D01*
X010320Y005889D02*
X010207Y006002D01*
X010264Y006002D02*
X010093Y006002D01*
X010093Y005889D02*
X010093Y006229D01*
X010264Y006229D01*
X010320Y006172D01*
X010320Y006059D01*
X010264Y006002D01*
X010462Y006229D02*
X010689Y005889D01*
X010632Y005229D02*
X010462Y005229D01*
X010462Y004889D01*
X010632Y004889D01*
X010689Y004945D01*
X010689Y005172D01*
X010632Y005229D01*
X010320Y005229D02*
X010320Y004889D01*
X010093Y005229D01*
X010093Y004889D01*
X009952Y004945D02*
X009952Y005059D01*
X009838Y005059D01*
X009725Y005172D02*
X009725Y004945D01*
X009782Y004889D01*
X009895Y004889D01*
X009952Y004945D01*
X009952Y005172D02*
X009895Y005229D01*
X009782Y005229D01*
X009725Y005172D01*
X000890Y005549D02*
X000630Y005549D01*
X000717Y005636D01*
X000630Y005723D01*
X000890Y005723D01*
X000847Y005844D02*
X000673Y005844D01*
X000630Y005887D01*
X000630Y005974D01*
X000673Y006017D01*
X000847Y006017D01*
X000890Y005974D01*
X000890Y005887D01*
X000847Y005844D01*
X000890Y006139D02*
X000630Y006139D01*
X000630Y006269D01*
X000673Y006312D01*
X000847Y006312D01*
X000890Y006269D01*
X000890Y006139D01*
X000890Y006433D02*
X000630Y006433D01*
X000630Y006607D01*
X000760Y006520D02*
X000760Y006433D01*
X000890Y006433D02*
X000890Y006607D01*
X000630Y003554D02*
X000630Y003380D01*
X000630Y003467D02*
X000890Y003467D01*
X000890Y003259D02*
X000890Y003086D01*
X000630Y003086D01*
X000630Y003259D01*
X000760Y003173D02*
X000760Y003086D01*
X000803Y002965D02*
X000847Y002965D01*
X000890Y002921D01*
X000890Y002835D01*
X000847Y002791D01*
X000760Y002835D02*
X000760Y002921D01*
X000803Y002965D01*
X000673Y002965D02*
X000630Y002921D01*
X000630Y002835D01*
X000673Y002791D01*
X000717Y002791D01*
X000760Y002835D01*
X000890Y002670D02*
X000890Y002497D01*
X000630Y002497D01*
X000630Y002670D01*
X000760Y002583D02*
X000760Y002497D01*
X000760Y002375D02*
X000673Y002375D01*
X000630Y002332D01*
X000630Y002202D01*
X000890Y002202D01*
X000803Y002202D02*
X000803Y002332D01*
X000760Y002375D01*
X000803Y002289D02*
X000890Y002375D01*
D16*
X005796Y022948D02*
X005817Y022950D01*
X005837Y022955D01*
X005856Y022964D01*
X005873Y022976D01*
X005888Y022991D01*
X005900Y023008D01*
X005909Y023027D01*
X005914Y023047D01*
X005916Y023068D01*
X005914Y023089D01*
X005909Y023109D01*
X005900Y023128D01*
X005888Y023145D01*
X005873Y023160D01*
X005856Y023172D01*
X005837Y023181D01*
X005817Y023186D01*
X005796Y023188D01*
D17*
X005772Y022557D02*
X005459Y022243D01*
X005615Y022243D02*
X005615Y022557D01*
X005459Y022557D02*
X005772Y022243D01*
X005772Y022400D02*
X005459Y022400D01*
D18*
X003436Y025921D02*
X002964Y025921D01*
X002964Y026196D02*
X003436Y026196D01*
D19*
X003121Y026059D03*
D20*
X006531Y001349D03*
D21*
X008933Y015719D02*
X009878Y015719D01*
X010586Y015916D02*
X010586Y017884D01*
X009878Y018081D02*
X008933Y018081D01*
X008224Y017845D02*
X008224Y015916D01*
X008716Y016900D02*
X008718Y016952D01*
X008724Y017004D01*
X008734Y017055D01*
X008747Y017105D01*
X008765Y017155D01*
X008786Y017202D01*
X008810Y017248D01*
X008839Y017292D01*
X008870Y017334D01*
X008904Y017373D01*
X008941Y017410D01*
X008981Y017443D01*
X009024Y017474D01*
X009068Y017501D01*
X009114Y017525D01*
X009163Y017545D01*
X009212Y017561D01*
X009263Y017574D01*
X009314Y017583D01*
X009366Y017588D01*
X009418Y017589D01*
X009470Y017586D01*
X009522Y017579D01*
X009573Y017568D01*
X009623Y017554D01*
X009672Y017535D01*
X009719Y017513D01*
X009764Y017488D01*
X009808Y017459D01*
X009849Y017427D01*
X009888Y017392D01*
X009923Y017354D01*
X009956Y017313D01*
X009986Y017271D01*
X010012Y017226D01*
X010035Y017179D01*
X010054Y017130D01*
X010070Y017080D01*
X010082Y017030D01*
X010090Y016978D01*
X010094Y016926D01*
X010094Y016874D01*
X010090Y016822D01*
X010082Y016770D01*
X010070Y016720D01*
X010054Y016670D01*
X010035Y016621D01*
X010012Y016574D01*
X009986Y016529D01*
X009956Y016487D01*
X009923Y016446D01*
X009888Y016408D01*
X009849Y016373D01*
X009808Y016341D01*
X009764Y016312D01*
X009719Y016287D01*
X009672Y016265D01*
X009623Y016246D01*
X009573Y016232D01*
X009522Y016221D01*
X009470Y016214D01*
X009418Y016211D01*
X009366Y016212D01*
X009314Y016217D01*
X009263Y016226D01*
X009212Y016239D01*
X009163Y016255D01*
X009114Y016275D01*
X009068Y016299D01*
X009024Y016326D01*
X008981Y016357D01*
X008941Y016390D01*
X008904Y016427D01*
X008870Y016466D01*
X008839Y016508D01*
X008810Y016552D01*
X008786Y016598D01*
X008765Y016645D01*
X008747Y016695D01*
X008734Y016745D01*
X008724Y016796D01*
X008718Y016848D01*
X008716Y016900D01*
X004287Y015916D02*
X004287Y017884D01*
X003578Y018081D02*
X002633Y018081D01*
X001925Y017845D02*
X001925Y015916D01*
X002633Y015719D02*
X003578Y015719D01*
X002417Y016900D02*
X002419Y016952D01*
X002425Y017004D01*
X002435Y017055D01*
X002448Y017105D01*
X002466Y017155D01*
X002487Y017202D01*
X002511Y017248D01*
X002540Y017292D01*
X002571Y017334D01*
X002605Y017373D01*
X002642Y017410D01*
X002682Y017443D01*
X002725Y017474D01*
X002769Y017501D01*
X002815Y017525D01*
X002864Y017545D01*
X002913Y017561D01*
X002964Y017574D01*
X003015Y017583D01*
X003067Y017588D01*
X003119Y017589D01*
X003171Y017586D01*
X003223Y017579D01*
X003274Y017568D01*
X003324Y017554D01*
X003373Y017535D01*
X003420Y017513D01*
X003465Y017488D01*
X003509Y017459D01*
X003550Y017427D01*
X003589Y017392D01*
X003624Y017354D01*
X003657Y017313D01*
X003687Y017271D01*
X003713Y017226D01*
X003736Y017179D01*
X003755Y017130D01*
X003771Y017080D01*
X003783Y017030D01*
X003791Y016978D01*
X003795Y016926D01*
X003795Y016874D01*
X003791Y016822D01*
X003783Y016770D01*
X003771Y016720D01*
X003755Y016670D01*
X003736Y016621D01*
X003713Y016574D01*
X003687Y016529D01*
X003657Y016487D01*
X003624Y016446D01*
X003589Y016408D01*
X003550Y016373D01*
X003509Y016341D01*
X003465Y016312D01*
X003420Y016287D01*
X003373Y016265D01*
X003324Y016246D01*
X003274Y016232D01*
X003223Y016221D01*
X003171Y016214D01*
X003119Y016211D01*
X003067Y016212D01*
X003015Y016217D01*
X002964Y016226D01*
X002913Y016239D01*
X002864Y016255D01*
X002815Y016275D01*
X002769Y016299D01*
X002725Y016326D01*
X002682Y016357D01*
X002642Y016390D01*
X002605Y016427D01*
X002571Y016466D01*
X002540Y016508D01*
X002511Y016552D01*
X002487Y016598D01*
X002466Y016645D01*
X002448Y016695D01*
X002435Y016745D01*
X002425Y016796D01*
X002419Y016848D01*
X002417Y016900D01*
D22*
X005022Y013660D02*
X004954Y013591D01*
X004954Y013455D01*
X005022Y013386D01*
X005296Y013386D01*
X005364Y013455D01*
X005364Y013591D01*
X005296Y013660D01*
X005159Y013660D01*
X005159Y013523D01*
X005364Y013216D02*
X005364Y013079D01*
X005364Y013148D02*
X004954Y013148D01*
X004954Y013216D02*
X004954Y013079D01*
X005022Y012892D02*
X004954Y012824D01*
X004954Y012687D01*
X005022Y012619D01*
X005090Y012619D01*
X005159Y012687D01*
X005159Y012824D01*
X005227Y012892D01*
X005296Y012892D01*
X005364Y012824D01*
X005364Y012687D01*
X005296Y012619D01*
X007050Y012733D02*
X007119Y012665D01*
X007392Y012665D01*
X007461Y012733D01*
X007461Y012870D01*
X007392Y012938D01*
X007255Y012938D01*
X007255Y012801D01*
X007119Y012938D02*
X007050Y012870D01*
X007050Y012733D01*
X007050Y013125D02*
X007461Y013398D01*
X007050Y013398D01*
X007050Y013585D02*
X007050Y013790D01*
X007119Y013859D01*
X007392Y013859D01*
X007461Y013790D01*
X007461Y013585D01*
X007050Y013585D01*
X007050Y013125D02*
X007461Y013125D01*
X009745Y011457D02*
X009882Y011594D01*
X009882Y011184D01*
X009745Y011184D02*
X010019Y011184D01*
X010019Y009994D02*
X009745Y009994D01*
X010019Y009994D02*
X010019Y009925D01*
X009745Y009652D01*
X009745Y009584D01*
X011745Y009652D02*
X011813Y009584D01*
X011950Y009584D01*
X012019Y009652D01*
X012019Y009720D01*
X011950Y009789D01*
X011813Y009789D01*
X011745Y009857D01*
X011745Y009925D01*
X011813Y009994D01*
X011950Y009994D01*
X012019Y009925D01*
X012019Y009857D01*
X011950Y009789D01*
X011813Y009789D02*
X011745Y009720D01*
X011745Y009652D01*
X011745Y011184D02*
X012019Y011457D01*
X012019Y011525D01*
X011950Y011594D01*
X011813Y011594D01*
X011745Y011525D01*
X011745Y011184D02*
X012019Y011184D01*
M02*
