%
M48
M72
T01C0.0118
T02C0.0120
T03C0.0236
T04C0.0260
T05C0.0276
T06C0.0315
T07C0.0354
T08C0.0394
T09C0.0400
T10C0.0413
T11C0.0472
T12C0.0787
%
T01
X810Y1019
X1360Y1019
X1910Y1019
X2460Y1019
X3010Y1019
X3560Y1019
X4110Y1019
X4660Y1019
X4630Y1579
X5330Y1779
X5330Y2229
X5380Y2629
X5930Y2669
X6530Y2669
X7130Y2669
X7730Y2669
X8330Y2669
X9530Y2669
X10130Y2669
X10730Y2669
X11330Y2669
X11830Y2669
X11830Y3169
X11830Y3769
X11830Y4369
X5310Y1019
X4630Y2379
X4630Y2779
X4380Y3079
X4280Y3429
X4930Y3429
T02
X6050Y4659
X6600Y4659
X7150Y4659
X7650Y4659
X6740Y5589
X6740Y6539
X5740Y6539
X5740Y5589
X4800Y6709
X4800Y7209
X3800Y7309
X3800Y7709
X3750Y8209
X4750Y8809
X5900Y9009
X6950Y9009
X7650Y7609
X9290Y8339
X9800Y8809
X8800Y10959
X6550Y13359
X5350Y10909
X4800Y10909
X3980Y10289
X3700Y11309
X3700Y12859
X4150Y17709
X5550Y18409
X4550Y19409
X4100Y19409
X3700Y19809
X3350Y20309
X1800Y20259
X3150Y22409
X4500Y23409
X5500Y25129
X6130Y25129
X6620Y25129
X7200Y23909
X7600Y24159
X8450Y23359
X10150Y21309
X10990Y22889
X11310Y22889
X11700Y22889
X11660Y19339
X11520Y19089
X11380Y19339
X7500Y20209
X4600Y26009
X2000Y26059
X1400Y25109
X1400Y24609
X1000Y22909
X1950Y6109
X1400Y5809
X900Y4009
X2450Y3409
X2950Y3709
X3350Y3259
X3650Y1459
X6200Y3209
X7650Y3159
X8250Y3159
T03
X9250Y21059
T04
X10600Y11339
X11100Y11339
X11100Y10839
X10600Y10839
X10600Y10339
X11100Y10339
X11100Y9839
X10600Y9839
T05
X10968Y24381
X9968Y24381
X8968Y24381
T06
X6756Y12332
X5756Y12332
T07
X5756Y21375
X6756Y21375
T08
X10600Y12964
X11600Y12964
T09
X11500Y8059
X11500Y7059
X11500Y6059
X11500Y5059
X1080Y8659
X1080Y9659
X1080Y10659
T10
X5301Y24487
X7210Y24487
T11
X7328Y25680
X5183Y25680
T12
X1150Y19059
X1150Y13059
X10850Y3559
X11450Y17009
M30
