G75*
%MOIN*%
%OFA0B0*%
%FSLAX25Y25*%
%IPPOS*%
%LPD*%
%AMOC8*
5,1,8,0,0,1.08239X$1,22.5*
%
%ADD10C,0.04356*%
%ADD11C,0.05315*%
%ADD12C,0.05906*%
%ADD13C,0.06000*%
%ADD14C,0.04750*%
%ADD15C,0.04200*%
%ADD16C,0.02800*%
%ADD17C,0.00800*%
%ADD18C,0.02781*%
%ADD19C,0.03962*%
%ADD20C,0.01000*%
%ADD21C,0.01200*%
D10*
X0089681Y0243806D03*
X0099681Y0243806D03*
X0109681Y0243806D03*
D11*
X0067555Y0213746D03*
X0057555Y0213746D03*
D12*
X0106000Y0129640D03*
X0116000Y0129640D03*
D13*
X0115000Y0080585D03*
X0115000Y0070585D03*
X0115000Y0060585D03*
X0115000Y0050585D03*
X0010800Y0086585D03*
X0010800Y0096585D03*
X0010800Y0106585D03*
D14*
X0057555Y0123321D03*
X0067555Y0123321D03*
D15*
X0106000Y0113385D03*
X0106000Y0108385D03*
X0106000Y0103385D03*
X0106000Y0098385D03*
X0111000Y0098385D03*
X0111000Y0103385D03*
X0111000Y0108385D03*
X0111000Y0113385D03*
D16*
X0088000Y0109585D03*
X0083500Y0100085D03*
X0069500Y0090085D03*
X0059000Y0090085D03*
X0047500Y0088085D03*
X0038000Y0081585D03*
X0038000Y0077085D03*
X0038000Y0073085D03*
X0048000Y0072085D03*
X0048000Y0067085D03*
X0057400Y0065385D03*
X0057400Y0055885D03*
X0060500Y0046585D03*
X0066000Y0046585D03*
X0071500Y0046585D03*
X0076500Y0046585D03*
X0067400Y0055885D03*
X0067400Y0065385D03*
X0076500Y0076085D03*
X0092900Y0083385D03*
X0098000Y0088085D03*
X0065500Y0133585D03*
X0053500Y0109085D03*
X0048000Y0109085D03*
X0039800Y0102885D03*
X0037000Y0113085D03*
X0037000Y0128585D03*
X0041500Y0177085D03*
X0055500Y0184085D03*
X0045500Y0194085D03*
X0037000Y0198085D03*
X0033500Y0203085D03*
X0048500Y0219585D03*
X0045000Y0234085D03*
X0052500Y0242585D03*
X0059000Y0242585D03*
X0065000Y0242585D03*
X0072000Y0239085D03*
X0076000Y0241585D03*
X0084500Y0233585D03*
X0101500Y0213085D03*
X0109900Y0228885D03*
X0113100Y0228885D03*
X0117000Y0228885D03*
X0116600Y0193385D03*
X0115200Y0190885D03*
X0113800Y0193385D03*
X0075000Y0202085D03*
X0031500Y0224085D03*
X0018000Y0202585D03*
X0010000Y0229085D03*
X0014000Y0246085D03*
X0014000Y0251085D03*
X0020000Y0260585D03*
X0043500Y0260585D03*
X0019500Y0061085D03*
X0014000Y0058085D03*
X0009000Y0040085D03*
X0024500Y0034085D03*
X0029500Y0037085D03*
X0033500Y0032585D03*
X0036500Y0014585D03*
X0062000Y0032085D03*
X0076500Y0031585D03*
X0082500Y0031585D03*
D17*
X0004900Y0008985D02*
X0004900Y0262091D01*
X0018111Y0262091D01*
X0017965Y0261945D01*
X0017600Y0261062D01*
X0017600Y0260108D01*
X0017965Y0259226D01*
X0018641Y0258550D01*
X0019523Y0258185D01*
X0020477Y0258185D01*
X0021359Y0258550D01*
X0022035Y0259226D01*
X0022400Y0260108D01*
X0022400Y0261062D01*
X0022035Y0261945D01*
X0021889Y0262091D01*
X0041611Y0262091D01*
X0041465Y0261945D01*
X0041100Y0261062D01*
X0041100Y0260108D01*
X0041465Y0259226D01*
X0042141Y0258550D01*
X0043023Y0258185D01*
X0043977Y0258185D01*
X0044859Y0258550D01*
X0045535Y0259226D01*
X0045900Y0260108D01*
X0045900Y0261062D01*
X0045535Y0261945D01*
X0045389Y0262091D01*
X0120210Y0262091D01*
X0120210Y0025302D01*
X0054681Y0025302D01*
X0054681Y0008985D01*
X0004900Y0008985D01*
X0004900Y0009182D02*
X0054681Y0009182D01*
X0054681Y0009981D02*
X0004900Y0009981D01*
X0004900Y0010779D02*
X0054681Y0010779D01*
X0054681Y0011578D02*
X0004900Y0011578D01*
X0004900Y0012376D02*
X0035561Y0012376D01*
X0035141Y0012550D02*
X0036023Y0012185D01*
X0036977Y0012185D01*
X0037859Y0012550D01*
X0038535Y0013226D01*
X0038900Y0014108D01*
X0038900Y0015062D01*
X0038535Y0015945D01*
X0037859Y0016620D01*
X0036977Y0016985D01*
X0036023Y0016985D01*
X0035141Y0016620D01*
X0034465Y0015945D01*
X0034100Y0015062D01*
X0034100Y0014108D01*
X0034465Y0013226D01*
X0035141Y0012550D01*
X0034516Y0013175D02*
X0004900Y0013175D01*
X0004900Y0013973D02*
X0034156Y0013973D01*
X0034100Y0014772D02*
X0004900Y0014772D01*
X0004900Y0015570D02*
X0034310Y0015570D01*
X0034890Y0016369D02*
X0004900Y0016369D01*
X0004900Y0017167D02*
X0054681Y0017167D01*
X0054681Y0016369D02*
X0038110Y0016369D01*
X0038690Y0015570D02*
X0054681Y0015570D01*
X0054681Y0014772D02*
X0038900Y0014772D01*
X0038844Y0013973D02*
X0054681Y0013973D01*
X0054681Y0013175D02*
X0038484Y0013175D01*
X0037439Y0012376D02*
X0054681Y0012376D01*
X0054681Y0017966D02*
X0004900Y0017966D01*
X0004900Y0018764D02*
X0054681Y0018764D01*
X0054681Y0019563D02*
X0004900Y0019563D01*
X0004900Y0020361D02*
X0054681Y0020361D01*
X0054681Y0021160D02*
X0004900Y0021160D01*
X0004900Y0021958D02*
X0054681Y0021958D01*
X0054681Y0022757D02*
X0004900Y0022757D01*
X0004900Y0023555D02*
X0054681Y0023555D01*
X0054681Y0024354D02*
X0004900Y0024354D01*
X0004900Y0025152D02*
X0054681Y0025152D01*
X0059965Y0030726D02*
X0060641Y0030050D01*
X0061523Y0029685D01*
X0062477Y0029685D01*
X0063359Y0030050D01*
X0064035Y0030726D01*
X0064400Y0031608D01*
X0064400Y0032562D01*
X0064035Y0033445D01*
X0063359Y0034120D01*
X0062477Y0034485D01*
X0061523Y0034485D01*
X0060641Y0034120D01*
X0059965Y0033445D01*
X0059600Y0032562D01*
X0059600Y0031608D01*
X0059965Y0030726D01*
X0059959Y0030742D02*
X0035051Y0030742D01*
X0034859Y0030550D02*
X0035535Y0031226D01*
X0035900Y0032108D01*
X0035900Y0033062D01*
X0035535Y0033945D01*
X0034859Y0034620D01*
X0033977Y0034985D01*
X0033521Y0034985D01*
X0035621Y0037085D01*
X0071879Y0037085D01*
X0075000Y0033964D01*
X0075000Y0033479D01*
X0074465Y0032945D01*
X0074100Y0032062D01*
X0074100Y0031108D01*
X0074465Y0030226D01*
X0075141Y0029550D01*
X0076023Y0029185D01*
X0076977Y0029185D01*
X0077859Y0029550D01*
X0078535Y0030226D01*
X0078900Y0031108D01*
X0078900Y0032062D01*
X0078535Y0032945D01*
X0078000Y0033479D01*
X0078000Y0035206D01*
X0077121Y0036085D01*
X0073121Y0040085D01*
X0071879Y0040085D01*
X0035621Y0040085D01*
X0034379Y0040085D01*
X0031887Y0037593D01*
X0031535Y0038445D01*
X0030859Y0039120D01*
X0029977Y0039485D01*
X0029023Y0039485D01*
X0028141Y0039120D01*
X0027465Y0038445D01*
X0027100Y0037562D01*
X0027100Y0036608D01*
X0027465Y0035726D01*
X0027606Y0035585D01*
X0026394Y0035585D01*
X0025859Y0036120D01*
X0024977Y0036485D01*
X0024023Y0036485D01*
X0023141Y0036120D01*
X0022465Y0035445D01*
X0022100Y0034562D01*
X0022100Y0033608D01*
X0022465Y0032726D01*
X0023141Y0032050D01*
X0024023Y0031685D01*
X0024977Y0031685D01*
X0025859Y0032050D01*
X0026394Y0032585D01*
X0031100Y0032585D01*
X0031100Y0032108D01*
X0031465Y0031226D01*
X0032141Y0030550D01*
X0033023Y0030185D01*
X0033977Y0030185D01*
X0034859Y0030550D01*
X0035665Y0031540D02*
X0059628Y0031540D01*
X0059600Y0032339D02*
X0035900Y0032339D01*
X0035869Y0033137D02*
X0059838Y0033137D01*
X0060457Y0033936D02*
X0035538Y0033936D01*
X0034582Y0034734D02*
X0074229Y0034734D01*
X0075000Y0033936D02*
X0063543Y0033936D01*
X0064162Y0033137D02*
X0074658Y0033137D01*
X0074215Y0032339D02*
X0064400Y0032339D01*
X0064372Y0031540D02*
X0074100Y0031540D01*
X0074252Y0030742D02*
X0064041Y0030742D01*
X0063101Y0029943D02*
X0074748Y0029943D01*
X0078252Y0029943D02*
X0080748Y0029943D01*
X0080465Y0030226D02*
X0081141Y0029550D01*
X0082023Y0029185D01*
X0082977Y0029185D01*
X0083859Y0029550D01*
X0084535Y0030226D01*
X0084900Y0031108D01*
X0084900Y0031722D01*
X0086600Y0033422D01*
X0086600Y0083248D01*
X0085663Y0084185D01*
X0082100Y0087748D01*
X0082100Y0098091D01*
X0082141Y0098050D01*
X0083023Y0097685D01*
X0083977Y0097685D01*
X0084859Y0098050D01*
X0085535Y0098726D01*
X0085900Y0099608D01*
X0085900Y0100562D01*
X0085535Y0101445D01*
X0084859Y0102120D01*
X0083977Y0102485D01*
X0083023Y0102485D01*
X0082141Y0102120D01*
X0082100Y0102079D01*
X0082100Y0134748D01*
X0081163Y0135685D01*
X0069100Y0147748D01*
X0069100Y0186748D01*
X0068163Y0187685D01*
X0033328Y0222519D01*
X0033535Y0222726D01*
X0033900Y0223608D01*
X0033900Y0224562D01*
X0033535Y0225445D01*
X0032859Y0226120D01*
X0031977Y0226485D01*
X0031023Y0226485D01*
X0030141Y0226120D01*
X0029465Y0225445D01*
X0029100Y0224562D01*
X0029100Y0223608D01*
X0029465Y0222726D01*
X0029900Y0222291D01*
X0029900Y0221422D01*
X0065900Y0185422D01*
X0065900Y0146422D01*
X0078900Y0133422D01*
X0078900Y0086422D01*
X0083400Y0081922D01*
X0083400Y0034748D01*
X0082637Y0033985D01*
X0082023Y0033985D01*
X0081141Y0033620D01*
X0080465Y0032945D01*
X0080100Y0032062D01*
X0080100Y0031108D01*
X0080465Y0030226D01*
X0080252Y0030742D02*
X0078748Y0030742D01*
X0078900Y0031540D02*
X0080100Y0031540D01*
X0080215Y0032339D02*
X0078785Y0032339D01*
X0078342Y0033137D02*
X0080658Y0033137D01*
X0081904Y0033936D02*
X0078000Y0033936D01*
X0078000Y0034734D02*
X0083387Y0034734D01*
X0083400Y0035533D02*
X0077673Y0035533D01*
X0076875Y0036331D02*
X0083400Y0036331D01*
X0083400Y0037130D02*
X0076076Y0037130D01*
X0075278Y0037928D02*
X0083400Y0037928D01*
X0083400Y0038727D02*
X0074479Y0038727D01*
X0073681Y0039525D02*
X0083400Y0039525D01*
X0083400Y0040324D02*
X0063360Y0040324D01*
X0063121Y0040085D02*
X0064121Y0041085D01*
X0065000Y0041964D01*
X0065000Y0043464D01*
X0065721Y0044185D01*
X0066477Y0044185D01*
X0067359Y0044550D01*
X0068035Y0045226D01*
X0068400Y0046108D01*
X0068400Y0047062D01*
X0068035Y0047945D01*
X0067359Y0048620D01*
X0066477Y0048985D01*
X0065523Y0048985D01*
X0064641Y0048620D01*
X0063965Y0047945D01*
X0063600Y0047062D01*
X0063600Y0046306D01*
X0062545Y0045252D01*
X0062900Y0046108D01*
X0062900Y0047062D01*
X0062535Y0047945D01*
X0061859Y0048620D01*
X0060977Y0048985D01*
X0060023Y0048985D01*
X0059141Y0048620D01*
X0058465Y0047945D01*
X0058100Y0047062D01*
X0058100Y0046108D01*
X0058465Y0045226D01*
X0059141Y0044550D01*
X0060023Y0044185D01*
X0060977Y0044185D01*
X0061859Y0044550D01*
X0062000Y0044691D01*
X0062000Y0043206D01*
X0061879Y0043085D01*
X0059621Y0043085D01*
X0057043Y0045664D01*
X0026957Y0045664D01*
X0026079Y0044785D01*
X0022379Y0041085D01*
X0011184Y0041085D01*
X0011035Y0041445D01*
X0010359Y0042120D01*
X0009477Y0042485D01*
X0008523Y0042485D01*
X0007641Y0042120D01*
X0006965Y0041445D01*
X0006600Y0040562D01*
X0006600Y0039608D01*
X0006965Y0038726D01*
X0007641Y0038050D01*
X0008523Y0037685D01*
X0009477Y0037685D01*
X0010359Y0038050D01*
X0010394Y0038085D01*
X0023621Y0038085D01*
X0024500Y0038964D01*
X0028200Y0042664D01*
X0055800Y0042664D01*
X0057500Y0040964D01*
X0058379Y0040085D01*
X0063121Y0040085D01*
X0064159Y0041123D02*
X0083400Y0041123D01*
X0083400Y0041921D02*
X0064957Y0041921D01*
X0065000Y0042720D02*
X0083400Y0042720D01*
X0083400Y0043518D02*
X0065054Y0043518D01*
X0066795Y0044317D02*
X0070705Y0044317D01*
X0071023Y0044185D02*
X0071977Y0044185D01*
X0072859Y0044550D01*
X0073535Y0045226D01*
X0073900Y0046108D01*
X0073900Y0047062D01*
X0073535Y0047945D01*
X0073000Y0048479D01*
X0073000Y0049206D01*
X0072121Y0050085D01*
X0069621Y0052585D01*
X0030121Y0052585D01*
X0026500Y0056206D01*
X0025621Y0057085D01*
X0017121Y0057085D01*
X0016400Y0057806D01*
X0016400Y0058562D01*
X0016035Y0059445D01*
X0015359Y0060120D01*
X0014477Y0060485D01*
X0013523Y0060485D01*
X0012641Y0060120D01*
X0011965Y0059445D01*
X0011600Y0058562D01*
X0011600Y0057608D01*
X0011965Y0056726D01*
X0012641Y0056050D01*
X0013523Y0055685D01*
X0014279Y0055685D01*
X0015879Y0054085D01*
X0024379Y0054085D01*
X0028000Y0050464D01*
X0028879Y0049585D01*
X0068379Y0049585D01*
X0069742Y0048221D01*
X0069465Y0047945D01*
X0069100Y0047062D01*
X0069100Y0046108D01*
X0069465Y0045226D01*
X0070141Y0044550D01*
X0071023Y0044185D01*
X0072295Y0044317D02*
X0075705Y0044317D01*
X0076023Y0044185D02*
X0075141Y0044550D01*
X0074465Y0045226D01*
X0074100Y0046108D01*
X0074100Y0047062D01*
X0074465Y0047945D01*
X0075141Y0048620D01*
X0076023Y0048985D01*
X0076977Y0048985D01*
X0077859Y0048620D01*
X0078535Y0047945D01*
X0078900Y0047062D01*
X0078900Y0046108D01*
X0078535Y0045226D01*
X0077859Y0044550D01*
X0076977Y0044185D01*
X0076023Y0044185D01*
X0077295Y0044317D02*
X0083400Y0044317D01*
X0083400Y0045115D02*
X0078424Y0045115D01*
X0078820Y0045914D02*
X0083400Y0045914D01*
X0083400Y0046712D02*
X0078900Y0046712D01*
X0078714Y0047511D02*
X0083400Y0047511D01*
X0083400Y0048309D02*
X0078170Y0048309D01*
X0074830Y0048309D02*
X0073170Y0048309D01*
X0073000Y0049108D02*
X0083400Y0049108D01*
X0083400Y0049906D02*
X0072300Y0049906D01*
X0071502Y0050705D02*
X0083400Y0050705D01*
X0083400Y0051503D02*
X0070703Y0051503D01*
X0069905Y0052302D02*
X0083400Y0052302D01*
X0083400Y0053100D02*
X0029606Y0053100D01*
X0028808Y0053899D02*
X0083400Y0053899D01*
X0083400Y0054697D02*
X0028009Y0054697D01*
X0027211Y0055496D02*
X0083400Y0055496D01*
X0083400Y0056294D02*
X0026412Y0056294D01*
X0024565Y0053899D02*
X0004900Y0053899D01*
X0004900Y0054697D02*
X0015266Y0054697D01*
X0014468Y0055496D02*
X0004900Y0055496D01*
X0004900Y0056294D02*
X0012397Y0056294D01*
X0011813Y0057093D02*
X0004900Y0057093D01*
X0004900Y0057891D02*
X0011600Y0057891D01*
X0011653Y0058690D02*
X0004900Y0058690D01*
X0004900Y0059488D02*
X0012009Y0059488D01*
X0013044Y0060287D02*
X0004900Y0060287D01*
X0004900Y0061085D02*
X0017100Y0061085D01*
X0017100Y0060608D02*
X0017465Y0059726D01*
X0018141Y0059050D01*
X0019023Y0058685D01*
X0019977Y0058685D01*
X0020859Y0059050D01*
X0021535Y0059726D01*
X0021900Y0060608D01*
X0021900Y0061562D01*
X0021535Y0062445D01*
X0020859Y0063120D01*
X0019977Y0063485D01*
X0019023Y0063485D01*
X0018141Y0063120D01*
X0017465Y0062445D01*
X0017100Y0061562D01*
X0017100Y0060608D01*
X0017233Y0060287D02*
X0014956Y0060287D01*
X0015991Y0059488D02*
X0017703Y0059488D01*
X0019011Y0058690D02*
X0016347Y0058690D01*
X0016400Y0057891D02*
X0083400Y0057891D01*
X0083400Y0057093D02*
X0017114Y0057093D01*
X0019989Y0058690D02*
X0083400Y0058690D01*
X0083400Y0059488D02*
X0021297Y0059488D01*
X0021767Y0060287D02*
X0083400Y0060287D01*
X0083400Y0061085D02*
X0021900Y0061085D01*
X0021767Y0061884D02*
X0083400Y0061884D01*
X0083400Y0062682D02*
X0021297Y0062682D01*
X0019988Y0063481D02*
X0083400Y0063481D01*
X0083400Y0064279D02*
X0004900Y0064279D01*
X0004900Y0063481D02*
X0019012Y0063481D01*
X0017703Y0062682D02*
X0004900Y0062682D01*
X0004900Y0061884D02*
X0017233Y0061884D01*
X0025364Y0053100D02*
X0004900Y0053100D01*
X0004900Y0052302D02*
X0026162Y0052302D01*
X0026961Y0051503D02*
X0004900Y0051503D01*
X0004900Y0050705D02*
X0027759Y0050705D01*
X0028558Y0049906D02*
X0004900Y0049906D01*
X0004900Y0049108D02*
X0068856Y0049108D01*
X0069655Y0048309D02*
X0067670Y0048309D01*
X0068214Y0047511D02*
X0069286Y0047511D01*
X0069100Y0046712D02*
X0068400Y0046712D01*
X0068320Y0045914D02*
X0069180Y0045914D01*
X0069576Y0045115D02*
X0067924Y0045115D01*
X0064330Y0048309D02*
X0062170Y0048309D01*
X0062714Y0047511D02*
X0063786Y0047511D01*
X0063600Y0046712D02*
X0062900Y0046712D01*
X0062820Y0045914D02*
X0063207Y0045914D01*
X0062000Y0044317D02*
X0061295Y0044317D01*
X0062000Y0043518D02*
X0059188Y0043518D01*
X0059705Y0044317D02*
X0058390Y0044317D01*
X0058576Y0045115D02*
X0057591Y0045115D01*
X0058180Y0045914D02*
X0004900Y0045914D01*
X0004900Y0046712D02*
X0058100Y0046712D01*
X0058286Y0047511D02*
X0004900Y0047511D01*
X0004900Y0048309D02*
X0058830Y0048309D01*
X0056543Y0041921D02*
X0027457Y0041921D01*
X0026659Y0041123D02*
X0057341Y0041123D01*
X0058140Y0040324D02*
X0025860Y0040324D01*
X0025062Y0039525D02*
X0033819Y0039525D01*
X0033021Y0038727D02*
X0031252Y0038727D01*
X0031748Y0037928D02*
X0032222Y0037928D01*
X0034069Y0035533D02*
X0073431Y0035533D01*
X0072632Y0036331D02*
X0034868Y0036331D01*
X0031100Y0032339D02*
X0026148Y0032339D01*
X0022852Y0032339D02*
X0004900Y0032339D01*
X0004900Y0033137D02*
X0022295Y0033137D01*
X0022100Y0033936D02*
X0004900Y0033936D01*
X0004900Y0034734D02*
X0022171Y0034734D01*
X0022554Y0035533D02*
X0004900Y0035533D01*
X0004900Y0036331D02*
X0023652Y0036331D01*
X0025348Y0036331D02*
X0027214Y0036331D01*
X0027100Y0037130D02*
X0004900Y0037130D01*
X0004900Y0037928D02*
X0007935Y0037928D01*
X0006965Y0038727D02*
X0004900Y0038727D01*
X0004900Y0039525D02*
X0006634Y0039525D01*
X0006600Y0040324D02*
X0004900Y0040324D01*
X0004900Y0041123D02*
X0006832Y0041123D01*
X0007442Y0041921D02*
X0004900Y0041921D01*
X0004900Y0042720D02*
X0024013Y0042720D01*
X0024812Y0043518D02*
X0004900Y0043518D01*
X0004900Y0044317D02*
X0025610Y0044317D01*
X0026409Y0045115D02*
X0004900Y0045115D01*
X0010558Y0041921D02*
X0023215Y0041921D01*
X0022416Y0041123D02*
X0011168Y0041123D01*
X0010065Y0037928D02*
X0027252Y0037928D01*
X0027748Y0038727D02*
X0024263Y0038727D01*
X0031335Y0031540D02*
X0004900Y0031540D01*
X0004900Y0030742D02*
X0031949Y0030742D01*
X0004900Y0029943D02*
X0060899Y0029943D01*
X0073424Y0045115D02*
X0074576Y0045115D01*
X0074180Y0045914D02*
X0073820Y0045914D01*
X0073900Y0046712D02*
X0074100Y0046712D01*
X0074286Y0047511D02*
X0073714Y0047511D01*
X0086600Y0047511D02*
X0112135Y0047511D01*
X0112264Y0047381D02*
X0112799Y0046993D01*
X0113388Y0046693D01*
X0114016Y0046488D01*
X0114600Y0046396D01*
X0114600Y0050185D01*
X0115400Y0050185D01*
X0115400Y0046396D01*
X0115984Y0046488D01*
X0116612Y0046693D01*
X0117201Y0046993D01*
X0117736Y0047381D01*
X0118204Y0047849D01*
X0118592Y0048384D01*
X0118892Y0048973D01*
X0119097Y0049602D01*
X0119189Y0050185D01*
X0115400Y0050185D01*
X0115400Y0050985D01*
X0119189Y0050985D01*
X0119097Y0051569D01*
X0118892Y0052197D01*
X0118592Y0052786D01*
X0118204Y0053321D01*
X0117736Y0053789D01*
X0117201Y0054177D01*
X0116612Y0054477D01*
X0115984Y0054682D01*
X0115400Y0054774D01*
X0115400Y0050985D01*
X0114600Y0050985D01*
X0114600Y0050185D01*
X0110811Y0050185D01*
X0110903Y0049602D01*
X0111108Y0048973D01*
X0111408Y0048384D01*
X0111796Y0047849D01*
X0112264Y0047381D01*
X0111462Y0048309D02*
X0086600Y0048309D01*
X0086600Y0049108D02*
X0111064Y0049108D01*
X0110855Y0049906D02*
X0086600Y0049906D01*
X0086600Y0050705D02*
X0114600Y0050705D01*
X0114600Y0050985D02*
X0110811Y0050985D01*
X0110903Y0051569D01*
X0111108Y0052197D01*
X0111408Y0052786D01*
X0111796Y0053321D01*
X0112264Y0053789D01*
X0112799Y0054177D01*
X0113388Y0054477D01*
X0114016Y0054682D01*
X0114600Y0054774D01*
X0114600Y0050985D01*
X0114600Y0051503D02*
X0115400Y0051503D01*
X0115400Y0050705D02*
X0120210Y0050705D01*
X0120210Y0051503D02*
X0119107Y0051503D01*
X0118839Y0052302D02*
X0120210Y0052302D01*
X0120210Y0053100D02*
X0118364Y0053100D01*
X0117585Y0053899D02*
X0120210Y0053899D01*
X0120210Y0054697D02*
X0115885Y0054697D01*
X0115400Y0054697D02*
X0114600Y0054697D01*
X0114115Y0054697D02*
X0086600Y0054697D01*
X0086600Y0053899D02*
X0112415Y0053899D01*
X0111636Y0053100D02*
X0086600Y0053100D01*
X0086600Y0052302D02*
X0111161Y0052302D01*
X0110893Y0051503D02*
X0086600Y0051503D01*
X0086600Y0046712D02*
X0113350Y0046712D01*
X0114600Y0046712D02*
X0115400Y0046712D01*
X0115400Y0047511D02*
X0114600Y0047511D01*
X0114600Y0048309D02*
X0115400Y0048309D01*
X0115400Y0049108D02*
X0114600Y0049108D01*
X0114600Y0049906D02*
X0115400Y0049906D01*
X0115400Y0052302D02*
X0114600Y0052302D01*
X0114600Y0053100D02*
X0115400Y0053100D01*
X0115400Y0053899D02*
X0114600Y0053899D01*
X0114204Y0056585D02*
X0112734Y0057194D01*
X0111609Y0058319D01*
X0111000Y0059789D01*
X0111000Y0061381D01*
X0111609Y0062851D01*
X0112734Y0063976D01*
X0114204Y0064585D01*
X0115796Y0064585D01*
X0117266Y0063976D01*
X0118391Y0062851D01*
X0119000Y0061381D01*
X0119000Y0059789D01*
X0118391Y0058319D01*
X0117266Y0057194D01*
X0115796Y0056585D01*
X0114204Y0056585D01*
X0112979Y0057093D02*
X0086600Y0057093D01*
X0086600Y0057891D02*
X0112037Y0057891D01*
X0111455Y0058690D02*
X0086600Y0058690D01*
X0086600Y0059488D02*
X0111125Y0059488D01*
X0111000Y0060287D02*
X0086600Y0060287D01*
X0086600Y0061085D02*
X0111000Y0061085D01*
X0111208Y0061884D02*
X0086600Y0061884D01*
X0086600Y0062682D02*
X0111539Y0062682D01*
X0112239Y0063481D02*
X0086600Y0063481D01*
X0086600Y0064279D02*
X0113466Y0064279D01*
X0114204Y0066585D02*
X0112734Y0067194D01*
X0111609Y0068319D01*
X0111000Y0069789D01*
X0111000Y0071381D01*
X0111609Y0072851D01*
X0112734Y0073976D01*
X0114204Y0074585D01*
X0115796Y0074585D01*
X0117266Y0073976D01*
X0118391Y0072851D01*
X0119000Y0071381D01*
X0119000Y0069789D01*
X0118391Y0068319D01*
X0117266Y0067194D01*
X0115796Y0066585D01*
X0114204Y0066585D01*
X0113987Y0066675D02*
X0086600Y0066675D01*
X0086600Y0067473D02*
X0112455Y0067473D01*
X0111656Y0068272D02*
X0086600Y0068272D01*
X0086600Y0069070D02*
X0111298Y0069070D01*
X0111000Y0069869D02*
X0086600Y0069869D01*
X0086600Y0070667D02*
X0111000Y0070667D01*
X0111035Y0071466D02*
X0086600Y0071466D01*
X0086600Y0072264D02*
X0111366Y0072264D01*
X0111821Y0073063D02*
X0086600Y0073063D01*
X0086600Y0073861D02*
X0112620Y0073861D01*
X0114204Y0076585D02*
X0115796Y0076585D01*
X0117266Y0077194D01*
X0118391Y0078319D01*
X0119000Y0079789D01*
X0119000Y0081381D01*
X0118391Y0082851D01*
X0117266Y0083976D01*
X0115796Y0084585D01*
X0114204Y0084585D01*
X0112734Y0083976D01*
X0111609Y0082851D01*
X0111000Y0081381D01*
X0111000Y0079789D01*
X0111609Y0078319D01*
X0112734Y0077194D01*
X0114204Y0076585D01*
X0113068Y0077056D02*
X0086600Y0077056D01*
X0086600Y0077854D02*
X0112074Y0077854D01*
X0111471Y0078653D02*
X0086600Y0078653D01*
X0086600Y0079451D02*
X0111140Y0079451D01*
X0111000Y0080250D02*
X0086600Y0080250D01*
X0086600Y0081048D02*
X0111000Y0081048D01*
X0111193Y0081847D02*
X0086600Y0081847D01*
X0086600Y0082645D02*
X0111524Y0082645D01*
X0112202Y0083444D02*
X0086404Y0083444D01*
X0085606Y0084242D02*
X0113377Y0084242D01*
X0116623Y0084242D02*
X0120210Y0084242D01*
X0120210Y0083444D02*
X0117798Y0083444D01*
X0118476Y0082645D02*
X0120210Y0082645D01*
X0120210Y0081847D02*
X0118807Y0081847D01*
X0119000Y0081048D02*
X0120210Y0081048D01*
X0120210Y0080250D02*
X0119000Y0080250D01*
X0118860Y0079451D02*
X0120210Y0079451D01*
X0120210Y0078653D02*
X0118529Y0078653D01*
X0117926Y0077854D02*
X0120210Y0077854D01*
X0120210Y0077056D02*
X0116931Y0077056D01*
X0120210Y0076257D02*
X0086600Y0076257D01*
X0086600Y0075459D02*
X0120210Y0075459D01*
X0120210Y0074660D02*
X0086600Y0074660D01*
X0083400Y0074660D02*
X0078469Y0074660D01*
X0078535Y0074726D02*
X0078900Y0075608D01*
X0078900Y0076562D01*
X0078535Y0077445D01*
X0077859Y0078120D01*
X0076977Y0078485D01*
X0076023Y0078485D01*
X0075141Y0078120D01*
X0074465Y0077445D01*
X0074100Y0076562D01*
X0074100Y0075608D01*
X0074465Y0074726D01*
X0075141Y0074050D01*
X0076023Y0073685D01*
X0076977Y0073685D01*
X0077859Y0074050D01*
X0078535Y0074726D01*
X0078838Y0075459D02*
X0083400Y0075459D01*
X0083400Y0076257D02*
X0078900Y0076257D01*
X0078696Y0077056D02*
X0083400Y0077056D01*
X0083400Y0077854D02*
X0078125Y0077854D01*
X0074875Y0077854D02*
X0040279Y0077854D01*
X0040400Y0077562D02*
X0040035Y0078445D01*
X0039359Y0079120D01*
X0038839Y0079335D01*
X0039359Y0079550D01*
X0040035Y0080226D01*
X0040400Y0081108D01*
X0040400Y0082062D01*
X0040035Y0082945D01*
X0039359Y0083620D01*
X0038477Y0083985D01*
X0037523Y0083985D01*
X0036641Y0083620D01*
X0035965Y0082945D01*
X0035600Y0082062D01*
X0035600Y0081108D01*
X0035965Y0080226D01*
X0036641Y0079550D01*
X0037161Y0079335D01*
X0036641Y0079120D01*
X0035965Y0078445D01*
X0035600Y0077562D01*
X0035600Y0076608D01*
X0035965Y0075726D01*
X0036606Y0075085D01*
X0036106Y0074585D01*
X0034121Y0074585D01*
X0022000Y0086706D01*
X0022000Y0102206D01*
X0017000Y0107206D01*
X0016121Y0108085D01*
X0014508Y0108085D01*
X0014191Y0108851D01*
X0013066Y0109976D01*
X0011596Y0110585D01*
X0010004Y0110585D01*
X0008534Y0109976D01*
X0007409Y0108851D01*
X0006800Y0107381D01*
X0006800Y0105789D01*
X0007409Y0104319D01*
X0008534Y0103194D01*
X0010004Y0102585D01*
X0011596Y0102585D01*
X0013066Y0103194D01*
X0014191Y0104319D01*
X0014508Y0105085D01*
X0014879Y0105085D01*
X0019000Y0100964D01*
X0019000Y0085464D01*
X0019879Y0084585D01*
X0032879Y0071585D01*
X0036106Y0071585D01*
X0036641Y0071050D01*
X0037523Y0070685D01*
X0038477Y0070685D01*
X0039359Y0071050D01*
X0040035Y0071726D01*
X0040400Y0072608D01*
X0040400Y0073562D01*
X0040035Y0074445D01*
X0039394Y0075085D01*
X0040035Y0075726D01*
X0040400Y0076608D01*
X0040400Y0077562D01*
X0040400Y0077056D02*
X0074304Y0077056D01*
X0074100Y0076257D02*
X0040255Y0076257D01*
X0039768Y0075459D02*
X0074162Y0075459D01*
X0074531Y0074660D02*
X0039819Y0074660D01*
X0040276Y0073861D02*
X0046382Y0073861D01*
X0046641Y0074120D02*
X0045965Y0073445D01*
X0045600Y0072562D01*
X0045600Y0071608D01*
X0045965Y0070726D01*
X0046641Y0070050D01*
X0047523Y0069685D01*
X0048477Y0069685D01*
X0049359Y0070050D01*
X0050035Y0070726D01*
X0050400Y0071608D01*
X0050400Y0072562D01*
X0050035Y0073445D01*
X0049359Y0074120D01*
X0048477Y0074485D01*
X0047523Y0074485D01*
X0046641Y0074120D01*
X0045807Y0073063D02*
X0040400Y0073063D01*
X0040258Y0072264D02*
X0045600Y0072264D01*
X0045659Y0071466D02*
X0039775Y0071466D01*
X0036225Y0071466D02*
X0004900Y0071466D01*
X0004900Y0072264D02*
X0032199Y0072264D01*
X0031401Y0073063D02*
X0004900Y0073063D01*
X0004900Y0073861D02*
X0030602Y0073861D01*
X0029804Y0074660D02*
X0004900Y0074660D01*
X0004900Y0075459D02*
X0029005Y0075459D01*
X0028207Y0076257D02*
X0004900Y0076257D01*
X0004900Y0077056D02*
X0027408Y0077056D01*
X0026610Y0077854D02*
X0004900Y0077854D01*
X0004900Y0078653D02*
X0025811Y0078653D01*
X0025013Y0079451D02*
X0004900Y0079451D01*
X0004900Y0080250D02*
X0024214Y0080250D01*
X0023416Y0081048D02*
X0004900Y0081048D01*
X0004900Y0081847D02*
X0022617Y0081847D01*
X0021819Y0082645D02*
X0011741Y0082645D01*
X0011596Y0082585D02*
X0013066Y0083194D01*
X0014191Y0084319D01*
X0014800Y0085789D01*
X0014800Y0087381D01*
X0014191Y0088851D01*
X0013066Y0089976D01*
X0011596Y0090585D01*
X0010004Y0090585D01*
X0008534Y0089976D01*
X0007409Y0088851D01*
X0006800Y0087381D01*
X0006800Y0085789D01*
X0007409Y0084319D01*
X0008534Y0083194D01*
X0010004Y0082585D01*
X0011596Y0082585D01*
X0009859Y0082645D02*
X0004900Y0082645D01*
X0004900Y0083444D02*
X0008285Y0083444D01*
X0007486Y0084242D02*
X0004900Y0084242D01*
X0004900Y0085041D02*
X0007110Y0085041D01*
X0006800Y0085839D02*
X0004900Y0085839D01*
X0004900Y0086638D02*
X0006800Y0086638D01*
X0006823Y0087436D02*
X0004900Y0087436D01*
X0004900Y0088235D02*
X0007154Y0088235D01*
X0007591Y0089033D02*
X0004900Y0089033D01*
X0004900Y0089832D02*
X0008390Y0089832D01*
X0010004Y0092585D02*
X0008534Y0093194D01*
X0007409Y0094319D01*
X0006800Y0095789D01*
X0006800Y0097381D01*
X0007409Y0098851D01*
X0008534Y0099976D01*
X0010004Y0100585D01*
X0011596Y0100585D01*
X0013066Y0099976D01*
X0014191Y0098851D01*
X0014800Y0097381D01*
X0014800Y0095789D01*
X0014191Y0094319D01*
X0013066Y0093194D01*
X0011596Y0092585D01*
X0010004Y0092585D01*
X0008940Y0093026D02*
X0004900Y0093026D01*
X0004900Y0093824D02*
X0007904Y0093824D01*
X0007283Y0094623D02*
X0004900Y0094623D01*
X0004900Y0095421D02*
X0006952Y0095421D01*
X0006800Y0096220D02*
X0004900Y0096220D01*
X0004900Y0097018D02*
X0006800Y0097018D01*
X0006981Y0097817D02*
X0004900Y0097817D01*
X0004900Y0098615D02*
X0007311Y0098615D01*
X0007972Y0099414D02*
X0004900Y0099414D01*
X0004900Y0100212D02*
X0009105Y0100212D01*
X0009949Y0102608D02*
X0004900Y0102608D01*
X0004900Y0103406D02*
X0008322Y0103406D01*
X0007523Y0104205D02*
X0004900Y0104205D01*
X0004900Y0105003D02*
X0007126Y0105003D01*
X0006800Y0105802D02*
X0004900Y0105802D01*
X0004900Y0106600D02*
X0006800Y0106600D01*
X0006808Y0107399D02*
X0004900Y0107399D01*
X0004900Y0108197D02*
X0007138Y0108197D01*
X0007554Y0108996D02*
X0004900Y0108996D01*
X0004900Y0109794D02*
X0008353Y0109794D01*
X0004900Y0110593D02*
X0046114Y0110593D01*
X0045965Y0110445D02*
X0045600Y0109562D01*
X0045600Y0108608D01*
X0045965Y0107726D01*
X0046641Y0107050D01*
X0047523Y0106685D01*
X0048477Y0106685D01*
X0049359Y0107050D01*
X0050035Y0107726D01*
X0050400Y0108608D01*
X0050400Y0109562D01*
X0050035Y0110445D01*
X0049359Y0111120D01*
X0048477Y0111485D01*
X0047523Y0111485D01*
X0046641Y0111120D01*
X0045965Y0110445D01*
X0045696Y0109794D02*
X0013247Y0109794D01*
X0014046Y0108996D02*
X0045600Y0108996D01*
X0045770Y0108197D02*
X0014462Y0108197D01*
X0016807Y0107399D02*
X0046292Y0107399D01*
X0049708Y0107399D02*
X0051792Y0107399D01*
X0051465Y0107726D02*
X0052141Y0107050D01*
X0053023Y0106685D01*
X0053977Y0106685D01*
X0054859Y0107050D01*
X0055535Y0107726D01*
X0055900Y0108608D01*
X0055900Y0109562D01*
X0055535Y0110445D01*
X0054859Y0111120D01*
X0053977Y0111485D01*
X0053023Y0111485D01*
X0052141Y0111120D01*
X0051465Y0110445D01*
X0051100Y0109562D01*
X0051100Y0108608D01*
X0051465Y0107726D01*
X0051270Y0108197D02*
X0050230Y0108197D01*
X0050400Y0108996D02*
X0051100Y0108996D01*
X0051196Y0109794D02*
X0050304Y0109794D01*
X0049886Y0110593D02*
X0051614Y0110593D01*
X0052797Y0111392D02*
X0048703Y0111392D01*
X0047297Y0111392D02*
X0038701Y0111392D01*
X0039035Y0111726D02*
X0039400Y0112608D01*
X0039400Y0113562D01*
X0039035Y0114445D01*
X0038359Y0115120D01*
X0037477Y0115485D01*
X0036523Y0115485D01*
X0035641Y0115120D01*
X0034965Y0114445D01*
X0034600Y0113562D01*
X0034600Y0112608D01*
X0034965Y0111726D01*
X0035641Y0111050D01*
X0036523Y0110685D01*
X0037477Y0110685D01*
X0038359Y0111050D01*
X0039035Y0111726D01*
X0039227Y0112190D02*
X0078900Y0112190D01*
X0078900Y0111392D02*
X0054203Y0111392D01*
X0055386Y0110593D02*
X0078900Y0110593D01*
X0078900Y0109794D02*
X0055804Y0109794D01*
X0055900Y0108996D02*
X0078900Y0108996D01*
X0078900Y0108197D02*
X0055730Y0108197D01*
X0055208Y0107399D02*
X0078900Y0107399D01*
X0078900Y0106600D02*
X0017606Y0106600D01*
X0018404Y0105802D02*
X0078900Y0105802D01*
X0078900Y0105003D02*
X0040957Y0105003D01*
X0041159Y0104920D02*
X0040277Y0105285D01*
X0039323Y0105285D01*
X0038441Y0104920D01*
X0037765Y0104245D01*
X0037400Y0103362D01*
X0037400Y0102408D01*
X0037765Y0101526D01*
X0038441Y0100850D01*
X0039323Y0100485D01*
X0040277Y0100485D01*
X0041159Y0100850D01*
X0041835Y0101526D01*
X0042200Y0102408D01*
X0042200Y0103362D01*
X0041835Y0104245D01*
X0041159Y0104920D01*
X0041851Y0104205D02*
X0078900Y0104205D01*
X0078900Y0103406D02*
X0042182Y0103406D01*
X0042200Y0102608D02*
X0078900Y0102608D01*
X0078900Y0101809D02*
X0041952Y0101809D01*
X0041320Y0101011D02*
X0078900Y0101011D01*
X0078900Y0100212D02*
X0022000Y0100212D01*
X0022000Y0099414D02*
X0078900Y0099414D01*
X0078900Y0098615D02*
X0022000Y0098615D01*
X0022000Y0097817D02*
X0078900Y0097817D01*
X0078900Y0097018D02*
X0022000Y0097018D01*
X0022000Y0096220D02*
X0078900Y0096220D01*
X0078900Y0095421D02*
X0022000Y0095421D01*
X0022000Y0094623D02*
X0078900Y0094623D01*
X0078900Y0093824D02*
X0022000Y0093824D01*
X0022000Y0093026D02*
X0078900Y0093026D01*
X0078900Y0092227D02*
X0070600Y0092227D01*
X0070859Y0092120D02*
X0069977Y0092485D01*
X0069023Y0092485D01*
X0068141Y0092120D01*
X0067465Y0091445D01*
X0067100Y0090562D01*
X0067100Y0089608D01*
X0067465Y0088726D01*
X0068141Y0088050D01*
X0069023Y0087685D01*
X0069977Y0087685D01*
X0070859Y0088050D01*
X0071535Y0088726D01*
X0071900Y0089608D01*
X0071900Y0090562D01*
X0071535Y0091445D01*
X0070859Y0092120D01*
X0071541Y0091429D02*
X0078900Y0091429D01*
X0078900Y0090630D02*
X0071872Y0090630D01*
X0071900Y0089832D02*
X0078900Y0089832D01*
X0078900Y0089033D02*
X0071662Y0089033D01*
X0071044Y0088235D02*
X0078900Y0088235D01*
X0078900Y0087436D02*
X0049829Y0087436D01*
X0049900Y0087608D02*
X0049535Y0086726D01*
X0048859Y0086050D01*
X0047977Y0085685D01*
X0047023Y0085685D01*
X0046141Y0086050D01*
X0045465Y0086726D01*
X0045100Y0087608D01*
X0045100Y0088562D01*
X0045465Y0089445D01*
X0046141Y0090120D01*
X0047023Y0090485D01*
X0047977Y0090485D01*
X0048859Y0090120D01*
X0049535Y0089445D01*
X0049900Y0088562D01*
X0049900Y0087608D01*
X0049900Y0088235D02*
X0057456Y0088235D01*
X0057641Y0088050D02*
X0058523Y0087685D01*
X0059477Y0087685D01*
X0060359Y0088050D01*
X0061035Y0088726D01*
X0061400Y0089608D01*
X0061400Y0090562D01*
X0061035Y0091445D01*
X0060359Y0092120D01*
X0059477Y0092485D01*
X0058523Y0092485D01*
X0057641Y0092120D01*
X0056965Y0091445D01*
X0056600Y0090562D01*
X0056600Y0089608D01*
X0056965Y0088726D01*
X0057641Y0088050D01*
X0056838Y0089033D02*
X0049705Y0089033D01*
X0049147Y0089832D02*
X0056600Y0089832D01*
X0056628Y0090630D02*
X0022000Y0090630D01*
X0022000Y0089832D02*
X0045853Y0089832D01*
X0045295Y0089033D02*
X0022000Y0089033D01*
X0022000Y0088235D02*
X0045100Y0088235D01*
X0045171Y0087436D02*
X0022000Y0087436D01*
X0022069Y0086638D02*
X0045553Y0086638D01*
X0046651Y0085839D02*
X0022867Y0085839D01*
X0023666Y0085041D02*
X0080282Y0085041D01*
X0079483Y0085839D02*
X0048349Y0085839D01*
X0049447Y0086638D02*
X0078900Y0086638D01*
X0081080Y0084242D02*
X0024464Y0084242D01*
X0025263Y0083444D02*
X0036464Y0083444D01*
X0035841Y0082645D02*
X0026061Y0082645D01*
X0026860Y0081847D02*
X0035600Y0081847D01*
X0035625Y0081048D02*
X0027658Y0081048D01*
X0028457Y0080250D02*
X0035955Y0080250D01*
X0036880Y0079451D02*
X0029255Y0079451D01*
X0030054Y0078653D02*
X0036173Y0078653D01*
X0035721Y0077854D02*
X0030852Y0077854D01*
X0031651Y0077056D02*
X0035600Y0077056D01*
X0035745Y0076257D02*
X0032449Y0076257D01*
X0033248Y0075459D02*
X0036232Y0075459D01*
X0036181Y0074660D02*
X0034046Y0074660D01*
X0039120Y0079451D02*
X0083400Y0079451D01*
X0083400Y0078653D02*
X0039827Y0078653D01*
X0040045Y0080250D02*
X0083400Y0080250D01*
X0083400Y0081048D02*
X0040375Y0081048D01*
X0040400Y0081847D02*
X0083400Y0081847D01*
X0082677Y0082645D02*
X0040159Y0082645D01*
X0039536Y0083444D02*
X0081879Y0083444D01*
X0084009Y0085839D02*
X0097151Y0085839D01*
X0097523Y0085685D02*
X0096641Y0086050D01*
X0095965Y0086726D01*
X0095600Y0087608D01*
X0095600Y0088562D01*
X0095965Y0089445D01*
X0096641Y0090120D01*
X0097523Y0090485D01*
X0098477Y0090485D01*
X0099359Y0090120D01*
X0100035Y0089445D01*
X0100400Y0088562D01*
X0100400Y0087608D01*
X0100035Y0086726D01*
X0099359Y0086050D01*
X0098477Y0085685D01*
X0097523Y0085685D01*
X0098849Y0085839D02*
X0120210Y0085839D01*
X0120210Y0085041D02*
X0084807Y0085041D01*
X0083210Y0086638D02*
X0096053Y0086638D01*
X0095671Y0087436D02*
X0082412Y0087436D01*
X0082100Y0088235D02*
X0095600Y0088235D01*
X0095795Y0089033D02*
X0082100Y0089033D01*
X0082100Y0089832D02*
X0096353Y0089832D01*
X0099647Y0089832D02*
X0120210Y0089832D01*
X0120210Y0090630D02*
X0082100Y0090630D01*
X0082100Y0091429D02*
X0120210Y0091429D01*
X0120210Y0092227D02*
X0082100Y0092227D01*
X0082100Y0093026D02*
X0120210Y0093026D01*
X0120210Y0093824D02*
X0082100Y0093824D01*
X0082100Y0094623D02*
X0120210Y0094623D01*
X0120210Y0095421D02*
X0111946Y0095421D01*
X0111617Y0095285D02*
X0112756Y0095757D01*
X0113628Y0096629D01*
X0114100Y0097768D01*
X0114100Y0099002D01*
X0113628Y0100141D01*
X0112884Y0100885D01*
X0113628Y0101629D01*
X0114100Y0102768D01*
X0114100Y0104002D01*
X0113628Y0105141D01*
X0113010Y0105759D01*
X0113104Y0105822D01*
X0113563Y0106281D01*
X0113924Y0106822D01*
X0114173Y0107422D01*
X0114300Y0108060D01*
X0114300Y0108135D01*
X0111250Y0108135D01*
X0111250Y0108635D01*
X0114300Y0108635D01*
X0114300Y0108710D01*
X0114173Y0109348D01*
X0113924Y0109948D01*
X0113563Y0110489D01*
X0113104Y0110948D01*
X0113010Y0111011D01*
X0113628Y0111629D01*
X0114100Y0112768D01*
X0114100Y0114002D01*
X0113628Y0115141D01*
X0112756Y0116013D01*
X0111617Y0116485D01*
X0110383Y0116485D01*
X0109244Y0116013D01*
X0108500Y0115269D01*
X0107756Y0116013D01*
X0106617Y0116485D01*
X0105383Y0116485D01*
X0104244Y0116013D01*
X0103372Y0115141D01*
X0102900Y0114002D01*
X0102900Y0112768D01*
X0103372Y0111629D01*
X0104116Y0110885D01*
X0103372Y0110141D01*
X0102900Y0109002D01*
X0102900Y0107768D01*
X0103372Y0106629D01*
X0104116Y0105885D01*
X0103372Y0105141D01*
X0102900Y0104002D01*
X0102900Y0102768D01*
X0103372Y0101629D01*
X0104116Y0100885D01*
X0103372Y0100141D01*
X0102900Y0099002D01*
X0102900Y0097768D01*
X0103372Y0096629D01*
X0104244Y0095757D01*
X0105383Y0095285D01*
X0106617Y0095285D01*
X0107756Y0095757D01*
X0108500Y0096501D01*
X0109244Y0095757D01*
X0110383Y0095285D01*
X0111617Y0095285D01*
X0110054Y0095421D02*
X0106946Y0095421D01*
X0108219Y0096220D02*
X0108781Y0096220D01*
X0105054Y0095421D02*
X0082100Y0095421D01*
X0082100Y0096220D02*
X0103781Y0096220D01*
X0103211Y0097018D02*
X0082100Y0097018D01*
X0082100Y0097817D02*
X0082704Y0097817D01*
X0084296Y0097817D02*
X0102900Y0097817D01*
X0102900Y0098615D02*
X0085424Y0098615D01*
X0085820Y0099414D02*
X0103071Y0099414D01*
X0103443Y0100212D02*
X0085900Y0100212D01*
X0085714Y0101011D02*
X0103990Y0101011D01*
X0103297Y0101809D02*
X0085170Y0101809D01*
X0082100Y0102608D02*
X0102966Y0102608D01*
X0102900Y0103406D02*
X0082100Y0103406D01*
X0082100Y0104205D02*
X0102984Y0104205D01*
X0103315Y0105003D02*
X0082100Y0105003D01*
X0082100Y0105802D02*
X0104033Y0105802D01*
X0103401Y0106600D02*
X0082100Y0106600D01*
X0082100Y0107399D02*
X0087006Y0107399D01*
X0086641Y0107550D02*
X0087523Y0107185D01*
X0088477Y0107185D01*
X0089359Y0107550D01*
X0090035Y0108226D01*
X0090400Y0109108D01*
X0090400Y0110062D01*
X0090035Y0110945D01*
X0089359Y0111620D01*
X0088477Y0111985D01*
X0087523Y0111985D01*
X0086641Y0111620D01*
X0085965Y0110945D01*
X0085600Y0110062D01*
X0085600Y0109108D01*
X0085965Y0108226D01*
X0086641Y0107550D01*
X0085993Y0108197D02*
X0082100Y0108197D01*
X0082100Y0108996D02*
X0085646Y0108996D01*
X0085600Y0109794D02*
X0082100Y0109794D01*
X0082100Y0110593D02*
X0085820Y0110593D01*
X0086412Y0111392D02*
X0082100Y0111392D01*
X0082100Y0112190D02*
X0103140Y0112190D01*
X0102900Y0112989D02*
X0082100Y0112989D01*
X0082100Y0113787D02*
X0102900Y0113787D01*
X0103142Y0114586D02*
X0082100Y0114586D01*
X0082100Y0115384D02*
X0103615Y0115384D01*
X0104653Y0116183D02*
X0082100Y0116183D01*
X0082100Y0116981D02*
X0120210Y0116981D01*
X0120210Y0116183D02*
X0112347Y0116183D01*
X0113385Y0115384D02*
X0120210Y0115384D01*
X0120210Y0114586D02*
X0113858Y0114586D01*
X0114100Y0113787D02*
X0120210Y0113787D01*
X0120210Y0112989D02*
X0114100Y0112989D01*
X0113860Y0112190D02*
X0120210Y0112190D01*
X0120210Y0111392D02*
X0113391Y0111392D01*
X0113459Y0110593D02*
X0120210Y0110593D01*
X0120210Y0109794D02*
X0113988Y0109794D01*
X0114243Y0108996D02*
X0120210Y0108996D01*
X0120210Y0108197D02*
X0111250Y0108197D01*
X0113776Y0106600D02*
X0120210Y0106600D01*
X0120210Y0105802D02*
X0113074Y0105802D01*
X0113685Y0105003D02*
X0120210Y0105003D01*
X0120210Y0104205D02*
X0114016Y0104205D01*
X0114100Y0103406D02*
X0120210Y0103406D01*
X0120210Y0102608D02*
X0114033Y0102608D01*
X0113703Y0101809D02*
X0120210Y0101809D01*
X0120210Y0101011D02*
X0113010Y0101011D01*
X0113557Y0100212D02*
X0120210Y0100212D01*
X0120210Y0099414D02*
X0113929Y0099414D01*
X0114100Y0098615D02*
X0120210Y0098615D01*
X0120210Y0097817D02*
X0114100Y0097817D01*
X0113789Y0097018D02*
X0120210Y0097018D01*
X0120210Y0096220D02*
X0113219Y0096220D01*
X0120210Y0089033D02*
X0100205Y0089033D01*
X0100400Y0088235D02*
X0120210Y0088235D01*
X0120210Y0087436D02*
X0100329Y0087436D01*
X0099947Y0086638D02*
X0120210Y0086638D01*
X0120210Y0073861D02*
X0117380Y0073861D01*
X0118179Y0073063D02*
X0120210Y0073063D01*
X0120210Y0072264D02*
X0118634Y0072264D01*
X0118965Y0071466D02*
X0120210Y0071466D01*
X0120210Y0070667D02*
X0119000Y0070667D01*
X0119000Y0069869D02*
X0120210Y0069869D01*
X0120210Y0069070D02*
X0118702Y0069070D01*
X0118344Y0068272D02*
X0120210Y0068272D01*
X0120210Y0067473D02*
X0117545Y0067473D01*
X0116013Y0066675D02*
X0120210Y0066675D01*
X0120210Y0065876D02*
X0086600Y0065876D01*
X0086600Y0065078D02*
X0120210Y0065078D01*
X0120210Y0064279D02*
X0116534Y0064279D01*
X0117761Y0063481D02*
X0120210Y0063481D01*
X0120210Y0062682D02*
X0118461Y0062682D01*
X0118792Y0061884D02*
X0120210Y0061884D01*
X0120210Y0061085D02*
X0119000Y0061085D01*
X0119000Y0060287D02*
X0120210Y0060287D01*
X0120210Y0059488D02*
X0118875Y0059488D01*
X0118545Y0058690D02*
X0120210Y0058690D01*
X0120210Y0057891D02*
X0117963Y0057891D01*
X0117021Y0057093D02*
X0120210Y0057093D01*
X0120210Y0056294D02*
X0086600Y0056294D01*
X0086600Y0055496D02*
X0120210Y0055496D01*
X0120210Y0049906D02*
X0119145Y0049906D01*
X0118936Y0049108D02*
X0120210Y0049108D01*
X0120210Y0048309D02*
X0118538Y0048309D01*
X0117865Y0047511D02*
X0120210Y0047511D01*
X0120210Y0046712D02*
X0116650Y0046712D01*
X0120210Y0045914D02*
X0086600Y0045914D01*
X0086600Y0045115D02*
X0120210Y0045115D01*
X0120210Y0044317D02*
X0086600Y0044317D01*
X0086600Y0043518D02*
X0120210Y0043518D01*
X0120210Y0042720D02*
X0086600Y0042720D01*
X0086600Y0041921D02*
X0120210Y0041921D01*
X0120210Y0041123D02*
X0086600Y0041123D01*
X0086600Y0040324D02*
X0107040Y0040324D01*
X0107518Y0040522D02*
X0105703Y0039770D01*
X0104315Y0038382D01*
X0103563Y0036567D01*
X0103563Y0034603D01*
X0104315Y0032788D01*
X0105703Y0031400D01*
X0107518Y0030648D01*
X0109482Y0030648D01*
X0111297Y0031400D01*
X0112685Y0032788D01*
X0113437Y0034603D01*
X0113437Y0036567D01*
X0112685Y0038382D01*
X0111297Y0039770D01*
X0109482Y0040522D01*
X0107518Y0040522D01*
X0105458Y0039525D02*
X0086600Y0039525D01*
X0086600Y0038727D02*
X0104660Y0038727D01*
X0104127Y0037928D02*
X0086600Y0037928D01*
X0086600Y0037130D02*
X0103796Y0037130D01*
X0103563Y0036331D02*
X0086600Y0036331D01*
X0086600Y0035533D02*
X0103563Y0035533D01*
X0103563Y0034734D02*
X0086600Y0034734D01*
X0086600Y0033936D02*
X0103839Y0033936D01*
X0104170Y0033137D02*
X0086315Y0033137D01*
X0085517Y0032339D02*
X0104764Y0032339D01*
X0105563Y0031540D02*
X0084900Y0031540D01*
X0084748Y0030742D02*
X0107291Y0030742D01*
X0109709Y0030742D02*
X0120210Y0030742D01*
X0120210Y0031540D02*
X0111437Y0031540D01*
X0112236Y0032339D02*
X0120210Y0032339D01*
X0120210Y0033137D02*
X0112830Y0033137D01*
X0113161Y0033936D02*
X0120210Y0033936D01*
X0120210Y0034734D02*
X0113437Y0034734D01*
X0113437Y0035533D02*
X0120210Y0035533D01*
X0120210Y0036331D02*
X0113437Y0036331D01*
X0113204Y0037130D02*
X0120210Y0037130D01*
X0120210Y0037928D02*
X0112873Y0037928D01*
X0112340Y0038727D02*
X0120210Y0038727D01*
X0120210Y0039525D02*
X0111542Y0039525D01*
X0109960Y0040324D02*
X0120210Y0040324D01*
X0120210Y0029943D02*
X0084252Y0029943D01*
X0083400Y0065078D02*
X0049387Y0065078D01*
X0049359Y0065050D02*
X0050035Y0065726D01*
X0050400Y0066608D01*
X0050400Y0067562D01*
X0050035Y0068445D01*
X0049359Y0069120D01*
X0048477Y0069485D01*
X0047523Y0069485D01*
X0046641Y0069120D01*
X0045965Y0068445D01*
X0045600Y0067562D01*
X0045600Y0066608D01*
X0045965Y0065726D01*
X0046641Y0065050D01*
X0047523Y0064685D01*
X0048477Y0064685D01*
X0049359Y0065050D01*
X0050097Y0065876D02*
X0083400Y0065876D01*
X0083400Y0066675D02*
X0050400Y0066675D01*
X0050400Y0067473D02*
X0083400Y0067473D01*
X0083400Y0068272D02*
X0050106Y0068272D01*
X0049409Y0069070D02*
X0083400Y0069070D01*
X0083400Y0069869D02*
X0048921Y0069869D01*
X0049977Y0070667D02*
X0083400Y0070667D01*
X0083400Y0071466D02*
X0050341Y0071466D01*
X0050400Y0072264D02*
X0083400Y0072264D01*
X0083400Y0073063D02*
X0050193Y0073063D01*
X0049618Y0073861D02*
X0075597Y0073861D01*
X0077403Y0073861D02*
X0083400Y0073861D01*
X0067956Y0088235D02*
X0060544Y0088235D01*
X0061162Y0089033D02*
X0067338Y0089033D01*
X0067100Y0089832D02*
X0061400Y0089832D01*
X0061372Y0090630D02*
X0067128Y0090630D01*
X0067459Y0091429D02*
X0061041Y0091429D01*
X0060100Y0092227D02*
X0068400Y0092227D01*
X0057900Y0092227D02*
X0022000Y0092227D01*
X0022000Y0091429D02*
X0056959Y0091429D01*
X0038280Y0101011D02*
X0022000Y0101011D01*
X0022000Y0101809D02*
X0037648Y0101809D01*
X0037400Y0102608D02*
X0021598Y0102608D01*
X0020800Y0103406D02*
X0037418Y0103406D01*
X0037749Y0104205D02*
X0020001Y0104205D01*
X0019203Y0105003D02*
X0038643Y0105003D01*
X0035299Y0111392D02*
X0004900Y0111392D01*
X0004900Y0112190D02*
X0034773Y0112190D01*
X0034600Y0112989D02*
X0004900Y0112989D01*
X0004900Y0113787D02*
X0034693Y0113787D01*
X0035106Y0114586D02*
X0004900Y0114586D01*
X0004900Y0115384D02*
X0036279Y0115384D01*
X0037721Y0115384D02*
X0078900Y0115384D01*
X0078900Y0114586D02*
X0038894Y0114586D01*
X0039307Y0113787D02*
X0078900Y0113787D01*
X0078900Y0112989D02*
X0039400Y0112989D01*
X0037477Y0126185D02*
X0038359Y0126550D01*
X0039035Y0127226D01*
X0039400Y0128108D01*
X0039400Y0129062D01*
X0039035Y0129945D01*
X0038359Y0130620D01*
X0037477Y0130985D01*
X0036523Y0130985D01*
X0035641Y0130620D01*
X0034965Y0129945D01*
X0034600Y0129062D01*
X0034600Y0128108D01*
X0034965Y0127226D01*
X0035641Y0126550D01*
X0036523Y0126185D01*
X0037477Y0126185D01*
X0038372Y0126563D02*
X0056563Y0126563D01*
X0056884Y0126696D02*
X0055643Y0126182D01*
X0054694Y0125233D01*
X0054180Y0123993D01*
X0054180Y0122650D01*
X0054694Y0121410D01*
X0055643Y0120460D01*
X0056884Y0119946D01*
X0058226Y0119946D01*
X0059467Y0120460D01*
X0060416Y0121410D01*
X0060930Y0122650D01*
X0060930Y0123993D01*
X0060416Y0125233D01*
X0059467Y0126182D01*
X0058226Y0126696D01*
X0056884Y0126696D01*
X0058547Y0126563D02*
X0066041Y0126563D01*
X0065862Y0126489D02*
X0065276Y0126098D01*
X0064778Y0125600D01*
X0064387Y0125015D01*
X0064118Y0124364D01*
X0063987Y0123709D01*
X0067168Y0123709D01*
X0067168Y0126889D01*
X0066512Y0126759D01*
X0065862Y0126489D01*
X0064943Y0125765D02*
X0059884Y0125765D01*
X0060527Y0124966D02*
X0064367Y0124966D01*
X0064079Y0124168D02*
X0060857Y0124168D01*
X0060930Y0123369D02*
X0067168Y0123369D01*
X0067168Y0123709D02*
X0067168Y0122934D01*
X0067943Y0122934D01*
X0067943Y0123709D01*
X0071123Y0123709D01*
X0070993Y0124364D01*
X0070723Y0125015D01*
X0070332Y0125600D01*
X0069834Y0126098D01*
X0069248Y0126489D01*
X0068598Y0126759D01*
X0067943Y0126889D01*
X0067943Y0123709D01*
X0067168Y0123709D01*
X0067168Y0124168D02*
X0067943Y0124168D01*
X0067943Y0124966D02*
X0067168Y0124966D01*
X0067168Y0125765D02*
X0067943Y0125765D01*
X0067943Y0126563D02*
X0067168Y0126563D01*
X0069070Y0126563D02*
X0078900Y0126563D01*
X0078900Y0125765D02*
X0070167Y0125765D01*
X0070743Y0124966D02*
X0078900Y0124966D01*
X0078900Y0124168D02*
X0071032Y0124168D01*
X0071123Y0122934D02*
X0067943Y0122934D01*
X0067943Y0119753D01*
X0068598Y0119884D01*
X0069248Y0120153D01*
X0069834Y0120545D01*
X0070332Y0121042D01*
X0070723Y0121628D01*
X0070993Y0122279D01*
X0071123Y0122934D01*
X0071051Y0122571D02*
X0078900Y0122571D01*
X0078900Y0123369D02*
X0067943Y0123369D01*
X0067943Y0122571D02*
X0067168Y0122571D01*
X0067168Y0122934D02*
X0067168Y0119753D01*
X0066512Y0119884D01*
X0065862Y0120153D01*
X0065276Y0120545D01*
X0064778Y0121042D01*
X0064387Y0121628D01*
X0064118Y0122279D01*
X0063987Y0122934D01*
X0067168Y0122934D01*
X0067168Y0121772D02*
X0067943Y0121772D01*
X0067943Y0120974D02*
X0067168Y0120974D01*
X0067168Y0120175D02*
X0067943Y0120175D01*
X0069281Y0120175D02*
X0078900Y0120175D01*
X0078900Y0119377D02*
X0004900Y0119377D01*
X0004900Y0120175D02*
X0056332Y0120175D01*
X0055130Y0120974D02*
X0004900Y0120974D01*
X0004900Y0121772D02*
X0054544Y0121772D01*
X0054213Y0122571D02*
X0004900Y0122571D01*
X0004900Y0123369D02*
X0054180Y0123369D01*
X0054253Y0124168D02*
X0004900Y0124168D01*
X0004900Y0124966D02*
X0054584Y0124966D01*
X0055226Y0125765D02*
X0012764Y0125765D01*
X0012482Y0125648D02*
X0014297Y0126400D01*
X0015685Y0127788D01*
X0016437Y0129603D01*
X0016437Y0131567D01*
X0015685Y0133382D01*
X0014297Y0134770D01*
X0012482Y0135522D01*
X0010518Y0135522D01*
X0008703Y0134770D01*
X0007315Y0133382D01*
X0006563Y0131567D01*
X0006563Y0129603D01*
X0007315Y0127788D01*
X0008703Y0126400D01*
X0010518Y0125648D01*
X0012482Y0125648D01*
X0014460Y0126563D02*
X0035628Y0126563D01*
X0034909Y0127362D02*
X0015259Y0127362D01*
X0015839Y0128160D02*
X0034600Y0128160D01*
X0034600Y0128959D02*
X0016170Y0128959D01*
X0016437Y0129757D02*
X0034888Y0129757D01*
X0035577Y0130556D02*
X0016437Y0130556D01*
X0016437Y0131354D02*
X0064614Y0131354D01*
X0065023Y0131185D02*
X0065977Y0131185D01*
X0066859Y0131550D01*
X0067535Y0132226D01*
X0067900Y0133108D01*
X0067900Y0134062D01*
X0067535Y0134945D01*
X0066859Y0135620D01*
X0065977Y0135985D01*
X0065023Y0135985D01*
X0064141Y0135620D01*
X0063465Y0134945D01*
X0063100Y0134062D01*
X0063100Y0133108D01*
X0063465Y0132226D01*
X0064141Y0131550D01*
X0065023Y0131185D01*
X0066386Y0131354D02*
X0078900Y0131354D01*
X0078900Y0130556D02*
X0038423Y0130556D01*
X0039112Y0129757D02*
X0078900Y0129757D01*
X0078900Y0128959D02*
X0039400Y0128959D01*
X0039400Y0128160D02*
X0078900Y0128160D01*
X0078900Y0127362D02*
X0039091Y0127362D01*
X0058778Y0120175D02*
X0065829Y0120175D01*
X0064847Y0120974D02*
X0059980Y0120974D01*
X0060566Y0121772D02*
X0064327Y0121772D01*
X0064060Y0122571D02*
X0060897Y0122571D01*
X0070263Y0120974D02*
X0078900Y0120974D01*
X0078900Y0121772D02*
X0070783Y0121772D01*
X0078900Y0118578D02*
X0004900Y0118578D01*
X0004900Y0117780D02*
X0078900Y0117780D01*
X0078900Y0116981D02*
X0004900Y0116981D01*
X0004900Y0116183D02*
X0078900Y0116183D01*
X0082100Y0117780D02*
X0120210Y0117780D01*
X0120210Y0118578D02*
X0082100Y0118578D01*
X0082100Y0119377D02*
X0120210Y0119377D01*
X0120210Y0120175D02*
X0082100Y0120175D01*
X0082100Y0120974D02*
X0120210Y0120974D01*
X0120210Y0121772D02*
X0082100Y0121772D01*
X0082100Y0122571D02*
X0120210Y0122571D01*
X0120210Y0123369D02*
X0082100Y0123369D01*
X0082100Y0124168D02*
X0120210Y0124168D01*
X0120210Y0124966D02*
X0082100Y0124966D01*
X0082100Y0125765D02*
X0105027Y0125765D01*
X0105214Y0125687D02*
X0106786Y0125687D01*
X0108239Y0126289D01*
X0109351Y0127401D01*
X0109953Y0128854D01*
X0109953Y0130426D01*
X0109351Y0131879D01*
X0108239Y0132991D01*
X0106786Y0133593D01*
X0105214Y0133593D01*
X0103761Y0132991D01*
X0102649Y0131879D01*
X0102047Y0130426D01*
X0102047Y0128854D01*
X0102649Y0127401D01*
X0103761Y0126289D01*
X0105214Y0125687D01*
X0106973Y0125765D02*
X0115027Y0125765D01*
X0115214Y0125687D02*
X0116786Y0125687D01*
X0118239Y0126289D01*
X0119351Y0127401D01*
X0119953Y0128854D01*
X0119953Y0130426D01*
X0119351Y0131879D01*
X0118239Y0132991D01*
X0116786Y0133593D01*
X0115214Y0133593D01*
X0113761Y0132991D01*
X0112649Y0131879D01*
X0112047Y0130426D01*
X0112047Y0128854D01*
X0112649Y0127401D01*
X0113761Y0126289D01*
X0115214Y0125687D01*
X0116973Y0125765D02*
X0120210Y0125765D01*
X0120210Y0126563D02*
X0118513Y0126563D01*
X0119312Y0127362D02*
X0120210Y0127362D01*
X0120210Y0128160D02*
X0119665Y0128160D01*
X0119953Y0128959D02*
X0120210Y0128959D01*
X0120210Y0129757D02*
X0119953Y0129757D01*
X0119899Y0130556D02*
X0120210Y0130556D01*
X0120210Y0131354D02*
X0119568Y0131354D01*
X0119077Y0132153D02*
X0120210Y0132153D01*
X0120210Y0132951D02*
X0118279Y0132951D01*
X0120210Y0133750D02*
X0082100Y0133750D01*
X0082100Y0134548D02*
X0120210Y0134548D01*
X0120210Y0135347D02*
X0081501Y0135347D01*
X0080702Y0136145D02*
X0120210Y0136145D01*
X0120210Y0136944D02*
X0079904Y0136944D01*
X0079105Y0137742D02*
X0120210Y0137742D01*
X0120210Y0138541D02*
X0078307Y0138541D01*
X0077508Y0139339D02*
X0120210Y0139339D01*
X0120210Y0140138D02*
X0076710Y0140138D01*
X0075911Y0140936D02*
X0120210Y0140936D01*
X0120210Y0141735D02*
X0075113Y0141735D01*
X0074314Y0142533D02*
X0120210Y0142533D01*
X0120210Y0143332D02*
X0073516Y0143332D01*
X0072717Y0144130D02*
X0120210Y0144130D01*
X0120210Y0144929D02*
X0071919Y0144929D01*
X0071120Y0145727D02*
X0120210Y0145727D01*
X0120210Y0146526D02*
X0070322Y0146526D01*
X0069523Y0147325D02*
X0120210Y0147325D01*
X0120210Y0148123D02*
X0069100Y0148123D01*
X0069100Y0148922D02*
X0120210Y0148922D01*
X0120210Y0149720D02*
X0069100Y0149720D01*
X0069100Y0150519D02*
X0120210Y0150519D01*
X0120210Y0151317D02*
X0069100Y0151317D01*
X0069100Y0152116D02*
X0120210Y0152116D01*
X0120210Y0152914D02*
X0069100Y0152914D01*
X0069100Y0153713D02*
X0120210Y0153713D01*
X0120210Y0154511D02*
X0069100Y0154511D01*
X0069100Y0155310D02*
X0120210Y0155310D01*
X0120210Y0156108D02*
X0069100Y0156108D01*
X0069100Y0156907D02*
X0120210Y0156907D01*
X0120210Y0157705D02*
X0069100Y0157705D01*
X0069100Y0158504D02*
X0120210Y0158504D01*
X0120210Y0159302D02*
X0069100Y0159302D01*
X0069100Y0160101D02*
X0120210Y0160101D01*
X0120210Y0160899D02*
X0069100Y0160899D01*
X0069100Y0161698D02*
X0120210Y0161698D01*
X0120210Y0162496D02*
X0069100Y0162496D01*
X0069100Y0163295D02*
X0120210Y0163295D01*
X0120210Y0164093D02*
X0069100Y0164093D01*
X0069100Y0164892D02*
X0120210Y0164892D01*
X0120210Y0165690D02*
X0116791Y0165690D01*
X0117297Y0165900D02*
X0118685Y0167288D01*
X0119437Y0169103D01*
X0119437Y0171067D01*
X0118685Y0172882D01*
X0117297Y0174270D01*
X0115482Y0175022D01*
X0113518Y0175022D01*
X0111703Y0174270D01*
X0110315Y0172882D01*
X0109563Y0171067D01*
X0109563Y0169103D01*
X0110315Y0167288D01*
X0111703Y0165900D01*
X0113518Y0165148D01*
X0115482Y0165148D01*
X0117297Y0165900D01*
X0117886Y0166489D02*
X0120210Y0166489D01*
X0120210Y0167287D02*
X0118684Y0167287D01*
X0119016Y0168086D02*
X0120210Y0168086D01*
X0120210Y0168884D02*
X0119346Y0168884D01*
X0119437Y0169683D02*
X0120210Y0169683D01*
X0120210Y0170481D02*
X0119437Y0170481D01*
X0119349Y0171280D02*
X0120210Y0171280D01*
X0120210Y0172078D02*
X0119018Y0172078D01*
X0118687Y0172877D02*
X0120210Y0172877D01*
X0120210Y0173675D02*
X0117892Y0173675D01*
X0116805Y0174474D02*
X0120210Y0174474D01*
X0120210Y0175272D02*
X0069100Y0175272D01*
X0069100Y0174474D02*
X0112195Y0174474D01*
X0111108Y0173675D02*
X0069100Y0173675D01*
X0069100Y0172877D02*
X0110313Y0172877D01*
X0109982Y0172078D02*
X0069100Y0172078D01*
X0069100Y0171280D02*
X0109651Y0171280D01*
X0109563Y0170481D02*
X0069100Y0170481D01*
X0069100Y0169683D02*
X0109563Y0169683D01*
X0109654Y0168884D02*
X0069100Y0168884D01*
X0069100Y0168086D02*
X0109984Y0168086D01*
X0110316Y0167287D02*
X0069100Y0167287D01*
X0069100Y0166489D02*
X0111114Y0166489D01*
X0112209Y0165690D02*
X0069100Y0165690D01*
X0065900Y0165690D02*
X0004900Y0165690D01*
X0004900Y0164892D02*
X0065900Y0164892D01*
X0065900Y0164093D02*
X0004900Y0164093D01*
X0004900Y0163295D02*
X0065900Y0163295D01*
X0065900Y0162496D02*
X0004900Y0162496D01*
X0004900Y0161698D02*
X0065900Y0161698D01*
X0065900Y0160899D02*
X0004900Y0160899D01*
X0004900Y0160101D02*
X0065900Y0160101D01*
X0065900Y0159302D02*
X0004900Y0159302D01*
X0004900Y0158504D02*
X0065900Y0158504D01*
X0065900Y0157705D02*
X0004900Y0157705D01*
X0004900Y0156907D02*
X0065900Y0156907D01*
X0065900Y0156108D02*
X0004900Y0156108D01*
X0004900Y0155310D02*
X0065900Y0155310D01*
X0065900Y0154511D02*
X0004900Y0154511D01*
X0004900Y0153713D02*
X0065900Y0153713D01*
X0065900Y0152914D02*
X0004900Y0152914D01*
X0004900Y0152116D02*
X0065900Y0152116D01*
X0065900Y0151317D02*
X0004900Y0151317D01*
X0004900Y0150519D02*
X0065900Y0150519D01*
X0065900Y0149720D02*
X0004900Y0149720D01*
X0004900Y0148922D02*
X0065900Y0148922D01*
X0065900Y0148123D02*
X0004900Y0148123D01*
X0004900Y0147325D02*
X0065900Y0147325D01*
X0065900Y0146526D02*
X0004900Y0146526D01*
X0004900Y0145727D02*
X0066595Y0145727D01*
X0067393Y0144929D02*
X0004900Y0144929D01*
X0004900Y0144130D02*
X0068192Y0144130D01*
X0068990Y0143332D02*
X0004900Y0143332D01*
X0004900Y0142533D02*
X0069789Y0142533D01*
X0070587Y0141735D02*
X0004900Y0141735D01*
X0004900Y0140936D02*
X0071386Y0140936D01*
X0072184Y0140138D02*
X0004900Y0140138D01*
X0004900Y0139339D02*
X0072983Y0139339D01*
X0073781Y0138541D02*
X0004900Y0138541D01*
X0004900Y0137742D02*
X0074580Y0137742D01*
X0075378Y0136944D02*
X0004900Y0136944D01*
X0004900Y0136145D02*
X0076177Y0136145D01*
X0076975Y0135347D02*
X0067132Y0135347D01*
X0067699Y0134548D02*
X0077774Y0134548D01*
X0078572Y0133750D02*
X0067900Y0133750D01*
X0067835Y0132951D02*
X0078900Y0132951D01*
X0078900Y0132153D02*
X0067462Y0132153D01*
X0063538Y0132153D02*
X0016194Y0132153D01*
X0015864Y0132951D02*
X0063165Y0132951D01*
X0063100Y0133750D02*
X0015317Y0133750D01*
X0014519Y0134548D02*
X0063301Y0134548D01*
X0063868Y0135347D02*
X0012905Y0135347D01*
X0010095Y0135347D02*
X0004900Y0135347D01*
X0004900Y0134548D02*
X0008481Y0134548D01*
X0007683Y0133750D02*
X0004900Y0133750D01*
X0004900Y0132951D02*
X0007136Y0132951D01*
X0006806Y0132153D02*
X0004900Y0132153D01*
X0004900Y0131354D02*
X0006563Y0131354D01*
X0006563Y0130556D02*
X0004900Y0130556D01*
X0004900Y0129757D02*
X0006563Y0129757D01*
X0006830Y0128959D02*
X0004900Y0128959D01*
X0004900Y0128160D02*
X0007161Y0128160D01*
X0007741Y0127362D02*
X0004900Y0127362D01*
X0004900Y0126563D02*
X0008540Y0126563D01*
X0010236Y0125765D02*
X0004900Y0125765D01*
X0014474Y0105003D02*
X0014960Y0105003D01*
X0015759Y0104205D02*
X0014077Y0104205D01*
X0013278Y0103406D02*
X0016557Y0103406D01*
X0017356Y0102608D02*
X0011651Y0102608D01*
X0012495Y0100212D02*
X0019000Y0100212D01*
X0019000Y0099414D02*
X0013628Y0099414D01*
X0014289Y0098615D02*
X0019000Y0098615D01*
X0019000Y0097817D02*
X0014619Y0097817D01*
X0014800Y0097018D02*
X0019000Y0097018D01*
X0019000Y0096220D02*
X0014800Y0096220D01*
X0014648Y0095421D02*
X0019000Y0095421D01*
X0019000Y0094623D02*
X0014317Y0094623D01*
X0013696Y0093824D02*
X0019000Y0093824D01*
X0019000Y0093026D02*
X0012660Y0093026D01*
X0013210Y0089832D02*
X0019000Y0089832D01*
X0019000Y0090630D02*
X0004900Y0090630D01*
X0004900Y0091429D02*
X0019000Y0091429D01*
X0019000Y0092227D02*
X0004900Y0092227D01*
X0004900Y0101011D02*
X0018953Y0101011D01*
X0018154Y0101809D02*
X0004900Y0101809D01*
X0014009Y0089033D02*
X0019000Y0089033D01*
X0019000Y0088235D02*
X0014446Y0088235D01*
X0014777Y0087436D02*
X0019000Y0087436D01*
X0019000Y0086638D02*
X0014800Y0086638D01*
X0014800Y0085839D02*
X0019000Y0085839D01*
X0019423Y0085041D02*
X0014490Y0085041D01*
X0014114Y0084242D02*
X0020222Y0084242D01*
X0021020Y0083444D02*
X0013315Y0083444D01*
X0004900Y0070667D02*
X0046023Y0070667D01*
X0047079Y0069869D02*
X0004900Y0069869D01*
X0004900Y0069070D02*
X0046591Y0069070D01*
X0045894Y0068272D02*
X0004900Y0068272D01*
X0004900Y0067473D02*
X0045600Y0067473D01*
X0045600Y0066675D02*
X0004900Y0066675D01*
X0004900Y0065876D02*
X0045903Y0065876D01*
X0046613Y0065078D02*
X0004900Y0065078D01*
X0004900Y0029145D02*
X0120210Y0029145D01*
X0120210Y0028346D02*
X0004900Y0028346D01*
X0004900Y0027548D02*
X0120210Y0027548D01*
X0120210Y0026749D02*
X0004900Y0026749D01*
X0004900Y0025951D02*
X0120210Y0025951D01*
X0120210Y0107399D02*
X0114163Y0107399D01*
X0108615Y0115384D02*
X0108385Y0115384D01*
X0107347Y0116183D02*
X0109653Y0116183D01*
X0103609Y0111392D02*
X0089588Y0111392D01*
X0090180Y0110593D02*
X0103824Y0110593D01*
X0103228Y0109794D02*
X0090400Y0109794D01*
X0090354Y0108996D02*
X0102900Y0108996D01*
X0102900Y0108197D02*
X0090007Y0108197D01*
X0088994Y0107399D02*
X0103053Y0107399D01*
X0103487Y0126563D02*
X0082100Y0126563D01*
X0082100Y0127362D02*
X0102688Y0127362D01*
X0102335Y0128160D02*
X0082100Y0128160D01*
X0082100Y0128959D02*
X0102047Y0128959D01*
X0102047Y0129757D02*
X0082100Y0129757D01*
X0082100Y0130556D02*
X0102101Y0130556D01*
X0102432Y0131354D02*
X0082100Y0131354D01*
X0082100Y0132153D02*
X0102923Y0132153D01*
X0103721Y0132951D02*
X0082100Y0132951D01*
X0108279Y0132951D02*
X0113721Y0132951D01*
X0112923Y0132153D02*
X0109077Y0132153D01*
X0109568Y0131354D02*
X0112432Y0131354D01*
X0112101Y0130556D02*
X0109899Y0130556D01*
X0109953Y0129757D02*
X0112047Y0129757D01*
X0112047Y0128959D02*
X0109953Y0128959D01*
X0109665Y0128160D02*
X0112335Y0128160D01*
X0112688Y0127362D02*
X0109312Y0127362D01*
X0108513Y0126563D02*
X0113487Y0126563D01*
X0120210Y0176071D02*
X0069100Y0176071D01*
X0069100Y0176869D02*
X0120210Y0176869D01*
X0120210Y0177668D02*
X0069100Y0177668D01*
X0069100Y0178466D02*
X0120210Y0178466D01*
X0120210Y0179265D02*
X0069100Y0179265D01*
X0069100Y0180063D02*
X0120210Y0180063D01*
X0120210Y0180862D02*
X0069100Y0180862D01*
X0069100Y0181661D02*
X0120210Y0181661D01*
X0120210Y0182459D02*
X0069100Y0182459D01*
X0069100Y0183258D02*
X0120210Y0183258D01*
X0120210Y0184056D02*
X0069100Y0184056D01*
X0069100Y0184855D02*
X0120210Y0184855D01*
X0120210Y0185653D02*
X0069100Y0185653D01*
X0069100Y0186452D02*
X0120210Y0186452D01*
X0120210Y0187250D02*
X0068598Y0187250D01*
X0067799Y0188049D02*
X0120210Y0188049D01*
X0120210Y0188847D02*
X0116551Y0188847D01*
X0116559Y0188850D02*
X0117235Y0189526D01*
X0117600Y0190408D01*
X0117600Y0191202D01*
X0117959Y0191350D01*
X0118635Y0192026D01*
X0119000Y0192908D01*
X0119000Y0193862D01*
X0118635Y0194745D01*
X0117959Y0195420D01*
X0117077Y0195785D01*
X0116123Y0195785D01*
X0115241Y0195420D01*
X0115200Y0195379D01*
X0115159Y0195420D01*
X0114277Y0195785D01*
X0113323Y0195785D01*
X0112441Y0195420D01*
X0111765Y0194745D01*
X0111400Y0193862D01*
X0111400Y0192908D01*
X0111765Y0192026D01*
X0112441Y0191350D01*
X0112800Y0191202D01*
X0112800Y0190408D01*
X0113165Y0189526D01*
X0113841Y0188850D01*
X0114723Y0188485D01*
X0115677Y0188485D01*
X0116559Y0188850D01*
X0117284Y0189646D02*
X0120210Y0189646D01*
X0120210Y0190444D02*
X0117600Y0190444D01*
X0117699Y0191243D02*
X0120210Y0191243D01*
X0120210Y0192041D02*
X0118641Y0192041D01*
X0118972Y0192840D02*
X0120210Y0192840D01*
X0120210Y0193638D02*
X0119000Y0193638D01*
X0118762Y0194437D02*
X0120210Y0194437D01*
X0120210Y0195235D02*
X0118144Y0195235D01*
X0120210Y0196034D02*
X0059814Y0196034D01*
X0059016Y0196832D02*
X0120210Y0196832D01*
X0120210Y0197631D02*
X0058217Y0197631D01*
X0057419Y0198429D02*
X0120210Y0198429D01*
X0120210Y0199228D02*
X0056620Y0199228D01*
X0055821Y0200026D02*
X0073699Y0200026D01*
X0073641Y0200050D02*
X0074523Y0199685D01*
X0075477Y0199685D01*
X0076359Y0200050D01*
X0077035Y0200726D01*
X0077400Y0201608D01*
X0077400Y0202562D01*
X0077035Y0203445D01*
X0076359Y0204120D01*
X0075477Y0204485D01*
X0074523Y0204485D01*
X0073641Y0204120D01*
X0072965Y0203445D01*
X0072600Y0202562D01*
X0072600Y0201608D01*
X0072965Y0200726D01*
X0073641Y0200050D01*
X0072924Y0200825D02*
X0055023Y0200825D01*
X0054224Y0201623D02*
X0072600Y0201623D01*
X0072600Y0202422D02*
X0053426Y0202422D01*
X0052627Y0203220D02*
X0072873Y0203220D01*
X0073540Y0204019D02*
X0051829Y0204019D01*
X0051030Y0204817D02*
X0120210Y0204817D01*
X0120210Y0204019D02*
X0076460Y0204019D01*
X0077127Y0203220D02*
X0120210Y0203220D01*
X0120210Y0202422D02*
X0077400Y0202422D01*
X0077400Y0201623D02*
X0120210Y0201623D01*
X0120210Y0200825D02*
X0077076Y0200825D01*
X0076301Y0200026D02*
X0120210Y0200026D01*
X0120210Y0205616D02*
X0050232Y0205616D01*
X0049433Y0206414D02*
X0120210Y0206414D01*
X0120210Y0207213D02*
X0048635Y0207213D01*
X0047836Y0208011D02*
X0090923Y0208011D01*
X0090811Y0208058D02*
X0091907Y0207604D01*
X0093093Y0207604D01*
X0094189Y0208058D01*
X0095027Y0208896D01*
X0095481Y0209992D01*
X0095481Y0211178D01*
X0095027Y0212274D01*
X0094189Y0213112D01*
X0093093Y0213566D01*
X0091907Y0213566D01*
X0090811Y0213112D01*
X0089973Y0212274D01*
X0089519Y0211178D01*
X0089519Y0209992D01*
X0089973Y0208896D01*
X0090811Y0208058D01*
X0090059Y0208810D02*
X0047038Y0208810D01*
X0046239Y0209608D02*
X0089678Y0209608D01*
X0089519Y0210407D02*
X0069500Y0210407D01*
X0069382Y0210328D02*
X0070014Y0210750D01*
X0070551Y0211287D01*
X0070974Y0211919D01*
X0071264Y0212621D01*
X0071409Y0213346D01*
X0067955Y0213346D01*
X0067955Y0209893D01*
X0068680Y0210037D01*
X0069382Y0210328D01*
X0070469Y0211205D02*
X0089530Y0211205D01*
X0089861Y0212004D02*
X0071009Y0212004D01*
X0071300Y0212802D02*
X0090501Y0212802D01*
X0094498Y0212802D02*
X0099100Y0212802D01*
X0099100Y0212608D02*
X0099465Y0211726D01*
X0100141Y0211050D01*
X0101023Y0210685D01*
X0101977Y0210685D01*
X0102859Y0211050D01*
X0103535Y0211726D01*
X0103900Y0212608D01*
X0103900Y0213562D01*
X0103535Y0214445D01*
X0102859Y0215120D01*
X0101977Y0215485D01*
X0101023Y0215485D01*
X0100141Y0215120D01*
X0099465Y0214445D01*
X0099100Y0213562D01*
X0099100Y0212608D01*
X0099350Y0212004D02*
X0095139Y0212004D01*
X0095470Y0211205D02*
X0099985Y0211205D01*
X0099116Y0213601D02*
X0067955Y0213601D01*
X0067955Y0213346D02*
X0067955Y0214146D01*
X0071409Y0214146D01*
X0071264Y0214872D01*
X0070974Y0215574D01*
X0070551Y0216205D01*
X0070014Y0216743D01*
X0069382Y0217165D01*
X0068680Y0217456D01*
X0067955Y0217600D01*
X0067955Y0214147D01*
X0067155Y0214147D01*
X0067155Y0217600D01*
X0066430Y0217456D01*
X0065728Y0217165D01*
X0065096Y0216743D01*
X0064559Y0216205D01*
X0064137Y0215574D01*
X0063846Y0214872D01*
X0063702Y0214146D01*
X0067155Y0214146D01*
X0067155Y0213346D01*
X0067955Y0213346D01*
X0067955Y0212802D02*
X0067155Y0212802D01*
X0067155Y0213346D02*
X0067155Y0209893D01*
X0066430Y0210037D01*
X0065728Y0210328D01*
X0065096Y0210750D01*
X0064559Y0211287D01*
X0064137Y0211919D01*
X0063846Y0212621D01*
X0063702Y0213346D01*
X0067155Y0213346D01*
X0067155Y0213601D02*
X0061213Y0213601D01*
X0061213Y0213019D02*
X0060656Y0211675D01*
X0059627Y0210646D01*
X0058283Y0210089D01*
X0056828Y0210089D01*
X0055483Y0210646D01*
X0054454Y0211675D01*
X0053898Y0213019D01*
X0053898Y0214474D01*
X0054454Y0215818D01*
X0055483Y0216847D01*
X0056828Y0217404D01*
X0058283Y0217404D01*
X0059627Y0216847D01*
X0060656Y0215818D01*
X0061213Y0214474D01*
X0061213Y0213019D01*
X0061123Y0212802D02*
X0063810Y0212802D01*
X0064102Y0212004D02*
X0060792Y0212004D01*
X0060187Y0211205D02*
X0064641Y0211205D01*
X0065610Y0210407D02*
X0059050Y0210407D01*
X0056060Y0210407D02*
X0045441Y0210407D01*
X0044642Y0211205D02*
X0054924Y0211205D01*
X0054318Y0212004D02*
X0043844Y0212004D01*
X0043045Y0212802D02*
X0053987Y0212802D01*
X0053898Y0213601D02*
X0042247Y0213601D01*
X0041448Y0214399D02*
X0053898Y0214399D01*
X0054198Y0215198D02*
X0040650Y0215198D01*
X0039851Y0215996D02*
X0054633Y0215996D01*
X0055431Y0216795D02*
X0039053Y0216795D01*
X0038254Y0217594D02*
X0047097Y0217594D01*
X0047141Y0217550D02*
X0048023Y0217185D01*
X0048977Y0217185D01*
X0049859Y0217550D01*
X0050535Y0218226D01*
X0050900Y0219108D01*
X0050900Y0220062D01*
X0050535Y0220945D01*
X0049859Y0221620D01*
X0048977Y0221985D01*
X0048023Y0221985D01*
X0047141Y0221620D01*
X0046465Y0220945D01*
X0046100Y0220062D01*
X0046100Y0219108D01*
X0046465Y0218226D01*
X0047141Y0217550D01*
X0046396Y0218392D02*
X0037456Y0218392D01*
X0036657Y0219191D02*
X0046100Y0219191D01*
X0046100Y0219989D02*
X0035859Y0219989D01*
X0035060Y0220788D02*
X0046400Y0220788D01*
X0047107Y0221586D02*
X0034262Y0221586D01*
X0033463Y0222385D02*
X0120210Y0222385D01*
X0120210Y0223183D02*
X0033724Y0223183D01*
X0033900Y0223982D02*
X0120210Y0223982D01*
X0120210Y0224780D02*
X0033810Y0224780D01*
X0033401Y0225579D02*
X0120210Y0225579D01*
X0120210Y0226377D02*
X0032238Y0226377D01*
X0030762Y0226377D02*
X0004900Y0226377D01*
X0004900Y0225579D02*
X0029599Y0225579D01*
X0029190Y0224780D02*
X0004900Y0224780D01*
X0004900Y0223982D02*
X0029100Y0223982D01*
X0029276Y0223183D02*
X0004900Y0223183D01*
X0004900Y0222385D02*
X0029806Y0222385D01*
X0029900Y0221586D02*
X0004900Y0221586D01*
X0004900Y0220788D02*
X0030535Y0220788D01*
X0031333Y0219989D02*
X0004900Y0219989D01*
X0004900Y0219191D02*
X0032132Y0219191D01*
X0032930Y0218392D02*
X0004900Y0218392D01*
X0004900Y0217594D02*
X0033729Y0217594D01*
X0034527Y0216795D02*
X0004900Y0216795D01*
X0004900Y0215996D02*
X0035326Y0215996D01*
X0036124Y0215198D02*
X0004900Y0215198D01*
X0004900Y0214399D02*
X0036923Y0214399D01*
X0037721Y0213601D02*
X0004900Y0213601D01*
X0004900Y0212802D02*
X0038520Y0212802D01*
X0039318Y0212004D02*
X0004900Y0212004D01*
X0004900Y0211205D02*
X0040117Y0211205D01*
X0040915Y0210407D02*
X0004900Y0210407D01*
X0004900Y0209608D02*
X0041714Y0209608D01*
X0042512Y0208810D02*
X0004900Y0208810D01*
X0004900Y0208011D02*
X0043311Y0208011D01*
X0044109Y0207213D02*
X0004900Y0207213D01*
X0004900Y0206414D02*
X0044908Y0206414D01*
X0045706Y0205616D02*
X0004900Y0205616D01*
X0004900Y0204817D02*
X0017118Y0204817D01*
X0017523Y0204985D02*
X0016641Y0204620D01*
X0015965Y0203945D01*
X0015600Y0203062D01*
X0015600Y0202108D01*
X0015965Y0201226D01*
X0016641Y0200550D01*
X0017523Y0200185D01*
X0018477Y0200185D01*
X0019359Y0200550D01*
X0020035Y0201226D01*
X0020400Y0202108D01*
X0020400Y0203062D01*
X0020035Y0203945D01*
X0019359Y0204620D01*
X0018477Y0204985D01*
X0017523Y0204985D01*
X0018882Y0204817D02*
X0031838Y0204817D01*
X0032141Y0205120D02*
X0031465Y0204445D01*
X0031100Y0203562D01*
X0031100Y0202608D01*
X0031465Y0201726D01*
X0032141Y0201050D01*
X0033023Y0200685D01*
X0033977Y0200685D01*
X0034859Y0201050D01*
X0035535Y0201726D01*
X0035900Y0202608D01*
X0035900Y0203562D01*
X0035535Y0204445D01*
X0034859Y0205120D01*
X0033977Y0205485D01*
X0033023Y0205485D01*
X0032141Y0205120D01*
X0031289Y0204019D02*
X0019960Y0204019D01*
X0020335Y0203220D02*
X0031100Y0203220D01*
X0031177Y0202422D02*
X0020400Y0202422D01*
X0020199Y0201623D02*
X0031568Y0201623D01*
X0032685Y0200825D02*
X0019634Y0200825D01*
X0016366Y0200825D02*
X0004900Y0200825D01*
X0004900Y0201623D02*
X0015801Y0201623D01*
X0015600Y0202422D02*
X0004900Y0202422D01*
X0004900Y0203220D02*
X0015665Y0203220D01*
X0016040Y0204019D02*
X0004900Y0204019D01*
X0004900Y0200026D02*
X0035547Y0200026D01*
X0035641Y0200120D02*
X0034965Y0199445D01*
X0034600Y0198562D01*
X0034600Y0197608D01*
X0034965Y0196726D01*
X0035641Y0196050D01*
X0036523Y0195685D01*
X0037477Y0195685D01*
X0038359Y0196050D01*
X0039035Y0196726D01*
X0039400Y0197608D01*
X0039400Y0198562D01*
X0039035Y0199445D01*
X0038359Y0200120D01*
X0037477Y0200485D01*
X0036523Y0200485D01*
X0035641Y0200120D01*
X0034876Y0199228D02*
X0004900Y0199228D01*
X0004900Y0198429D02*
X0034600Y0198429D01*
X0034600Y0197631D02*
X0004900Y0197631D01*
X0004900Y0196832D02*
X0034921Y0196832D01*
X0035681Y0196034D02*
X0004900Y0196034D01*
X0004900Y0195235D02*
X0009825Y0195235D01*
X0010518Y0195522D02*
X0008703Y0194770D01*
X0007315Y0193382D01*
X0006563Y0191567D01*
X0006563Y0189603D01*
X0007315Y0187788D01*
X0008703Y0186400D01*
X0010518Y0185648D01*
X0012482Y0185648D01*
X0014297Y0186400D01*
X0015685Y0187788D01*
X0016437Y0189603D01*
X0016437Y0191567D01*
X0015685Y0193382D01*
X0014297Y0194770D01*
X0012482Y0195522D01*
X0010518Y0195522D01*
X0008370Y0194437D02*
X0004900Y0194437D01*
X0004900Y0193638D02*
X0007571Y0193638D01*
X0007090Y0192840D02*
X0004900Y0192840D01*
X0004900Y0192041D02*
X0006759Y0192041D01*
X0006563Y0191243D02*
X0004900Y0191243D01*
X0004900Y0190444D02*
X0006563Y0190444D01*
X0006563Y0189646D02*
X0004900Y0189646D01*
X0004900Y0188847D02*
X0006876Y0188847D01*
X0007207Y0188049D02*
X0004900Y0188049D01*
X0004900Y0187250D02*
X0007853Y0187250D01*
X0008651Y0186452D02*
X0004900Y0186452D01*
X0004900Y0185653D02*
X0010506Y0185653D01*
X0012494Y0185653D02*
X0053674Y0185653D01*
X0053465Y0185445D02*
X0053100Y0184562D01*
X0053100Y0183608D01*
X0053465Y0182726D01*
X0054141Y0182050D01*
X0055023Y0181685D01*
X0055977Y0181685D01*
X0056859Y0182050D01*
X0057535Y0182726D01*
X0057900Y0183608D01*
X0057900Y0184562D01*
X0057535Y0185445D01*
X0056859Y0186120D01*
X0055977Y0186485D01*
X0055023Y0186485D01*
X0054141Y0186120D01*
X0053465Y0185445D01*
X0053221Y0184855D02*
X0004900Y0184855D01*
X0004900Y0184056D02*
X0053100Y0184056D01*
X0053245Y0183258D02*
X0004900Y0183258D01*
X0004900Y0182459D02*
X0053732Y0182459D01*
X0057268Y0182459D02*
X0065900Y0182459D01*
X0065900Y0181661D02*
X0004900Y0181661D01*
X0004900Y0180862D02*
X0065900Y0180862D01*
X0065900Y0180063D02*
X0004900Y0180063D01*
X0004900Y0179265D02*
X0040491Y0179265D01*
X0040141Y0179120D02*
X0041023Y0179485D01*
X0041977Y0179485D01*
X0042859Y0179120D01*
X0043535Y0178445D01*
X0043900Y0177562D01*
X0043900Y0176608D01*
X0043535Y0175726D01*
X0042859Y0175050D01*
X0041977Y0174685D01*
X0041023Y0174685D01*
X0040141Y0175050D01*
X0039465Y0175726D01*
X0039100Y0176608D01*
X0039100Y0177562D01*
X0039465Y0178445D01*
X0040141Y0179120D01*
X0039487Y0178466D02*
X0004900Y0178466D01*
X0004900Y0177668D02*
X0039144Y0177668D01*
X0039100Y0176869D02*
X0004900Y0176869D01*
X0004900Y0176071D02*
X0039322Y0176071D01*
X0039919Y0175272D02*
X0004900Y0175272D01*
X0004900Y0174474D02*
X0065900Y0174474D01*
X0065900Y0175272D02*
X0043081Y0175272D01*
X0043678Y0176071D02*
X0065900Y0176071D01*
X0065900Y0176869D02*
X0043900Y0176869D01*
X0043856Y0177668D02*
X0065900Y0177668D01*
X0065900Y0178466D02*
X0043513Y0178466D01*
X0042509Y0179265D02*
X0065900Y0179265D01*
X0065900Y0183258D02*
X0057755Y0183258D01*
X0057900Y0184056D02*
X0065900Y0184056D01*
X0065900Y0184855D02*
X0057779Y0184855D01*
X0057326Y0185653D02*
X0065669Y0185653D01*
X0064871Y0186452D02*
X0056058Y0186452D01*
X0054942Y0186452D02*
X0014349Y0186452D01*
X0015147Y0187250D02*
X0064072Y0187250D01*
X0063274Y0188049D02*
X0015793Y0188049D01*
X0016124Y0188847D02*
X0062475Y0188847D01*
X0061677Y0189646D02*
X0016437Y0189646D01*
X0016437Y0190444D02*
X0060878Y0190444D01*
X0060080Y0191243D02*
X0016437Y0191243D01*
X0016241Y0192041D02*
X0044163Y0192041D01*
X0044141Y0192050D02*
X0045023Y0191685D01*
X0045977Y0191685D01*
X0046859Y0192050D01*
X0047535Y0192726D01*
X0047900Y0193608D01*
X0047900Y0194562D01*
X0047535Y0195445D01*
X0046859Y0196120D01*
X0045977Y0196485D01*
X0045023Y0196485D01*
X0044141Y0196120D01*
X0043465Y0195445D01*
X0043100Y0194562D01*
X0043100Y0193608D01*
X0043465Y0192726D01*
X0044141Y0192050D01*
X0043418Y0192840D02*
X0015910Y0192840D01*
X0015429Y0193638D02*
X0043100Y0193638D01*
X0043100Y0194437D02*
X0014630Y0194437D01*
X0013175Y0195235D02*
X0043379Y0195235D01*
X0044055Y0196034D02*
X0038319Y0196034D01*
X0039079Y0196832D02*
X0054490Y0196832D01*
X0055289Y0196034D02*
X0046945Y0196034D01*
X0047621Y0195235D02*
X0056087Y0195235D01*
X0056886Y0194437D02*
X0047900Y0194437D01*
X0047900Y0193638D02*
X0057684Y0193638D01*
X0058483Y0192840D02*
X0047582Y0192840D01*
X0046837Y0192041D02*
X0059281Y0192041D01*
X0061411Y0194437D02*
X0111638Y0194437D01*
X0111400Y0193638D02*
X0062210Y0193638D01*
X0063008Y0192840D02*
X0111428Y0192840D01*
X0111759Y0192041D02*
X0063807Y0192041D01*
X0064605Y0191243D02*
X0112701Y0191243D01*
X0112800Y0190444D02*
X0065404Y0190444D01*
X0066202Y0189646D02*
X0113116Y0189646D01*
X0113848Y0188847D02*
X0067001Y0188847D01*
X0060613Y0195235D02*
X0112256Y0195235D01*
X0120210Y0208011D02*
X0094077Y0208011D01*
X0094941Y0208810D02*
X0120210Y0208810D01*
X0120210Y0209608D02*
X0095322Y0209608D01*
X0095481Y0210407D02*
X0120210Y0210407D01*
X0120210Y0211205D02*
X0103014Y0211205D01*
X0103650Y0212004D02*
X0120210Y0212004D01*
X0120210Y0212802D02*
X0103900Y0212802D01*
X0103884Y0213601D02*
X0120210Y0213601D01*
X0120210Y0214399D02*
X0103553Y0214399D01*
X0102670Y0215198D02*
X0120210Y0215198D01*
X0120210Y0215996D02*
X0070691Y0215996D01*
X0071129Y0215198D02*
X0100330Y0215198D01*
X0099447Y0214399D02*
X0071358Y0214399D01*
X0069936Y0216795D02*
X0120210Y0216795D01*
X0120210Y0217594D02*
X0067987Y0217594D01*
X0067955Y0217594D02*
X0067155Y0217594D01*
X0067123Y0217594D02*
X0049903Y0217594D01*
X0050604Y0218392D02*
X0120210Y0218392D01*
X0120210Y0219191D02*
X0050900Y0219191D01*
X0050900Y0219989D02*
X0120210Y0219989D01*
X0120210Y0220788D02*
X0050600Y0220788D01*
X0049893Y0221586D02*
X0120210Y0221586D01*
X0118359Y0226850D02*
X0119035Y0227526D01*
X0119400Y0228408D01*
X0119400Y0229362D01*
X0119035Y0230245D01*
X0118359Y0230920D01*
X0117477Y0231285D01*
X0116523Y0231285D01*
X0115641Y0230920D01*
X0114965Y0230245D01*
X0114600Y0229362D01*
X0114600Y0228408D01*
X0114965Y0227526D01*
X0115641Y0226850D01*
X0116523Y0226485D01*
X0117477Y0226485D01*
X0118359Y0226850D01*
X0118685Y0227176D02*
X0120210Y0227176D01*
X0120210Y0227974D02*
X0119220Y0227974D01*
X0119400Y0228773D02*
X0120210Y0228773D01*
X0120210Y0229571D02*
X0119314Y0229571D01*
X0118909Y0230370D02*
X0120210Y0230370D01*
X0120210Y0231168D02*
X0117759Y0231168D01*
X0116241Y0231168D02*
X0011242Y0231168D01*
X0011359Y0231120D02*
X0010477Y0231485D01*
X0009523Y0231485D01*
X0008641Y0231120D01*
X0007965Y0230445D01*
X0007600Y0229562D01*
X0007600Y0228608D01*
X0007965Y0227726D01*
X0008641Y0227050D01*
X0009523Y0226685D01*
X0010477Y0226685D01*
X0011359Y0227050D01*
X0012035Y0227726D01*
X0012400Y0228608D01*
X0012400Y0229562D01*
X0012035Y0230445D01*
X0011359Y0231120D01*
X0012066Y0230370D02*
X0115091Y0230370D01*
X0114686Y0229571D02*
X0012396Y0229571D01*
X0012400Y0228773D02*
X0114600Y0228773D01*
X0114780Y0227974D02*
X0012138Y0227974D01*
X0011485Y0227176D02*
X0115315Y0227176D01*
X0120210Y0231967D02*
X0086276Y0231967D01*
X0086535Y0232226D02*
X0086900Y0233108D01*
X0086900Y0234062D01*
X0086535Y0234945D01*
X0085859Y0235620D01*
X0084977Y0235985D01*
X0084023Y0235985D01*
X0083141Y0235620D01*
X0082465Y0234945D01*
X0082100Y0234062D01*
X0082100Y0233108D01*
X0082465Y0232226D01*
X0083141Y0231550D01*
X0084023Y0231185D01*
X0084977Y0231185D01*
X0085859Y0231550D01*
X0086535Y0232226D01*
X0086758Y0232765D02*
X0120210Y0232765D01*
X0120210Y0233564D02*
X0086900Y0233564D01*
X0086776Y0234362D02*
X0120210Y0234362D01*
X0120210Y0235161D02*
X0086318Y0235161D01*
X0085040Y0235959D02*
X0120210Y0235959D01*
X0120210Y0236758D02*
X0072653Y0236758D01*
X0072477Y0236685D02*
X0073359Y0237050D01*
X0074035Y0237726D01*
X0074400Y0238608D01*
X0074400Y0239562D01*
X0074238Y0239953D01*
X0074641Y0239550D01*
X0075523Y0239185D01*
X0076477Y0239185D01*
X0077359Y0239550D01*
X0078035Y0240226D01*
X0078400Y0241108D01*
X0078400Y0242062D01*
X0078035Y0242945D01*
X0077359Y0243620D01*
X0076477Y0243985D01*
X0075523Y0243985D01*
X0074641Y0243620D01*
X0073965Y0242945D01*
X0073600Y0242062D01*
X0073600Y0241108D01*
X0073762Y0240718D01*
X0073359Y0241120D01*
X0072477Y0241485D01*
X0071523Y0241485D01*
X0070641Y0241120D01*
X0069965Y0240445D01*
X0069600Y0239562D01*
X0069600Y0238608D01*
X0069965Y0237726D01*
X0070641Y0237050D01*
X0071523Y0236685D01*
X0072477Y0236685D01*
X0071347Y0236758D02*
X0004900Y0236758D01*
X0004900Y0237556D02*
X0070135Y0237556D01*
X0069705Y0238355D02*
X0004900Y0238355D01*
X0004900Y0239153D02*
X0069600Y0239153D01*
X0069761Y0239952D02*
X0004900Y0239952D01*
X0004900Y0240750D02*
X0057441Y0240750D01*
X0057641Y0240550D02*
X0058523Y0240185D01*
X0059477Y0240185D01*
X0060359Y0240550D01*
X0061035Y0241226D01*
X0061400Y0242108D01*
X0061400Y0243062D01*
X0061035Y0243945D01*
X0060359Y0244620D01*
X0059477Y0244985D01*
X0058523Y0244985D01*
X0057641Y0244620D01*
X0056965Y0243945D01*
X0056600Y0243062D01*
X0056600Y0242108D01*
X0056965Y0241226D01*
X0057641Y0240550D01*
X0056831Y0241549D02*
X0004900Y0241549D01*
X0004900Y0242347D02*
X0056600Y0242347D01*
X0056635Y0243146D02*
X0004900Y0243146D01*
X0004900Y0243944D02*
X0012896Y0243944D01*
X0012641Y0244050D02*
X0013523Y0243685D01*
X0014477Y0243685D01*
X0015359Y0244050D01*
X0016035Y0244726D01*
X0016400Y0245608D01*
X0016400Y0246562D01*
X0016035Y0247445D01*
X0015359Y0248120D01*
X0014477Y0248485D01*
X0013523Y0248485D01*
X0012641Y0248120D01*
X0011965Y0247445D01*
X0011600Y0246562D01*
X0011600Y0245608D01*
X0011965Y0244726D01*
X0012641Y0244050D01*
X0011958Y0244743D02*
X0004900Y0244743D01*
X0004900Y0245541D02*
X0011627Y0245541D01*
X0011600Y0246340D02*
X0004900Y0246340D01*
X0004900Y0247138D02*
X0011839Y0247138D01*
X0012458Y0247937D02*
X0004900Y0247937D01*
X0004900Y0248735D02*
X0013401Y0248735D01*
X0013523Y0248685D02*
X0014477Y0248685D01*
X0015359Y0249050D01*
X0016035Y0249726D01*
X0016400Y0250608D01*
X0016400Y0251562D01*
X0016035Y0252445D01*
X0015359Y0253120D01*
X0014477Y0253485D01*
X0013523Y0253485D01*
X0012641Y0253120D01*
X0011965Y0252445D01*
X0011600Y0251562D01*
X0011600Y0250608D01*
X0011965Y0249726D01*
X0012641Y0249050D01*
X0013523Y0248685D01*
X0014599Y0248735D02*
X0120210Y0248735D01*
X0120210Y0247937D02*
X0015542Y0247937D01*
X0016161Y0247138D02*
X0120210Y0247138D01*
X0120210Y0246340D02*
X0111641Y0246340D01*
X0111481Y0246500D02*
X0112375Y0245606D01*
X0112859Y0244438D01*
X0112859Y0243173D01*
X0112375Y0242005D01*
X0111481Y0241111D01*
X0110313Y0240628D01*
X0109049Y0240628D01*
X0107881Y0241111D01*
X0106987Y0242005D01*
X0106503Y0243173D01*
X0106503Y0244438D01*
X0106987Y0245606D01*
X0107881Y0246500D01*
X0109049Y0246983D01*
X0110313Y0246983D01*
X0111481Y0246500D01*
X0112402Y0245541D02*
X0120210Y0245541D01*
X0120210Y0244743D02*
X0112733Y0244743D01*
X0112859Y0243944D02*
X0120210Y0243944D01*
X0120210Y0243146D02*
X0112848Y0243146D01*
X0112517Y0242347D02*
X0120210Y0242347D01*
X0120210Y0241549D02*
X0111919Y0241549D01*
X0110610Y0240750D02*
X0120210Y0240750D01*
X0120210Y0239952D02*
X0077761Y0239952D01*
X0078252Y0240750D02*
X0088753Y0240750D01*
X0089049Y0240628D02*
X0090313Y0240628D01*
X0091481Y0241111D01*
X0092375Y0242005D01*
X0092859Y0243173D01*
X0092859Y0244438D01*
X0092375Y0245606D01*
X0091481Y0246500D01*
X0090313Y0246983D01*
X0089049Y0246983D01*
X0087881Y0246500D01*
X0086987Y0245606D01*
X0086503Y0244438D01*
X0086503Y0243173D01*
X0086987Y0242005D01*
X0087881Y0241111D01*
X0089049Y0240628D01*
X0090610Y0240750D02*
X0098753Y0240750D01*
X0099049Y0240628D02*
X0100313Y0240628D01*
X0101481Y0241111D01*
X0102375Y0242005D01*
X0102859Y0243173D01*
X0102859Y0244438D01*
X0102375Y0245606D01*
X0101481Y0246500D01*
X0100313Y0246983D01*
X0099049Y0246983D01*
X0097881Y0246500D01*
X0096987Y0245606D01*
X0096503Y0244438D01*
X0096503Y0243173D01*
X0096987Y0242005D01*
X0097881Y0241111D01*
X0099049Y0240628D01*
X0100610Y0240750D02*
X0108753Y0240750D01*
X0107443Y0241549D02*
X0101919Y0241549D01*
X0102517Y0242347D02*
X0106845Y0242347D01*
X0106515Y0243146D02*
X0102848Y0243146D01*
X0102859Y0243944D02*
X0106503Y0243944D01*
X0106630Y0244743D02*
X0102733Y0244743D01*
X0102402Y0245541D02*
X0106960Y0245541D01*
X0107721Y0246340D02*
X0101641Y0246340D01*
X0097721Y0246340D02*
X0091641Y0246340D01*
X0092402Y0245541D02*
X0096960Y0245541D01*
X0096630Y0244743D02*
X0092733Y0244743D01*
X0092859Y0243944D02*
X0096503Y0243944D01*
X0096515Y0243146D02*
X0092848Y0243146D01*
X0092517Y0242347D02*
X0096845Y0242347D01*
X0097443Y0241549D02*
X0091919Y0241549D01*
X0087443Y0241549D02*
X0078400Y0241549D01*
X0078282Y0242347D02*
X0086845Y0242347D01*
X0086515Y0243146D02*
X0077833Y0243146D01*
X0076576Y0243944D02*
X0086503Y0243944D01*
X0086630Y0244743D02*
X0066062Y0244743D01*
X0066359Y0244620D02*
X0065477Y0244985D01*
X0064523Y0244985D01*
X0063641Y0244620D01*
X0062965Y0243945D01*
X0062600Y0243062D01*
X0062600Y0242108D01*
X0062965Y0241226D01*
X0063641Y0240550D01*
X0064523Y0240185D01*
X0065477Y0240185D01*
X0066359Y0240550D01*
X0067035Y0241226D01*
X0067400Y0242108D01*
X0067400Y0243062D01*
X0067035Y0243945D01*
X0066359Y0244620D01*
X0067035Y0243944D02*
X0075424Y0243944D01*
X0074167Y0243146D02*
X0067365Y0243146D01*
X0067400Y0242347D02*
X0073718Y0242347D01*
X0073600Y0241549D02*
X0067169Y0241549D01*
X0066559Y0240750D02*
X0070271Y0240750D01*
X0073729Y0240750D02*
X0073748Y0240750D01*
X0074239Y0239952D02*
X0074239Y0239952D01*
X0074400Y0239153D02*
X0120210Y0239153D01*
X0120210Y0238355D02*
X0074295Y0238355D01*
X0073865Y0237556D02*
X0120210Y0237556D01*
X0120210Y0249534D02*
X0015843Y0249534D01*
X0016286Y0250332D02*
X0120210Y0250332D01*
X0120210Y0251131D02*
X0070429Y0251131D01*
X0070432Y0251134D02*
X0070437Y0251134D01*
X0070478Y0251174D01*
X0070506Y0251182D01*
X0070530Y0251221D01*
X0070617Y0251272D01*
X0070631Y0251328D01*
X0070672Y0251368D01*
X0070672Y0251464D01*
X0070674Y0251468D01*
X0070672Y0251476D01*
X0070672Y0251482D01*
X0070701Y0251593D01*
X0070672Y0251642D01*
X0070672Y0251700D01*
X0070592Y0251779D01*
X0070590Y0251788D01*
X0070584Y0251791D01*
X0070533Y0251879D01*
X0070478Y0251893D01*
X0070437Y0251934D01*
X0070341Y0251934D01*
X0070291Y0251963D01*
X0070252Y0251953D01*
X0070213Y0251963D01*
X0070163Y0251934D01*
X0070067Y0251934D01*
X0070026Y0251893D01*
X0069971Y0251879D01*
X0069919Y0251791D01*
X0069914Y0251788D01*
X0069912Y0251779D01*
X0069832Y0251700D01*
X0069832Y0251642D01*
X0069803Y0251593D01*
X0069832Y0251482D01*
X0069832Y0251476D01*
X0069830Y0251468D01*
X0069832Y0251464D01*
X0069832Y0251368D01*
X0069873Y0251328D01*
X0069887Y0251272D01*
X0069974Y0251221D01*
X0069997Y0251182D01*
X0070026Y0251174D01*
X0070067Y0251134D01*
X0070072Y0251134D01*
X0070079Y0251127D01*
X0070136Y0251127D01*
X0070186Y0251098D01*
X0070252Y0251115D01*
X0070318Y0251098D01*
X0070367Y0251127D01*
X0070425Y0251127D01*
X0070432Y0251134D01*
X0070075Y0251131D02*
X0055075Y0251131D01*
X0055078Y0251134D02*
X0055083Y0251134D01*
X0055123Y0251174D01*
X0055152Y0251182D01*
X0055175Y0251221D01*
X0055262Y0251272D01*
X0055277Y0251328D01*
X0055317Y0251368D01*
X0055317Y0251464D01*
X0055319Y0251468D01*
X0055317Y0251476D01*
X0055317Y0251482D01*
X0055346Y0251593D01*
X0055317Y0251642D01*
X0055317Y0251700D01*
X0055238Y0251779D01*
X0055235Y0251788D01*
X0055230Y0251791D01*
X0055179Y0251879D01*
X0055124Y0251893D01*
X0055083Y0251934D01*
X0054986Y0251934D01*
X0054937Y0251963D01*
X0054898Y0251953D01*
X0054859Y0251963D01*
X0054809Y0251934D01*
X0054712Y0251934D01*
X0054672Y0251893D01*
X0054616Y0251879D01*
X0054565Y0251791D01*
X0054560Y0251788D01*
X0054558Y0251779D01*
X0054478Y0251700D01*
X0054478Y0251642D01*
X0054449Y0251593D01*
X0054478Y0251482D01*
X0054478Y0251476D01*
X0054476Y0251468D01*
X0054478Y0251464D01*
X0054478Y0251368D01*
X0054519Y0251328D01*
X0054533Y0251272D01*
X0054620Y0251221D01*
X0054643Y0251182D01*
X0054672Y0251174D01*
X0054712Y0251134D01*
X0054717Y0251134D01*
X0054725Y0251127D01*
X0054782Y0251127D01*
X0054832Y0251098D01*
X0054898Y0251115D01*
X0054964Y0251098D01*
X0055013Y0251127D01*
X0055071Y0251127D01*
X0055078Y0251134D01*
X0054720Y0251131D02*
X0016400Y0251131D01*
X0016248Y0251930D02*
X0054708Y0251930D01*
X0055087Y0251930D02*
X0070062Y0251930D01*
X0070442Y0251930D02*
X0120210Y0251930D01*
X0120210Y0252728D02*
X0015751Y0252728D01*
X0012249Y0252728D02*
X0004900Y0252728D01*
X0004900Y0251930D02*
X0011752Y0251930D01*
X0011600Y0251131D02*
X0004900Y0251131D01*
X0004900Y0250332D02*
X0011714Y0250332D01*
X0012157Y0249534D02*
X0004900Y0249534D01*
X0004900Y0253527D02*
X0120210Y0253527D01*
X0120210Y0254325D02*
X0004900Y0254325D01*
X0004900Y0255124D02*
X0120210Y0255124D01*
X0120210Y0255922D02*
X0004900Y0255922D01*
X0004900Y0256721D02*
X0120210Y0256721D01*
X0120210Y0257519D02*
X0004900Y0257519D01*
X0004900Y0258318D02*
X0019203Y0258318D01*
X0018075Y0259116D02*
X0004900Y0259116D01*
X0004900Y0259915D02*
X0017680Y0259915D01*
X0017600Y0260713D02*
X0004900Y0260713D01*
X0004900Y0261512D02*
X0017786Y0261512D01*
X0020797Y0258318D02*
X0042703Y0258318D01*
X0041575Y0259116D02*
X0021925Y0259116D01*
X0022320Y0259915D02*
X0041180Y0259915D01*
X0041100Y0260713D02*
X0022400Y0260713D01*
X0022214Y0261512D02*
X0041286Y0261512D01*
X0044297Y0258318D02*
X0120210Y0258318D01*
X0120210Y0259116D02*
X0045425Y0259116D01*
X0045820Y0259915D02*
X0120210Y0259915D01*
X0120210Y0260713D02*
X0045900Y0260713D01*
X0045714Y0261512D02*
X0120210Y0261512D01*
X0087721Y0246340D02*
X0016400Y0246340D01*
X0016373Y0245541D02*
X0086960Y0245541D01*
X0083960Y0235959D02*
X0046520Y0235959D01*
X0046359Y0236120D02*
X0045477Y0236485D01*
X0044523Y0236485D01*
X0043641Y0236120D01*
X0042965Y0235445D01*
X0042600Y0234562D01*
X0042600Y0233608D01*
X0042965Y0232726D01*
X0043641Y0232050D01*
X0044523Y0231685D01*
X0045477Y0231685D01*
X0046359Y0232050D01*
X0047035Y0232726D01*
X0047400Y0233608D01*
X0047400Y0234562D01*
X0047035Y0235445D01*
X0046359Y0236120D01*
X0047152Y0235161D02*
X0082682Y0235161D01*
X0082224Y0234362D02*
X0047400Y0234362D01*
X0047382Y0233564D02*
X0082100Y0233564D01*
X0082242Y0232765D02*
X0047051Y0232765D01*
X0046157Y0231967D02*
X0082724Y0231967D01*
X0067955Y0216795D02*
X0067155Y0216795D01*
X0067155Y0215996D02*
X0067955Y0215996D01*
X0067955Y0215198D02*
X0067155Y0215198D01*
X0067155Y0214399D02*
X0067955Y0214399D01*
X0067955Y0212004D02*
X0067155Y0212004D01*
X0067155Y0211205D02*
X0067955Y0211205D01*
X0067955Y0210407D02*
X0067155Y0210407D01*
X0063752Y0214399D02*
X0061213Y0214399D01*
X0060913Y0215198D02*
X0063981Y0215198D01*
X0064419Y0215996D02*
X0060478Y0215996D01*
X0059679Y0216795D02*
X0065174Y0216795D01*
X0050498Y0200825D02*
X0034315Y0200825D01*
X0035432Y0201623D02*
X0049699Y0201623D01*
X0048900Y0202422D02*
X0035823Y0202422D01*
X0035900Y0203220D02*
X0048102Y0203220D01*
X0047303Y0204019D02*
X0035711Y0204019D01*
X0035162Y0204817D02*
X0046505Y0204817D01*
X0051296Y0200026D02*
X0038453Y0200026D01*
X0039124Y0199228D02*
X0052095Y0199228D01*
X0052893Y0198429D02*
X0039400Y0198429D01*
X0039400Y0197631D02*
X0053692Y0197631D01*
X0065900Y0173675D02*
X0004900Y0173675D01*
X0004900Y0172877D02*
X0065900Y0172877D01*
X0065900Y0172078D02*
X0004900Y0172078D01*
X0004900Y0171280D02*
X0065900Y0171280D01*
X0065900Y0170481D02*
X0004900Y0170481D01*
X0004900Y0169683D02*
X0065900Y0169683D01*
X0065900Y0168884D02*
X0004900Y0168884D01*
X0004900Y0168086D02*
X0065900Y0168086D01*
X0065900Y0167287D02*
X0004900Y0167287D01*
X0004900Y0166489D02*
X0065900Y0166489D01*
X0043843Y0231967D02*
X0004900Y0231967D01*
X0004900Y0232765D02*
X0042949Y0232765D01*
X0042618Y0233564D02*
X0004900Y0233564D01*
X0004900Y0234362D02*
X0042600Y0234362D01*
X0042848Y0235161D02*
X0004900Y0235161D01*
X0004900Y0235959D02*
X0043480Y0235959D01*
X0056965Y0243944D02*
X0015104Y0243944D01*
X0016042Y0244743D02*
X0057938Y0244743D01*
X0060062Y0244743D02*
X0063938Y0244743D01*
X0062965Y0243944D02*
X0061035Y0243944D01*
X0061365Y0243146D02*
X0062635Y0243146D01*
X0062600Y0242347D02*
X0061400Y0242347D01*
X0061169Y0241549D02*
X0062831Y0241549D01*
X0063441Y0240750D02*
X0060559Y0240750D01*
X0008758Y0231168D02*
X0004900Y0231168D01*
X0004900Y0230370D02*
X0007934Y0230370D01*
X0007604Y0229571D02*
X0004900Y0229571D01*
X0004900Y0228773D02*
X0007600Y0228773D01*
X0007862Y0227974D02*
X0004900Y0227974D01*
X0004900Y0227176D02*
X0008515Y0227176D01*
D18*
X0118300Y0043685D03*
X0118300Y0037685D03*
X0118300Y0031685D03*
X0118300Y0026685D03*
X0113300Y0026685D03*
X0107300Y0026685D03*
X0101300Y0026685D03*
X0095300Y0026685D03*
X0083300Y0026685D03*
X0077300Y0026685D03*
X0071300Y0026685D03*
X0065300Y0026685D03*
X0059300Y0026685D03*
X0053800Y0026285D03*
X0053300Y0022285D03*
X0053300Y0017785D03*
X0046300Y0015785D03*
X0046600Y0010185D03*
X0041100Y0010185D03*
X0035600Y0010185D03*
X0030100Y0010185D03*
X0024600Y0010185D03*
X0019100Y0010185D03*
X0013600Y0010185D03*
X0008100Y0010185D03*
X0043800Y0030785D03*
X0042800Y0034285D03*
X0049300Y0034285D03*
X0046300Y0027785D03*
X0046300Y0023785D03*
X0053100Y0010185D03*
D19*
X0092500Y0210585D03*
D20*
X0015500Y0106585D02*
X0010800Y0106585D01*
X0015500Y0106585D02*
X0020500Y0101585D01*
X0020500Y0086085D01*
X0033500Y0073085D01*
X0038000Y0073085D01*
X0025000Y0055585D02*
X0016500Y0055585D01*
X0014000Y0058085D01*
X0025000Y0055585D02*
X0029500Y0051085D01*
X0069000Y0051085D01*
X0071500Y0048585D01*
X0071500Y0046585D01*
X0072500Y0038585D02*
X0076500Y0034585D01*
X0076500Y0031585D01*
X0072500Y0038585D02*
X0035000Y0038585D01*
X0030500Y0034085D01*
X0024500Y0034085D01*
X0023000Y0039585D02*
X0009500Y0039585D01*
X0009000Y0040085D01*
X0023000Y0039585D02*
X0027579Y0044164D01*
X0056421Y0044164D01*
X0059000Y0041585D01*
X0062500Y0041585D01*
X0063500Y0042585D01*
X0063500Y0044085D01*
X0066000Y0046585D01*
D21*
X0082500Y0031585D02*
X0085000Y0034085D01*
X0085000Y0082585D01*
X0080500Y0087085D01*
X0080500Y0134085D01*
X0067500Y0147085D01*
X0067500Y0186085D01*
X0031500Y0222085D01*
X0031500Y0224085D01*
M02*
