%
M48
M72
T01C0.01181
T02C0.01200
T03C0.02362
T04C0.02600
T05C0.02756
T06C0.03150
T07C0.03543
T08C0.03937
T09C0.04000
T10C0.07874
%
T01
X8100Y10185
X13600Y10185
X19100Y10185
X24600Y10185
X30100Y10185
X35600Y10185
X41100Y10185
X46600Y10185
X46300Y15785
X53300Y17785
X53300Y22285
X53800Y26285
X59300Y26685
X65300Y26685
X71300Y26685
X77300Y26685
X83300Y26685
X95300Y26685
X101300Y26685
X107300Y26685
X113300Y26685
X118300Y26685
X118300Y31685
X118300Y37685
X118300Y43685
X53100Y10185
X46300Y23785
X46300Y27785
X43800Y30785
X42800Y34285
X49300Y34285
T02
X60500Y46585
X66000Y46585
X71500Y46585
X76500Y46585
X67400Y55885
X67400Y65385
X57400Y65385
X57400Y55885
X48000Y67085
X48000Y72085
X38000Y73085
X38000Y77085
X38000Y81585
X47500Y88085
X59000Y90085
X69500Y90085
X76500Y76085
X92900Y83385
X98000Y88085
X83500Y100085
X88000Y109585
X65500Y133585
X53500Y109085
X48000Y109085
X39800Y102885
X37000Y113085
X37000Y128585
X41500Y177085
X55500Y184085
X45500Y194085
X37000Y198085
X33500Y203085
X48500Y219585
X45000Y234085
X52500Y242585
X59000Y242585
X65000Y242585
X72000Y239085
X76000Y241585
X84500Y233585
X101500Y213085
X109900Y228885
X113100Y228885
X117000Y228885
X116600Y193385
X115200Y190885
X113800Y193385
X75000Y202085
X31500Y224085
X18000Y202585
X10000Y229085
X14000Y246085
X14000Y251085
X20000Y260585
X43500Y260585
X19500Y61085
X14000Y58085
X9000Y40085
X24500Y34085
X29500Y37085
X33500Y32585
X36500Y14585
X62000Y32085
X76500Y31585
X82500Y31585
T03
X92500Y210585
T04
X106000Y113385
X106000Y108385
X106000Y103385
X106000Y98385
X111000Y98385
X111000Y103385
X111000Y108385
X111000Y113385
T05
X109681Y243806
X99681Y243806
X89681Y243806
T06
X67555Y123321
X57555Y123321
T07
X57555Y213746
X67555Y213746
T08
X106000Y129640
X116000Y129640
T09
X115000Y80585
X115000Y70585
X115000Y60585
X115000Y50585
X10800Y86585
X10800Y96585
X10800Y106585
T10
X11500Y130585
X11500Y190585
X114500Y170085
X108500Y35585
M30
