G75*
%MOIN*%
%OFA0B0*%
%FSLAX25Y25*%
%IPPOS*%
%LPD*%
%AMOC8*
5,1,8,0,0,1.08239X$1,22.5*
%
%ADD10C,0.04356*%
%ADD11C,0.05315*%
%ADD12C,0.05906*%
%ADD13C,0.06000*%
%ADD14C,0.04750*%
%ADD15C,0.04200*%
%ADD16C,0.02800*%
%ADD17C,0.02781*%
%ADD18C,0.03962*%
%ADD19C,0.00600*%
%ADD20C,0.01000*%
%ADD21C,0.01200*%
D10*
X0089681Y0243806D03*
X0099681Y0243806D03*
X0109681Y0243806D03*
D11*
X0067555Y0213746D03*
X0057555Y0213746D03*
D12*
X0106000Y0129640D03*
X0116000Y0129640D03*
D13*
X0115000Y0080585D03*
X0115000Y0070585D03*
X0115000Y0060585D03*
X0115000Y0050585D03*
X0010800Y0086585D03*
X0010800Y0096585D03*
X0010800Y0106585D03*
D14*
X0057555Y0123321D03*
X0067555Y0123321D03*
D15*
X0106000Y0113385D03*
X0106000Y0108385D03*
X0106000Y0103385D03*
X0106000Y0098385D03*
X0111000Y0098385D03*
X0111000Y0103385D03*
X0111000Y0108385D03*
X0111000Y0113385D03*
D16*
X0088000Y0109585D03*
X0083500Y0100085D03*
X0069500Y0090085D03*
X0059000Y0090085D03*
X0047500Y0088085D03*
X0038000Y0081585D03*
X0038000Y0077085D03*
X0038000Y0073085D03*
X0048000Y0072085D03*
X0048000Y0067085D03*
X0057400Y0065385D03*
X0057400Y0055885D03*
X0060500Y0046585D03*
X0066000Y0046585D03*
X0071500Y0046585D03*
X0076500Y0046585D03*
X0067400Y0055885D03*
X0067400Y0065385D03*
X0076500Y0076085D03*
X0092900Y0083385D03*
X0098000Y0088085D03*
X0065500Y0133585D03*
X0053500Y0109085D03*
X0048000Y0109085D03*
X0039800Y0102885D03*
X0037000Y0113085D03*
X0037000Y0128585D03*
X0041500Y0177085D03*
X0055500Y0184085D03*
X0045500Y0194085D03*
X0037000Y0198085D03*
X0033500Y0203085D03*
X0048500Y0219585D03*
X0045000Y0234085D03*
X0052500Y0242585D03*
X0059000Y0242585D03*
X0065000Y0242585D03*
X0072000Y0239085D03*
X0076000Y0241585D03*
X0084500Y0233585D03*
X0101500Y0213085D03*
X0109900Y0228885D03*
X0113100Y0228885D03*
X0117000Y0228885D03*
X0116600Y0193385D03*
X0115200Y0190885D03*
X0113800Y0193385D03*
X0075000Y0202085D03*
X0031500Y0224085D03*
X0018000Y0202585D03*
X0010000Y0229085D03*
X0014000Y0246085D03*
X0014000Y0251085D03*
X0020000Y0260585D03*
X0043500Y0260585D03*
X0019500Y0061085D03*
X0014000Y0058085D03*
X0009000Y0040085D03*
X0024500Y0034085D03*
X0029500Y0037085D03*
X0033500Y0032585D03*
X0036500Y0014585D03*
X0062000Y0032085D03*
X0076500Y0031585D03*
X0082500Y0031585D03*
D17*
X0008100Y0010185D03*
X0013600Y0010185D03*
X0019100Y0010185D03*
X0024600Y0010185D03*
X0030100Y0010185D03*
X0035600Y0010185D03*
X0041100Y0010185D03*
X0046600Y0010185D03*
X0046300Y0015785D03*
X0053300Y0017785D03*
X0053300Y0022285D03*
X0053800Y0026285D03*
X0059300Y0026685D03*
X0065300Y0026685D03*
X0071300Y0026685D03*
X0077300Y0026685D03*
X0083300Y0026685D03*
X0095300Y0026685D03*
X0101300Y0026685D03*
X0107300Y0026685D03*
X0113300Y0026685D03*
X0118300Y0026685D03*
X0118300Y0031685D03*
X0118300Y0037685D03*
X0118300Y0043685D03*
X0053100Y0010185D03*
X0046300Y0023785D03*
X0046300Y0027785D03*
X0043800Y0030785D03*
X0042800Y0034285D03*
X0049300Y0034285D03*
D18*
X0092500Y0210585D03*
D19*
X0089618Y0211677D02*
X0070765Y0211677D01*
X0070741Y0211618D02*
X0071313Y0212999D01*
X0071313Y0214494D01*
X0070741Y0215875D01*
X0069684Y0216932D01*
X0068303Y0217504D01*
X0066808Y0217504D01*
X0065427Y0216932D01*
X0064370Y0215875D01*
X0064100Y0215224D01*
X0064100Y0220422D01*
X0077600Y0233922D01*
X0077600Y0239649D01*
X0078119Y0240169D01*
X0078500Y0241088D01*
X0078500Y0242082D01*
X0078119Y0243001D01*
X0077416Y0243704D01*
X0076497Y0244085D01*
X0075503Y0244085D01*
X0074584Y0243704D01*
X0073881Y0243001D01*
X0073500Y0242082D01*
X0073500Y0241121D01*
X0073416Y0241204D01*
X0072497Y0241585D01*
X0071503Y0241585D01*
X0070584Y0241204D01*
X0069881Y0240501D01*
X0069500Y0239582D01*
X0069500Y0238848D01*
X0048400Y0217748D01*
X0048400Y0192748D01*
X0044337Y0188685D01*
X0036663Y0188685D01*
X0035100Y0190248D01*
X0035100Y0196450D01*
X0035584Y0195966D01*
X0036503Y0195585D01*
X0037497Y0195585D01*
X0038416Y0195966D01*
X0039119Y0196669D01*
X0039500Y0197588D01*
X0039500Y0198582D01*
X0039119Y0199501D01*
X0038600Y0200021D01*
X0038600Y0228748D01*
X0037663Y0229685D01*
X0016500Y0250848D01*
X0016500Y0251582D01*
X0016119Y0252501D01*
X0015416Y0253204D01*
X0014497Y0253585D01*
X0013503Y0253585D01*
X0012584Y0253204D01*
X0011881Y0252501D01*
X0011500Y0251582D01*
X0011500Y0250588D01*
X0011881Y0249669D01*
X0012584Y0248966D01*
X0013503Y0248585D01*
X0012584Y0248204D01*
X0011881Y0247501D01*
X0011500Y0246582D01*
X0011500Y0245588D01*
X0011881Y0244669D01*
X0012584Y0243966D01*
X0013503Y0243585D01*
X0014096Y0243585D01*
X0024800Y0232881D01*
X0024800Y0222381D01*
X0025796Y0221385D01*
X0031800Y0215381D01*
X0031800Y0204921D01*
X0031381Y0204501D01*
X0031000Y0203582D01*
X0031000Y0202588D01*
X0031381Y0201669D01*
X0031900Y0201150D01*
X0031900Y0188922D01*
X0032837Y0187985D01*
X0035337Y0185485D01*
X0045663Y0185485D01*
X0046600Y0186422D01*
X0051600Y0191422D01*
X0051600Y0216422D01*
X0071763Y0236585D01*
X0072497Y0236585D01*
X0073416Y0236966D01*
X0074119Y0237669D01*
X0074400Y0238346D01*
X0074400Y0235248D01*
X0061837Y0222685D01*
X0060900Y0221748D01*
X0060900Y0215490D01*
X0060741Y0215875D01*
X0059684Y0216932D01*
X0058303Y0217504D01*
X0056808Y0217504D01*
X0055427Y0216932D01*
X0054370Y0215875D01*
X0053798Y0214494D01*
X0053798Y0212999D01*
X0054370Y0211618D01*
X0055427Y0210561D01*
X0056808Y0209989D01*
X0058303Y0209989D01*
X0059684Y0210561D01*
X0060741Y0211618D01*
X0060900Y0212003D01*
X0060900Y0197248D01*
X0042874Y0179222D01*
X0041997Y0179585D01*
X0041003Y0179585D01*
X0040084Y0179204D01*
X0039381Y0178501D01*
X0039000Y0177582D01*
X0039000Y0176588D01*
X0039381Y0175669D01*
X0040084Y0174966D01*
X0041003Y0174585D01*
X0041997Y0174585D01*
X0042916Y0174966D01*
X0043436Y0175485D01*
X0043663Y0175485D01*
X0044600Y0176422D01*
X0063163Y0194985D01*
X0064100Y0195922D01*
X0064100Y0212269D01*
X0064370Y0211618D01*
X0065427Y0210561D01*
X0066808Y0209989D01*
X0068303Y0209989D01*
X0069684Y0210561D01*
X0070741Y0211618D01*
X0071013Y0212276D02*
X0089865Y0212276D01*
X0089888Y0212330D02*
X0089419Y0211198D01*
X0089419Y0209972D01*
X0089888Y0208840D01*
X0090755Y0207973D01*
X0091887Y0207504D01*
X0093113Y0207504D01*
X0094245Y0207973D01*
X0095112Y0208840D01*
X0095581Y0209972D01*
X0095581Y0211198D01*
X0095112Y0212330D01*
X0094245Y0213197D01*
X0093113Y0213666D01*
X0091887Y0213666D01*
X0090755Y0213197D01*
X0089888Y0212330D01*
X0090432Y0212874D02*
X0071261Y0212874D01*
X0071313Y0213473D02*
X0091421Y0213473D01*
X0093579Y0213473D02*
X0099000Y0213473D01*
X0099000Y0213582D02*
X0099000Y0212588D01*
X0099381Y0211669D01*
X0100084Y0210966D01*
X0101003Y0210585D01*
X0101997Y0210585D01*
X0102916Y0210966D01*
X0103619Y0211669D01*
X0104000Y0212588D01*
X0104000Y0213582D01*
X0103619Y0214501D01*
X0102916Y0215204D01*
X0101997Y0215585D01*
X0101003Y0215585D01*
X0100084Y0215204D01*
X0099381Y0214501D01*
X0099000Y0213582D01*
X0099203Y0214071D02*
X0071313Y0214071D01*
X0071240Y0214670D02*
X0099549Y0214670D01*
X0100238Y0215268D02*
X0070992Y0215268D01*
X0070744Y0215867D02*
X0119642Y0215867D01*
X0119642Y0216465D02*
X0070150Y0216465D01*
X0069365Y0217064D02*
X0119642Y0217064D01*
X0119642Y0217663D02*
X0064100Y0217663D01*
X0064100Y0218261D02*
X0119642Y0218261D01*
X0119642Y0218860D02*
X0064100Y0218860D01*
X0064100Y0219458D02*
X0119642Y0219458D01*
X0119642Y0220057D02*
X0064100Y0220057D01*
X0064333Y0220655D02*
X0119642Y0220655D01*
X0119642Y0221254D02*
X0064931Y0221254D01*
X0065530Y0221852D02*
X0119642Y0221852D01*
X0119642Y0222451D02*
X0066128Y0222451D01*
X0066727Y0223049D02*
X0119642Y0223049D01*
X0119642Y0223648D02*
X0067325Y0223648D01*
X0067924Y0224246D02*
X0119642Y0224246D01*
X0119642Y0224845D02*
X0068522Y0224845D01*
X0069121Y0225443D02*
X0119642Y0225443D01*
X0119642Y0226042D02*
X0069719Y0226042D01*
X0070318Y0226640D02*
X0108787Y0226640D01*
X0108484Y0226766D02*
X0109403Y0226385D01*
X0110397Y0226385D01*
X0111316Y0226766D01*
X0111500Y0226950D01*
X0111684Y0226766D01*
X0112603Y0226385D01*
X0113597Y0226385D01*
X0114516Y0226766D01*
X0115050Y0227300D01*
X0115584Y0226766D01*
X0116503Y0226385D01*
X0117497Y0226385D01*
X0118416Y0226766D01*
X0119119Y0227469D01*
X0119500Y0228388D01*
X0119500Y0229382D01*
X0119119Y0230301D01*
X0118416Y0231004D01*
X0117497Y0231385D01*
X0116503Y0231385D01*
X0115584Y0231004D01*
X0115050Y0230471D01*
X0114516Y0231004D01*
X0113597Y0231385D01*
X0112603Y0231385D01*
X0111684Y0231004D01*
X0111500Y0230821D01*
X0111316Y0231004D01*
X0110397Y0231385D01*
X0109403Y0231385D01*
X0108484Y0231004D01*
X0107781Y0230301D01*
X0107400Y0229382D01*
X0107400Y0228388D01*
X0107781Y0227469D01*
X0108484Y0226766D01*
X0108011Y0227239D02*
X0070916Y0227239D01*
X0071515Y0227837D02*
X0107628Y0227837D01*
X0107400Y0228436D02*
X0072113Y0228436D01*
X0072712Y0229034D02*
X0107400Y0229034D01*
X0107504Y0229633D02*
X0073310Y0229633D01*
X0073909Y0230231D02*
X0107752Y0230231D01*
X0108309Y0230830D02*
X0074507Y0230830D01*
X0075106Y0231428D02*
X0119642Y0231428D01*
X0119642Y0230830D02*
X0118591Y0230830D01*
X0119148Y0230231D02*
X0119642Y0230231D01*
X0119642Y0229633D02*
X0119396Y0229633D01*
X0119500Y0229034D02*
X0119642Y0229034D01*
X0119642Y0228436D02*
X0119500Y0228436D01*
X0119642Y0227837D02*
X0119272Y0227837D01*
X0119642Y0227239D02*
X0118889Y0227239D01*
X0119642Y0226640D02*
X0118113Y0226640D01*
X0115887Y0226640D02*
X0114213Y0226640D01*
X0114989Y0227239D02*
X0115111Y0227239D01*
X0111987Y0226640D02*
X0111013Y0226640D01*
X0111491Y0230830D02*
X0111509Y0230830D01*
X0114691Y0230830D02*
X0115409Y0230830D01*
X0119642Y0232027D02*
X0075704Y0232027D01*
X0076303Y0232625D02*
X0119642Y0232625D01*
X0119642Y0233224D02*
X0076901Y0233224D01*
X0077500Y0233822D02*
X0119642Y0233822D01*
X0119642Y0234421D02*
X0077600Y0234421D01*
X0077600Y0235019D02*
X0119642Y0235019D01*
X0119642Y0235618D02*
X0077600Y0235618D01*
X0077600Y0236216D02*
X0119642Y0236216D01*
X0119642Y0236815D02*
X0077600Y0236815D01*
X0077600Y0237413D02*
X0119642Y0237413D01*
X0119642Y0238012D02*
X0077600Y0238012D01*
X0077600Y0238610D02*
X0119642Y0238610D01*
X0119642Y0239209D02*
X0077600Y0239209D01*
X0077758Y0239807D02*
X0119642Y0239807D01*
X0119642Y0240406D02*
X0078218Y0240406D01*
X0078465Y0241004D02*
X0087878Y0241004D01*
X0087824Y0241027D02*
X0089029Y0240528D01*
X0090333Y0240528D01*
X0091538Y0241027D01*
X0092460Y0241949D01*
X0092959Y0243153D01*
X0092959Y0244458D01*
X0092460Y0245662D01*
X0091538Y0246584D01*
X0090333Y0247083D01*
X0089029Y0247083D01*
X0087824Y0246584D01*
X0086902Y0245662D01*
X0086403Y0244458D01*
X0086403Y0243153D01*
X0086902Y0241949D01*
X0087824Y0241027D01*
X0087248Y0241603D02*
X0078500Y0241603D01*
X0078451Y0242201D02*
X0086797Y0242201D01*
X0086550Y0242800D02*
X0078203Y0242800D01*
X0077722Y0243398D02*
X0086403Y0243398D01*
X0086403Y0243997D02*
X0076710Y0243997D01*
X0075290Y0243997D02*
X0067121Y0243997D01*
X0067119Y0244001D02*
X0066416Y0244704D01*
X0065497Y0245085D01*
X0064503Y0245085D01*
X0063584Y0244704D01*
X0062881Y0244001D01*
X0062500Y0243082D01*
X0062500Y0242348D01*
X0053337Y0233185D01*
X0046837Y0233185D01*
X0045900Y0232248D01*
X0043900Y0230248D01*
X0043900Y0228922D01*
X0043900Y0196021D01*
X0043381Y0195501D01*
X0043000Y0194582D01*
X0043000Y0193588D01*
X0043381Y0192669D01*
X0044084Y0191966D01*
X0045003Y0191585D01*
X0045997Y0191585D01*
X0046916Y0191966D01*
X0047619Y0192669D01*
X0048000Y0193588D01*
X0048000Y0194582D01*
X0047619Y0195501D01*
X0047100Y0196021D01*
X0047100Y0228922D01*
X0048163Y0229985D01*
X0054663Y0229985D01*
X0064763Y0240085D01*
X0065497Y0240085D01*
X0066416Y0240466D01*
X0067119Y0241169D01*
X0067500Y0242088D01*
X0067500Y0243082D01*
X0067119Y0244001D01*
X0067369Y0243398D02*
X0074278Y0243398D01*
X0073797Y0242800D02*
X0067500Y0242800D01*
X0067500Y0242201D02*
X0073549Y0242201D01*
X0073500Y0241603D02*
X0067299Y0241603D01*
X0066955Y0241004D02*
X0070384Y0241004D01*
X0069841Y0240406D02*
X0066272Y0240406D01*
X0064485Y0239807D02*
X0069593Y0239807D01*
X0069500Y0239209D02*
X0063887Y0239209D01*
X0063288Y0238610D02*
X0069263Y0238610D01*
X0068664Y0238012D02*
X0062690Y0238012D01*
X0062091Y0237413D02*
X0068066Y0237413D01*
X0067467Y0236815D02*
X0061493Y0236815D01*
X0060894Y0236216D02*
X0066869Y0236216D01*
X0066270Y0235618D02*
X0060296Y0235618D01*
X0059697Y0235019D02*
X0065672Y0235019D01*
X0065073Y0234421D02*
X0059099Y0234421D01*
X0058500Y0233822D02*
X0064475Y0233822D01*
X0063876Y0233224D02*
X0057902Y0233224D01*
X0057303Y0232625D02*
X0063278Y0232625D01*
X0062679Y0232027D02*
X0056704Y0232027D01*
X0056106Y0231428D02*
X0062080Y0231428D01*
X0061482Y0230830D02*
X0055507Y0230830D01*
X0054909Y0230231D02*
X0060883Y0230231D01*
X0060285Y0229633D02*
X0047810Y0229633D01*
X0047212Y0229034D02*
X0059686Y0229034D01*
X0059088Y0228436D02*
X0047100Y0228436D01*
X0047100Y0227837D02*
X0058489Y0227837D01*
X0057891Y0227239D02*
X0047100Y0227239D01*
X0047100Y0226640D02*
X0057292Y0226640D01*
X0056694Y0226042D02*
X0047100Y0226042D01*
X0047100Y0225443D02*
X0056095Y0225443D01*
X0055497Y0224845D02*
X0047100Y0224845D01*
X0047100Y0224246D02*
X0054898Y0224246D01*
X0054300Y0223648D02*
X0047100Y0223648D01*
X0047100Y0223049D02*
X0053701Y0223049D01*
X0053103Y0222451D02*
X0047100Y0222451D01*
X0047100Y0221852D02*
X0052504Y0221852D01*
X0051906Y0221254D02*
X0047100Y0221254D01*
X0047100Y0220655D02*
X0051307Y0220655D01*
X0050709Y0220057D02*
X0047100Y0220057D01*
X0047100Y0219458D02*
X0050110Y0219458D01*
X0049512Y0218860D02*
X0047100Y0218860D01*
X0047100Y0218261D02*
X0048913Y0218261D01*
X0048400Y0217663D02*
X0047100Y0217663D01*
X0047100Y0217064D02*
X0048400Y0217064D01*
X0048400Y0216465D02*
X0047100Y0216465D01*
X0047100Y0215867D02*
X0048400Y0215867D01*
X0048400Y0215268D02*
X0047100Y0215268D01*
X0047100Y0214670D02*
X0048400Y0214670D01*
X0048400Y0214071D02*
X0047100Y0214071D01*
X0047100Y0213473D02*
X0048400Y0213473D01*
X0048400Y0212874D02*
X0047100Y0212874D01*
X0047100Y0212276D02*
X0048400Y0212276D01*
X0048400Y0211677D02*
X0047100Y0211677D01*
X0047100Y0211079D02*
X0048400Y0211079D01*
X0048400Y0210480D02*
X0047100Y0210480D01*
X0047100Y0209882D02*
X0048400Y0209882D01*
X0048400Y0209283D02*
X0047100Y0209283D01*
X0047100Y0208685D02*
X0048400Y0208685D01*
X0048400Y0208086D02*
X0047100Y0208086D01*
X0047100Y0207488D02*
X0048400Y0207488D01*
X0048400Y0206889D02*
X0047100Y0206889D01*
X0047100Y0206291D02*
X0048400Y0206291D01*
X0048400Y0205692D02*
X0047100Y0205692D01*
X0047100Y0205094D02*
X0048400Y0205094D01*
X0048400Y0204495D02*
X0047100Y0204495D01*
X0047100Y0203897D02*
X0048400Y0203897D01*
X0048400Y0203298D02*
X0047100Y0203298D01*
X0047100Y0202700D02*
X0048400Y0202700D01*
X0048400Y0202101D02*
X0047100Y0202101D01*
X0047100Y0201503D02*
X0048400Y0201503D01*
X0048400Y0200904D02*
X0047100Y0200904D01*
X0047100Y0200306D02*
X0048400Y0200306D01*
X0048400Y0199707D02*
X0047100Y0199707D01*
X0047100Y0199109D02*
X0048400Y0199109D01*
X0048400Y0198510D02*
X0047100Y0198510D01*
X0047100Y0197912D02*
X0048400Y0197912D01*
X0048400Y0197313D02*
X0047100Y0197313D01*
X0047100Y0196715D02*
X0048400Y0196715D01*
X0048400Y0196116D02*
X0047100Y0196116D01*
X0047603Y0195518D02*
X0048400Y0195518D01*
X0048400Y0194919D02*
X0047861Y0194919D01*
X0048000Y0194321D02*
X0048400Y0194321D01*
X0048400Y0193722D02*
X0048000Y0193722D01*
X0047808Y0193124D02*
X0048400Y0193124D01*
X0048177Y0192525D02*
X0047476Y0192525D01*
X0047579Y0191927D02*
X0046822Y0191927D01*
X0046980Y0191328D02*
X0035100Y0191328D01*
X0035100Y0190730D02*
X0046382Y0190730D01*
X0045783Y0190131D02*
X0035217Y0190131D01*
X0035815Y0189532D02*
X0045185Y0189532D01*
X0044586Y0188934D02*
X0036414Y0188934D01*
X0034282Y0186540D02*
X0014578Y0186540D01*
X0014353Y0186315D02*
X0015770Y0187732D01*
X0016537Y0189583D01*
X0016537Y0191587D01*
X0015770Y0193438D01*
X0014353Y0194855D01*
X0012502Y0195622D01*
X0010498Y0195622D01*
X0008647Y0194855D01*
X0007230Y0193438D01*
X0006463Y0191587D01*
X0006463Y0189583D01*
X0007230Y0187732D01*
X0008647Y0186315D01*
X0010498Y0185548D01*
X0012502Y0185548D01*
X0014353Y0186315D01*
X0013452Y0185941D02*
X0034881Y0185941D01*
X0033684Y0187138D02*
X0015177Y0187138D01*
X0015772Y0187737D02*
X0033085Y0187737D01*
X0032487Y0188335D02*
X0016020Y0188335D01*
X0016268Y0188934D02*
X0031900Y0188934D01*
X0031900Y0189532D02*
X0016516Y0189532D01*
X0016537Y0190131D02*
X0031900Y0190131D01*
X0031900Y0190730D02*
X0016537Y0190730D01*
X0016537Y0191328D02*
X0031900Y0191328D01*
X0031900Y0191927D02*
X0016396Y0191927D01*
X0016148Y0192525D02*
X0031900Y0192525D01*
X0031900Y0193124D02*
X0015901Y0193124D01*
X0015486Y0193722D02*
X0031900Y0193722D01*
X0031900Y0194321D02*
X0014888Y0194321D01*
X0014199Y0194919D02*
X0031900Y0194919D01*
X0031900Y0195518D02*
X0012754Y0195518D01*
X0010246Y0195518D02*
X0005469Y0195518D01*
X0005469Y0196116D02*
X0031900Y0196116D01*
X0031900Y0196715D02*
X0005469Y0196715D01*
X0005469Y0197313D02*
X0031900Y0197313D01*
X0031900Y0197912D02*
X0005469Y0197912D01*
X0005469Y0198510D02*
X0031900Y0198510D01*
X0031900Y0199109D02*
X0005469Y0199109D01*
X0005469Y0199707D02*
X0031900Y0199707D01*
X0031900Y0200306D02*
X0005469Y0200306D01*
X0005469Y0200904D02*
X0031900Y0200904D01*
X0031547Y0201503D02*
X0005469Y0201503D01*
X0005469Y0202101D02*
X0031202Y0202101D01*
X0031000Y0202700D02*
X0005469Y0202700D01*
X0005469Y0203298D02*
X0031000Y0203298D01*
X0031130Y0203897D02*
X0005469Y0203897D01*
X0005469Y0204495D02*
X0031378Y0204495D01*
X0031800Y0205094D02*
X0005469Y0205094D01*
X0005469Y0205692D02*
X0031800Y0205692D01*
X0031800Y0206291D02*
X0005469Y0206291D01*
X0005469Y0206889D02*
X0031800Y0206889D01*
X0031800Y0207488D02*
X0005469Y0207488D01*
X0005469Y0208086D02*
X0031800Y0208086D01*
X0031800Y0208685D02*
X0005469Y0208685D01*
X0005469Y0209283D02*
X0031800Y0209283D01*
X0031800Y0209882D02*
X0005469Y0209882D01*
X0005469Y0210480D02*
X0031800Y0210480D01*
X0031800Y0211079D02*
X0005469Y0211079D01*
X0005469Y0211677D02*
X0031800Y0211677D01*
X0031800Y0212276D02*
X0005469Y0212276D01*
X0005469Y0212874D02*
X0031800Y0212874D01*
X0031800Y0213473D02*
X0005469Y0213473D01*
X0005469Y0214071D02*
X0031800Y0214071D01*
X0031800Y0214670D02*
X0005469Y0214670D01*
X0005469Y0215268D02*
X0031800Y0215268D01*
X0031314Y0215867D02*
X0005469Y0215867D01*
X0005469Y0216465D02*
X0030715Y0216465D01*
X0030117Y0217064D02*
X0005469Y0217064D01*
X0005469Y0217663D02*
X0029518Y0217663D01*
X0028920Y0218261D02*
X0005469Y0218261D01*
X0005469Y0218860D02*
X0028321Y0218860D01*
X0027723Y0219458D02*
X0005469Y0219458D01*
X0005469Y0220057D02*
X0027124Y0220057D01*
X0026526Y0220655D02*
X0005469Y0220655D01*
X0005469Y0221254D02*
X0025927Y0221254D01*
X0025329Y0221852D02*
X0005469Y0221852D01*
X0005469Y0222451D02*
X0024800Y0222451D01*
X0024800Y0223049D02*
X0005469Y0223049D01*
X0005469Y0223648D02*
X0024800Y0223648D01*
X0024800Y0224246D02*
X0005469Y0224246D01*
X0005469Y0224845D02*
X0024800Y0224845D01*
X0024800Y0225443D02*
X0005469Y0225443D01*
X0005469Y0226042D02*
X0024800Y0226042D01*
X0024800Y0226640D02*
X0005469Y0226640D01*
X0005469Y0227239D02*
X0024800Y0227239D01*
X0024800Y0227837D02*
X0005469Y0227837D01*
X0005469Y0228436D02*
X0024800Y0228436D01*
X0024800Y0229034D02*
X0005469Y0229034D01*
X0005469Y0229633D02*
X0024800Y0229633D01*
X0024800Y0230231D02*
X0005469Y0230231D01*
X0005469Y0230830D02*
X0024800Y0230830D01*
X0024800Y0231428D02*
X0005469Y0231428D01*
X0005469Y0232027D02*
X0024800Y0232027D01*
X0024800Y0232625D02*
X0005469Y0232625D01*
X0005469Y0233224D02*
X0024457Y0233224D01*
X0023859Y0233822D02*
X0005469Y0233822D01*
X0005469Y0234421D02*
X0023260Y0234421D01*
X0022662Y0235019D02*
X0005469Y0235019D01*
X0005469Y0235618D02*
X0022063Y0235618D01*
X0021465Y0236216D02*
X0005469Y0236216D01*
X0005469Y0236815D02*
X0020866Y0236815D01*
X0020267Y0237413D02*
X0005469Y0237413D01*
X0005469Y0238012D02*
X0019669Y0238012D01*
X0019070Y0238610D02*
X0005469Y0238610D01*
X0005469Y0239209D02*
X0018472Y0239209D01*
X0017873Y0239807D02*
X0005469Y0239807D01*
X0005469Y0240406D02*
X0017275Y0240406D01*
X0016676Y0241004D02*
X0005469Y0241004D01*
X0005469Y0241603D02*
X0016078Y0241603D01*
X0015479Y0242201D02*
X0005469Y0242201D01*
X0005469Y0242800D02*
X0014881Y0242800D01*
X0014282Y0243398D02*
X0005469Y0243398D01*
X0005469Y0243997D02*
X0012552Y0243997D01*
X0011954Y0244596D02*
X0005469Y0244596D01*
X0005469Y0245194D02*
X0011663Y0245194D01*
X0011500Y0245793D02*
X0005469Y0245793D01*
X0005469Y0246391D02*
X0011500Y0246391D01*
X0011669Y0246990D02*
X0005469Y0246990D01*
X0005469Y0247588D02*
X0011968Y0247588D01*
X0012566Y0248187D02*
X0005469Y0248187D01*
X0005469Y0248785D02*
X0013020Y0248785D01*
X0013503Y0248585D02*
X0014237Y0248585D01*
X0014237Y0248585D01*
X0013503Y0248585D01*
X0012166Y0249384D02*
X0005469Y0249384D01*
X0005469Y0249982D02*
X0011751Y0249982D01*
X0011503Y0250581D02*
X0005469Y0250581D01*
X0005469Y0251179D02*
X0011500Y0251179D01*
X0011581Y0251778D02*
X0005469Y0251778D01*
X0005469Y0252376D02*
X0011829Y0252376D01*
X0012354Y0252975D02*
X0005469Y0252975D01*
X0005469Y0253573D02*
X0013474Y0253573D01*
X0014526Y0253573D02*
X0119642Y0253573D01*
X0119642Y0252975D02*
X0015646Y0252975D01*
X0016171Y0252376D02*
X0119642Y0252376D01*
X0119642Y0251778D02*
X0016419Y0251778D01*
X0016500Y0251179D02*
X0119642Y0251179D01*
X0119642Y0250581D02*
X0016767Y0250581D01*
X0017366Y0249982D02*
X0119642Y0249982D01*
X0119642Y0249384D02*
X0017964Y0249384D01*
X0018563Y0248785D02*
X0119642Y0248785D01*
X0119642Y0248187D02*
X0019161Y0248187D01*
X0019760Y0247588D02*
X0119642Y0247588D01*
X0119642Y0246990D02*
X0110560Y0246990D01*
X0110333Y0247083D02*
X0109029Y0247083D01*
X0107824Y0246584D01*
X0106902Y0245662D01*
X0106403Y0244458D01*
X0106403Y0243153D01*
X0106902Y0241949D01*
X0107824Y0241027D01*
X0109029Y0240528D01*
X0110333Y0240528D01*
X0111538Y0241027D01*
X0112460Y0241949D01*
X0112959Y0243153D01*
X0112959Y0244458D01*
X0112460Y0245662D01*
X0111538Y0246584D01*
X0110333Y0247083D01*
X0108802Y0246990D02*
X0100560Y0246990D01*
X0100333Y0247083D02*
X0099029Y0247083D01*
X0097824Y0246584D01*
X0096902Y0245662D01*
X0096403Y0244458D01*
X0096403Y0243153D01*
X0096902Y0241949D01*
X0097824Y0241027D01*
X0099029Y0240528D01*
X0100333Y0240528D01*
X0101538Y0241027D01*
X0102460Y0241949D01*
X0102959Y0243153D01*
X0102959Y0244458D01*
X0102460Y0245662D01*
X0101538Y0246584D01*
X0100333Y0247083D01*
X0098802Y0246990D02*
X0090560Y0246990D01*
X0091731Y0246391D02*
X0097631Y0246391D01*
X0097032Y0245793D02*
X0092330Y0245793D01*
X0092654Y0245194D02*
X0096708Y0245194D01*
X0096460Y0244596D02*
X0092902Y0244596D01*
X0092959Y0243997D02*
X0096403Y0243997D01*
X0096403Y0243398D02*
X0092959Y0243398D01*
X0092813Y0242800D02*
X0096550Y0242800D01*
X0096797Y0242201D02*
X0092565Y0242201D01*
X0092114Y0241603D02*
X0097248Y0241603D01*
X0097878Y0241004D02*
X0091484Y0241004D01*
X0086460Y0244596D02*
X0066525Y0244596D01*
X0063475Y0244596D02*
X0060525Y0244596D01*
X0060416Y0244704D02*
X0059497Y0245085D01*
X0058503Y0245085D01*
X0057584Y0244704D01*
X0056881Y0244001D01*
X0056500Y0243082D01*
X0056500Y0242088D01*
X0056881Y0241169D01*
X0057584Y0240466D01*
X0058503Y0240085D01*
X0059497Y0240085D01*
X0060416Y0240466D01*
X0061119Y0241169D01*
X0061500Y0242088D01*
X0061500Y0243082D01*
X0061119Y0244001D01*
X0060416Y0244704D01*
X0061121Y0243997D02*
X0062879Y0243997D01*
X0062631Y0243398D02*
X0061369Y0243398D01*
X0061500Y0242800D02*
X0062500Y0242800D01*
X0062354Y0242201D02*
X0061500Y0242201D01*
X0061299Y0241603D02*
X0061755Y0241603D01*
X0061157Y0241004D02*
X0060955Y0241004D01*
X0060558Y0240406D02*
X0060272Y0240406D01*
X0059960Y0239807D02*
X0027540Y0239807D01*
X0028139Y0239209D02*
X0059361Y0239209D01*
X0058763Y0238610D02*
X0028737Y0238610D01*
X0029336Y0238012D02*
X0058164Y0238012D01*
X0057566Y0237413D02*
X0029934Y0237413D01*
X0030533Y0236815D02*
X0056967Y0236815D01*
X0056369Y0236216D02*
X0031131Y0236216D01*
X0031730Y0235618D02*
X0055770Y0235618D01*
X0055172Y0235019D02*
X0032328Y0235019D01*
X0032927Y0234421D02*
X0054573Y0234421D01*
X0053975Y0233822D02*
X0033525Y0233822D01*
X0034124Y0233224D02*
X0053376Y0233224D01*
X0052997Y0240085D02*
X0052003Y0240085D01*
X0051084Y0240466D01*
X0050381Y0241169D01*
X0050000Y0242088D01*
X0050000Y0243082D01*
X0050381Y0244001D01*
X0051084Y0244704D01*
X0052003Y0245085D01*
X0052997Y0245085D01*
X0053916Y0244704D01*
X0054619Y0244001D01*
X0055000Y0243082D01*
X0055000Y0242088D01*
X0054619Y0241169D01*
X0053916Y0240466D01*
X0052997Y0240085D01*
X0053772Y0240406D02*
X0057728Y0240406D01*
X0057045Y0241004D02*
X0054455Y0241004D01*
X0054799Y0241603D02*
X0056701Y0241603D01*
X0056500Y0242201D02*
X0055000Y0242201D01*
X0055000Y0242800D02*
X0056500Y0242800D01*
X0056631Y0243398D02*
X0054869Y0243398D01*
X0054621Y0243997D02*
X0056879Y0243997D01*
X0057475Y0244596D02*
X0054025Y0244596D01*
X0050975Y0244596D02*
X0022752Y0244596D01*
X0022154Y0245194D02*
X0086708Y0245194D01*
X0087032Y0245793D02*
X0021555Y0245793D01*
X0020957Y0246391D02*
X0087631Y0246391D01*
X0088802Y0246990D02*
X0020358Y0246990D01*
X0023351Y0243997D02*
X0050379Y0243997D01*
X0050131Y0243398D02*
X0023949Y0243398D01*
X0024548Y0242800D02*
X0050000Y0242800D01*
X0050000Y0242201D02*
X0025146Y0242201D01*
X0025745Y0241603D02*
X0050201Y0241603D01*
X0050545Y0241004D02*
X0026343Y0241004D01*
X0026942Y0240406D02*
X0051228Y0240406D01*
X0046278Y0232625D02*
X0034722Y0232625D01*
X0035321Y0232027D02*
X0045679Y0232027D01*
X0045080Y0231428D02*
X0035919Y0231428D01*
X0036518Y0230830D02*
X0044482Y0230830D01*
X0043900Y0230231D02*
X0037117Y0230231D01*
X0037715Y0229633D02*
X0043900Y0229633D01*
X0043900Y0229034D02*
X0038314Y0229034D01*
X0038600Y0228436D02*
X0043900Y0228436D01*
X0043900Y0227837D02*
X0038600Y0227837D01*
X0038600Y0227239D02*
X0043900Y0227239D01*
X0043900Y0226640D02*
X0038600Y0226640D01*
X0038600Y0226042D02*
X0043900Y0226042D01*
X0043900Y0225443D02*
X0038600Y0225443D01*
X0038600Y0224845D02*
X0043900Y0224845D01*
X0043900Y0224246D02*
X0038600Y0224246D01*
X0038600Y0223648D02*
X0043900Y0223648D01*
X0043900Y0223049D02*
X0038600Y0223049D01*
X0038600Y0222451D02*
X0043900Y0222451D01*
X0043900Y0221852D02*
X0038600Y0221852D01*
X0038600Y0221254D02*
X0043900Y0221254D01*
X0043900Y0220655D02*
X0038600Y0220655D01*
X0038600Y0220057D02*
X0043900Y0220057D01*
X0043900Y0219458D02*
X0038600Y0219458D01*
X0038600Y0218860D02*
X0043900Y0218860D01*
X0043900Y0218261D02*
X0038600Y0218261D01*
X0038600Y0217663D02*
X0043900Y0217663D01*
X0043900Y0217064D02*
X0038600Y0217064D01*
X0038600Y0216465D02*
X0043900Y0216465D01*
X0043900Y0215867D02*
X0038600Y0215867D01*
X0038600Y0215268D02*
X0043900Y0215268D01*
X0043900Y0214670D02*
X0038600Y0214670D01*
X0038600Y0214071D02*
X0043900Y0214071D01*
X0043900Y0213473D02*
X0038600Y0213473D01*
X0038600Y0212874D02*
X0043900Y0212874D01*
X0043900Y0212276D02*
X0038600Y0212276D01*
X0038600Y0211677D02*
X0043900Y0211677D01*
X0043900Y0211079D02*
X0038600Y0211079D01*
X0038600Y0210480D02*
X0043900Y0210480D01*
X0043900Y0209882D02*
X0038600Y0209882D01*
X0038600Y0209283D02*
X0043900Y0209283D01*
X0043900Y0208685D02*
X0038600Y0208685D01*
X0038600Y0208086D02*
X0043900Y0208086D01*
X0043900Y0207488D02*
X0038600Y0207488D01*
X0038600Y0206889D02*
X0043900Y0206889D01*
X0043900Y0206291D02*
X0038600Y0206291D01*
X0038600Y0205692D02*
X0043900Y0205692D01*
X0043900Y0205094D02*
X0038600Y0205094D01*
X0038600Y0204495D02*
X0043900Y0204495D01*
X0043900Y0203897D02*
X0038600Y0203897D01*
X0038600Y0203298D02*
X0043900Y0203298D01*
X0043900Y0202700D02*
X0038600Y0202700D01*
X0038600Y0202101D02*
X0043900Y0202101D01*
X0043900Y0201503D02*
X0038600Y0201503D01*
X0038600Y0200904D02*
X0043900Y0200904D01*
X0043900Y0200306D02*
X0038600Y0200306D01*
X0038913Y0199707D02*
X0043900Y0199707D01*
X0043900Y0199109D02*
X0039282Y0199109D01*
X0039500Y0198510D02*
X0043900Y0198510D01*
X0043900Y0197912D02*
X0039500Y0197912D01*
X0039386Y0197313D02*
X0043900Y0197313D01*
X0043900Y0196715D02*
X0039138Y0196715D01*
X0038567Y0196116D02*
X0043900Y0196116D01*
X0043397Y0195518D02*
X0035100Y0195518D01*
X0035100Y0196116D02*
X0035433Y0196116D01*
X0035100Y0194919D02*
X0043139Y0194919D01*
X0043000Y0194321D02*
X0035100Y0194321D01*
X0035100Y0193722D02*
X0043000Y0193722D01*
X0043192Y0193124D02*
X0035100Y0193124D01*
X0035100Y0192525D02*
X0043524Y0192525D01*
X0044178Y0191927D02*
X0035100Y0191927D01*
X0040454Y0179358D02*
X0005469Y0179358D01*
X0005469Y0179956D02*
X0043609Y0179956D01*
X0044207Y0180555D02*
X0005469Y0180555D01*
X0005469Y0181153D02*
X0044806Y0181153D01*
X0045404Y0181752D02*
X0005469Y0181752D01*
X0005469Y0182350D02*
X0046003Y0182350D01*
X0046601Y0182949D02*
X0005469Y0182949D01*
X0005469Y0183547D02*
X0047200Y0183547D01*
X0047798Y0184146D02*
X0005469Y0184146D01*
X0005469Y0184744D02*
X0048397Y0184744D01*
X0048995Y0185343D02*
X0005469Y0185343D01*
X0005469Y0185941D02*
X0009548Y0185941D01*
X0008422Y0186540D02*
X0005469Y0186540D01*
X0005469Y0187138D02*
X0007823Y0187138D01*
X0007228Y0187737D02*
X0005469Y0187737D01*
X0005469Y0188335D02*
X0006980Y0188335D01*
X0006732Y0188934D02*
X0005469Y0188934D01*
X0005469Y0189532D02*
X0006484Y0189532D01*
X0006463Y0190131D02*
X0005469Y0190131D01*
X0005469Y0190730D02*
X0006463Y0190730D01*
X0006463Y0191328D02*
X0005469Y0191328D01*
X0005469Y0191927D02*
X0006604Y0191927D01*
X0006852Y0192525D02*
X0005469Y0192525D01*
X0005469Y0193124D02*
X0007099Y0193124D01*
X0007514Y0193722D02*
X0005469Y0193722D01*
X0005469Y0194321D02*
X0008112Y0194321D01*
X0008801Y0194919D02*
X0005469Y0194919D01*
X0005469Y0178759D02*
X0039639Y0178759D01*
X0039240Y0178161D02*
X0005469Y0178161D01*
X0005469Y0177562D02*
X0039000Y0177562D01*
X0039000Y0176964D02*
X0005469Y0176964D01*
X0005469Y0176365D02*
X0039092Y0176365D01*
X0039340Y0175767D02*
X0005469Y0175767D01*
X0005469Y0175168D02*
X0039881Y0175168D01*
X0043119Y0175168D02*
X0119642Y0175168D01*
X0119642Y0174570D02*
X0116835Y0174570D01*
X0117353Y0174355D02*
X0115502Y0175122D01*
X0113498Y0175122D01*
X0111647Y0174355D01*
X0110230Y0172938D01*
X0109463Y0171087D01*
X0109463Y0169083D01*
X0110230Y0167232D01*
X0111647Y0165815D01*
X0113498Y0165048D01*
X0115502Y0165048D01*
X0117353Y0165815D01*
X0118770Y0167232D01*
X0119537Y0169083D01*
X0119537Y0171087D01*
X0118770Y0172938D01*
X0117353Y0174355D01*
X0117737Y0173971D02*
X0119642Y0173971D01*
X0119642Y0173373D02*
X0118336Y0173373D01*
X0118838Y0172774D02*
X0119642Y0172774D01*
X0119642Y0172176D02*
X0119086Y0172176D01*
X0119334Y0171577D02*
X0119642Y0171577D01*
X0119642Y0170979D02*
X0119537Y0170979D01*
X0119537Y0170380D02*
X0119642Y0170380D01*
X0119642Y0169782D02*
X0119537Y0169782D01*
X0119537Y0169183D02*
X0119642Y0169183D01*
X0119642Y0168585D02*
X0119330Y0168585D01*
X0119083Y0167986D02*
X0119642Y0167986D01*
X0119642Y0167388D02*
X0118835Y0167388D01*
X0118327Y0166789D02*
X0119642Y0166789D01*
X0119642Y0166191D02*
X0117729Y0166191D01*
X0116815Y0165592D02*
X0119642Y0165592D01*
X0119642Y0164994D02*
X0005469Y0164994D01*
X0005469Y0165592D02*
X0112185Y0165592D01*
X0111271Y0166191D02*
X0005469Y0166191D01*
X0005469Y0166789D02*
X0110673Y0166789D01*
X0110165Y0167388D02*
X0005469Y0167388D01*
X0005469Y0167986D02*
X0109917Y0167986D01*
X0109669Y0168585D02*
X0005469Y0168585D01*
X0005469Y0169183D02*
X0109463Y0169183D01*
X0109463Y0169782D02*
X0005469Y0169782D01*
X0005469Y0170380D02*
X0109463Y0170380D01*
X0109463Y0170979D02*
X0005469Y0170979D01*
X0005469Y0171577D02*
X0109666Y0171577D01*
X0109914Y0172176D02*
X0005469Y0172176D01*
X0005469Y0172774D02*
X0110162Y0172774D01*
X0110664Y0173373D02*
X0005469Y0173373D01*
X0005469Y0173971D02*
X0111263Y0173971D01*
X0112165Y0174570D02*
X0005469Y0174570D01*
X0005469Y0164395D02*
X0119642Y0164395D01*
X0119642Y0163796D02*
X0005469Y0163796D01*
X0005469Y0163198D02*
X0119642Y0163198D01*
X0119642Y0162599D02*
X0005469Y0162599D01*
X0005469Y0162001D02*
X0119642Y0162001D01*
X0119642Y0161402D02*
X0005469Y0161402D01*
X0005469Y0160804D02*
X0119642Y0160804D01*
X0119642Y0160205D02*
X0005469Y0160205D01*
X0005469Y0159607D02*
X0119642Y0159607D01*
X0119642Y0159008D02*
X0005469Y0159008D01*
X0005469Y0158410D02*
X0119642Y0158410D01*
X0119642Y0157811D02*
X0005469Y0157811D01*
X0005469Y0157213D02*
X0119642Y0157213D01*
X0119642Y0156614D02*
X0005469Y0156614D01*
X0005469Y0156016D02*
X0119642Y0156016D01*
X0119642Y0155417D02*
X0005469Y0155417D01*
X0005469Y0154819D02*
X0119642Y0154819D01*
X0119642Y0154220D02*
X0005469Y0154220D01*
X0005469Y0153622D02*
X0119642Y0153622D01*
X0119642Y0153023D02*
X0005469Y0153023D01*
X0005469Y0152425D02*
X0119642Y0152425D01*
X0119642Y0151826D02*
X0005469Y0151826D01*
X0005469Y0151228D02*
X0119642Y0151228D01*
X0119642Y0150629D02*
X0005469Y0150629D01*
X0005469Y0150031D02*
X0119642Y0150031D01*
X0119642Y0149432D02*
X0005469Y0149432D01*
X0005469Y0148834D02*
X0119642Y0148834D01*
X0119642Y0148235D02*
X0005469Y0148235D01*
X0005469Y0147637D02*
X0119642Y0147637D01*
X0119642Y0147038D02*
X0005469Y0147038D01*
X0005469Y0146440D02*
X0119642Y0146440D01*
X0119642Y0145841D02*
X0005469Y0145841D01*
X0005469Y0145243D02*
X0119642Y0145243D01*
X0119642Y0144644D02*
X0005469Y0144644D01*
X0005469Y0144046D02*
X0119642Y0144046D01*
X0119642Y0143447D02*
X0005469Y0143447D01*
X0005469Y0142849D02*
X0119642Y0142849D01*
X0119642Y0142250D02*
X0005469Y0142250D01*
X0005469Y0141652D02*
X0119642Y0141652D01*
X0119642Y0141053D02*
X0005469Y0141053D01*
X0005469Y0140455D02*
X0119642Y0140455D01*
X0119642Y0139856D02*
X0005469Y0139856D01*
X0005469Y0139258D02*
X0119642Y0139258D01*
X0119642Y0138659D02*
X0005469Y0138659D01*
X0005469Y0138061D02*
X0119642Y0138061D01*
X0119642Y0137462D02*
X0005469Y0137462D01*
X0005469Y0136863D02*
X0119642Y0136863D01*
X0119642Y0136265D02*
X0005469Y0136265D01*
X0005469Y0135666D02*
X0119642Y0135666D01*
X0119642Y0135068D02*
X0013840Y0135068D01*
X0014353Y0134855D02*
X0012502Y0135622D01*
X0010498Y0135622D01*
X0008647Y0134855D01*
X0007230Y0133438D01*
X0006463Y0131587D01*
X0006463Y0129583D01*
X0007230Y0127732D01*
X0008647Y0126315D01*
X0010498Y0125548D01*
X0012502Y0125548D01*
X0014353Y0126315D01*
X0015770Y0127732D01*
X0016537Y0129583D01*
X0016537Y0131587D01*
X0015770Y0133438D01*
X0014353Y0134855D01*
X0014739Y0134469D02*
X0119642Y0134469D01*
X0119642Y0133871D02*
X0015337Y0133871D01*
X0015839Y0133272D02*
X0104179Y0133272D01*
X0103704Y0133076D02*
X0102564Y0131936D01*
X0101947Y0130446D01*
X0101947Y0128834D01*
X0102564Y0127344D01*
X0103704Y0126204D01*
X0105194Y0125587D01*
X0106806Y0125587D01*
X0108296Y0126204D01*
X0109436Y0127344D01*
X0110053Y0128834D01*
X0110053Y0130446D01*
X0109436Y0131936D01*
X0108296Y0133076D01*
X0106806Y0133693D01*
X0105194Y0133693D01*
X0103704Y0133076D01*
X0103302Y0132674D02*
X0016087Y0132674D01*
X0016335Y0132075D02*
X0102704Y0132075D01*
X0102374Y0131477D02*
X0016537Y0131477D01*
X0016537Y0130878D02*
X0036004Y0130878D01*
X0035584Y0130704D02*
X0034881Y0130001D01*
X0034500Y0129082D01*
X0034500Y0128088D01*
X0034881Y0127169D01*
X0035584Y0126466D01*
X0036503Y0126085D01*
X0037497Y0126085D01*
X0038416Y0126466D01*
X0038936Y0126985D01*
X0041837Y0126985D01*
X0057400Y0111422D01*
X0057400Y0102748D01*
X0053837Y0099185D01*
X0052900Y0098248D01*
X0052900Y0070248D01*
X0051337Y0068685D01*
X0049936Y0068685D01*
X0049416Y0069204D01*
X0048497Y0069585D01*
X0049416Y0069966D01*
X0050119Y0070669D01*
X0050500Y0071588D01*
X0050500Y0072582D01*
X0050119Y0073501D01*
X0049600Y0074021D01*
X0049600Y0082748D01*
X0048663Y0083685D01*
X0046593Y0085755D01*
X0047003Y0085585D01*
X0047997Y0085585D01*
X0048916Y0085966D01*
X0049619Y0086669D01*
X0050000Y0087588D01*
X0050000Y0088582D01*
X0049619Y0089501D01*
X0048916Y0090204D01*
X0047997Y0090585D01*
X0047003Y0090585D01*
X0046084Y0090204D01*
X0045381Y0089501D01*
X0045000Y0088582D01*
X0045000Y0087588D01*
X0045381Y0086669D01*
X0045864Y0086185D01*
X0044163Y0086185D01*
X0035100Y0095248D01*
X0035100Y0095781D01*
X0035200Y0095881D01*
X0035200Y0097289D01*
X0035100Y0097389D01*
X0035100Y0111422D01*
X0035114Y0111436D01*
X0035584Y0110966D01*
X0036503Y0110585D01*
X0037497Y0110585D01*
X0038416Y0110966D01*
X0039119Y0111669D01*
X0039500Y0112588D01*
X0039500Y0113582D01*
X0039119Y0114501D01*
X0038416Y0115204D01*
X0037497Y0115585D01*
X0036503Y0115585D01*
X0035584Y0115204D01*
X0035064Y0114685D01*
X0033837Y0114685D01*
X0032900Y0113748D01*
X0031900Y0112748D01*
X0031900Y0098285D01*
X0014534Y0098285D01*
X0014276Y0098907D01*
X0013122Y0100061D01*
X0011616Y0100685D01*
X0009984Y0100685D01*
X0008478Y0100061D01*
X0007324Y0098907D01*
X0006700Y0097401D01*
X0006700Y0095769D01*
X0007324Y0094263D01*
X0008478Y0093109D01*
X0009984Y0092485D01*
X0011616Y0092485D01*
X0013122Y0093109D01*
X0014276Y0094263D01*
X0014534Y0094885D01*
X0031900Y0094885D01*
X0031900Y0093922D01*
X0032837Y0092985D01*
X0037637Y0088185D01*
X0020804Y0088185D01*
X0020704Y0088285D01*
X0014534Y0088285D01*
X0014276Y0088907D01*
X0013122Y0090061D01*
X0011616Y0090685D01*
X0009984Y0090685D01*
X0008478Y0090061D01*
X0007324Y0088907D01*
X0006700Y0087401D01*
X0006700Y0085769D01*
X0007324Y0084263D01*
X0008478Y0083109D01*
X0009984Y0082485D01*
X0011616Y0082485D01*
X0013122Y0083109D01*
X0014276Y0084263D01*
X0014534Y0084885D01*
X0020704Y0084885D01*
X0020804Y0084985D01*
X0037337Y0084985D01*
X0038237Y0084085D01*
X0037503Y0084085D01*
X0036584Y0083704D01*
X0035881Y0083001D01*
X0035500Y0082082D01*
X0035500Y0081088D01*
X0035881Y0080169D01*
X0036584Y0079466D01*
X0036899Y0079335D01*
X0036584Y0079204D01*
X0035881Y0078501D01*
X0035500Y0077582D01*
X0035500Y0076588D01*
X0035881Y0075669D01*
X0036464Y0075085D01*
X0035881Y0074501D01*
X0035500Y0073582D01*
X0035500Y0072848D01*
X0031900Y0069248D01*
X0031900Y0035144D01*
X0026767Y0035144D01*
X0026619Y0035501D01*
X0025916Y0036204D01*
X0024997Y0036585D01*
X0024003Y0036585D01*
X0023084Y0036204D01*
X0022381Y0035501D01*
X0022233Y0035144D01*
X0005469Y0035144D01*
X0005469Y0261991D01*
X0017876Y0261991D01*
X0017500Y0261082D01*
X0017500Y0260088D01*
X0017881Y0259169D01*
X0018584Y0258466D01*
X0019503Y0258085D01*
X0020497Y0258085D01*
X0021416Y0258466D01*
X0022119Y0259169D01*
X0022500Y0260088D01*
X0022500Y0261082D01*
X0022124Y0261991D01*
X0041376Y0261991D01*
X0041000Y0261082D01*
X0041000Y0260088D01*
X0041381Y0259169D01*
X0042084Y0258466D01*
X0043003Y0258085D01*
X0043997Y0258085D01*
X0044916Y0258466D01*
X0045619Y0259169D01*
X0046000Y0260088D01*
X0046000Y0261082D01*
X0045624Y0261991D01*
X0119642Y0261991D01*
X0119642Y0131439D01*
X0119436Y0131936D01*
X0118296Y0133076D01*
X0116806Y0133693D01*
X0115194Y0133693D01*
X0113704Y0133076D01*
X0112564Y0131936D01*
X0111947Y0130446D01*
X0111947Y0128834D01*
X0112564Y0127344D01*
X0113704Y0126204D01*
X0115194Y0125587D01*
X0116806Y0125587D01*
X0118296Y0126204D01*
X0119436Y0127344D01*
X0119642Y0127842D01*
X0119642Y0045825D01*
X0118795Y0046176D01*
X0117805Y0046176D01*
X0116889Y0045796D01*
X0116189Y0045096D01*
X0115809Y0044180D01*
X0115809Y0043190D01*
X0116189Y0042274D01*
X0116889Y0041574D01*
X0117805Y0041194D01*
X0118795Y0041194D01*
X0119642Y0041545D01*
X0119642Y0039825D01*
X0118795Y0040176D01*
X0117805Y0040176D01*
X0116889Y0039796D01*
X0116189Y0039096D01*
X0115809Y0038180D01*
X0115809Y0037190D01*
X0116189Y0036274D01*
X0116889Y0035574D01*
X0117805Y0035194D01*
X0118795Y0035194D01*
X0119642Y0035545D01*
X0119642Y0035144D01*
X0113537Y0035144D01*
X0113537Y0036587D01*
X0112770Y0038438D01*
X0111353Y0039855D01*
X0109502Y0040622D01*
X0107498Y0040622D01*
X0105647Y0039855D01*
X0104230Y0038438D01*
X0103463Y0036587D01*
X0103463Y0035144D01*
X0051640Y0035144D01*
X0051411Y0035696D01*
X0050711Y0036396D01*
X0049795Y0036776D01*
X0048805Y0036776D01*
X0047889Y0036396D01*
X0047189Y0035696D01*
X0046960Y0035144D01*
X0045140Y0035144D01*
X0044911Y0035696D01*
X0044211Y0036396D01*
X0043295Y0036776D01*
X0042305Y0036776D01*
X0041389Y0036396D01*
X0040689Y0035696D01*
X0040460Y0035144D01*
X0039100Y0035144D01*
X0039100Y0037922D01*
X0041163Y0039985D01*
X0072163Y0039985D01*
X0073100Y0040922D01*
X0073100Y0040922D01*
X0076263Y0044085D01*
X0076997Y0044085D01*
X0077916Y0044466D01*
X0078619Y0045169D01*
X0079000Y0046088D01*
X0079000Y0047082D01*
X0078619Y0048001D01*
X0077916Y0048704D01*
X0076997Y0049085D01*
X0076003Y0049085D01*
X0075084Y0048704D01*
X0074381Y0048001D01*
X0074000Y0047082D01*
X0073619Y0048001D01*
X0072916Y0048704D01*
X0071997Y0049085D01*
X0071003Y0049085D01*
X0070084Y0048704D01*
X0069381Y0048001D01*
X0069000Y0047082D01*
X0069000Y0046088D01*
X0069381Y0045169D01*
X0070084Y0044466D01*
X0071003Y0044085D01*
X0071737Y0044085D01*
X0070837Y0043185D01*
X0039837Y0043185D01*
X0036837Y0040185D01*
X0035900Y0039248D01*
X0035900Y0035144D01*
X0035100Y0035144D01*
X0035100Y0067922D01*
X0037763Y0070585D01*
X0038497Y0070585D01*
X0039416Y0070966D01*
X0040119Y0071669D01*
X0040500Y0072588D01*
X0040500Y0073582D01*
X0040119Y0074501D01*
X0039536Y0075085D01*
X0040119Y0075669D01*
X0040500Y0076588D01*
X0040500Y0077582D01*
X0040119Y0078501D01*
X0039416Y0079204D01*
X0039101Y0079335D01*
X0039416Y0079466D01*
X0040119Y0080169D01*
X0040500Y0081088D01*
X0040500Y0081822D01*
X0040900Y0081422D01*
X0040900Y0067485D01*
X0041073Y0067312D01*
X0042010Y0066375D01*
X0045588Y0066375D01*
X0045881Y0065669D01*
X0046584Y0064966D01*
X0047503Y0064585D01*
X0048497Y0064585D01*
X0049416Y0064966D01*
X0049936Y0065485D01*
X0052663Y0065485D01*
X0056100Y0068922D01*
X0056100Y0096922D01*
X0060600Y0101422D01*
X0060600Y0112748D01*
X0059663Y0113685D01*
X0043163Y0130185D01*
X0038936Y0130185D01*
X0038416Y0130704D01*
X0037497Y0131085D01*
X0036503Y0131085D01*
X0035584Y0130704D01*
X0035159Y0130280D02*
X0016537Y0130280D01*
X0016537Y0129681D02*
X0034748Y0129681D01*
X0034500Y0129083D02*
X0016330Y0129083D01*
X0016082Y0128484D02*
X0034500Y0128484D01*
X0034584Y0127886D02*
X0015834Y0127886D01*
X0015326Y0127287D02*
X0034832Y0127287D01*
X0035361Y0126689D02*
X0014727Y0126689D01*
X0013811Y0126090D02*
X0036490Y0126090D01*
X0037510Y0126090D02*
X0042732Y0126090D01*
X0043331Y0125492D02*
X0005469Y0125492D01*
X0005469Y0126090D02*
X0009189Y0126090D01*
X0008273Y0126689D02*
X0005469Y0126689D01*
X0005469Y0127287D02*
X0007674Y0127287D01*
X0007166Y0127886D02*
X0005469Y0127886D01*
X0005469Y0128484D02*
X0006918Y0128484D01*
X0006670Y0129083D02*
X0005469Y0129083D01*
X0005469Y0129681D02*
X0006463Y0129681D01*
X0006463Y0130280D02*
X0005469Y0130280D01*
X0005469Y0130878D02*
X0006463Y0130878D01*
X0006463Y0131477D02*
X0005469Y0131477D01*
X0005469Y0132075D02*
X0006665Y0132075D01*
X0006913Y0132674D02*
X0005469Y0132674D01*
X0005469Y0133272D02*
X0007161Y0133272D01*
X0007662Y0133871D02*
X0005469Y0133871D01*
X0005469Y0134469D02*
X0008261Y0134469D01*
X0009160Y0135068D02*
X0005469Y0135068D01*
X0005469Y0124893D02*
X0043929Y0124893D01*
X0044528Y0124295D02*
X0005469Y0124295D01*
X0005469Y0123696D02*
X0045126Y0123696D01*
X0045725Y0123098D02*
X0005469Y0123098D01*
X0005469Y0122499D02*
X0046323Y0122499D01*
X0046922Y0121901D02*
X0005469Y0121901D01*
X0005469Y0121302D02*
X0047520Y0121302D01*
X0048119Y0120704D02*
X0005469Y0120704D01*
X0005469Y0120105D02*
X0048717Y0120105D01*
X0049316Y0119507D02*
X0005469Y0119507D01*
X0005469Y0118908D02*
X0049914Y0118908D01*
X0050513Y0118310D02*
X0005469Y0118310D01*
X0005469Y0117711D02*
X0051111Y0117711D01*
X0051710Y0117113D02*
X0005469Y0117113D01*
X0005469Y0116514D02*
X0052308Y0116514D01*
X0052907Y0115916D02*
X0005469Y0115916D01*
X0005469Y0115317D02*
X0035856Y0115317D01*
X0035098Y0114719D02*
X0005469Y0114719D01*
X0005469Y0114120D02*
X0033272Y0114120D01*
X0032674Y0113522D02*
X0005469Y0113522D01*
X0005469Y0112923D02*
X0032075Y0112923D01*
X0031900Y0112325D02*
X0005469Y0112325D01*
X0005469Y0111726D02*
X0031900Y0111726D01*
X0031900Y0111127D02*
X0005469Y0111127D01*
X0005469Y0110529D02*
X0009608Y0110529D01*
X0009984Y0110685D02*
X0008478Y0110061D01*
X0007324Y0108907D01*
X0006700Y0107401D01*
X0006700Y0105769D01*
X0007324Y0104263D01*
X0008478Y0103109D01*
X0009984Y0102485D01*
X0011616Y0102485D01*
X0013122Y0103109D01*
X0014276Y0104263D01*
X0014900Y0105769D01*
X0014900Y0107401D01*
X0014276Y0108907D01*
X0013122Y0110061D01*
X0011616Y0110685D01*
X0009984Y0110685D01*
X0008347Y0109930D02*
X0005469Y0109930D01*
X0005469Y0109332D02*
X0007749Y0109332D01*
X0007252Y0108733D02*
X0005469Y0108733D01*
X0005469Y0108135D02*
X0007004Y0108135D01*
X0006756Y0107536D02*
X0005469Y0107536D01*
X0005469Y0106938D02*
X0006700Y0106938D01*
X0006700Y0106339D02*
X0005469Y0106339D01*
X0005469Y0105741D02*
X0006712Y0105741D01*
X0006960Y0105142D02*
X0005469Y0105142D01*
X0005469Y0104544D02*
X0007208Y0104544D01*
X0007641Y0103945D02*
X0005469Y0103945D01*
X0005469Y0103347D02*
X0008240Y0103347D01*
X0009349Y0102748D02*
X0005469Y0102748D01*
X0005469Y0102150D02*
X0031900Y0102150D01*
X0031900Y0102748D02*
X0012251Y0102748D01*
X0013360Y0103347D02*
X0031900Y0103347D01*
X0031900Y0103945D02*
X0013959Y0103945D01*
X0014392Y0104544D02*
X0031900Y0104544D01*
X0031900Y0105142D02*
X0014640Y0105142D01*
X0014888Y0105741D02*
X0031900Y0105741D01*
X0031900Y0106339D02*
X0014900Y0106339D01*
X0014900Y0106938D02*
X0031900Y0106938D01*
X0031900Y0107536D02*
X0014844Y0107536D01*
X0014596Y0108135D02*
X0031900Y0108135D01*
X0031900Y0108733D02*
X0014348Y0108733D01*
X0013851Y0109332D02*
X0031900Y0109332D01*
X0031900Y0109930D02*
X0013253Y0109930D01*
X0011992Y0110529D02*
X0031900Y0110529D01*
X0035100Y0110529D02*
X0045908Y0110529D01*
X0045881Y0110501D02*
X0045500Y0109582D01*
X0045500Y0108588D01*
X0045881Y0107669D01*
X0046584Y0106966D01*
X0047503Y0106585D01*
X0048497Y0106585D01*
X0049416Y0106966D01*
X0050119Y0107669D01*
X0050500Y0108588D01*
X0050500Y0109582D01*
X0050119Y0110501D01*
X0049416Y0111204D01*
X0048497Y0111585D01*
X0047503Y0111585D01*
X0046584Y0111204D01*
X0045881Y0110501D01*
X0045644Y0109930D02*
X0035100Y0109930D01*
X0035100Y0109332D02*
X0045500Y0109332D01*
X0045500Y0108733D02*
X0035100Y0108733D01*
X0035100Y0108135D02*
X0045688Y0108135D01*
X0046013Y0107536D02*
X0035100Y0107536D01*
X0035100Y0106938D02*
X0046651Y0106938D01*
X0049349Y0106938D02*
X0052151Y0106938D01*
X0052084Y0106966D02*
X0053003Y0106585D01*
X0053997Y0106585D01*
X0054916Y0106966D01*
X0055619Y0107669D01*
X0056000Y0108588D01*
X0056000Y0109582D01*
X0055619Y0110501D01*
X0054916Y0111204D01*
X0053997Y0111585D01*
X0053003Y0111585D01*
X0052084Y0111204D01*
X0051381Y0110501D01*
X0051000Y0109582D01*
X0051000Y0108588D01*
X0051381Y0107669D01*
X0052084Y0106966D01*
X0051513Y0107536D02*
X0049987Y0107536D01*
X0050312Y0108135D02*
X0051188Y0108135D01*
X0051000Y0108733D02*
X0050500Y0108733D01*
X0050500Y0109332D02*
X0051000Y0109332D01*
X0051144Y0109930D02*
X0050356Y0109930D01*
X0050092Y0110529D02*
X0051408Y0110529D01*
X0052007Y0111127D02*
X0049493Y0111127D01*
X0046507Y0111127D02*
X0038578Y0111127D01*
X0039143Y0111726D02*
X0057096Y0111726D01*
X0057400Y0111127D02*
X0054993Y0111127D01*
X0055592Y0110529D02*
X0057400Y0110529D01*
X0057400Y0109930D02*
X0055856Y0109930D01*
X0056000Y0109332D02*
X0057400Y0109332D01*
X0057400Y0108733D02*
X0056000Y0108733D01*
X0055812Y0108135D02*
X0057400Y0108135D01*
X0057400Y0107536D02*
X0055487Y0107536D01*
X0054849Y0106938D02*
X0057400Y0106938D01*
X0057400Y0106339D02*
X0035100Y0106339D01*
X0035100Y0105741D02*
X0057400Y0105741D01*
X0057400Y0105142D02*
X0035100Y0105142D01*
X0035100Y0104544D02*
X0057400Y0104544D01*
X0057400Y0103945D02*
X0035100Y0103945D01*
X0035100Y0103347D02*
X0057400Y0103347D01*
X0057400Y0102748D02*
X0035100Y0102748D01*
X0035100Y0102150D02*
X0056802Y0102150D01*
X0056204Y0101551D02*
X0035100Y0101551D01*
X0035100Y0100953D02*
X0055605Y0100953D01*
X0055007Y0100354D02*
X0035100Y0100354D01*
X0035100Y0099756D02*
X0054408Y0099756D01*
X0053809Y0099157D02*
X0035100Y0099157D01*
X0035100Y0098559D02*
X0053211Y0098559D01*
X0052900Y0097960D02*
X0035100Y0097960D01*
X0035127Y0097362D02*
X0052900Y0097362D01*
X0052900Y0096763D02*
X0035200Y0096763D01*
X0035200Y0096165D02*
X0052900Y0096165D01*
X0052900Y0095566D02*
X0035100Y0095566D01*
X0035380Y0094968D02*
X0052900Y0094968D01*
X0052900Y0094369D02*
X0035979Y0094369D01*
X0036577Y0093771D02*
X0052900Y0093771D01*
X0052900Y0093172D02*
X0037176Y0093172D01*
X0037774Y0092574D02*
X0052900Y0092574D01*
X0052900Y0091975D02*
X0038373Y0091975D01*
X0038971Y0091377D02*
X0052900Y0091377D01*
X0052900Y0090778D02*
X0039570Y0090778D01*
X0040168Y0090180D02*
X0046059Y0090180D01*
X0045461Y0089581D02*
X0040767Y0089581D01*
X0041365Y0088983D02*
X0045166Y0088983D01*
X0045000Y0088384D02*
X0041964Y0088384D01*
X0042562Y0087786D02*
X0045000Y0087786D01*
X0045166Y0087187D02*
X0043161Y0087187D01*
X0043759Y0086589D02*
X0045461Y0086589D01*
X0046956Y0085392D02*
X0052900Y0085392D01*
X0052900Y0085990D02*
X0048941Y0085990D01*
X0049539Y0086589D02*
X0052900Y0086589D01*
X0052900Y0087187D02*
X0049834Y0087187D01*
X0050000Y0087786D02*
X0052900Y0087786D01*
X0052900Y0088384D02*
X0050000Y0088384D01*
X0049834Y0088983D02*
X0052900Y0088983D01*
X0052900Y0089581D02*
X0049539Y0089581D01*
X0048941Y0090180D02*
X0052900Y0090180D01*
X0056100Y0090180D02*
X0096559Y0090180D01*
X0096584Y0090204D02*
X0095881Y0089501D01*
X0095500Y0088582D01*
X0095500Y0087588D01*
X0095881Y0086669D01*
X0096584Y0085966D01*
X0097503Y0085585D01*
X0098497Y0085585D01*
X0099416Y0085966D01*
X0100119Y0086669D01*
X0100500Y0087588D01*
X0100500Y0088582D01*
X0100119Y0089501D01*
X0099416Y0090204D01*
X0098497Y0090585D01*
X0097503Y0090585D01*
X0096584Y0090204D01*
X0095961Y0089581D02*
X0056100Y0089581D01*
X0056100Y0088983D02*
X0095666Y0088983D01*
X0095500Y0088384D02*
X0056100Y0088384D01*
X0056100Y0087786D02*
X0095500Y0087786D01*
X0095666Y0087187D02*
X0056100Y0087187D01*
X0056100Y0086589D02*
X0095961Y0086589D01*
X0096559Y0085990D02*
X0056100Y0085990D01*
X0056100Y0085392D02*
X0091371Y0085392D01*
X0091484Y0085504D02*
X0090781Y0084801D01*
X0090400Y0083882D01*
X0090400Y0082888D01*
X0090781Y0081969D01*
X0091484Y0081266D01*
X0092403Y0080885D01*
X0093397Y0080885D01*
X0094316Y0081266D01*
X0095019Y0081969D01*
X0095400Y0082888D01*
X0095400Y0083882D01*
X0095019Y0084801D01*
X0094316Y0085504D01*
X0093397Y0085885D01*
X0092403Y0085885D01*
X0091484Y0085504D01*
X0090777Y0084793D02*
X0056100Y0084793D01*
X0056100Y0084194D02*
X0090529Y0084194D01*
X0090400Y0083596D02*
X0056100Y0083596D01*
X0056100Y0082997D02*
X0090400Y0082997D01*
X0090602Y0082399D02*
X0056100Y0082399D01*
X0056100Y0081800D02*
X0090949Y0081800D01*
X0091638Y0081202D02*
X0056100Y0081202D01*
X0056100Y0080603D02*
X0094256Y0080603D01*
X0094162Y0081202D02*
X0094854Y0081202D01*
X0094851Y0081800D02*
X0095453Y0081800D01*
X0095198Y0082399D02*
X0096051Y0082399D01*
X0096650Y0082997D02*
X0095400Y0082997D01*
X0095400Y0083596D02*
X0097248Y0083596D01*
X0097837Y0084185D02*
X0092837Y0079185D01*
X0077337Y0079185D01*
X0076737Y0078585D01*
X0076003Y0078585D01*
X0075084Y0078204D01*
X0074381Y0077501D01*
X0074000Y0076582D01*
X0074000Y0075588D01*
X0074381Y0074669D01*
X0075084Y0073966D01*
X0076003Y0073585D01*
X0076997Y0073585D01*
X0077916Y0073966D01*
X0078619Y0074669D01*
X0079000Y0075588D01*
X0079000Y0075985D01*
X0094163Y0075985D01*
X0095100Y0076922D01*
X0099163Y0080985D01*
X0108663Y0080985D01*
X0118100Y0090422D01*
X0118100Y0102748D01*
X0117163Y0103685D01*
X0115863Y0104985D01*
X0113801Y0104985D01*
X0113713Y0105198D01*
X0113025Y0105885D01*
X0113713Y0106572D01*
X0114200Y0107749D01*
X0114200Y0109022D01*
X0113713Y0110198D01*
X0113023Y0110888D01*
X0113040Y0110899D01*
X0113486Y0111345D01*
X0113836Y0111869D01*
X0114077Y0112452D01*
X0114200Y0113070D01*
X0114200Y0113085D01*
X0111300Y0113085D01*
X0111300Y0113685D01*
X0114200Y0113685D01*
X0114200Y0113700D01*
X0114077Y0114318D01*
X0113836Y0114901D01*
X0113486Y0115425D01*
X0113040Y0115871D01*
X0112516Y0116221D01*
X0111933Y0116462D01*
X0111315Y0116585D01*
X0111300Y0116585D01*
X0111300Y0113685D01*
X0110700Y0113685D01*
X0110700Y0116585D01*
X0110685Y0116585D01*
X0110067Y0116462D01*
X0109484Y0116221D01*
X0108960Y0115871D01*
X0108514Y0115425D01*
X0108503Y0115408D01*
X0107813Y0116098D01*
X0106637Y0116585D01*
X0105363Y0116585D01*
X0104187Y0116098D01*
X0103287Y0115198D01*
X0102800Y0114022D01*
X0102800Y0112749D01*
X0103287Y0111572D01*
X0103975Y0110885D01*
X0103287Y0110198D01*
X0103199Y0109985D01*
X0093363Y0109985D01*
X0093100Y0110248D01*
X0092163Y0111185D01*
X0089936Y0111185D01*
X0089416Y0111704D01*
X0088497Y0112085D01*
X0087503Y0112085D01*
X0086584Y0111704D01*
X0085881Y0111001D01*
X0085500Y0110082D01*
X0085500Y0109088D01*
X0085881Y0108169D01*
X0086584Y0107466D01*
X0087503Y0107085D01*
X0088497Y0107085D01*
X0089416Y0107466D01*
X0089936Y0107985D01*
X0090837Y0107985D01*
X0092037Y0106785D01*
X0103199Y0106785D01*
X0103287Y0106572D01*
X0103975Y0105885D01*
X0103287Y0105198D01*
X0102800Y0104022D01*
X0102800Y0102749D01*
X0103287Y0101572D01*
X0103975Y0100885D01*
X0103287Y0100198D01*
X0102800Y0099022D01*
X0102800Y0097749D01*
X0103287Y0096572D01*
X0104187Y0095672D01*
X0105363Y0095185D01*
X0106637Y0095185D01*
X0107813Y0095672D01*
X0108500Y0096360D01*
X0109187Y0095672D01*
X0110363Y0095185D01*
X0111637Y0095185D01*
X0112813Y0095672D01*
X0113713Y0096572D01*
X0114200Y0097749D01*
X0114200Y0099022D01*
X0113713Y0100198D01*
X0113025Y0100885D01*
X0113713Y0101572D01*
X0113801Y0101785D01*
X0114537Y0101785D01*
X0114900Y0101422D01*
X0114900Y0091748D01*
X0107337Y0084185D01*
X0097837Y0084185D01*
X0099441Y0085990D02*
X0109142Y0085990D01*
X0108544Y0085392D02*
X0094429Y0085392D01*
X0095023Y0084793D02*
X0107945Y0084793D01*
X0107347Y0084194D02*
X0095271Y0084194D01*
X0093657Y0080005D02*
X0056100Y0080005D01*
X0056100Y0079406D02*
X0093059Y0079406D01*
X0095190Y0077012D02*
X0112911Y0077012D01*
X0112678Y0077109D02*
X0114184Y0076485D01*
X0115816Y0076485D01*
X0117322Y0077109D01*
X0118476Y0078263D01*
X0119100Y0079769D01*
X0119100Y0081401D01*
X0118476Y0082907D01*
X0117322Y0084061D01*
X0115816Y0084685D01*
X0114184Y0084685D01*
X0112678Y0084061D01*
X0111524Y0082907D01*
X0110900Y0081401D01*
X0110900Y0079769D01*
X0111524Y0078263D01*
X0112678Y0077109D01*
X0112176Y0077611D02*
X0095789Y0077611D01*
X0096387Y0078209D02*
X0111577Y0078209D01*
X0111298Y0078808D02*
X0096986Y0078808D01*
X0097584Y0079406D02*
X0111050Y0079406D01*
X0110900Y0080005D02*
X0098183Y0080005D01*
X0098781Y0080603D02*
X0110900Y0080603D01*
X0110900Y0081202D02*
X0108880Y0081202D01*
X0109478Y0081800D02*
X0111066Y0081800D01*
X0111314Y0082399D02*
X0110077Y0082399D01*
X0110675Y0082997D02*
X0111614Y0082997D01*
X0111274Y0083596D02*
X0112213Y0083596D01*
X0111872Y0084194D02*
X0113000Y0084194D01*
X0112471Y0084793D02*
X0119642Y0084793D01*
X0119642Y0084194D02*
X0117000Y0084194D01*
X0117787Y0083596D02*
X0119642Y0083596D01*
X0119642Y0082997D02*
X0118386Y0082997D01*
X0118686Y0082399D02*
X0119642Y0082399D01*
X0119642Y0081800D02*
X0118934Y0081800D01*
X0119100Y0081202D02*
X0119642Y0081202D01*
X0119642Y0080603D02*
X0119100Y0080603D01*
X0119100Y0080005D02*
X0119642Y0080005D01*
X0119642Y0079406D02*
X0118950Y0079406D01*
X0118702Y0078808D02*
X0119642Y0078808D01*
X0119642Y0078209D02*
X0118423Y0078209D01*
X0117824Y0077611D02*
X0119642Y0077611D01*
X0119642Y0077012D02*
X0117089Y0077012D01*
X0119642Y0076414D02*
X0094592Y0076414D01*
X0100039Y0086589D02*
X0109741Y0086589D01*
X0110339Y0087187D02*
X0100334Y0087187D01*
X0100500Y0087786D02*
X0110938Y0087786D01*
X0111536Y0088384D02*
X0100500Y0088384D01*
X0100334Y0088983D02*
X0112135Y0088983D01*
X0112733Y0089581D02*
X0100039Y0089581D01*
X0099441Y0090180D02*
X0113332Y0090180D01*
X0113930Y0090778D02*
X0056100Y0090778D01*
X0056100Y0091377D02*
X0114529Y0091377D01*
X0114900Y0091975D02*
X0056100Y0091975D01*
X0056100Y0092574D02*
X0114900Y0092574D01*
X0114900Y0093172D02*
X0056100Y0093172D01*
X0056100Y0093771D02*
X0114900Y0093771D01*
X0114900Y0094369D02*
X0056100Y0094369D01*
X0056100Y0094968D02*
X0114900Y0094968D01*
X0114900Y0095566D02*
X0112557Y0095566D01*
X0113305Y0096165D02*
X0114900Y0096165D01*
X0114900Y0096763D02*
X0113792Y0096763D01*
X0114040Y0097362D02*
X0114900Y0097362D01*
X0114900Y0097960D02*
X0114200Y0097960D01*
X0114200Y0098559D02*
X0114900Y0098559D01*
X0114900Y0099157D02*
X0114144Y0099157D01*
X0113896Y0099756D02*
X0114900Y0099756D01*
X0114900Y0100354D02*
X0113556Y0100354D01*
X0113093Y0100953D02*
X0114900Y0100953D01*
X0114771Y0101551D02*
X0113692Y0101551D01*
X0113736Y0105142D02*
X0119642Y0105142D01*
X0119642Y0104544D02*
X0116304Y0104544D01*
X0116902Y0103945D02*
X0119642Y0103945D01*
X0119642Y0103347D02*
X0117501Y0103347D01*
X0118099Y0102748D02*
X0119642Y0102748D01*
X0119642Y0102150D02*
X0118100Y0102150D01*
X0118100Y0101551D02*
X0119642Y0101551D01*
X0119642Y0100953D02*
X0118100Y0100953D01*
X0118100Y0100354D02*
X0119642Y0100354D01*
X0119642Y0099756D02*
X0118100Y0099756D01*
X0118100Y0099157D02*
X0119642Y0099157D01*
X0119642Y0098559D02*
X0118100Y0098559D01*
X0118100Y0097960D02*
X0119642Y0097960D01*
X0119642Y0097362D02*
X0118100Y0097362D01*
X0118100Y0096763D02*
X0119642Y0096763D01*
X0119642Y0096165D02*
X0118100Y0096165D01*
X0118100Y0095566D02*
X0119642Y0095566D01*
X0119642Y0094968D02*
X0118100Y0094968D01*
X0118100Y0094369D02*
X0119642Y0094369D01*
X0119642Y0093771D02*
X0118100Y0093771D01*
X0118100Y0093172D02*
X0119642Y0093172D01*
X0119642Y0092574D02*
X0118100Y0092574D01*
X0118100Y0091975D02*
X0119642Y0091975D01*
X0119642Y0091377D02*
X0118100Y0091377D01*
X0118100Y0090778D02*
X0119642Y0090778D01*
X0119642Y0090180D02*
X0117857Y0090180D01*
X0117259Y0089581D02*
X0119642Y0089581D01*
X0119642Y0088983D02*
X0116660Y0088983D01*
X0116062Y0088384D02*
X0119642Y0088384D01*
X0119642Y0087786D02*
X0115463Y0087786D01*
X0114865Y0087187D02*
X0119642Y0087187D01*
X0119642Y0086589D02*
X0114266Y0086589D01*
X0113668Y0085990D02*
X0119642Y0085990D01*
X0119642Y0085392D02*
X0113069Y0085392D01*
X0109443Y0095566D02*
X0107557Y0095566D01*
X0108305Y0096165D02*
X0108695Y0096165D01*
X0104443Y0095566D02*
X0056100Y0095566D01*
X0056100Y0096165D02*
X0103695Y0096165D01*
X0103208Y0096763D02*
X0056100Y0096763D01*
X0056539Y0097362D02*
X0102960Y0097362D01*
X0102800Y0097960D02*
X0057138Y0097960D01*
X0057736Y0098559D02*
X0102800Y0098559D01*
X0102856Y0099157D02*
X0058335Y0099157D01*
X0058933Y0099756D02*
X0103104Y0099756D01*
X0103444Y0100354D02*
X0059532Y0100354D01*
X0060130Y0100953D02*
X0103907Y0100953D01*
X0103308Y0101551D02*
X0060600Y0101551D01*
X0060600Y0102150D02*
X0103048Y0102150D01*
X0102800Y0102748D02*
X0060600Y0102748D01*
X0060600Y0103347D02*
X0102800Y0103347D01*
X0102800Y0103945D02*
X0060600Y0103945D01*
X0060600Y0104544D02*
X0103016Y0104544D01*
X0103264Y0105142D02*
X0060600Y0105142D01*
X0060600Y0105741D02*
X0103830Y0105741D01*
X0103520Y0106339D02*
X0060600Y0106339D01*
X0060600Y0106938D02*
X0091884Y0106938D01*
X0091286Y0107536D02*
X0089487Y0107536D01*
X0086513Y0107536D02*
X0060600Y0107536D01*
X0060600Y0108135D02*
X0085915Y0108135D01*
X0085647Y0108733D02*
X0060600Y0108733D01*
X0060600Y0109332D02*
X0085500Y0109332D01*
X0085500Y0109930D02*
X0060600Y0109930D01*
X0060600Y0110529D02*
X0085685Y0110529D01*
X0086007Y0111127D02*
X0060600Y0111127D01*
X0060600Y0111726D02*
X0086636Y0111726D01*
X0089364Y0111726D02*
X0103224Y0111726D01*
X0102976Y0112325D02*
X0060600Y0112325D01*
X0060425Y0112923D02*
X0102800Y0112923D01*
X0102800Y0113522D02*
X0059826Y0113522D01*
X0059228Y0114120D02*
X0102841Y0114120D01*
X0103089Y0114719D02*
X0058629Y0114719D01*
X0058031Y0115317D02*
X0103407Y0115317D01*
X0104005Y0115916D02*
X0057432Y0115916D01*
X0056834Y0116514D02*
X0105192Y0116514D01*
X0106808Y0116514D02*
X0110328Y0116514D01*
X0110700Y0116514D02*
X0111300Y0116514D01*
X0111672Y0116514D02*
X0119642Y0116514D01*
X0119642Y0115916D02*
X0112973Y0115916D01*
X0113558Y0115317D02*
X0119642Y0115317D01*
X0119642Y0114719D02*
X0113911Y0114719D01*
X0114116Y0114120D02*
X0119642Y0114120D01*
X0119642Y0113522D02*
X0111300Y0113522D01*
X0111300Y0114120D02*
X0110700Y0114120D01*
X0110700Y0114719D02*
X0111300Y0114719D01*
X0111300Y0115317D02*
X0110700Y0115317D01*
X0110700Y0115916D02*
X0111300Y0115916D01*
X0109027Y0115916D02*
X0107995Y0115916D01*
X0103732Y0111127D02*
X0092220Y0111127D01*
X0092819Y0110529D02*
X0103618Y0110529D01*
X0113268Y0111127D02*
X0119642Y0111127D01*
X0119642Y0110529D02*
X0113382Y0110529D01*
X0113824Y0109930D02*
X0119642Y0109930D01*
X0119642Y0109332D02*
X0114071Y0109332D01*
X0114200Y0108733D02*
X0119642Y0108733D01*
X0119642Y0108135D02*
X0114200Y0108135D01*
X0114112Y0107536D02*
X0119642Y0107536D01*
X0119642Y0106938D02*
X0113864Y0106938D01*
X0113480Y0106339D02*
X0119642Y0106339D01*
X0119642Y0105741D02*
X0113170Y0105741D01*
X0113740Y0111726D02*
X0119642Y0111726D01*
X0119642Y0112325D02*
X0114024Y0112325D01*
X0114171Y0112923D02*
X0119642Y0112923D01*
X0119642Y0117113D02*
X0056235Y0117113D01*
X0055637Y0117711D02*
X0119642Y0117711D01*
X0119642Y0118310D02*
X0055038Y0118310D01*
X0054440Y0118908D02*
X0119642Y0118908D01*
X0119642Y0119507D02*
X0053841Y0119507D01*
X0053243Y0120105D02*
X0056239Y0120105D01*
X0056864Y0119846D02*
X0058246Y0119846D01*
X0059523Y0120375D01*
X0060501Y0121353D01*
X0061030Y0122630D01*
X0061030Y0124012D01*
X0060501Y0125290D01*
X0059523Y0126267D01*
X0058246Y0126796D01*
X0056864Y0126796D01*
X0055587Y0126267D01*
X0054609Y0125290D01*
X0054080Y0124012D01*
X0054080Y0122630D01*
X0054609Y0121353D01*
X0055587Y0120375D01*
X0056864Y0119846D01*
X0055259Y0120704D02*
X0052644Y0120704D01*
X0052046Y0121302D02*
X0054660Y0121302D01*
X0054382Y0121901D02*
X0051447Y0121901D01*
X0050849Y0122499D02*
X0054135Y0122499D01*
X0054080Y0123098D02*
X0050250Y0123098D01*
X0049652Y0123696D02*
X0054080Y0123696D01*
X0054197Y0124295D02*
X0049053Y0124295D01*
X0048455Y0124893D02*
X0054445Y0124893D01*
X0054812Y0125492D02*
X0047856Y0125492D01*
X0047257Y0126090D02*
X0055410Y0126090D01*
X0056605Y0126689D02*
X0046659Y0126689D01*
X0046060Y0127287D02*
X0102621Y0127287D01*
X0102340Y0127886D02*
X0045462Y0127886D01*
X0044863Y0128484D02*
X0102092Y0128484D01*
X0101947Y0129083D02*
X0044265Y0129083D01*
X0043666Y0129681D02*
X0101947Y0129681D01*
X0101947Y0130280D02*
X0038841Y0130280D01*
X0037996Y0130878D02*
X0102126Y0130878D01*
X0103220Y0126689D02*
X0068505Y0126689D01*
X0068246Y0126796D02*
X0066864Y0126796D01*
X0065587Y0126267D01*
X0064609Y0125290D01*
X0064080Y0124012D01*
X0064080Y0122630D01*
X0064609Y0121353D01*
X0065587Y0120375D01*
X0066864Y0119846D01*
X0068246Y0119846D01*
X0069523Y0120375D01*
X0070501Y0121353D01*
X0071030Y0122630D01*
X0071030Y0124012D01*
X0070501Y0125290D01*
X0069523Y0126267D01*
X0068246Y0126796D01*
X0069700Y0126090D02*
X0103980Y0126090D01*
X0108020Y0126090D02*
X0113980Y0126090D01*
X0113220Y0126689D02*
X0108780Y0126689D01*
X0109379Y0127287D02*
X0112621Y0127287D01*
X0112340Y0127886D02*
X0109660Y0127886D01*
X0109908Y0128484D02*
X0112092Y0128484D01*
X0111947Y0129083D02*
X0110053Y0129083D01*
X0110053Y0129681D02*
X0111947Y0129681D01*
X0111947Y0130280D02*
X0110053Y0130280D01*
X0109874Y0130878D02*
X0112126Y0130878D01*
X0112374Y0131477D02*
X0109626Y0131477D01*
X0109296Y0132075D02*
X0112704Y0132075D01*
X0113302Y0132674D02*
X0108698Y0132674D01*
X0107821Y0133272D02*
X0114179Y0133272D01*
X0117821Y0133272D02*
X0119642Y0133272D01*
X0119642Y0132674D02*
X0118698Y0132674D01*
X0119296Y0132075D02*
X0119642Y0132075D01*
X0119626Y0131477D02*
X0119642Y0131477D01*
X0119642Y0127287D02*
X0119379Y0127287D01*
X0119642Y0126689D02*
X0118780Y0126689D01*
X0118020Y0126090D02*
X0119642Y0126090D01*
X0119642Y0125492D02*
X0070299Y0125492D01*
X0070665Y0124893D02*
X0119642Y0124893D01*
X0119642Y0124295D02*
X0070913Y0124295D01*
X0071030Y0123696D02*
X0119642Y0123696D01*
X0119642Y0123098D02*
X0071030Y0123098D01*
X0070976Y0122499D02*
X0119642Y0122499D01*
X0119642Y0121901D02*
X0070728Y0121901D01*
X0070450Y0121302D02*
X0119642Y0121302D01*
X0119642Y0120704D02*
X0069852Y0120704D01*
X0068871Y0120105D02*
X0119642Y0120105D01*
X0119642Y0075815D02*
X0079000Y0075815D01*
X0078846Y0075217D02*
X0119642Y0075217D01*
X0119642Y0074618D02*
X0115977Y0074618D01*
X0115816Y0074685D02*
X0114184Y0074685D01*
X0112678Y0074061D01*
X0111524Y0072907D01*
X0110900Y0071401D01*
X0110900Y0069769D01*
X0111524Y0068263D01*
X0112678Y0067109D01*
X0114184Y0066485D01*
X0115816Y0066485D01*
X0117322Y0067109D01*
X0118476Y0068263D01*
X0119100Y0069769D01*
X0119100Y0071401D01*
X0118476Y0072907D01*
X0117322Y0074061D01*
X0115816Y0074685D01*
X0117363Y0074020D02*
X0119642Y0074020D01*
X0119642Y0073421D02*
X0117962Y0073421D01*
X0118511Y0072823D02*
X0119642Y0072823D01*
X0119642Y0072224D02*
X0118759Y0072224D01*
X0119007Y0071626D02*
X0119642Y0071626D01*
X0119642Y0071027D02*
X0119100Y0071027D01*
X0119100Y0070429D02*
X0119642Y0070429D01*
X0119642Y0069830D02*
X0119100Y0069830D01*
X0118877Y0069232D02*
X0119642Y0069232D01*
X0119642Y0068633D02*
X0118629Y0068633D01*
X0118248Y0068035D02*
X0119642Y0068035D01*
X0119642Y0067436D02*
X0117649Y0067436D01*
X0116667Y0066838D02*
X0119642Y0066838D01*
X0119642Y0066239D02*
X0069752Y0066239D01*
X0069900Y0065882D02*
X0069519Y0066801D01*
X0068816Y0067504D01*
X0067897Y0067885D01*
X0066903Y0067885D01*
X0065984Y0067504D01*
X0065281Y0066801D01*
X0064900Y0065882D01*
X0064900Y0064888D01*
X0065281Y0063969D01*
X0065984Y0063266D01*
X0066903Y0062885D01*
X0067897Y0062885D01*
X0068816Y0063266D01*
X0069519Y0063969D01*
X0069900Y0064888D01*
X0069900Y0065882D01*
X0069900Y0065641D02*
X0119642Y0065641D01*
X0119642Y0065042D02*
X0069900Y0065042D01*
X0069716Y0064444D02*
X0113602Y0064444D01*
X0114184Y0064685D02*
X0112678Y0064061D01*
X0111524Y0062907D01*
X0110900Y0061401D01*
X0110900Y0059769D01*
X0111524Y0058263D01*
X0112678Y0057109D01*
X0114184Y0056485D01*
X0115816Y0056485D01*
X0117322Y0057109D01*
X0118476Y0058263D01*
X0119100Y0059769D01*
X0119100Y0061401D01*
X0118476Y0062907D01*
X0117322Y0064061D01*
X0115816Y0064685D01*
X0114184Y0064685D01*
X0112462Y0063845D02*
X0069396Y0063845D01*
X0068770Y0063247D02*
X0111863Y0063247D01*
X0111417Y0062648D02*
X0035100Y0062648D01*
X0035100Y0062050D02*
X0111169Y0062050D01*
X0110921Y0061451D02*
X0035100Y0061451D01*
X0035100Y0060853D02*
X0110900Y0060853D01*
X0110900Y0060254D02*
X0035100Y0060254D01*
X0035100Y0059656D02*
X0110947Y0059656D01*
X0111195Y0059057D02*
X0035100Y0059057D01*
X0035100Y0058459D02*
X0111443Y0058459D01*
X0111927Y0057860D02*
X0068961Y0057860D01*
X0068816Y0058004D02*
X0067897Y0058385D01*
X0066903Y0058385D01*
X0065984Y0058004D01*
X0065281Y0057301D01*
X0064900Y0056382D01*
X0064900Y0055388D01*
X0065281Y0054469D01*
X0065984Y0053766D01*
X0066903Y0053385D01*
X0067897Y0053385D01*
X0068816Y0053766D01*
X0069519Y0054469D01*
X0069900Y0055388D01*
X0069900Y0056382D01*
X0069519Y0057301D01*
X0068816Y0058004D01*
X0069536Y0057261D02*
X0112525Y0057261D01*
X0113755Y0056663D02*
X0069784Y0056663D01*
X0069900Y0056064D02*
X0119642Y0056064D01*
X0119642Y0055466D02*
X0069900Y0055466D01*
X0069684Y0054867D02*
X0119642Y0054867D01*
X0119642Y0054269D02*
X0116820Y0054269D01*
X0117322Y0054061D02*
X0115816Y0054685D01*
X0114184Y0054685D01*
X0112678Y0054061D01*
X0111524Y0052907D01*
X0110900Y0051401D01*
X0110900Y0049769D01*
X0111524Y0048263D01*
X0112678Y0047109D01*
X0114184Y0046485D01*
X0115816Y0046485D01*
X0117322Y0047109D01*
X0118476Y0048263D01*
X0119100Y0049769D01*
X0119100Y0051401D01*
X0118476Y0052907D01*
X0117322Y0054061D01*
X0117713Y0053670D02*
X0119642Y0053670D01*
X0119642Y0053072D02*
X0118311Y0053072D01*
X0118656Y0052473D02*
X0119642Y0052473D01*
X0119642Y0051875D02*
X0118904Y0051875D01*
X0119100Y0051276D02*
X0119642Y0051276D01*
X0119642Y0050678D02*
X0119100Y0050678D01*
X0119100Y0050079D02*
X0119642Y0050079D01*
X0119642Y0049481D02*
X0118980Y0049481D01*
X0118733Y0048882D02*
X0119642Y0048882D01*
X0119642Y0048284D02*
X0118485Y0048284D01*
X0117899Y0047685D02*
X0119642Y0047685D01*
X0119642Y0047087D02*
X0117268Y0047087D01*
X0117115Y0045890D02*
X0078918Y0045890D01*
X0079000Y0046488D02*
X0114177Y0046488D01*
X0112732Y0047087D02*
X0078998Y0047087D01*
X0078750Y0047685D02*
X0112101Y0047685D01*
X0111515Y0048284D02*
X0078337Y0048284D01*
X0077487Y0048882D02*
X0111267Y0048882D01*
X0111020Y0049481D02*
X0035100Y0049481D01*
X0035100Y0050079D02*
X0110900Y0050079D01*
X0110900Y0050678D02*
X0035100Y0050678D01*
X0035100Y0051276D02*
X0110900Y0051276D01*
X0111096Y0051875D02*
X0035100Y0051875D01*
X0035100Y0052473D02*
X0111344Y0052473D01*
X0111689Y0053072D02*
X0035100Y0053072D01*
X0035100Y0053670D02*
X0056214Y0053670D01*
X0055984Y0053766D02*
X0056903Y0053385D01*
X0057897Y0053385D01*
X0058816Y0053766D01*
X0059519Y0054469D01*
X0059900Y0055388D01*
X0059900Y0056382D01*
X0059519Y0057301D01*
X0058816Y0058004D01*
X0057897Y0058385D01*
X0056903Y0058385D01*
X0055984Y0058004D01*
X0055281Y0057301D01*
X0054900Y0056382D01*
X0054900Y0055388D01*
X0055281Y0054469D01*
X0055984Y0053766D01*
X0055481Y0054269D02*
X0035100Y0054269D01*
X0035100Y0054867D02*
X0055116Y0054867D01*
X0054900Y0055466D02*
X0035100Y0055466D01*
X0035100Y0056064D02*
X0054900Y0056064D01*
X0055016Y0056663D02*
X0035100Y0056663D01*
X0035100Y0057261D02*
X0055264Y0057261D01*
X0055839Y0057860D02*
X0035100Y0057860D01*
X0031900Y0057860D02*
X0016500Y0057860D01*
X0016500Y0057588D02*
X0016119Y0056669D01*
X0015416Y0055966D01*
X0014497Y0055585D01*
X0013503Y0055585D01*
X0012584Y0055966D01*
X0011881Y0056669D01*
X0011500Y0057588D01*
X0011500Y0058582D01*
X0011881Y0059501D01*
X0012584Y0060204D01*
X0013503Y0060585D01*
X0014497Y0060585D01*
X0015416Y0060204D01*
X0016119Y0059501D01*
X0016500Y0058582D01*
X0016500Y0057588D01*
X0016365Y0057261D02*
X0031900Y0057261D01*
X0031900Y0056663D02*
X0016113Y0056663D01*
X0015515Y0056064D02*
X0031900Y0056064D01*
X0031900Y0055466D02*
X0005469Y0055466D01*
X0005469Y0056064D02*
X0012485Y0056064D01*
X0011887Y0056663D02*
X0005469Y0056663D01*
X0005469Y0057261D02*
X0011635Y0057261D01*
X0011500Y0057860D02*
X0005469Y0057860D01*
X0005469Y0058459D02*
X0011500Y0058459D01*
X0011697Y0059057D02*
X0005469Y0059057D01*
X0005469Y0059656D02*
X0012035Y0059656D01*
X0012704Y0060254D02*
X0005469Y0060254D01*
X0005469Y0060853D02*
X0017000Y0060853D01*
X0017000Y0060588D02*
X0017381Y0059669D01*
X0018084Y0058966D01*
X0019003Y0058585D01*
X0019997Y0058585D01*
X0020916Y0058966D01*
X0021619Y0059669D01*
X0022000Y0060588D01*
X0022000Y0061582D01*
X0021619Y0062501D01*
X0020916Y0063204D01*
X0019997Y0063585D01*
X0019003Y0063585D01*
X0018084Y0063204D01*
X0017381Y0062501D01*
X0017000Y0061582D01*
X0017000Y0060588D01*
X0017138Y0060254D02*
X0015296Y0060254D01*
X0015965Y0059656D02*
X0017394Y0059656D01*
X0017992Y0059057D02*
X0016303Y0059057D01*
X0016500Y0058459D02*
X0031900Y0058459D01*
X0031900Y0059057D02*
X0021008Y0059057D01*
X0021606Y0059656D02*
X0031900Y0059656D01*
X0031900Y0060254D02*
X0021862Y0060254D01*
X0022000Y0060853D02*
X0031900Y0060853D01*
X0031900Y0061451D02*
X0022000Y0061451D01*
X0021806Y0062050D02*
X0031900Y0062050D01*
X0031900Y0062648D02*
X0021472Y0062648D01*
X0020814Y0063247D02*
X0031900Y0063247D01*
X0031900Y0063845D02*
X0005469Y0063845D01*
X0005469Y0063247D02*
X0018186Y0063247D01*
X0017528Y0062648D02*
X0005469Y0062648D01*
X0005469Y0062050D02*
X0017194Y0062050D01*
X0017000Y0061451D02*
X0005469Y0061451D01*
X0005469Y0064444D02*
X0031900Y0064444D01*
X0031900Y0065042D02*
X0005469Y0065042D01*
X0005469Y0065641D02*
X0031900Y0065641D01*
X0031900Y0066239D02*
X0005469Y0066239D01*
X0005469Y0066838D02*
X0031900Y0066838D01*
X0031900Y0067436D02*
X0005469Y0067436D01*
X0005469Y0068035D02*
X0031900Y0068035D01*
X0031900Y0068633D02*
X0005469Y0068633D01*
X0005469Y0069232D02*
X0031900Y0069232D01*
X0032482Y0069830D02*
X0005469Y0069830D01*
X0005469Y0070429D02*
X0033081Y0070429D01*
X0033679Y0071027D02*
X0005469Y0071027D01*
X0005469Y0071626D02*
X0034278Y0071626D01*
X0034876Y0072224D02*
X0005469Y0072224D01*
X0005469Y0072823D02*
X0035475Y0072823D01*
X0035500Y0073421D02*
X0005469Y0073421D01*
X0005469Y0074020D02*
X0035681Y0074020D01*
X0035998Y0074618D02*
X0005469Y0074618D01*
X0005469Y0075217D02*
X0036333Y0075217D01*
X0035820Y0075815D02*
X0005469Y0075815D01*
X0005469Y0076414D02*
X0035572Y0076414D01*
X0035500Y0077012D02*
X0005469Y0077012D01*
X0005469Y0077611D02*
X0035512Y0077611D01*
X0035760Y0078209D02*
X0005469Y0078209D01*
X0005469Y0078808D02*
X0036187Y0078808D01*
X0036727Y0079406D02*
X0005469Y0079406D01*
X0005469Y0080005D02*
X0036045Y0080005D01*
X0035701Y0080603D02*
X0005469Y0080603D01*
X0005469Y0081202D02*
X0035500Y0081202D01*
X0035500Y0081800D02*
X0005469Y0081800D01*
X0005469Y0082399D02*
X0035631Y0082399D01*
X0035879Y0082997D02*
X0012853Y0082997D01*
X0013609Y0083596D02*
X0036475Y0083596D01*
X0037529Y0084793D02*
X0014496Y0084793D01*
X0014208Y0084194D02*
X0038128Y0084194D01*
X0040500Y0081800D02*
X0040522Y0081800D01*
X0040500Y0081202D02*
X0040900Y0081202D01*
X0040900Y0080603D02*
X0040299Y0080603D01*
X0039955Y0080005D02*
X0040900Y0080005D01*
X0040900Y0079406D02*
X0039273Y0079406D01*
X0039813Y0078808D02*
X0040900Y0078808D01*
X0040900Y0078209D02*
X0040240Y0078209D01*
X0040488Y0077611D02*
X0040900Y0077611D01*
X0040900Y0077012D02*
X0040500Y0077012D01*
X0040428Y0076414D02*
X0040900Y0076414D01*
X0040900Y0075815D02*
X0040180Y0075815D01*
X0039667Y0075217D02*
X0040900Y0075217D01*
X0040900Y0074618D02*
X0040002Y0074618D01*
X0040319Y0074020D02*
X0040900Y0074020D01*
X0040900Y0073421D02*
X0040500Y0073421D01*
X0040500Y0072823D02*
X0040900Y0072823D01*
X0040900Y0072224D02*
X0040349Y0072224D01*
X0040076Y0071626D02*
X0040900Y0071626D01*
X0040900Y0071027D02*
X0039478Y0071027D01*
X0040900Y0070429D02*
X0037606Y0070429D01*
X0037008Y0069830D02*
X0040900Y0069830D01*
X0040900Y0069232D02*
X0036409Y0069232D01*
X0035811Y0068633D02*
X0040900Y0068633D01*
X0040900Y0068035D02*
X0035212Y0068035D01*
X0035100Y0067436D02*
X0040949Y0067436D01*
X0041548Y0066838D02*
X0035100Y0066838D01*
X0035100Y0066239D02*
X0045644Y0066239D01*
X0045909Y0065641D02*
X0035100Y0065641D01*
X0035100Y0065042D02*
X0046507Y0065042D01*
X0049493Y0065042D02*
X0054900Y0065042D01*
X0054900Y0064888D02*
X0055281Y0063969D01*
X0055984Y0063266D01*
X0056903Y0062885D01*
X0057897Y0062885D01*
X0058816Y0063266D01*
X0059519Y0063969D01*
X0059900Y0064888D01*
X0059900Y0065882D01*
X0059519Y0066801D01*
X0058816Y0067504D01*
X0057897Y0067885D01*
X0056903Y0067885D01*
X0055984Y0067504D01*
X0055281Y0066801D01*
X0054900Y0065882D01*
X0054900Y0064888D01*
X0055084Y0064444D02*
X0035100Y0064444D01*
X0035100Y0063845D02*
X0055404Y0063845D01*
X0056030Y0063247D02*
X0035100Y0063247D01*
X0031900Y0054867D02*
X0005469Y0054867D01*
X0005469Y0054269D02*
X0031900Y0054269D01*
X0031900Y0053670D02*
X0005469Y0053670D01*
X0005469Y0053072D02*
X0031900Y0053072D01*
X0031900Y0052473D02*
X0005469Y0052473D01*
X0005469Y0051875D02*
X0031900Y0051875D01*
X0031900Y0051276D02*
X0005469Y0051276D01*
X0005469Y0050678D02*
X0031900Y0050678D01*
X0031900Y0050079D02*
X0005469Y0050079D01*
X0005469Y0049481D02*
X0031900Y0049481D01*
X0031900Y0048882D02*
X0005469Y0048882D01*
X0005469Y0048284D02*
X0031900Y0048284D01*
X0031900Y0047685D02*
X0005469Y0047685D01*
X0005469Y0047087D02*
X0031900Y0047087D01*
X0031900Y0046488D02*
X0005469Y0046488D01*
X0005469Y0045890D02*
X0031900Y0045890D01*
X0031900Y0045291D02*
X0005469Y0045291D01*
X0005469Y0044693D02*
X0031900Y0044693D01*
X0031900Y0044094D02*
X0005469Y0044094D01*
X0005469Y0043496D02*
X0031900Y0043496D01*
X0031900Y0042897D02*
X0005469Y0042897D01*
X0005469Y0042299D02*
X0007811Y0042299D01*
X0007584Y0042204D02*
X0006881Y0041501D01*
X0006500Y0040582D01*
X0006500Y0039588D01*
X0006881Y0038669D01*
X0007584Y0037966D01*
X0008503Y0037585D01*
X0009497Y0037585D01*
X0010416Y0037966D01*
X0011119Y0038669D01*
X0011500Y0039588D01*
X0011500Y0040582D01*
X0011119Y0041501D01*
X0010416Y0042204D01*
X0009497Y0042585D01*
X0008503Y0042585D01*
X0007584Y0042204D01*
X0007080Y0041700D02*
X0005469Y0041700D01*
X0005469Y0041102D02*
X0006715Y0041102D01*
X0006500Y0040503D02*
X0005469Y0040503D01*
X0005469Y0039905D02*
X0006500Y0039905D01*
X0006617Y0039306D02*
X0005469Y0039306D01*
X0005469Y0038708D02*
X0006865Y0038708D01*
X0007440Y0038109D02*
X0005469Y0038109D01*
X0005469Y0037511D02*
X0031900Y0037511D01*
X0031900Y0038109D02*
X0010560Y0038109D01*
X0011135Y0038708D02*
X0031900Y0038708D01*
X0031900Y0039306D02*
X0011383Y0039306D01*
X0011500Y0039905D02*
X0031900Y0039905D01*
X0031900Y0040503D02*
X0011500Y0040503D01*
X0011285Y0041102D02*
X0031900Y0041102D01*
X0031900Y0041700D02*
X0010920Y0041700D01*
X0010189Y0042299D02*
X0031900Y0042299D01*
X0035100Y0042299D02*
X0038951Y0042299D01*
X0039549Y0042897D02*
X0035100Y0042897D01*
X0035100Y0043496D02*
X0071148Y0043496D01*
X0070981Y0044094D02*
X0066519Y0044094D01*
X0066497Y0044085D02*
X0067416Y0044466D01*
X0068119Y0045169D01*
X0068500Y0046088D01*
X0068500Y0047082D01*
X0068119Y0048001D01*
X0067416Y0048704D01*
X0066497Y0049085D01*
X0065503Y0049085D01*
X0064584Y0048704D01*
X0063881Y0048001D01*
X0063500Y0047082D01*
X0063500Y0046088D01*
X0063881Y0045169D01*
X0064584Y0044466D01*
X0065503Y0044085D01*
X0066497Y0044085D01*
X0065481Y0044094D02*
X0061019Y0044094D01*
X0060997Y0044085D02*
X0061916Y0044466D01*
X0062619Y0045169D01*
X0063000Y0046088D01*
X0063000Y0047082D01*
X0062619Y0048001D01*
X0061916Y0048704D01*
X0060997Y0049085D01*
X0060003Y0049085D01*
X0059084Y0048704D01*
X0058381Y0048001D01*
X0058000Y0047082D01*
X0058000Y0046088D01*
X0058381Y0045169D01*
X0059084Y0044466D01*
X0060003Y0044085D01*
X0060997Y0044085D01*
X0059981Y0044094D02*
X0035100Y0044094D01*
X0035100Y0044693D02*
X0058857Y0044693D01*
X0058330Y0045291D02*
X0035100Y0045291D01*
X0035100Y0045890D02*
X0058082Y0045890D01*
X0058000Y0046488D02*
X0035100Y0046488D01*
X0035100Y0047087D02*
X0058002Y0047087D01*
X0058250Y0047685D02*
X0035100Y0047685D01*
X0035100Y0048284D02*
X0058663Y0048284D01*
X0059513Y0048882D02*
X0035100Y0048882D01*
X0035100Y0041700D02*
X0038352Y0041700D01*
X0037754Y0041102D02*
X0035100Y0041102D01*
X0035100Y0040503D02*
X0037155Y0040503D01*
X0036557Y0039905D02*
X0035100Y0039905D01*
X0035100Y0039306D02*
X0035958Y0039306D01*
X0035900Y0038708D02*
X0035100Y0038708D01*
X0035100Y0038109D02*
X0035900Y0038109D01*
X0035900Y0037511D02*
X0035100Y0037511D01*
X0035100Y0036912D02*
X0035900Y0036912D01*
X0035900Y0036314D02*
X0035100Y0036314D01*
X0035100Y0035715D02*
X0035900Y0035715D01*
X0039100Y0035715D02*
X0040708Y0035715D01*
X0041306Y0036314D02*
X0039100Y0036314D01*
X0039100Y0036912D02*
X0103598Y0036912D01*
X0103463Y0036314D02*
X0050794Y0036314D01*
X0051392Y0035715D02*
X0103463Y0035715D01*
X0103846Y0037511D02*
X0039100Y0037511D01*
X0039287Y0038109D02*
X0104094Y0038109D01*
X0104499Y0038708D02*
X0039885Y0038708D01*
X0040484Y0039306D02*
X0105098Y0039306D01*
X0105766Y0039905D02*
X0041082Y0039905D01*
X0044294Y0036314D02*
X0047806Y0036314D01*
X0047208Y0035715D02*
X0044892Y0035715D01*
X0031900Y0035715D02*
X0026405Y0035715D01*
X0025653Y0036314D02*
X0031900Y0036314D01*
X0031900Y0036912D02*
X0005469Y0036912D01*
X0005469Y0036314D02*
X0023347Y0036314D01*
X0022595Y0035715D02*
X0005469Y0035715D01*
X0044100Y0069575D02*
X0044100Y0082748D01*
X0043863Y0082985D01*
X0044837Y0082985D01*
X0046400Y0081422D01*
X0046400Y0074021D01*
X0045881Y0073501D01*
X0045500Y0072582D01*
X0045500Y0071588D01*
X0045881Y0070669D01*
X0046584Y0069966D01*
X0047503Y0069585D01*
X0048497Y0069585D01*
X0047503Y0069585D01*
X0047478Y0069575D01*
X0044100Y0069575D01*
X0044100Y0069830D02*
X0046911Y0069830D01*
X0046121Y0070429D02*
X0044100Y0070429D01*
X0044100Y0071027D02*
X0045732Y0071027D01*
X0045500Y0071626D02*
X0044100Y0071626D01*
X0044100Y0072224D02*
X0045500Y0072224D01*
X0045600Y0072823D02*
X0044100Y0072823D01*
X0044100Y0073421D02*
X0045848Y0073421D01*
X0046399Y0074020D02*
X0044100Y0074020D01*
X0044100Y0074618D02*
X0046400Y0074618D01*
X0046400Y0075217D02*
X0044100Y0075217D01*
X0044100Y0075815D02*
X0046400Y0075815D01*
X0046400Y0076414D02*
X0044100Y0076414D01*
X0044100Y0077012D02*
X0046400Y0077012D01*
X0046400Y0077611D02*
X0044100Y0077611D01*
X0044100Y0078209D02*
X0046400Y0078209D01*
X0046400Y0078808D02*
X0044100Y0078808D01*
X0044100Y0079406D02*
X0046400Y0079406D01*
X0046400Y0080005D02*
X0044100Y0080005D01*
X0044100Y0080603D02*
X0046400Y0080603D01*
X0046400Y0081202D02*
X0044100Y0081202D01*
X0044100Y0081800D02*
X0046022Y0081800D01*
X0045423Y0082399D02*
X0044100Y0082399D01*
X0047555Y0084793D02*
X0052900Y0084793D01*
X0052900Y0084194D02*
X0048153Y0084194D01*
X0048752Y0083596D02*
X0052900Y0083596D01*
X0052900Y0082997D02*
X0049350Y0082997D01*
X0049600Y0082399D02*
X0052900Y0082399D01*
X0052900Y0081800D02*
X0049600Y0081800D01*
X0049600Y0081202D02*
X0052900Y0081202D01*
X0052900Y0080603D02*
X0049600Y0080603D01*
X0049600Y0080005D02*
X0052900Y0080005D01*
X0052900Y0079406D02*
X0049600Y0079406D01*
X0049600Y0078808D02*
X0052900Y0078808D01*
X0052900Y0078209D02*
X0049600Y0078209D01*
X0049600Y0077611D02*
X0052900Y0077611D01*
X0052900Y0077012D02*
X0049600Y0077012D01*
X0049600Y0076414D02*
X0052900Y0076414D01*
X0052900Y0075815D02*
X0049600Y0075815D01*
X0049600Y0075217D02*
X0052900Y0075217D01*
X0052900Y0074618D02*
X0049600Y0074618D01*
X0049601Y0074020D02*
X0052900Y0074020D01*
X0052900Y0073421D02*
X0050152Y0073421D01*
X0050400Y0072823D02*
X0052900Y0072823D01*
X0052900Y0072224D02*
X0050500Y0072224D01*
X0050500Y0071626D02*
X0052900Y0071626D01*
X0052900Y0071027D02*
X0050268Y0071027D01*
X0049879Y0070429D02*
X0052900Y0070429D01*
X0052482Y0069830D02*
X0049089Y0069830D01*
X0049350Y0069232D02*
X0051884Y0069232D01*
X0054015Y0066838D02*
X0055317Y0066838D01*
X0055048Y0066239D02*
X0053417Y0066239D01*
X0052818Y0065641D02*
X0054900Y0065641D01*
X0054614Y0067436D02*
X0055916Y0067436D01*
X0055212Y0068035D02*
X0111752Y0068035D01*
X0111371Y0068633D02*
X0055811Y0068633D01*
X0056100Y0069232D02*
X0111123Y0069232D01*
X0110900Y0069830D02*
X0056100Y0069830D01*
X0056100Y0070429D02*
X0110900Y0070429D01*
X0110900Y0071027D02*
X0056100Y0071027D01*
X0056100Y0071626D02*
X0110993Y0071626D01*
X0111241Y0072224D02*
X0056100Y0072224D01*
X0056100Y0072823D02*
X0111489Y0072823D01*
X0112038Y0073421D02*
X0056100Y0073421D01*
X0056100Y0074020D02*
X0075030Y0074020D01*
X0074431Y0074618D02*
X0056100Y0074618D01*
X0056100Y0075217D02*
X0074154Y0075217D01*
X0074000Y0075815D02*
X0056100Y0075815D01*
X0056100Y0076414D02*
X0074000Y0076414D01*
X0074178Y0077012D02*
X0056100Y0077012D01*
X0056100Y0077611D02*
X0074490Y0077611D01*
X0075096Y0078209D02*
X0056100Y0078209D01*
X0056100Y0078808D02*
X0076960Y0078808D01*
X0078569Y0074618D02*
X0114023Y0074618D01*
X0112636Y0074020D02*
X0077970Y0074020D01*
X0069483Y0066838D02*
X0113333Y0066838D01*
X0112351Y0067436D02*
X0068884Y0067436D01*
X0065916Y0067436D02*
X0058884Y0067436D01*
X0059483Y0066838D02*
X0065317Y0066838D01*
X0065048Y0066239D02*
X0059752Y0066239D01*
X0059900Y0065641D02*
X0064900Y0065641D01*
X0064900Y0065042D02*
X0059900Y0065042D01*
X0059716Y0064444D02*
X0065084Y0064444D01*
X0065404Y0063845D02*
X0059396Y0063845D01*
X0058770Y0063247D02*
X0066030Y0063247D01*
X0065839Y0057860D02*
X0058961Y0057860D01*
X0059536Y0057261D02*
X0065264Y0057261D01*
X0065016Y0056663D02*
X0059784Y0056663D01*
X0059900Y0056064D02*
X0064900Y0056064D01*
X0064900Y0055466D02*
X0059900Y0055466D01*
X0059684Y0054867D02*
X0065116Y0054867D01*
X0065481Y0054269D02*
X0059319Y0054269D01*
X0058586Y0053670D02*
X0066214Y0053670D01*
X0068586Y0053670D02*
X0112287Y0053670D01*
X0113180Y0054269D02*
X0069319Y0054269D01*
X0070513Y0048882D02*
X0066987Y0048882D01*
X0067837Y0048284D02*
X0069663Y0048284D01*
X0069250Y0047685D02*
X0068250Y0047685D01*
X0068498Y0047087D02*
X0069002Y0047087D01*
X0069000Y0046488D02*
X0068500Y0046488D01*
X0068418Y0045890D02*
X0069082Y0045890D01*
X0069330Y0045291D02*
X0068170Y0045291D01*
X0067643Y0044693D02*
X0069857Y0044693D01*
X0072487Y0048882D02*
X0075513Y0048882D01*
X0074663Y0048284D02*
X0073337Y0048284D01*
X0073750Y0047685D02*
X0074250Y0047685D01*
X0074002Y0047087D02*
X0073998Y0047087D01*
X0074000Y0047082D02*
X0074000Y0046348D01*
X0074000Y0046348D01*
X0074000Y0047082D01*
X0074000Y0046488D02*
X0074000Y0046488D01*
X0075673Y0043496D02*
X0115809Y0043496D01*
X0115809Y0044094D02*
X0077019Y0044094D01*
X0078143Y0044693D02*
X0116022Y0044693D01*
X0116384Y0045291D02*
X0078670Y0045291D01*
X0075075Y0042897D02*
X0115931Y0042897D01*
X0116178Y0042299D02*
X0074476Y0042299D01*
X0073878Y0041700D02*
X0116763Y0041700D01*
X0117151Y0039905D02*
X0111234Y0039905D01*
X0111902Y0039306D02*
X0116399Y0039306D01*
X0116028Y0038708D02*
X0112501Y0038708D01*
X0112906Y0038109D02*
X0115809Y0038109D01*
X0115809Y0037511D02*
X0113154Y0037511D01*
X0113402Y0036912D02*
X0115924Y0036912D01*
X0116172Y0036314D02*
X0113537Y0036314D01*
X0113537Y0035715D02*
X0116748Y0035715D01*
X0119449Y0039905D02*
X0119642Y0039905D01*
X0119642Y0040503D02*
X0109789Y0040503D01*
X0107211Y0040503D02*
X0072681Y0040503D01*
X0073279Y0041102D02*
X0119642Y0041102D01*
X0119642Y0045890D02*
X0119485Y0045890D01*
X0119642Y0046488D02*
X0115823Y0046488D01*
X0116245Y0056663D02*
X0119642Y0056663D01*
X0119642Y0057261D02*
X0117475Y0057261D01*
X0118073Y0057860D02*
X0119642Y0057860D01*
X0119642Y0058459D02*
X0118557Y0058459D01*
X0118805Y0059057D02*
X0119642Y0059057D01*
X0119642Y0059656D02*
X0119053Y0059656D01*
X0119100Y0060254D02*
X0119642Y0060254D01*
X0119642Y0060853D02*
X0119100Y0060853D01*
X0119079Y0061451D02*
X0119642Y0061451D01*
X0119642Y0062050D02*
X0118831Y0062050D01*
X0118583Y0062648D02*
X0119642Y0062648D01*
X0119642Y0063247D02*
X0118137Y0063247D01*
X0117538Y0063845D02*
X0119642Y0063845D01*
X0119642Y0064444D02*
X0116398Y0064444D01*
X0065013Y0048882D02*
X0061487Y0048882D01*
X0062337Y0048284D02*
X0064163Y0048284D01*
X0063750Y0047685D02*
X0062750Y0047685D01*
X0062998Y0047087D02*
X0063502Y0047087D01*
X0063500Y0046488D02*
X0063000Y0046488D01*
X0062918Y0045890D02*
X0063582Y0045890D01*
X0063830Y0045291D02*
X0062670Y0045291D01*
X0062143Y0044693D02*
X0064357Y0044693D01*
X0037438Y0088384D02*
X0014493Y0088384D01*
X0014201Y0088983D02*
X0036840Y0088983D01*
X0036241Y0089581D02*
X0013602Y0089581D01*
X0012836Y0090180D02*
X0035643Y0090180D01*
X0035044Y0090778D02*
X0005469Y0090778D01*
X0005469Y0090180D02*
X0008764Y0090180D01*
X0007998Y0089581D02*
X0005469Y0089581D01*
X0005469Y0088983D02*
X0007399Y0088983D01*
X0007107Y0088384D02*
X0005469Y0088384D01*
X0005469Y0087786D02*
X0006859Y0087786D01*
X0006700Y0087187D02*
X0005469Y0087187D01*
X0005469Y0086589D02*
X0006700Y0086589D01*
X0006700Y0085990D02*
X0005469Y0085990D01*
X0005469Y0085392D02*
X0006857Y0085392D01*
X0007104Y0084793D02*
X0005469Y0084793D01*
X0005469Y0084194D02*
X0007392Y0084194D01*
X0007991Y0083596D02*
X0005469Y0083596D01*
X0005469Y0082997D02*
X0008747Y0082997D01*
X0005469Y0091377D02*
X0034446Y0091377D01*
X0033847Y0091975D02*
X0005469Y0091975D01*
X0005469Y0092574D02*
X0009771Y0092574D01*
X0008415Y0093172D02*
X0005469Y0093172D01*
X0005469Y0093771D02*
X0007816Y0093771D01*
X0007280Y0094369D02*
X0005469Y0094369D01*
X0005469Y0094968D02*
X0007032Y0094968D01*
X0006784Y0095566D02*
X0005469Y0095566D01*
X0005469Y0096165D02*
X0006700Y0096165D01*
X0006700Y0096763D02*
X0005469Y0096763D01*
X0005469Y0097362D02*
X0006700Y0097362D01*
X0006932Y0097960D02*
X0005469Y0097960D01*
X0005469Y0098559D02*
X0007180Y0098559D01*
X0007574Y0099157D02*
X0005469Y0099157D01*
X0005469Y0099756D02*
X0008172Y0099756D01*
X0009186Y0100354D02*
X0005469Y0100354D01*
X0005469Y0100953D02*
X0031900Y0100953D01*
X0031900Y0101551D02*
X0005469Y0101551D01*
X0012414Y0100354D02*
X0031900Y0100354D01*
X0031900Y0099756D02*
X0013428Y0099756D01*
X0014026Y0099157D02*
X0031900Y0099157D01*
X0031900Y0098559D02*
X0014420Y0098559D01*
X0014320Y0094369D02*
X0031900Y0094369D01*
X0032052Y0093771D02*
X0013784Y0093771D01*
X0013185Y0093172D02*
X0032650Y0093172D01*
X0033249Y0092574D02*
X0011829Y0092574D01*
X0035100Y0111127D02*
X0035422Y0111127D01*
X0039391Y0112325D02*
X0056498Y0112325D01*
X0055899Y0112923D02*
X0039500Y0112923D01*
X0039500Y0113522D02*
X0055301Y0113522D01*
X0054702Y0114120D02*
X0039277Y0114120D01*
X0038902Y0114719D02*
X0054104Y0114719D01*
X0053505Y0115317D02*
X0038144Y0115317D01*
X0038639Y0126689D02*
X0042134Y0126689D01*
X0058505Y0126689D02*
X0066605Y0126689D01*
X0065410Y0126090D02*
X0059700Y0126090D01*
X0060299Y0125492D02*
X0064812Y0125492D01*
X0064445Y0124893D02*
X0060665Y0124893D01*
X0060913Y0124295D02*
X0064197Y0124295D01*
X0064080Y0123696D02*
X0061030Y0123696D01*
X0061030Y0123098D02*
X0064080Y0123098D01*
X0064135Y0122499D02*
X0060976Y0122499D01*
X0060728Y0121901D02*
X0064382Y0121901D01*
X0064660Y0121302D02*
X0060450Y0121302D01*
X0059852Y0120704D02*
X0065259Y0120704D01*
X0066239Y0120105D02*
X0058871Y0120105D01*
X0043944Y0175767D02*
X0119642Y0175767D01*
X0119642Y0176365D02*
X0044543Y0176365D01*
X0045141Y0176964D02*
X0119642Y0176964D01*
X0119642Y0177562D02*
X0045740Y0177562D01*
X0046338Y0178161D02*
X0119642Y0178161D01*
X0119642Y0178759D02*
X0046937Y0178759D01*
X0047535Y0179358D02*
X0119642Y0179358D01*
X0119642Y0179956D02*
X0048134Y0179956D01*
X0048732Y0180555D02*
X0119642Y0180555D01*
X0119642Y0181153D02*
X0049331Y0181153D01*
X0049930Y0181752D02*
X0119642Y0181752D01*
X0119642Y0182350D02*
X0050528Y0182350D01*
X0051127Y0182949D02*
X0119642Y0182949D01*
X0119642Y0183547D02*
X0051725Y0183547D01*
X0052324Y0184146D02*
X0119642Y0184146D01*
X0119642Y0184744D02*
X0052922Y0184744D01*
X0053521Y0185343D02*
X0119642Y0185343D01*
X0119642Y0185941D02*
X0054119Y0185941D01*
X0054718Y0186540D02*
X0119642Y0186540D01*
X0119642Y0187138D02*
X0055316Y0187138D01*
X0055915Y0187737D02*
X0119642Y0187737D01*
X0119642Y0188335D02*
X0056513Y0188335D01*
X0057112Y0188934D02*
X0119642Y0188934D01*
X0119642Y0189532D02*
X0057710Y0189532D01*
X0058309Y0190131D02*
X0119642Y0190131D01*
X0119642Y0190730D02*
X0058907Y0190730D01*
X0059506Y0191328D02*
X0119642Y0191328D01*
X0119642Y0191927D02*
X0060104Y0191927D01*
X0060703Y0192525D02*
X0119642Y0192525D01*
X0119642Y0193124D02*
X0061301Y0193124D01*
X0061900Y0193722D02*
X0119642Y0193722D01*
X0119642Y0194321D02*
X0062498Y0194321D01*
X0063097Y0194919D02*
X0119642Y0194919D01*
X0119642Y0195518D02*
X0063695Y0195518D01*
X0064100Y0196116D02*
X0119642Y0196116D01*
X0119642Y0196715D02*
X0064100Y0196715D01*
X0064100Y0197313D02*
X0119642Y0197313D01*
X0119642Y0197912D02*
X0064100Y0197912D01*
X0064100Y0198510D02*
X0119642Y0198510D01*
X0119642Y0199109D02*
X0064100Y0199109D01*
X0064100Y0199707D02*
X0119642Y0199707D01*
X0119642Y0200306D02*
X0064100Y0200306D01*
X0064100Y0200904D02*
X0119642Y0200904D01*
X0119642Y0201503D02*
X0064100Y0201503D01*
X0064100Y0202101D02*
X0119642Y0202101D01*
X0119642Y0202700D02*
X0064100Y0202700D01*
X0064100Y0203298D02*
X0119642Y0203298D01*
X0119642Y0203897D02*
X0064100Y0203897D01*
X0064100Y0204495D02*
X0119642Y0204495D01*
X0119642Y0205094D02*
X0064100Y0205094D01*
X0064100Y0205692D02*
X0119642Y0205692D01*
X0119642Y0206291D02*
X0064100Y0206291D01*
X0064100Y0206889D02*
X0119642Y0206889D01*
X0119642Y0207488D02*
X0064100Y0207488D01*
X0064100Y0208086D02*
X0090641Y0208086D01*
X0090043Y0208685D02*
X0064100Y0208685D01*
X0064100Y0209283D02*
X0089704Y0209283D01*
X0089456Y0209882D02*
X0064100Y0209882D01*
X0064100Y0210480D02*
X0065621Y0210480D01*
X0064909Y0211079D02*
X0064100Y0211079D01*
X0064100Y0211677D02*
X0064345Y0211677D01*
X0064119Y0215268D02*
X0064100Y0215268D01*
X0064100Y0215867D02*
X0064366Y0215867D01*
X0064100Y0216465D02*
X0064960Y0216465D01*
X0065746Y0217064D02*
X0064100Y0217064D01*
X0060900Y0217064D02*
X0059365Y0217064D01*
X0060150Y0216465D02*
X0060900Y0216465D01*
X0060900Y0215867D02*
X0060744Y0215867D01*
X0060900Y0217663D02*
X0052840Y0217663D01*
X0053439Y0218261D02*
X0060900Y0218261D01*
X0060900Y0218860D02*
X0054037Y0218860D01*
X0054636Y0219458D02*
X0060900Y0219458D01*
X0060900Y0220057D02*
X0055234Y0220057D01*
X0055833Y0220655D02*
X0060900Y0220655D01*
X0060900Y0221254D02*
X0056431Y0221254D01*
X0057030Y0221852D02*
X0061004Y0221852D01*
X0061603Y0222451D02*
X0057628Y0222451D01*
X0058227Y0223049D02*
X0062201Y0223049D01*
X0061837Y0222685D02*
X0061837Y0222685D01*
X0062800Y0223648D02*
X0058825Y0223648D01*
X0059424Y0224246D02*
X0063398Y0224246D01*
X0063997Y0224845D02*
X0060022Y0224845D01*
X0060621Y0225443D02*
X0064595Y0225443D01*
X0065194Y0226042D02*
X0061219Y0226042D01*
X0061818Y0226640D02*
X0065792Y0226640D01*
X0066391Y0227239D02*
X0062416Y0227239D01*
X0063015Y0227837D02*
X0066989Y0227837D01*
X0067588Y0228436D02*
X0063613Y0228436D01*
X0064212Y0229034D02*
X0068186Y0229034D01*
X0068785Y0229633D02*
X0064810Y0229633D01*
X0065409Y0230231D02*
X0069383Y0230231D01*
X0069982Y0230830D02*
X0066007Y0230830D01*
X0066606Y0231428D02*
X0070581Y0231428D01*
X0071179Y0232027D02*
X0067204Y0232027D01*
X0067803Y0232625D02*
X0071778Y0232625D01*
X0072376Y0233224D02*
X0068402Y0233224D01*
X0069000Y0233822D02*
X0072975Y0233822D01*
X0073573Y0234421D02*
X0069599Y0234421D01*
X0070197Y0235019D02*
X0074172Y0235019D01*
X0074400Y0235618D02*
X0070796Y0235618D01*
X0071394Y0236216D02*
X0074400Y0236216D01*
X0074400Y0236815D02*
X0073052Y0236815D01*
X0073864Y0237413D02*
X0074400Y0237413D01*
X0074400Y0238012D02*
X0074261Y0238012D01*
X0055746Y0217064D02*
X0052242Y0217064D01*
X0051643Y0216465D02*
X0054960Y0216465D01*
X0054366Y0215867D02*
X0051600Y0215867D01*
X0051600Y0215268D02*
X0054118Y0215268D01*
X0053871Y0214670D02*
X0051600Y0214670D01*
X0051600Y0214071D02*
X0053798Y0214071D01*
X0053798Y0213473D02*
X0051600Y0213473D01*
X0051600Y0212874D02*
X0053849Y0212874D01*
X0054097Y0212276D02*
X0051600Y0212276D01*
X0051600Y0211677D02*
X0054345Y0211677D01*
X0054909Y0211079D02*
X0051600Y0211079D01*
X0051600Y0210480D02*
X0055621Y0210480D01*
X0059489Y0210480D02*
X0060900Y0210480D01*
X0060900Y0209882D02*
X0051600Y0209882D01*
X0051600Y0209283D02*
X0060900Y0209283D01*
X0060900Y0208685D02*
X0051600Y0208685D01*
X0051600Y0208086D02*
X0060900Y0208086D01*
X0060900Y0207488D02*
X0051600Y0207488D01*
X0051600Y0206889D02*
X0060900Y0206889D01*
X0060900Y0206291D02*
X0051600Y0206291D01*
X0051600Y0205692D02*
X0060900Y0205692D01*
X0060900Y0205094D02*
X0051600Y0205094D01*
X0051600Y0204495D02*
X0060900Y0204495D01*
X0060900Y0203897D02*
X0051600Y0203897D01*
X0051600Y0203298D02*
X0060900Y0203298D01*
X0060900Y0202700D02*
X0051600Y0202700D01*
X0051600Y0202101D02*
X0060900Y0202101D01*
X0060900Y0201503D02*
X0051600Y0201503D01*
X0051600Y0200904D02*
X0060900Y0200904D01*
X0060900Y0200306D02*
X0051600Y0200306D01*
X0051600Y0199707D02*
X0060900Y0199707D01*
X0060900Y0199109D02*
X0051600Y0199109D01*
X0051600Y0198510D02*
X0060900Y0198510D01*
X0060900Y0197912D02*
X0051600Y0197912D01*
X0051600Y0197313D02*
X0060900Y0197313D01*
X0060367Y0196715D02*
X0051600Y0196715D01*
X0051600Y0196116D02*
X0059768Y0196116D01*
X0059170Y0195518D02*
X0051600Y0195518D01*
X0051600Y0194919D02*
X0058571Y0194919D01*
X0057973Y0194321D02*
X0051600Y0194321D01*
X0051600Y0193722D02*
X0057374Y0193722D01*
X0056776Y0193124D02*
X0051600Y0193124D01*
X0051600Y0192525D02*
X0056177Y0192525D01*
X0055579Y0191927D02*
X0051600Y0191927D01*
X0051506Y0191328D02*
X0054980Y0191328D01*
X0054382Y0190730D02*
X0050907Y0190730D01*
X0050309Y0190131D02*
X0053783Y0190131D01*
X0053185Y0189532D02*
X0049710Y0189532D01*
X0049112Y0188934D02*
X0052586Y0188934D01*
X0051988Y0188335D02*
X0048513Y0188335D01*
X0047915Y0187737D02*
X0051389Y0187737D01*
X0050791Y0187138D02*
X0047316Y0187138D01*
X0046718Y0186540D02*
X0050192Y0186540D01*
X0049594Y0185941D02*
X0046119Y0185941D01*
X0043010Y0179358D02*
X0042546Y0179358D01*
X0063163Y0194985D02*
X0063163Y0194985D01*
X0060900Y0211079D02*
X0060201Y0211079D01*
X0060765Y0211677D02*
X0060900Y0211677D01*
X0069489Y0210480D02*
X0089419Y0210480D01*
X0089419Y0211079D02*
X0070201Y0211079D01*
X0094359Y0208086D02*
X0119642Y0208086D01*
X0119642Y0208685D02*
X0094957Y0208685D01*
X0095296Y0209283D02*
X0119642Y0209283D01*
X0119642Y0209882D02*
X0095544Y0209882D01*
X0095581Y0210480D02*
X0119642Y0210480D01*
X0119642Y0211079D02*
X0103029Y0211079D01*
X0103623Y0211677D02*
X0119642Y0211677D01*
X0119642Y0212276D02*
X0103871Y0212276D01*
X0104000Y0212874D02*
X0119642Y0212874D01*
X0119642Y0213473D02*
X0104000Y0213473D01*
X0103797Y0214071D02*
X0119642Y0214071D01*
X0119642Y0214670D02*
X0103451Y0214670D01*
X0102762Y0215268D02*
X0119642Y0215268D01*
X0099971Y0211079D02*
X0095581Y0211079D01*
X0095382Y0211677D02*
X0099377Y0211677D01*
X0099129Y0212276D02*
X0095135Y0212276D01*
X0094568Y0212874D02*
X0099000Y0212874D01*
X0101484Y0241004D02*
X0107878Y0241004D01*
X0107248Y0241603D02*
X0102114Y0241603D01*
X0102565Y0242201D02*
X0106797Y0242201D01*
X0106550Y0242800D02*
X0102813Y0242800D01*
X0102959Y0243398D02*
X0106403Y0243398D01*
X0106403Y0243997D02*
X0102959Y0243997D01*
X0102902Y0244596D02*
X0106460Y0244596D01*
X0106708Y0245194D02*
X0102654Y0245194D01*
X0102330Y0245793D02*
X0107032Y0245793D01*
X0107631Y0246391D02*
X0101731Y0246391D01*
X0111731Y0246391D02*
X0119642Y0246391D01*
X0119642Y0245793D02*
X0112330Y0245793D01*
X0112654Y0245194D02*
X0119642Y0245194D01*
X0119642Y0244596D02*
X0112902Y0244596D01*
X0112959Y0243997D02*
X0119642Y0243997D01*
X0119642Y0243398D02*
X0112959Y0243398D01*
X0112813Y0242800D02*
X0119642Y0242800D01*
X0119642Y0242201D02*
X0112565Y0242201D01*
X0112114Y0241603D02*
X0119642Y0241603D01*
X0119642Y0241004D02*
X0111484Y0241004D01*
X0119642Y0254172D02*
X0005469Y0254172D01*
X0005469Y0254770D02*
X0119642Y0254770D01*
X0119642Y0255369D02*
X0005469Y0255369D01*
X0005469Y0255967D02*
X0119642Y0255967D01*
X0119642Y0256566D02*
X0005469Y0256566D01*
X0005469Y0257164D02*
X0119642Y0257164D01*
X0119642Y0257763D02*
X0005469Y0257763D01*
X0005469Y0258361D02*
X0018836Y0258361D01*
X0018090Y0258960D02*
X0005469Y0258960D01*
X0005469Y0259558D02*
X0017719Y0259558D01*
X0017500Y0260157D02*
X0005469Y0260157D01*
X0005469Y0260755D02*
X0017500Y0260755D01*
X0017612Y0261354D02*
X0005469Y0261354D01*
X0005469Y0261952D02*
X0017860Y0261952D01*
X0021164Y0258361D02*
X0042336Y0258361D01*
X0041590Y0258960D02*
X0021910Y0258960D01*
X0022281Y0259558D02*
X0041219Y0259558D01*
X0041000Y0260157D02*
X0022500Y0260157D01*
X0022500Y0260755D02*
X0041000Y0260755D01*
X0041112Y0261354D02*
X0022388Y0261354D01*
X0022140Y0261952D02*
X0041360Y0261952D01*
X0044664Y0258361D02*
X0119642Y0258361D01*
X0119642Y0258960D02*
X0045410Y0258960D01*
X0045781Y0259558D02*
X0119642Y0259558D01*
X0119642Y0260157D02*
X0046000Y0260157D01*
X0046000Y0260755D02*
X0119642Y0260755D01*
X0119642Y0261354D02*
X0045888Y0261354D01*
X0045640Y0261952D02*
X0119642Y0261952D01*
D20*
X0076000Y0241585D02*
X0076000Y0234585D01*
X0062500Y0221085D01*
X0062500Y0196585D01*
X0043000Y0177085D01*
X0041500Y0177085D01*
X0045000Y0187085D02*
X0036000Y0187085D01*
X0033500Y0189585D01*
X0033500Y0203085D01*
X0037000Y0198085D02*
X0037000Y0228085D01*
X0014000Y0251085D01*
X0045500Y0229585D02*
X0047500Y0231585D01*
X0054000Y0231585D01*
X0065000Y0242585D01*
X0072000Y0239085D02*
X0050000Y0217085D01*
X0050000Y0192085D01*
X0045000Y0187085D01*
X0045500Y0194085D02*
X0045500Y0229585D01*
X0042500Y0128585D02*
X0037000Y0128585D01*
X0042500Y0128585D02*
X0059000Y0112085D01*
X0059000Y0102085D01*
X0054500Y0097585D01*
X0054500Y0069585D01*
X0052000Y0067085D01*
X0048000Y0067085D01*
X0047110Y0067975D01*
X0042673Y0067975D01*
X0042500Y0068148D01*
X0042500Y0082085D01*
X0038000Y0086585D01*
X0020000Y0086585D01*
X0033500Y0094585D02*
X0033500Y0096585D01*
X0033500Y0112085D01*
X0034500Y0113085D01*
X0037000Y0113085D01*
X0033500Y0094585D02*
X0043500Y0084585D01*
X0045500Y0084585D01*
X0048000Y0082085D01*
X0048000Y0072085D01*
X0038000Y0073085D02*
X0033500Y0068585D01*
X0033500Y0032585D01*
X0037500Y0038585D02*
X0037500Y0015585D01*
X0036500Y0014585D01*
X0037500Y0038585D02*
X0040500Y0041585D01*
X0071500Y0041585D01*
X0076500Y0046585D01*
X0062000Y0036085D02*
X0062000Y0032085D01*
X0076500Y0076085D02*
X0078000Y0077585D01*
X0093500Y0077585D01*
X0098500Y0082585D01*
X0108000Y0082585D01*
X0116500Y0091085D01*
X0116500Y0102085D01*
X0115200Y0103385D01*
X0111000Y0103385D01*
X0106000Y0108385D02*
X0092700Y0108385D01*
X0091500Y0109585D01*
X0088000Y0109585D01*
D21*
X0033500Y0096585D02*
X0010800Y0096585D01*
X0010800Y0086585D02*
X0020000Y0086585D01*
X0033500Y0203085D02*
X0033500Y0216085D01*
X0026500Y0223085D01*
X0026500Y0233585D01*
X0014000Y0246085D01*
X0014500Y0246085D01*
M02*
