G75*
%MOIN*%
%OFA0B0*%
%FSLAX25Y25*%
%IPPOS*%
%LPD*%
%AMOC8*
5,1,8,0,0,1.08239X$1,22.5*
%
%ADD10C,0.08674*%
%ADD11R,0.03000X0.05800*%
%ADD12R,0.01476X0.01378*%
%ADD13R,0.04343X0.03950*%
%ADD14R,0.03162X0.03162*%
%ADD15R,0.03950X0.04343*%
%ADD16R,0.18910X0.04737*%
%ADD17R,0.14186X0.07099*%
%ADD18C,0.05156*%
%ADD19C,0.06115*%
%ADD20C,0.06706*%
%ADD21R,0.03950X0.01981*%
%ADD22R,0.01981X0.03950*%
%ADD23R,0.05524X0.02178*%
%ADD24R,0.02178X0.05524*%
%ADD25R,0.04737X0.04737*%
%ADD26C,0.02769*%
%ADD27R,0.04737X0.08674*%
%ADD28R,0.11824X0.03950*%
%ADD29R,0.03200X0.02600*%
%ADD30C,0.08400*%
%ADD31R,0.06312X0.09068*%
%ADD32R,0.05131X0.06312*%
%ADD33C,0.07400*%
%ADD34R,0.07099X0.08674*%
%ADD35C,0.05000*%
%ADD36C,0.08200*%
%ADD37R,0.02375X0.06115*%
%ADD38C,0.05131*%
%ADD39R,0.06706X0.08280*%
%ADD40C,0.03162*%
%ADD41C,0.04762*%
D10*
X0108500Y0035585D03*
X0011500Y0130585D03*
X0011500Y0190585D03*
X0114500Y0170085D03*
D11*
X0067755Y0225583D03*
X0064055Y0225583D03*
X0060355Y0225583D03*
X0060355Y0235783D03*
X0067755Y0235783D03*
D12*
X0033018Y0260585D03*
X0028982Y0260585D03*
D13*
X0034800Y0252885D03*
X0040800Y0252885D03*
D14*
X0026800Y0252885D03*
X0022800Y0252885D03*
X0027200Y0220285D03*
X0027200Y0216285D03*
X0033200Y0216285D03*
X0033200Y0220285D03*
X0039100Y0220285D03*
X0039100Y0216285D03*
X0078300Y0220985D03*
X0078300Y0224985D03*
X0078300Y0231685D03*
X0078300Y0235685D03*
X0075500Y0098585D03*
X0075500Y0094585D03*
X0070000Y0094585D03*
X0070000Y0098585D03*
X0064500Y0098585D03*
X0064500Y0094585D03*
X0059000Y0094585D03*
X0059000Y0098585D03*
X0053500Y0098585D03*
X0053500Y0094585D03*
X0048000Y0094585D03*
X0048000Y0098585D03*
X0042500Y0098585D03*
X0042500Y0094585D03*
X0037000Y0094585D03*
X0037000Y0098585D03*
X0031500Y0098585D03*
X0031500Y0094585D03*
X0026000Y0094585D03*
X0026000Y0098585D03*
X0020500Y0098585D03*
X0020500Y0094585D03*
X0054000Y0032085D03*
X0058000Y0032085D03*
X0066000Y0032085D03*
X0070000Y0032085D03*
X0086500Y0032085D03*
X0090500Y0032085D03*
X0036500Y0023585D03*
X0036500Y0019585D03*
X0030000Y0019585D03*
X0030000Y0023585D03*
D15*
X0052300Y0229485D03*
X0052300Y0235485D03*
D16*
X0091421Y0225774D03*
X0091421Y0217900D03*
D17*
X0111894Y0208451D03*
X0111894Y0235223D03*
D18*
X0109681Y0243806D03*
X0099681Y0243806D03*
X0089681Y0243806D03*
D19*
X0067555Y0213746D03*
X0057555Y0213746D03*
D20*
X0106000Y0129640D03*
X0116000Y0129640D03*
D21*
X0034122Y0231010D03*
X0034122Y0232979D03*
X0034122Y0234947D03*
X0034122Y0236916D03*
X0034122Y0238884D03*
X0034122Y0240853D03*
X0018374Y0240853D03*
X0018374Y0238884D03*
X0018374Y0236916D03*
X0018374Y0234947D03*
X0018374Y0232979D03*
X0018374Y0231010D03*
D22*
X0021327Y0228057D03*
X0023295Y0228057D03*
X0025264Y0228057D03*
X0027232Y0228057D03*
X0029201Y0228057D03*
X0031169Y0228057D03*
X0031169Y0243806D03*
X0029201Y0243806D03*
X0027232Y0243806D03*
X0025264Y0243806D03*
X0023295Y0243806D03*
X0021327Y0243806D03*
D23*
X0042673Y0078998D03*
X0042673Y0076243D03*
X0042673Y0073487D03*
X0042673Y0070731D03*
X0042673Y0067975D03*
X0042673Y0065219D03*
X0042673Y0062463D03*
X0042673Y0059707D03*
X0042673Y0056951D03*
X0042673Y0054195D03*
X0042673Y0051439D03*
X0042673Y0048683D03*
X0042673Y0045928D03*
X0042673Y0043172D03*
X0082437Y0043172D03*
X0082437Y0045928D03*
X0082437Y0048683D03*
X0082437Y0051439D03*
X0082437Y0054195D03*
X0082437Y0056951D03*
X0082437Y0059707D03*
X0082437Y0062463D03*
X0082437Y0065219D03*
X0082437Y0067975D03*
X0082437Y0070731D03*
X0082437Y0073487D03*
X0082437Y0076243D03*
X0082437Y0078998D03*
D24*
X0079091Y0082935D03*
X0076335Y0082935D03*
X0073579Y0082935D03*
X0070823Y0082935D03*
X0068067Y0082935D03*
X0065311Y0082935D03*
X0062555Y0082935D03*
X0059799Y0082935D03*
X0057043Y0082935D03*
X0054287Y0082935D03*
X0051531Y0082935D03*
X0048776Y0082935D03*
X0046020Y0082935D03*
X0046020Y0039235D03*
X0048776Y0039235D03*
X0051531Y0039235D03*
X0054287Y0039235D03*
X0057043Y0039235D03*
X0059799Y0039235D03*
X0062555Y0039235D03*
X0065311Y0039235D03*
X0068067Y0039235D03*
X0070823Y0039235D03*
X0073579Y0039235D03*
X0076335Y0039235D03*
X0079091Y0039235D03*
D25*
X0082831Y0038841D03*
X0072004Y0051636D03*
X0062555Y0051636D03*
X0053106Y0051636D03*
X0053106Y0061085D03*
X0053106Y0070534D03*
X0062555Y0070534D03*
X0062555Y0061085D03*
X0072004Y0061085D03*
X0072004Y0070534D03*
X0082831Y0083329D03*
X0042280Y0083329D03*
X0042280Y0038841D03*
D26*
X0048776Y0076833D03*
D27*
X0060587Y0013491D03*
X0088146Y0013491D03*
D28*
X0074366Y0016699D03*
X0074366Y0010282D03*
D29*
X0049855Y0010185D03*
X0049855Y0013985D03*
X0049855Y0017785D03*
X0049855Y0021585D03*
D30*
X0115000Y0050585D03*
X0115000Y0060585D03*
X0115000Y0070585D03*
X0115000Y0080585D03*
D31*
X0102909Y0151089D03*
X0085193Y0151089D03*
X0085193Y0186916D03*
X0102909Y0186916D03*
X0039917Y0186916D03*
X0022201Y0186916D03*
X0022201Y0151089D03*
X0039917Y0151089D03*
D32*
X0059012Y0190853D03*
X0066098Y0190853D03*
X0066098Y0202270D03*
X0059012Y0202270D03*
D33*
X0057555Y0123321D03*
X0067555Y0123321D03*
D34*
X0018000Y0018455D03*
X0018000Y0039715D03*
X0018000Y0050455D03*
X0018000Y0071715D03*
D35*
X0106000Y0098385D03*
X0111000Y0098385D03*
X0111000Y0103385D03*
X0106000Y0103385D03*
X0106000Y0108385D03*
X0111000Y0108385D03*
X0111000Y0113385D03*
X0106000Y0113385D03*
D36*
X0010800Y0106585D03*
X0010800Y0096585D03*
X0010800Y0086585D03*
D37*
X0056382Y0247054D03*
X0058941Y0247054D03*
X0061500Y0247054D03*
X0064059Y0247054D03*
X0066618Y0247054D03*
D38*
X0072425Y0255420D02*
X0072425Y0259750D01*
X0050575Y0259750D02*
X0050575Y0255420D01*
D39*
X0057563Y0257546D03*
X0065437Y0257585D03*
D40*
X0069177Y0249317D03*
X0053823Y0249317D03*
D41*
X0092500Y0210585D03*
M02*
