G75*
%MOIN*%
%OFA0B0*%
%FSLAX25Y25*%
%IPPOS*%
%LPD*%
%AMOC8*
5,1,8,0,0,1.08239X$1,22.5*
%
%ADD10C,0.00800*%
%ADD11C,0.00000*%
%ADD12C,0.00600*%
%ADD13C,0.00500*%
%ADD14R,0.01000X0.03000*%
%ADD15C,0.00700*%
%ADD16R,0.10000X0.01933*%
%ADD17C,0.00100*%
D10*
X0003500Y0007585D02*
X0003500Y0263491D01*
X0121610Y0263491D01*
X0121610Y0007585D01*
X0003500Y0007585D01*
X0023035Y0033685D02*
X0023037Y0033732D01*
X0023043Y0033779D01*
X0023053Y0033826D01*
X0023066Y0033871D01*
X0023084Y0033915D01*
X0023105Y0033957D01*
X0023129Y0033998D01*
X0023157Y0034036D01*
X0023188Y0034072D01*
X0023222Y0034105D01*
X0023258Y0034135D01*
X0023297Y0034162D01*
X0023338Y0034186D01*
X0023381Y0034206D01*
X0023425Y0034222D01*
X0023471Y0034235D01*
X0023517Y0034244D01*
X0023565Y0034249D01*
X0023612Y0034250D01*
X0023659Y0034247D01*
X0023706Y0034240D01*
X0023752Y0034229D01*
X0023797Y0034215D01*
X0023841Y0034196D01*
X0023882Y0034174D01*
X0023922Y0034149D01*
X0023960Y0034120D01*
X0023995Y0034089D01*
X0024028Y0034054D01*
X0024057Y0034017D01*
X0024083Y0033978D01*
X0024106Y0033936D01*
X0024125Y0033893D01*
X0024141Y0033848D01*
X0024153Y0033802D01*
X0024161Y0033756D01*
X0024165Y0033709D01*
X0024165Y0033661D01*
X0024161Y0033614D01*
X0024153Y0033568D01*
X0024141Y0033522D01*
X0024125Y0033477D01*
X0024106Y0033434D01*
X0024083Y0033392D01*
X0024057Y0033353D01*
X0024028Y0033316D01*
X0023995Y0033281D01*
X0023960Y0033250D01*
X0023922Y0033221D01*
X0023883Y0033196D01*
X0023841Y0033174D01*
X0023797Y0033155D01*
X0023752Y0033141D01*
X0023706Y0033130D01*
X0023659Y0033123D01*
X0023612Y0033120D01*
X0023565Y0033121D01*
X0023517Y0033126D01*
X0023471Y0033135D01*
X0023425Y0033148D01*
X0023381Y0033164D01*
X0023338Y0033184D01*
X0023297Y0033208D01*
X0023258Y0033235D01*
X0023222Y0033265D01*
X0023188Y0033298D01*
X0023157Y0033334D01*
X0023129Y0033372D01*
X0023105Y0033413D01*
X0023084Y0033455D01*
X0023066Y0033499D01*
X0023053Y0033544D01*
X0023043Y0033591D01*
X0023037Y0033638D01*
X0023035Y0033685D01*
X0034996Y0030928D02*
X0034996Y0082896D01*
X0054287Y0082896D01*
X0064917Y0082896D02*
X0071807Y0082896D01*
X0087358Y0082896D02*
X0090114Y0082896D01*
X0090114Y0035258D01*
X0083815Y0029353D02*
X0050744Y0029353D01*
X0050745Y0029353D02*
X0050619Y0029348D01*
X0050494Y0029339D01*
X0050369Y0029326D01*
X0050245Y0029309D01*
X0050121Y0029289D01*
X0049998Y0029265D01*
X0049876Y0029237D01*
X0049755Y0029205D01*
X0049635Y0029169D01*
X0049516Y0029130D01*
X0049398Y0029087D01*
X0049282Y0029040D01*
X0049167Y0028990D01*
X0049053Y0028936D01*
X0048942Y0028878D01*
X0048832Y0028818D01*
X0048725Y0028753D01*
X0048619Y0028686D01*
X0048515Y0028615D01*
X0048414Y0028541D01*
X0048315Y0028464D01*
X0048218Y0028384D01*
X0048124Y0028301D01*
X0048033Y0028216D01*
X0047944Y0028127D01*
X0047859Y0028036D01*
X0047776Y0027942D01*
X0047696Y0027845D01*
X0047619Y0027746D01*
X0047545Y0027645D01*
X0047474Y0027541D01*
X0047407Y0027435D01*
X0047342Y0027328D01*
X0047282Y0027218D01*
X0047224Y0027107D01*
X0047170Y0026993D01*
X0047120Y0026878D01*
X0047073Y0026762D01*
X0047030Y0026644D01*
X0046991Y0026525D01*
X0046955Y0026405D01*
X0046923Y0026284D01*
X0046895Y0026162D01*
X0046871Y0026039D01*
X0046851Y0025915D01*
X0046834Y0025791D01*
X0046821Y0025666D01*
X0046812Y0025541D01*
X0046807Y0025415D01*
X0046807Y0025416D02*
X0046813Y0025315D01*
X0046815Y0025215D01*
X0046813Y0025114D01*
X0046807Y0025014D01*
X0046797Y0024914D01*
X0046783Y0024814D01*
X0046765Y0024715D01*
X0046743Y0024617D01*
X0046718Y0024520D01*
X0046689Y0024423D01*
X0046656Y0024328D01*
X0046619Y0024235D01*
X0046578Y0024143D01*
X0046534Y0024052D01*
X0046487Y0023963D01*
X0046436Y0023877D01*
X0046382Y0023792D01*
X0046324Y0023709D01*
X0046264Y0023629D01*
X0046200Y0023552D01*
X0046133Y0023476D01*
X0046063Y0023404D01*
X0045991Y0023334D01*
X0045915Y0023267D01*
X0045838Y0023203D01*
X0045758Y0023143D01*
X0045675Y0023085D01*
X0045590Y0023031D01*
X0045504Y0022980D01*
X0045415Y0022933D01*
X0045324Y0022889D01*
X0045232Y0022848D01*
X0045139Y0022811D01*
X0045044Y0022778D01*
X0044947Y0022749D01*
X0044850Y0022724D01*
X0044752Y0022702D01*
X0044653Y0022684D01*
X0044553Y0022670D01*
X0044453Y0022660D01*
X0044353Y0022654D01*
X0044252Y0022652D01*
X0044152Y0022654D01*
X0044051Y0022660D01*
X0040902Y0022660D01*
X0013300Y0081585D02*
X0008300Y0081585D01*
X0005800Y0084085D01*
X0005800Y0089085D01*
X0008300Y0091585D01*
X0005800Y0094085D01*
X0005800Y0099085D01*
X0008300Y0101585D01*
X0005800Y0104085D01*
X0005800Y0109085D01*
X0008300Y0111585D01*
X0013300Y0111585D01*
X0015800Y0109085D01*
X0015800Y0104085D01*
X0013300Y0101585D01*
X0015800Y0099085D01*
X0015800Y0094085D01*
X0013300Y0091585D01*
X0015800Y0089085D01*
X0015800Y0084085D01*
X0013300Y0081585D01*
X0053393Y0131397D02*
X0061718Y0131397D01*
X0061718Y0135773D01*
X0053393Y0135773D01*
X0053393Y0131397D01*
X0053393Y0137398D02*
X0061718Y0137397D01*
X0061718Y0141773D01*
X0053393Y0141773D01*
X0053393Y0137398D01*
X0058393Y0144398D02*
X0066718Y0144397D01*
X0066718Y0148773D01*
X0058393Y0148773D01*
X0058393Y0144398D01*
X0063393Y0141773D02*
X0063393Y0137397D01*
X0071718Y0137397D01*
X0071718Y0141773D01*
X0063393Y0141773D01*
X0066718Y0150397D02*
X0058393Y0150397D01*
X0058393Y0154773D01*
X0066718Y0154773D01*
X0066718Y0150397D01*
X0064246Y0156485D02*
X0060865Y0156485D01*
X0059365Y0161028D02*
X0059365Y0163142D01*
X0060865Y0167685D02*
X0064246Y0167685D01*
X0063393Y0169897D02*
X0063393Y0174273D01*
X0071718Y0174272D01*
X0071718Y0169897D01*
X0063393Y0169897D01*
X0061718Y0169897D02*
X0061718Y0174273D01*
X0053393Y0174273D01*
X0053393Y0169898D01*
X0061718Y0169897D01*
X0061718Y0175897D02*
X0061718Y0180273D01*
X0053393Y0180273D01*
X0053393Y0175897D01*
X0061718Y0175897D01*
X0063393Y0175897D02*
X0063393Y0180273D01*
X0071718Y0180273D01*
X0071718Y0175897D01*
X0063393Y0175897D01*
X0068250Y0192585D02*
X0056750Y0192585D01*
X0056750Y0197585D01*
X0068250Y0197585D01*
X0068250Y0192585D01*
X0068305Y0199585D02*
X0068305Y0204585D01*
X0056805Y0204585D01*
X0056805Y0199585D01*
X0068305Y0199585D01*
X0054163Y0221397D02*
X0054163Y0225772D01*
X0045837Y0225773D01*
X0045837Y0221397D01*
X0054163Y0221397D01*
X0052188Y0227607D02*
X0047812Y0227607D01*
X0047813Y0235933D01*
X0052188Y0235933D01*
X0052188Y0227607D01*
X0036965Y0241837D02*
X0036965Y0253648D01*
X0025154Y0250498D02*
X0025154Y0244987D01*
X0021337Y0236273D02*
X0021337Y0231897D01*
X0029663Y0231897D01*
X0029663Y0236272D01*
X0021337Y0236273D01*
X0019500Y0226085D02*
X0009500Y0226085D01*
X0009500Y0216585D01*
X0019500Y0216585D01*
X0019500Y0226018D02*
X0019500Y0206585D01*
X0009500Y0206585D01*
X0009500Y0216585D01*
X0019500Y0226018D02*
X0019500Y0226085D01*
X0021337Y0204773D02*
X0021337Y0200398D01*
X0029663Y0200397D01*
X0029663Y0204773D01*
X0021337Y0204773D01*
X0021337Y0198773D02*
X0021337Y0194398D01*
X0029663Y0194397D01*
X0029663Y0198773D01*
X0021337Y0198773D01*
X0077000Y0227520D02*
X0082000Y0227520D01*
X0082000Y0239020D01*
X0077000Y0239020D01*
X0077000Y0227520D01*
X0093400Y0224635D02*
X0098400Y0224635D01*
X0098400Y0236135D01*
X0093400Y0236135D01*
X0093400Y0224635D01*
X0100012Y0227822D02*
X0104388Y0227822D01*
X0104388Y0236148D01*
X0100012Y0236148D01*
X0100012Y0227822D01*
X0109337Y0206673D02*
X0109337Y0202298D01*
X0117663Y0202297D01*
X0117663Y0206673D01*
X0109337Y0206673D01*
X0106150Y0200585D02*
X0106150Y0195585D01*
X0117650Y0195585D01*
X0117650Y0200585D01*
X0106150Y0200585D01*
X0094256Y0105097D02*
X0091106Y0105097D01*
X0094256Y0105097D02*
X0094256Y0102735D01*
X0094256Y0096435D02*
X0094256Y0094073D01*
X0091106Y0094073D01*
D11*
X0104563Y0035585D02*
X0104565Y0035710D01*
X0104571Y0035835D01*
X0104581Y0035959D01*
X0104595Y0036083D01*
X0104612Y0036207D01*
X0104634Y0036330D01*
X0104660Y0036452D01*
X0104689Y0036574D01*
X0104722Y0036694D01*
X0104760Y0036813D01*
X0104800Y0036932D01*
X0104845Y0037048D01*
X0104893Y0037163D01*
X0104945Y0037277D01*
X0105001Y0037389D01*
X0105060Y0037499D01*
X0105122Y0037607D01*
X0105188Y0037714D01*
X0105257Y0037818D01*
X0105330Y0037919D01*
X0105405Y0038019D01*
X0105484Y0038116D01*
X0105566Y0038210D01*
X0105651Y0038302D01*
X0105738Y0038391D01*
X0105829Y0038477D01*
X0105922Y0038560D01*
X0106018Y0038641D01*
X0106116Y0038718D01*
X0106216Y0038792D01*
X0106319Y0038863D01*
X0106424Y0038930D01*
X0106532Y0038995D01*
X0106641Y0039055D01*
X0106752Y0039113D01*
X0106865Y0039166D01*
X0106979Y0039216D01*
X0107095Y0039263D01*
X0107212Y0039305D01*
X0107331Y0039344D01*
X0107451Y0039380D01*
X0107572Y0039411D01*
X0107694Y0039439D01*
X0107816Y0039462D01*
X0107940Y0039482D01*
X0108064Y0039498D01*
X0108188Y0039510D01*
X0108313Y0039518D01*
X0108438Y0039522D01*
X0108562Y0039522D01*
X0108687Y0039518D01*
X0108812Y0039510D01*
X0108936Y0039498D01*
X0109060Y0039482D01*
X0109184Y0039462D01*
X0109306Y0039439D01*
X0109428Y0039411D01*
X0109549Y0039380D01*
X0109669Y0039344D01*
X0109788Y0039305D01*
X0109905Y0039263D01*
X0110021Y0039216D01*
X0110135Y0039166D01*
X0110248Y0039113D01*
X0110359Y0039055D01*
X0110469Y0038995D01*
X0110576Y0038930D01*
X0110681Y0038863D01*
X0110784Y0038792D01*
X0110884Y0038718D01*
X0110982Y0038641D01*
X0111078Y0038560D01*
X0111171Y0038477D01*
X0111262Y0038391D01*
X0111349Y0038302D01*
X0111434Y0038210D01*
X0111516Y0038116D01*
X0111595Y0038019D01*
X0111670Y0037919D01*
X0111743Y0037818D01*
X0111812Y0037714D01*
X0111878Y0037607D01*
X0111940Y0037499D01*
X0111999Y0037389D01*
X0112055Y0037277D01*
X0112107Y0037163D01*
X0112155Y0037048D01*
X0112200Y0036932D01*
X0112240Y0036813D01*
X0112278Y0036694D01*
X0112311Y0036574D01*
X0112340Y0036452D01*
X0112366Y0036330D01*
X0112388Y0036207D01*
X0112405Y0036083D01*
X0112419Y0035959D01*
X0112429Y0035835D01*
X0112435Y0035710D01*
X0112437Y0035585D01*
X0112435Y0035460D01*
X0112429Y0035335D01*
X0112419Y0035211D01*
X0112405Y0035087D01*
X0112388Y0034963D01*
X0112366Y0034840D01*
X0112340Y0034718D01*
X0112311Y0034596D01*
X0112278Y0034476D01*
X0112240Y0034357D01*
X0112200Y0034238D01*
X0112155Y0034122D01*
X0112107Y0034007D01*
X0112055Y0033893D01*
X0111999Y0033781D01*
X0111940Y0033671D01*
X0111878Y0033563D01*
X0111812Y0033456D01*
X0111743Y0033352D01*
X0111670Y0033251D01*
X0111595Y0033151D01*
X0111516Y0033054D01*
X0111434Y0032960D01*
X0111349Y0032868D01*
X0111262Y0032779D01*
X0111171Y0032693D01*
X0111078Y0032610D01*
X0110982Y0032529D01*
X0110884Y0032452D01*
X0110784Y0032378D01*
X0110681Y0032307D01*
X0110576Y0032240D01*
X0110468Y0032175D01*
X0110359Y0032115D01*
X0110248Y0032057D01*
X0110135Y0032004D01*
X0110021Y0031954D01*
X0109905Y0031907D01*
X0109788Y0031865D01*
X0109669Y0031826D01*
X0109549Y0031790D01*
X0109428Y0031759D01*
X0109306Y0031731D01*
X0109184Y0031708D01*
X0109060Y0031688D01*
X0108936Y0031672D01*
X0108812Y0031660D01*
X0108687Y0031652D01*
X0108562Y0031648D01*
X0108438Y0031648D01*
X0108313Y0031652D01*
X0108188Y0031660D01*
X0108064Y0031672D01*
X0107940Y0031688D01*
X0107816Y0031708D01*
X0107694Y0031731D01*
X0107572Y0031759D01*
X0107451Y0031790D01*
X0107331Y0031826D01*
X0107212Y0031865D01*
X0107095Y0031907D01*
X0106979Y0031954D01*
X0106865Y0032004D01*
X0106752Y0032057D01*
X0106641Y0032115D01*
X0106531Y0032175D01*
X0106424Y0032240D01*
X0106319Y0032307D01*
X0106216Y0032378D01*
X0106116Y0032452D01*
X0106018Y0032529D01*
X0105922Y0032610D01*
X0105829Y0032693D01*
X0105738Y0032779D01*
X0105651Y0032868D01*
X0105566Y0032960D01*
X0105484Y0033054D01*
X0105405Y0033151D01*
X0105330Y0033251D01*
X0105257Y0033352D01*
X0105188Y0033456D01*
X0105122Y0033563D01*
X0105060Y0033671D01*
X0105001Y0033781D01*
X0104945Y0033893D01*
X0104893Y0034007D01*
X0104845Y0034122D01*
X0104800Y0034238D01*
X0104760Y0034357D01*
X0104722Y0034476D01*
X0104689Y0034596D01*
X0104660Y0034718D01*
X0104634Y0034840D01*
X0104612Y0034963D01*
X0104595Y0035087D01*
X0104581Y0035211D01*
X0104571Y0035335D01*
X0104565Y0035460D01*
X0104563Y0035585D01*
X0007563Y0130585D02*
X0007565Y0130710D01*
X0007571Y0130835D01*
X0007581Y0130959D01*
X0007595Y0131083D01*
X0007612Y0131207D01*
X0007634Y0131330D01*
X0007660Y0131452D01*
X0007689Y0131574D01*
X0007722Y0131694D01*
X0007760Y0131813D01*
X0007800Y0131932D01*
X0007845Y0132048D01*
X0007893Y0132163D01*
X0007945Y0132277D01*
X0008001Y0132389D01*
X0008060Y0132499D01*
X0008122Y0132607D01*
X0008188Y0132714D01*
X0008257Y0132818D01*
X0008330Y0132919D01*
X0008405Y0133019D01*
X0008484Y0133116D01*
X0008566Y0133210D01*
X0008651Y0133302D01*
X0008738Y0133391D01*
X0008829Y0133477D01*
X0008922Y0133560D01*
X0009018Y0133641D01*
X0009116Y0133718D01*
X0009216Y0133792D01*
X0009319Y0133863D01*
X0009424Y0133930D01*
X0009532Y0133995D01*
X0009641Y0134055D01*
X0009752Y0134113D01*
X0009865Y0134166D01*
X0009979Y0134216D01*
X0010095Y0134263D01*
X0010212Y0134305D01*
X0010331Y0134344D01*
X0010451Y0134380D01*
X0010572Y0134411D01*
X0010694Y0134439D01*
X0010816Y0134462D01*
X0010940Y0134482D01*
X0011064Y0134498D01*
X0011188Y0134510D01*
X0011313Y0134518D01*
X0011438Y0134522D01*
X0011562Y0134522D01*
X0011687Y0134518D01*
X0011812Y0134510D01*
X0011936Y0134498D01*
X0012060Y0134482D01*
X0012184Y0134462D01*
X0012306Y0134439D01*
X0012428Y0134411D01*
X0012549Y0134380D01*
X0012669Y0134344D01*
X0012788Y0134305D01*
X0012905Y0134263D01*
X0013021Y0134216D01*
X0013135Y0134166D01*
X0013248Y0134113D01*
X0013359Y0134055D01*
X0013469Y0133995D01*
X0013576Y0133930D01*
X0013681Y0133863D01*
X0013784Y0133792D01*
X0013884Y0133718D01*
X0013982Y0133641D01*
X0014078Y0133560D01*
X0014171Y0133477D01*
X0014262Y0133391D01*
X0014349Y0133302D01*
X0014434Y0133210D01*
X0014516Y0133116D01*
X0014595Y0133019D01*
X0014670Y0132919D01*
X0014743Y0132818D01*
X0014812Y0132714D01*
X0014878Y0132607D01*
X0014940Y0132499D01*
X0014999Y0132389D01*
X0015055Y0132277D01*
X0015107Y0132163D01*
X0015155Y0132048D01*
X0015200Y0131932D01*
X0015240Y0131813D01*
X0015278Y0131694D01*
X0015311Y0131574D01*
X0015340Y0131452D01*
X0015366Y0131330D01*
X0015388Y0131207D01*
X0015405Y0131083D01*
X0015419Y0130959D01*
X0015429Y0130835D01*
X0015435Y0130710D01*
X0015437Y0130585D01*
X0015435Y0130460D01*
X0015429Y0130335D01*
X0015419Y0130211D01*
X0015405Y0130087D01*
X0015388Y0129963D01*
X0015366Y0129840D01*
X0015340Y0129718D01*
X0015311Y0129596D01*
X0015278Y0129476D01*
X0015240Y0129357D01*
X0015200Y0129238D01*
X0015155Y0129122D01*
X0015107Y0129007D01*
X0015055Y0128893D01*
X0014999Y0128781D01*
X0014940Y0128671D01*
X0014878Y0128563D01*
X0014812Y0128456D01*
X0014743Y0128352D01*
X0014670Y0128251D01*
X0014595Y0128151D01*
X0014516Y0128054D01*
X0014434Y0127960D01*
X0014349Y0127868D01*
X0014262Y0127779D01*
X0014171Y0127693D01*
X0014078Y0127610D01*
X0013982Y0127529D01*
X0013884Y0127452D01*
X0013784Y0127378D01*
X0013681Y0127307D01*
X0013576Y0127240D01*
X0013468Y0127175D01*
X0013359Y0127115D01*
X0013248Y0127057D01*
X0013135Y0127004D01*
X0013021Y0126954D01*
X0012905Y0126907D01*
X0012788Y0126865D01*
X0012669Y0126826D01*
X0012549Y0126790D01*
X0012428Y0126759D01*
X0012306Y0126731D01*
X0012184Y0126708D01*
X0012060Y0126688D01*
X0011936Y0126672D01*
X0011812Y0126660D01*
X0011687Y0126652D01*
X0011562Y0126648D01*
X0011438Y0126648D01*
X0011313Y0126652D01*
X0011188Y0126660D01*
X0011064Y0126672D01*
X0010940Y0126688D01*
X0010816Y0126708D01*
X0010694Y0126731D01*
X0010572Y0126759D01*
X0010451Y0126790D01*
X0010331Y0126826D01*
X0010212Y0126865D01*
X0010095Y0126907D01*
X0009979Y0126954D01*
X0009865Y0127004D01*
X0009752Y0127057D01*
X0009641Y0127115D01*
X0009531Y0127175D01*
X0009424Y0127240D01*
X0009319Y0127307D01*
X0009216Y0127378D01*
X0009116Y0127452D01*
X0009018Y0127529D01*
X0008922Y0127610D01*
X0008829Y0127693D01*
X0008738Y0127779D01*
X0008651Y0127868D01*
X0008566Y0127960D01*
X0008484Y0128054D01*
X0008405Y0128151D01*
X0008330Y0128251D01*
X0008257Y0128352D01*
X0008188Y0128456D01*
X0008122Y0128563D01*
X0008060Y0128671D01*
X0008001Y0128781D01*
X0007945Y0128893D01*
X0007893Y0129007D01*
X0007845Y0129122D01*
X0007800Y0129238D01*
X0007760Y0129357D01*
X0007722Y0129476D01*
X0007689Y0129596D01*
X0007660Y0129718D01*
X0007634Y0129840D01*
X0007612Y0129963D01*
X0007595Y0130087D01*
X0007581Y0130211D01*
X0007571Y0130335D01*
X0007565Y0130460D01*
X0007563Y0130585D01*
X0007563Y0190585D02*
X0007565Y0190710D01*
X0007571Y0190835D01*
X0007581Y0190959D01*
X0007595Y0191083D01*
X0007612Y0191207D01*
X0007634Y0191330D01*
X0007660Y0191452D01*
X0007689Y0191574D01*
X0007722Y0191694D01*
X0007760Y0191813D01*
X0007800Y0191932D01*
X0007845Y0192048D01*
X0007893Y0192163D01*
X0007945Y0192277D01*
X0008001Y0192389D01*
X0008060Y0192499D01*
X0008122Y0192607D01*
X0008188Y0192714D01*
X0008257Y0192818D01*
X0008330Y0192919D01*
X0008405Y0193019D01*
X0008484Y0193116D01*
X0008566Y0193210D01*
X0008651Y0193302D01*
X0008738Y0193391D01*
X0008829Y0193477D01*
X0008922Y0193560D01*
X0009018Y0193641D01*
X0009116Y0193718D01*
X0009216Y0193792D01*
X0009319Y0193863D01*
X0009424Y0193930D01*
X0009532Y0193995D01*
X0009641Y0194055D01*
X0009752Y0194113D01*
X0009865Y0194166D01*
X0009979Y0194216D01*
X0010095Y0194263D01*
X0010212Y0194305D01*
X0010331Y0194344D01*
X0010451Y0194380D01*
X0010572Y0194411D01*
X0010694Y0194439D01*
X0010816Y0194462D01*
X0010940Y0194482D01*
X0011064Y0194498D01*
X0011188Y0194510D01*
X0011313Y0194518D01*
X0011438Y0194522D01*
X0011562Y0194522D01*
X0011687Y0194518D01*
X0011812Y0194510D01*
X0011936Y0194498D01*
X0012060Y0194482D01*
X0012184Y0194462D01*
X0012306Y0194439D01*
X0012428Y0194411D01*
X0012549Y0194380D01*
X0012669Y0194344D01*
X0012788Y0194305D01*
X0012905Y0194263D01*
X0013021Y0194216D01*
X0013135Y0194166D01*
X0013248Y0194113D01*
X0013359Y0194055D01*
X0013469Y0193995D01*
X0013576Y0193930D01*
X0013681Y0193863D01*
X0013784Y0193792D01*
X0013884Y0193718D01*
X0013982Y0193641D01*
X0014078Y0193560D01*
X0014171Y0193477D01*
X0014262Y0193391D01*
X0014349Y0193302D01*
X0014434Y0193210D01*
X0014516Y0193116D01*
X0014595Y0193019D01*
X0014670Y0192919D01*
X0014743Y0192818D01*
X0014812Y0192714D01*
X0014878Y0192607D01*
X0014940Y0192499D01*
X0014999Y0192389D01*
X0015055Y0192277D01*
X0015107Y0192163D01*
X0015155Y0192048D01*
X0015200Y0191932D01*
X0015240Y0191813D01*
X0015278Y0191694D01*
X0015311Y0191574D01*
X0015340Y0191452D01*
X0015366Y0191330D01*
X0015388Y0191207D01*
X0015405Y0191083D01*
X0015419Y0190959D01*
X0015429Y0190835D01*
X0015435Y0190710D01*
X0015437Y0190585D01*
X0015435Y0190460D01*
X0015429Y0190335D01*
X0015419Y0190211D01*
X0015405Y0190087D01*
X0015388Y0189963D01*
X0015366Y0189840D01*
X0015340Y0189718D01*
X0015311Y0189596D01*
X0015278Y0189476D01*
X0015240Y0189357D01*
X0015200Y0189238D01*
X0015155Y0189122D01*
X0015107Y0189007D01*
X0015055Y0188893D01*
X0014999Y0188781D01*
X0014940Y0188671D01*
X0014878Y0188563D01*
X0014812Y0188456D01*
X0014743Y0188352D01*
X0014670Y0188251D01*
X0014595Y0188151D01*
X0014516Y0188054D01*
X0014434Y0187960D01*
X0014349Y0187868D01*
X0014262Y0187779D01*
X0014171Y0187693D01*
X0014078Y0187610D01*
X0013982Y0187529D01*
X0013884Y0187452D01*
X0013784Y0187378D01*
X0013681Y0187307D01*
X0013576Y0187240D01*
X0013468Y0187175D01*
X0013359Y0187115D01*
X0013248Y0187057D01*
X0013135Y0187004D01*
X0013021Y0186954D01*
X0012905Y0186907D01*
X0012788Y0186865D01*
X0012669Y0186826D01*
X0012549Y0186790D01*
X0012428Y0186759D01*
X0012306Y0186731D01*
X0012184Y0186708D01*
X0012060Y0186688D01*
X0011936Y0186672D01*
X0011812Y0186660D01*
X0011687Y0186652D01*
X0011562Y0186648D01*
X0011438Y0186648D01*
X0011313Y0186652D01*
X0011188Y0186660D01*
X0011064Y0186672D01*
X0010940Y0186688D01*
X0010816Y0186708D01*
X0010694Y0186731D01*
X0010572Y0186759D01*
X0010451Y0186790D01*
X0010331Y0186826D01*
X0010212Y0186865D01*
X0010095Y0186907D01*
X0009979Y0186954D01*
X0009865Y0187004D01*
X0009752Y0187057D01*
X0009641Y0187115D01*
X0009531Y0187175D01*
X0009424Y0187240D01*
X0009319Y0187307D01*
X0009216Y0187378D01*
X0009116Y0187452D01*
X0009018Y0187529D01*
X0008922Y0187610D01*
X0008829Y0187693D01*
X0008738Y0187779D01*
X0008651Y0187868D01*
X0008566Y0187960D01*
X0008484Y0188054D01*
X0008405Y0188151D01*
X0008330Y0188251D01*
X0008257Y0188352D01*
X0008188Y0188456D01*
X0008122Y0188563D01*
X0008060Y0188671D01*
X0008001Y0188781D01*
X0007945Y0188893D01*
X0007893Y0189007D01*
X0007845Y0189122D01*
X0007800Y0189238D01*
X0007760Y0189357D01*
X0007722Y0189476D01*
X0007689Y0189596D01*
X0007660Y0189718D01*
X0007634Y0189840D01*
X0007612Y0189963D01*
X0007595Y0190087D01*
X0007581Y0190211D01*
X0007571Y0190335D01*
X0007565Y0190460D01*
X0007563Y0190585D01*
X0052642Y0249317D02*
X0052644Y0249386D01*
X0052650Y0249454D01*
X0052660Y0249522D01*
X0052674Y0249589D01*
X0052692Y0249656D01*
X0052713Y0249721D01*
X0052739Y0249785D01*
X0052768Y0249847D01*
X0052800Y0249907D01*
X0052836Y0249966D01*
X0052876Y0250022D01*
X0052918Y0250076D01*
X0052964Y0250127D01*
X0053013Y0250176D01*
X0053064Y0250222D01*
X0053118Y0250264D01*
X0053174Y0250304D01*
X0053232Y0250340D01*
X0053293Y0250372D01*
X0053355Y0250401D01*
X0053419Y0250427D01*
X0053484Y0250448D01*
X0053551Y0250466D01*
X0053618Y0250480D01*
X0053686Y0250490D01*
X0053754Y0250496D01*
X0053823Y0250498D01*
X0053892Y0250496D01*
X0053960Y0250490D01*
X0054028Y0250480D01*
X0054095Y0250466D01*
X0054162Y0250448D01*
X0054227Y0250427D01*
X0054291Y0250401D01*
X0054353Y0250372D01*
X0054413Y0250340D01*
X0054472Y0250304D01*
X0054528Y0250264D01*
X0054582Y0250222D01*
X0054633Y0250176D01*
X0054682Y0250127D01*
X0054728Y0250076D01*
X0054770Y0250022D01*
X0054810Y0249966D01*
X0054846Y0249907D01*
X0054878Y0249847D01*
X0054907Y0249785D01*
X0054933Y0249721D01*
X0054954Y0249656D01*
X0054972Y0249589D01*
X0054986Y0249522D01*
X0054996Y0249454D01*
X0055002Y0249386D01*
X0055004Y0249317D01*
X0055002Y0249248D01*
X0054996Y0249180D01*
X0054986Y0249112D01*
X0054972Y0249045D01*
X0054954Y0248978D01*
X0054933Y0248913D01*
X0054907Y0248849D01*
X0054878Y0248787D01*
X0054846Y0248726D01*
X0054810Y0248668D01*
X0054770Y0248612D01*
X0054728Y0248558D01*
X0054682Y0248507D01*
X0054633Y0248458D01*
X0054582Y0248412D01*
X0054528Y0248370D01*
X0054472Y0248330D01*
X0054414Y0248294D01*
X0054353Y0248262D01*
X0054291Y0248233D01*
X0054227Y0248207D01*
X0054162Y0248186D01*
X0054095Y0248168D01*
X0054028Y0248154D01*
X0053960Y0248144D01*
X0053892Y0248138D01*
X0053823Y0248136D01*
X0053754Y0248138D01*
X0053686Y0248144D01*
X0053618Y0248154D01*
X0053551Y0248168D01*
X0053484Y0248186D01*
X0053419Y0248207D01*
X0053355Y0248233D01*
X0053293Y0248262D01*
X0053232Y0248294D01*
X0053174Y0248330D01*
X0053118Y0248370D01*
X0053064Y0248412D01*
X0053013Y0248458D01*
X0052964Y0248507D01*
X0052918Y0248558D01*
X0052876Y0248612D01*
X0052836Y0248668D01*
X0052800Y0248726D01*
X0052768Y0248787D01*
X0052739Y0248849D01*
X0052713Y0248913D01*
X0052692Y0248978D01*
X0052674Y0249045D01*
X0052660Y0249112D01*
X0052650Y0249180D01*
X0052644Y0249248D01*
X0052642Y0249317D01*
X0067996Y0249317D02*
X0067998Y0249386D01*
X0068004Y0249454D01*
X0068014Y0249522D01*
X0068028Y0249589D01*
X0068046Y0249656D01*
X0068067Y0249721D01*
X0068093Y0249785D01*
X0068122Y0249847D01*
X0068154Y0249907D01*
X0068190Y0249966D01*
X0068230Y0250022D01*
X0068272Y0250076D01*
X0068318Y0250127D01*
X0068367Y0250176D01*
X0068418Y0250222D01*
X0068472Y0250264D01*
X0068528Y0250304D01*
X0068586Y0250340D01*
X0068647Y0250372D01*
X0068709Y0250401D01*
X0068773Y0250427D01*
X0068838Y0250448D01*
X0068905Y0250466D01*
X0068972Y0250480D01*
X0069040Y0250490D01*
X0069108Y0250496D01*
X0069177Y0250498D01*
X0069246Y0250496D01*
X0069314Y0250490D01*
X0069382Y0250480D01*
X0069449Y0250466D01*
X0069516Y0250448D01*
X0069581Y0250427D01*
X0069645Y0250401D01*
X0069707Y0250372D01*
X0069767Y0250340D01*
X0069826Y0250304D01*
X0069882Y0250264D01*
X0069936Y0250222D01*
X0069987Y0250176D01*
X0070036Y0250127D01*
X0070082Y0250076D01*
X0070124Y0250022D01*
X0070164Y0249966D01*
X0070200Y0249907D01*
X0070232Y0249847D01*
X0070261Y0249785D01*
X0070287Y0249721D01*
X0070308Y0249656D01*
X0070326Y0249589D01*
X0070340Y0249522D01*
X0070350Y0249454D01*
X0070356Y0249386D01*
X0070358Y0249317D01*
X0070356Y0249248D01*
X0070350Y0249180D01*
X0070340Y0249112D01*
X0070326Y0249045D01*
X0070308Y0248978D01*
X0070287Y0248913D01*
X0070261Y0248849D01*
X0070232Y0248787D01*
X0070200Y0248726D01*
X0070164Y0248668D01*
X0070124Y0248612D01*
X0070082Y0248558D01*
X0070036Y0248507D01*
X0069987Y0248458D01*
X0069936Y0248412D01*
X0069882Y0248370D01*
X0069826Y0248330D01*
X0069768Y0248294D01*
X0069707Y0248262D01*
X0069645Y0248233D01*
X0069581Y0248207D01*
X0069516Y0248186D01*
X0069449Y0248168D01*
X0069382Y0248154D01*
X0069314Y0248144D01*
X0069246Y0248138D01*
X0069177Y0248136D01*
X0069108Y0248138D01*
X0069040Y0248144D01*
X0068972Y0248154D01*
X0068905Y0248168D01*
X0068838Y0248186D01*
X0068773Y0248207D01*
X0068709Y0248233D01*
X0068647Y0248262D01*
X0068586Y0248294D01*
X0068528Y0248330D01*
X0068472Y0248370D01*
X0068418Y0248412D01*
X0068367Y0248458D01*
X0068318Y0248507D01*
X0068272Y0248558D01*
X0068230Y0248612D01*
X0068190Y0248668D01*
X0068154Y0248726D01*
X0068122Y0248787D01*
X0068093Y0248849D01*
X0068067Y0248913D01*
X0068046Y0248978D01*
X0068028Y0249045D01*
X0068014Y0249112D01*
X0068004Y0249180D01*
X0067998Y0249248D01*
X0067996Y0249317D01*
X0110563Y0170085D02*
X0110565Y0170210D01*
X0110571Y0170335D01*
X0110581Y0170459D01*
X0110595Y0170583D01*
X0110612Y0170707D01*
X0110634Y0170830D01*
X0110660Y0170952D01*
X0110689Y0171074D01*
X0110722Y0171194D01*
X0110760Y0171313D01*
X0110800Y0171432D01*
X0110845Y0171548D01*
X0110893Y0171663D01*
X0110945Y0171777D01*
X0111001Y0171889D01*
X0111060Y0171999D01*
X0111122Y0172107D01*
X0111188Y0172214D01*
X0111257Y0172318D01*
X0111330Y0172419D01*
X0111405Y0172519D01*
X0111484Y0172616D01*
X0111566Y0172710D01*
X0111651Y0172802D01*
X0111738Y0172891D01*
X0111829Y0172977D01*
X0111922Y0173060D01*
X0112018Y0173141D01*
X0112116Y0173218D01*
X0112216Y0173292D01*
X0112319Y0173363D01*
X0112424Y0173430D01*
X0112532Y0173495D01*
X0112641Y0173555D01*
X0112752Y0173613D01*
X0112865Y0173666D01*
X0112979Y0173716D01*
X0113095Y0173763D01*
X0113212Y0173805D01*
X0113331Y0173844D01*
X0113451Y0173880D01*
X0113572Y0173911D01*
X0113694Y0173939D01*
X0113816Y0173962D01*
X0113940Y0173982D01*
X0114064Y0173998D01*
X0114188Y0174010D01*
X0114313Y0174018D01*
X0114438Y0174022D01*
X0114562Y0174022D01*
X0114687Y0174018D01*
X0114812Y0174010D01*
X0114936Y0173998D01*
X0115060Y0173982D01*
X0115184Y0173962D01*
X0115306Y0173939D01*
X0115428Y0173911D01*
X0115549Y0173880D01*
X0115669Y0173844D01*
X0115788Y0173805D01*
X0115905Y0173763D01*
X0116021Y0173716D01*
X0116135Y0173666D01*
X0116248Y0173613D01*
X0116359Y0173555D01*
X0116469Y0173495D01*
X0116576Y0173430D01*
X0116681Y0173363D01*
X0116784Y0173292D01*
X0116884Y0173218D01*
X0116982Y0173141D01*
X0117078Y0173060D01*
X0117171Y0172977D01*
X0117262Y0172891D01*
X0117349Y0172802D01*
X0117434Y0172710D01*
X0117516Y0172616D01*
X0117595Y0172519D01*
X0117670Y0172419D01*
X0117743Y0172318D01*
X0117812Y0172214D01*
X0117878Y0172107D01*
X0117940Y0171999D01*
X0117999Y0171889D01*
X0118055Y0171777D01*
X0118107Y0171663D01*
X0118155Y0171548D01*
X0118200Y0171432D01*
X0118240Y0171313D01*
X0118278Y0171194D01*
X0118311Y0171074D01*
X0118340Y0170952D01*
X0118366Y0170830D01*
X0118388Y0170707D01*
X0118405Y0170583D01*
X0118419Y0170459D01*
X0118429Y0170335D01*
X0118435Y0170210D01*
X0118437Y0170085D01*
X0118435Y0169960D01*
X0118429Y0169835D01*
X0118419Y0169711D01*
X0118405Y0169587D01*
X0118388Y0169463D01*
X0118366Y0169340D01*
X0118340Y0169218D01*
X0118311Y0169096D01*
X0118278Y0168976D01*
X0118240Y0168857D01*
X0118200Y0168738D01*
X0118155Y0168622D01*
X0118107Y0168507D01*
X0118055Y0168393D01*
X0117999Y0168281D01*
X0117940Y0168171D01*
X0117878Y0168063D01*
X0117812Y0167956D01*
X0117743Y0167852D01*
X0117670Y0167751D01*
X0117595Y0167651D01*
X0117516Y0167554D01*
X0117434Y0167460D01*
X0117349Y0167368D01*
X0117262Y0167279D01*
X0117171Y0167193D01*
X0117078Y0167110D01*
X0116982Y0167029D01*
X0116884Y0166952D01*
X0116784Y0166878D01*
X0116681Y0166807D01*
X0116576Y0166740D01*
X0116468Y0166675D01*
X0116359Y0166615D01*
X0116248Y0166557D01*
X0116135Y0166504D01*
X0116021Y0166454D01*
X0115905Y0166407D01*
X0115788Y0166365D01*
X0115669Y0166326D01*
X0115549Y0166290D01*
X0115428Y0166259D01*
X0115306Y0166231D01*
X0115184Y0166208D01*
X0115060Y0166188D01*
X0114936Y0166172D01*
X0114812Y0166160D01*
X0114687Y0166152D01*
X0114562Y0166148D01*
X0114438Y0166148D01*
X0114313Y0166152D01*
X0114188Y0166160D01*
X0114064Y0166172D01*
X0113940Y0166188D01*
X0113816Y0166208D01*
X0113694Y0166231D01*
X0113572Y0166259D01*
X0113451Y0166290D01*
X0113331Y0166326D01*
X0113212Y0166365D01*
X0113095Y0166407D01*
X0112979Y0166454D01*
X0112865Y0166504D01*
X0112752Y0166557D01*
X0112641Y0166615D01*
X0112531Y0166675D01*
X0112424Y0166740D01*
X0112319Y0166807D01*
X0112216Y0166878D01*
X0112116Y0166952D01*
X0112018Y0167029D01*
X0111922Y0167110D01*
X0111829Y0167193D01*
X0111738Y0167279D01*
X0111651Y0167368D01*
X0111566Y0167460D01*
X0111484Y0167554D01*
X0111405Y0167651D01*
X0111330Y0167751D01*
X0111257Y0167852D01*
X0111188Y0167956D01*
X0111122Y0168063D01*
X0111060Y0168171D01*
X0111001Y0168281D01*
X0110945Y0168393D01*
X0110893Y0168507D01*
X0110845Y0168622D01*
X0110800Y0168738D01*
X0110760Y0168857D01*
X0110722Y0168976D01*
X0110689Y0169096D01*
X0110660Y0169218D01*
X0110634Y0169340D01*
X0110612Y0169463D01*
X0110595Y0169587D01*
X0110581Y0169711D01*
X0110571Y0169835D01*
X0110565Y0169960D01*
X0110563Y0170085D01*
D12*
X0103666Y0197135D02*
X0102799Y0197135D01*
X0102365Y0197569D01*
X0101153Y0197135D02*
X0099419Y0197135D01*
X0100286Y0197135D02*
X0100286Y0199737D01*
X0101153Y0198870D01*
X0102365Y0199304D02*
X0102799Y0199737D01*
X0103666Y0199737D01*
X0104100Y0199304D01*
X0104100Y0197569D01*
X0103666Y0197135D01*
X0098207Y0197135D02*
X0096472Y0197135D01*
X0097340Y0197135D02*
X0097340Y0199737D01*
X0098207Y0198870D01*
X0100022Y0203411D02*
X0101757Y0203411D01*
X0100022Y0205145D01*
X0100022Y0205579D01*
X0100456Y0206013D01*
X0101323Y0206013D01*
X0101757Y0205579D01*
X0103836Y0206013D02*
X0103836Y0203411D01*
X0104703Y0203411D02*
X0102969Y0203411D01*
X0104703Y0205145D02*
X0103836Y0206013D01*
X0105915Y0205579D02*
X0106349Y0206013D01*
X0107216Y0206013D01*
X0107650Y0205579D01*
X0107650Y0203844D01*
X0107216Y0203411D01*
X0106349Y0203411D01*
X0105915Y0203844D01*
X0096419Y0218292D02*
X0094684Y0218292D01*
X0094250Y0218726D01*
X0094250Y0219593D01*
X0094684Y0220027D01*
X0094684Y0221239D02*
X0095117Y0221239D01*
X0095551Y0221672D01*
X0095551Y0222540D01*
X0095117Y0222973D01*
X0094684Y0222973D01*
X0094250Y0222540D01*
X0094250Y0221672D01*
X0094684Y0221239D01*
X0095551Y0221672D02*
X0095985Y0221239D01*
X0096419Y0221239D01*
X0096852Y0221672D01*
X0096852Y0222540D01*
X0096419Y0222973D01*
X0095985Y0222973D01*
X0095551Y0222540D01*
X0096419Y0220027D02*
X0096852Y0219593D01*
X0096852Y0218726D01*
X0096419Y0218292D01*
X0101126Y0221535D02*
X0103728Y0221535D01*
X0103728Y0222836D01*
X0103294Y0223270D01*
X0102427Y0223270D01*
X0101993Y0222836D01*
X0101993Y0221535D01*
X0101993Y0222402D02*
X0101126Y0223270D01*
X0101126Y0224482D02*
X0102860Y0226216D01*
X0103294Y0226216D01*
X0103728Y0225783D01*
X0103728Y0224915D01*
X0103294Y0224482D01*
X0101126Y0224482D02*
X0101126Y0226216D01*
X0106200Y0225694D02*
X0106200Y0232076D01*
X0106573Y0232076D01*
X0109743Y0232076D02*
X0113857Y0232076D01*
X0117027Y0232076D02*
X0117400Y0232076D01*
X0117400Y0225694D01*
X0117027Y0225694D01*
X0113857Y0225694D02*
X0113483Y0225694D01*
X0110117Y0225694D02*
X0109743Y0225694D01*
X0106573Y0225694D02*
X0106200Y0225694D01*
X0109252Y0237685D02*
X0108819Y0238119D01*
X0108819Y0238552D01*
X0109252Y0238986D01*
X0109686Y0238986D01*
X0109252Y0238986D02*
X0108819Y0239420D01*
X0108819Y0239854D01*
X0109252Y0240287D01*
X0110120Y0240287D01*
X0110553Y0239854D01*
X0111765Y0240287D02*
X0111765Y0238119D01*
X0112199Y0237685D01*
X0113066Y0237685D01*
X0113500Y0238119D01*
X0113500Y0240287D01*
X0110553Y0238119D02*
X0110120Y0237685D01*
X0109252Y0237685D01*
X0080852Y0225725D02*
X0080419Y0226158D01*
X0079985Y0226158D01*
X0079551Y0225725D01*
X0079551Y0224857D01*
X0079985Y0224424D01*
X0080419Y0224424D01*
X0080852Y0224857D01*
X0080852Y0225725D01*
X0079551Y0225725D02*
X0079117Y0226158D01*
X0078684Y0226158D01*
X0078250Y0225725D01*
X0078250Y0224857D01*
X0078684Y0224424D01*
X0079117Y0224424D01*
X0079551Y0224857D01*
X0079551Y0223212D02*
X0079117Y0222778D01*
X0079117Y0221477D01*
X0078250Y0221477D02*
X0080852Y0221477D01*
X0080852Y0222778D01*
X0080419Y0223212D01*
X0079551Y0223212D01*
X0079117Y0222344D02*
X0078250Y0223212D01*
X0078595Y0203537D02*
X0077294Y0203537D01*
X0076860Y0203104D01*
X0076860Y0202236D01*
X0077294Y0201802D01*
X0078595Y0201802D01*
X0078595Y0200935D02*
X0078595Y0203537D01*
X0077727Y0201802D02*
X0076860Y0200935D01*
X0075648Y0200935D02*
X0073913Y0200935D01*
X0074781Y0200935D02*
X0074781Y0203537D01*
X0075648Y0202670D01*
X0072702Y0203104D02*
X0072268Y0203537D01*
X0071401Y0203537D01*
X0070967Y0203104D01*
X0070967Y0202670D01*
X0072702Y0200935D01*
X0070967Y0200935D01*
X0066040Y0191037D02*
X0064738Y0191037D01*
X0064305Y0190604D01*
X0064305Y0189736D01*
X0064738Y0189302D01*
X0066040Y0189302D01*
X0066040Y0188435D02*
X0066040Y0191037D01*
X0065172Y0189302D02*
X0064305Y0188435D01*
X0063093Y0188435D02*
X0061358Y0190170D01*
X0061358Y0190604D01*
X0061792Y0191037D01*
X0062659Y0191037D01*
X0063093Y0190604D01*
X0063093Y0188435D02*
X0061358Y0188435D01*
X0060147Y0188869D02*
X0058412Y0190604D01*
X0058412Y0188869D01*
X0058845Y0188435D01*
X0059713Y0188435D01*
X0060147Y0188869D01*
X0060147Y0190604D01*
X0059713Y0191037D01*
X0058845Y0191037D01*
X0058412Y0190604D01*
X0051845Y0179162D02*
X0050544Y0179162D01*
X0050110Y0178728D01*
X0050110Y0177861D01*
X0050544Y0177427D01*
X0051845Y0177427D01*
X0051845Y0176559D02*
X0051845Y0179162D01*
X0050977Y0177427D02*
X0050110Y0176559D01*
X0048898Y0176559D02*
X0047163Y0176559D01*
X0048031Y0176559D02*
X0048031Y0179162D01*
X0048898Y0178294D01*
X0045952Y0177861D02*
X0044651Y0177861D01*
X0044217Y0177427D01*
X0044217Y0176993D01*
X0044651Y0176559D01*
X0045518Y0176559D01*
X0045952Y0176993D01*
X0045952Y0177861D01*
X0045084Y0178728D01*
X0044217Y0179162D01*
X0044377Y0173613D02*
X0045245Y0173179D01*
X0046112Y0172312D01*
X0044811Y0172312D01*
X0044377Y0171878D01*
X0044377Y0171444D01*
X0044811Y0171011D01*
X0045678Y0171011D01*
X0046112Y0171444D01*
X0046112Y0172312D01*
X0047324Y0172745D02*
X0047324Y0173179D01*
X0047757Y0173613D01*
X0048625Y0173613D01*
X0049059Y0173179D01*
X0050270Y0173179D02*
X0050704Y0173613D01*
X0051571Y0173613D01*
X0052005Y0173179D01*
X0052005Y0171444D01*
X0051571Y0171011D01*
X0050704Y0171011D01*
X0050270Y0171444D01*
X0049059Y0171011D02*
X0047324Y0172745D01*
X0047324Y0171011D02*
X0049059Y0171011D01*
X0050089Y0166173D02*
X0049655Y0165740D01*
X0049655Y0164872D01*
X0050089Y0164439D01*
X0051824Y0166173D01*
X0050089Y0166173D01*
X0050089Y0164439D02*
X0051824Y0164439D01*
X0052257Y0164872D01*
X0052257Y0165740D01*
X0051824Y0166173D01*
X0049655Y0163227D02*
X0049655Y0161492D01*
X0049655Y0162359D02*
X0052257Y0162359D01*
X0051390Y0161492D01*
X0052257Y0160280D02*
X0050089Y0160280D01*
X0049655Y0159847D01*
X0049655Y0158979D01*
X0050089Y0158545D01*
X0052257Y0158545D01*
X0052691Y0154113D02*
X0052691Y0151511D01*
X0051824Y0151511D02*
X0053559Y0151511D01*
X0054770Y0151511D02*
X0055638Y0152378D01*
X0055204Y0152378D02*
X0056505Y0152378D01*
X0056505Y0151511D02*
X0056505Y0154113D01*
X0055204Y0154113D01*
X0054770Y0153679D01*
X0054770Y0152812D01*
X0055204Y0152378D01*
X0053559Y0153245D02*
X0052691Y0154113D01*
X0050612Y0153679D02*
X0050612Y0153245D01*
X0050178Y0152812D01*
X0049311Y0152812D01*
X0048877Y0152378D01*
X0048877Y0151944D01*
X0049311Y0151511D01*
X0050178Y0151511D01*
X0050612Y0151944D01*
X0050612Y0152378D01*
X0050178Y0152812D01*
X0049311Y0152812D02*
X0048877Y0153245D01*
X0048877Y0153679D01*
X0049311Y0154113D01*
X0050178Y0154113D01*
X0050612Y0153679D01*
X0050612Y0148113D02*
X0048877Y0148113D01*
X0049311Y0147245D02*
X0048877Y0146812D01*
X0048877Y0145944D01*
X0049311Y0145511D01*
X0050178Y0145511D01*
X0050612Y0145944D01*
X0050612Y0146812D02*
X0049745Y0147245D01*
X0049311Y0147245D01*
X0050612Y0146812D02*
X0050612Y0148113D01*
X0051824Y0147679D02*
X0052257Y0148113D01*
X0053125Y0148113D01*
X0053559Y0147679D01*
X0054770Y0147679D02*
X0055204Y0148113D01*
X0056071Y0148113D01*
X0056505Y0147679D01*
X0056505Y0145944D01*
X0056071Y0145511D01*
X0055204Y0145511D01*
X0054770Y0145944D01*
X0053559Y0145511D02*
X0051824Y0147245D01*
X0051824Y0147679D01*
X0051824Y0145511D02*
X0053559Y0145511D01*
X0051071Y0141113D02*
X0051505Y0140679D01*
X0051505Y0138944D01*
X0051071Y0138511D01*
X0050204Y0138511D01*
X0049770Y0138944D01*
X0048559Y0138511D02*
X0046824Y0140245D01*
X0046824Y0140679D01*
X0047257Y0141113D01*
X0048125Y0141113D01*
X0048559Y0140679D01*
X0049770Y0140679D02*
X0050204Y0141113D01*
X0051071Y0141113D01*
X0048559Y0138511D02*
X0046824Y0138511D01*
X0045612Y0138944D02*
X0045178Y0138511D01*
X0044311Y0138511D01*
X0043877Y0138944D01*
X0043877Y0139378D01*
X0044311Y0139812D01*
X0044745Y0139812D01*
X0044311Y0139812D02*
X0043877Y0140245D01*
X0043877Y0140679D01*
X0044311Y0141113D01*
X0045178Y0141113D01*
X0045612Y0140679D01*
X0044311Y0134613D02*
X0045612Y0133312D01*
X0043877Y0133312D01*
X0044311Y0132011D02*
X0044311Y0134613D01*
X0046824Y0132011D02*
X0048559Y0132011D01*
X0047691Y0132011D02*
X0047691Y0134613D01*
X0048559Y0133745D01*
X0049770Y0133312D02*
X0050204Y0132878D01*
X0051505Y0132878D01*
X0050638Y0132878D02*
X0049770Y0132011D01*
X0049770Y0133312D02*
X0049770Y0134179D01*
X0050204Y0134613D01*
X0051505Y0134613D01*
X0051505Y0132011D01*
X0073377Y0138944D02*
X0073811Y0138511D01*
X0074678Y0138511D01*
X0075112Y0138944D01*
X0075112Y0139812D02*
X0074245Y0140245D01*
X0073811Y0140245D01*
X0073377Y0139812D01*
X0073377Y0138944D01*
X0075112Y0139812D02*
X0075112Y0141113D01*
X0073377Y0141113D01*
X0077191Y0141113D02*
X0077191Y0138511D01*
X0076324Y0138511D02*
X0078059Y0138511D01*
X0079270Y0138511D02*
X0080138Y0139378D01*
X0079704Y0139378D02*
X0081005Y0139378D01*
X0081005Y0138511D02*
X0081005Y0141113D01*
X0079704Y0141113D01*
X0079270Y0140679D01*
X0079270Y0139812D01*
X0079704Y0139378D01*
X0078059Y0140245D02*
X0077191Y0141113D01*
X0077898Y0170559D02*
X0076163Y0172294D01*
X0076163Y0172728D01*
X0076597Y0173162D01*
X0077464Y0173162D01*
X0077898Y0172728D01*
X0079110Y0172728D02*
X0079544Y0173162D01*
X0080411Y0173162D01*
X0080845Y0172728D01*
X0080845Y0170993D01*
X0080411Y0170559D01*
X0079544Y0170559D01*
X0079110Y0170993D01*
X0077898Y0170559D02*
X0076163Y0170559D01*
X0074952Y0171861D02*
X0073651Y0173162D01*
X0073651Y0170559D01*
X0073217Y0171861D02*
X0074952Y0171861D01*
X0074952Y0176559D02*
X0074952Y0176993D01*
X0073217Y0178728D01*
X0073217Y0179162D01*
X0074952Y0179162D01*
X0077031Y0179162D02*
X0077031Y0176559D01*
X0077898Y0176559D02*
X0076163Y0176559D01*
X0077898Y0178294D02*
X0077031Y0179162D01*
X0079110Y0178728D02*
X0079110Y0177861D01*
X0079544Y0177427D01*
X0080845Y0177427D01*
X0080845Y0176559D02*
X0080845Y0179162D01*
X0079544Y0179162D01*
X0079110Y0178728D01*
X0079977Y0177427D02*
X0079110Y0176559D01*
X0051856Y0217559D02*
X0050988Y0217559D01*
X0050555Y0217993D01*
X0049343Y0217559D02*
X0047608Y0219294D01*
X0047608Y0219728D01*
X0048042Y0220162D01*
X0048909Y0220162D01*
X0049343Y0219728D01*
X0050555Y0219728D02*
X0050988Y0220162D01*
X0051856Y0220162D01*
X0052290Y0219728D01*
X0052290Y0217993D01*
X0051856Y0217559D01*
X0049343Y0217559D02*
X0047608Y0217559D01*
X0046397Y0217559D02*
X0046397Y0217993D01*
X0044662Y0219728D01*
X0044662Y0220162D01*
X0046397Y0220162D01*
X0038856Y0232559D02*
X0037988Y0232559D01*
X0037555Y0232993D01*
X0036343Y0232559D02*
X0034608Y0232559D01*
X0035476Y0232559D02*
X0035476Y0235162D01*
X0036343Y0234294D01*
X0037555Y0234728D02*
X0037988Y0235162D01*
X0038856Y0235162D01*
X0039290Y0234728D01*
X0039290Y0232993D01*
X0038856Y0232559D01*
X0033397Y0232993D02*
X0032963Y0232559D01*
X0032095Y0232559D01*
X0031662Y0232993D01*
X0031662Y0233861D01*
X0032095Y0234294D01*
X0032529Y0234294D01*
X0033397Y0233861D01*
X0033397Y0235162D01*
X0031662Y0235162D01*
X0031501Y0229302D02*
X0031501Y0227134D01*
X0031934Y0226700D01*
X0032802Y0226700D01*
X0033235Y0227134D01*
X0033235Y0229302D01*
X0030289Y0229302D02*
X0028554Y0229302D01*
X0028554Y0228869D01*
X0030289Y0227134D01*
X0030289Y0226700D01*
X0046426Y0237754D02*
X0046426Y0238621D01*
X0046859Y0239055D01*
X0046426Y0240267D02*
X0046426Y0242001D01*
X0046426Y0241134D02*
X0049028Y0241134D01*
X0048160Y0240267D01*
X0048594Y0239055D02*
X0049028Y0238621D01*
X0049028Y0237754D01*
X0048594Y0237320D01*
X0046859Y0237320D01*
X0046426Y0237754D01*
X0046859Y0243213D02*
X0046426Y0243647D01*
X0046426Y0244514D01*
X0046859Y0244948D01*
X0047293Y0244948D01*
X0047727Y0244514D01*
X0047727Y0243213D01*
X0046859Y0243213D01*
X0047727Y0243213D02*
X0048594Y0244081D01*
X0049028Y0244948D01*
X0060074Y0245067D02*
X0060507Y0245501D01*
X0061809Y0245501D01*
X0061809Y0244634D01*
X0061375Y0244200D01*
X0060507Y0244200D01*
X0060074Y0244634D01*
X0060074Y0245067D01*
X0060941Y0246369D02*
X0061809Y0245501D01*
X0060941Y0246369D02*
X0060074Y0246802D01*
X0063020Y0246802D02*
X0063020Y0244634D01*
X0063454Y0244200D01*
X0064321Y0244200D01*
X0064755Y0244634D01*
X0064755Y0246802D01*
X0033775Y0258866D02*
X0033341Y0258432D01*
X0032474Y0258432D01*
X0032040Y0258866D01*
X0032040Y0261034D01*
X0030828Y0261034D02*
X0030828Y0259733D01*
X0029961Y0260167D01*
X0029527Y0260167D01*
X0029093Y0259733D01*
X0029093Y0258866D01*
X0029527Y0258432D01*
X0030395Y0258432D01*
X0030828Y0258866D01*
X0030828Y0261034D02*
X0029093Y0261034D01*
X0033775Y0261034D02*
X0033775Y0258866D01*
X0019516Y0204113D02*
X0018649Y0204113D01*
X0018215Y0203679D01*
X0017003Y0203679D02*
X0016570Y0204113D01*
X0015702Y0204113D01*
X0015269Y0203679D01*
X0015269Y0203245D01*
X0017003Y0201511D01*
X0015269Y0201511D01*
X0014057Y0201944D02*
X0012322Y0203679D01*
X0012322Y0201944D01*
X0012756Y0201511D01*
X0013623Y0201511D01*
X0014057Y0201944D01*
X0014057Y0203679D01*
X0013623Y0204113D01*
X0012756Y0204113D01*
X0012322Y0203679D01*
X0013190Y0198113D02*
X0013190Y0195511D01*
X0014057Y0195511D02*
X0012322Y0195511D01*
X0014057Y0197245D02*
X0013190Y0198113D01*
X0015269Y0197679D02*
X0015269Y0197245D01*
X0017003Y0195511D01*
X0015269Y0195511D01*
X0015269Y0197679D02*
X0015702Y0198113D01*
X0016570Y0198113D01*
X0017003Y0197679D01*
X0018215Y0197679D02*
X0018649Y0198113D01*
X0019516Y0198113D01*
X0019950Y0197679D01*
X0019950Y0195944D01*
X0019516Y0195511D01*
X0018649Y0195511D01*
X0018215Y0195944D01*
X0018649Y0201511D02*
X0018215Y0201944D01*
X0018649Y0201511D02*
X0019516Y0201511D01*
X0019950Y0201944D01*
X0019950Y0203679D01*
X0019516Y0204113D01*
X0020334Y0108288D02*
X0018065Y0104885D01*
X0020334Y0104885D02*
X0018065Y0108288D01*
X0021748Y0107721D02*
X0021748Y0106586D01*
X0022315Y0106019D01*
X0024017Y0106019D01*
X0024017Y0104885D02*
X0024017Y0108288D01*
X0022315Y0108288D01*
X0021748Y0107721D01*
X0022883Y0106019D02*
X0021748Y0104885D01*
X0025431Y0105452D02*
X0025999Y0104885D01*
X0027133Y0104885D01*
X0027700Y0105452D01*
X0027700Y0107721D01*
X0027133Y0108288D01*
X0025999Y0108288D01*
X0025431Y0107721D01*
X0025766Y0098288D02*
X0026900Y0098288D01*
X0027467Y0097721D01*
X0027467Y0097154D01*
X0026900Y0096586D01*
X0025766Y0096586D01*
X0025199Y0096019D01*
X0025199Y0095452D01*
X0025766Y0094885D01*
X0026900Y0094885D01*
X0027467Y0095452D01*
X0028882Y0098288D02*
X0031151Y0094885D01*
X0032565Y0094885D02*
X0034834Y0098288D01*
X0036248Y0098288D02*
X0038517Y0098288D01*
X0037383Y0098288D02*
X0037383Y0094885D01*
X0034834Y0094885D02*
X0032565Y0098288D01*
X0025766Y0098288D02*
X0025199Y0097721D01*
X0023784Y0098288D02*
X0022083Y0098288D01*
X0021516Y0097721D01*
X0021516Y0095452D01*
X0022083Y0094885D01*
X0023784Y0094885D01*
X0023784Y0098288D01*
X0020101Y0097154D02*
X0020101Y0094885D01*
X0020101Y0096586D02*
X0017833Y0096586D01*
X0017833Y0097154D02*
X0017833Y0094885D01*
X0017833Y0097154D02*
X0018967Y0098288D01*
X0020101Y0097154D01*
X0019834Y0088288D02*
X0019834Y0084885D01*
X0017565Y0084885D01*
X0021248Y0085452D02*
X0021815Y0084885D01*
X0022950Y0084885D01*
X0023517Y0085452D01*
X0023517Y0087721D01*
X0022950Y0088288D01*
X0021815Y0088288D01*
X0021248Y0087721D01*
X0024931Y0087721D02*
X0025499Y0088288D01*
X0026633Y0088288D01*
X0027200Y0087721D01*
X0027200Y0087154D01*
X0026633Y0086586D01*
X0025499Y0086586D01*
X0024931Y0086019D01*
X0024931Y0085452D01*
X0025499Y0084885D01*
X0026633Y0084885D01*
X0027200Y0085452D01*
X0039931Y0095452D02*
X0040499Y0094885D01*
X0041633Y0094885D01*
X0042200Y0095452D01*
X0042200Y0097721D01*
X0041633Y0098288D01*
X0040499Y0098288D01*
X0039931Y0097721D01*
X0061026Y0088165D02*
X0061026Y0087731D01*
X0061460Y0087297D01*
X0062327Y0087297D01*
X0062761Y0087731D01*
X0062761Y0088165D01*
X0062327Y0088598D01*
X0061460Y0088598D01*
X0061026Y0088165D01*
X0061460Y0087297D02*
X0061026Y0086863D01*
X0061026Y0086430D01*
X0061460Y0085996D01*
X0062327Y0085996D01*
X0062761Y0086430D01*
X0062761Y0086863D01*
X0062327Y0087297D01*
X0063972Y0086430D02*
X0063972Y0088598D01*
X0065707Y0088598D02*
X0065707Y0086430D01*
X0065274Y0085996D01*
X0064406Y0085996D01*
X0063972Y0086430D01*
X0025799Y0044683D02*
X0025799Y0030487D01*
X0007201Y0030487D02*
X0007201Y0044683D01*
X0103748Y0049452D02*
X0104315Y0048885D01*
X0105450Y0048885D01*
X0106017Y0049452D01*
X0106017Y0051721D01*
X0105450Y0052288D01*
X0104315Y0052288D01*
X0103748Y0051721D01*
X0103748Y0049452D01*
X0107431Y0049452D02*
X0107999Y0048885D01*
X0109133Y0048885D01*
X0109700Y0049452D01*
X0109133Y0050586D02*
X0107999Y0050586D01*
X0107431Y0050019D01*
X0107431Y0049452D01*
X0109133Y0050586D02*
X0109700Y0051154D01*
X0109700Y0051721D01*
X0109133Y0052288D01*
X0107999Y0052288D01*
X0107431Y0051721D01*
X0107999Y0056385D02*
X0107431Y0056952D01*
X0107999Y0056385D02*
X0109133Y0056385D01*
X0109700Y0056952D01*
X0109700Y0059221D01*
X0109133Y0059788D01*
X0107999Y0059788D01*
X0107431Y0059221D01*
X0106017Y0059788D02*
X0106017Y0056385D01*
X0106017Y0057519D02*
X0103748Y0059788D01*
X0105450Y0058086D02*
X0103748Y0056385D01*
X0104383Y0063885D02*
X0105517Y0063885D01*
X0104950Y0063885D02*
X0104950Y0067288D01*
X0105517Y0067288D02*
X0104383Y0067288D01*
X0106931Y0066721D02*
X0107499Y0067288D01*
X0108633Y0067288D01*
X0109200Y0066721D01*
X0109200Y0066154D01*
X0108633Y0065586D01*
X0107499Y0065586D01*
X0106931Y0065019D01*
X0106931Y0064452D01*
X0107499Y0063885D01*
X0108633Y0063885D01*
X0109200Y0064452D01*
X0109133Y0071385D02*
X0107999Y0071385D01*
X0107431Y0071952D01*
X0106017Y0071952D02*
X0105450Y0071385D01*
X0104315Y0071385D01*
X0103748Y0071952D01*
X0103748Y0072519D01*
X0104315Y0073086D01*
X0105450Y0073086D01*
X0106017Y0073654D01*
X0106017Y0074221D01*
X0105450Y0074788D01*
X0104315Y0074788D01*
X0103748Y0074221D01*
X0107431Y0074221D02*
X0107999Y0074788D01*
X0109133Y0074788D01*
X0109700Y0074221D01*
X0109700Y0071952D01*
X0109133Y0071385D01*
D13*
X0021250Y0019537D02*
X0021250Y0017285D01*
X0020800Y0016835D01*
X0019899Y0016835D01*
X0019448Y0017285D01*
X0019448Y0019537D01*
X0018303Y0018637D02*
X0017403Y0019537D01*
X0017403Y0016835D01*
X0018303Y0016835D02*
X0016502Y0016835D01*
X0015357Y0016835D02*
X0013555Y0016835D01*
X0014456Y0016835D02*
X0014456Y0019537D01*
X0015357Y0018637D01*
X0023677Y0208372D02*
X0023677Y0224120D01*
X0038441Y0224120D01*
X0038441Y0208372D01*
X0023677Y0208372D01*
X0058555Y0230900D02*
X0066555Y0230900D01*
X0066555Y0238900D01*
X0058555Y0238900D01*
X0058555Y0230900D01*
X0060587Y0221620D02*
X0064524Y0221620D01*
X0064714Y0221618D01*
X0064904Y0221611D01*
X0065094Y0221599D01*
X0065284Y0221583D01*
X0065473Y0221563D01*
X0065662Y0221537D01*
X0065850Y0221508D01*
X0066037Y0221473D01*
X0066223Y0221434D01*
X0066408Y0221391D01*
X0066593Y0221343D01*
X0066776Y0221291D01*
X0066957Y0221235D01*
X0067137Y0221174D01*
X0067316Y0221108D01*
X0067493Y0221039D01*
X0067669Y0220965D01*
X0067842Y0220887D01*
X0068014Y0220804D01*
X0068183Y0220718D01*
X0068351Y0220628D01*
X0068516Y0220533D01*
X0068679Y0220435D01*
X0068839Y0220332D01*
X0068997Y0220226D01*
X0069152Y0220116D01*
X0069305Y0220003D01*
X0069455Y0219885D01*
X0069601Y0219764D01*
X0069745Y0219640D01*
X0069886Y0219512D01*
X0070024Y0219381D01*
X0070159Y0219246D01*
X0070290Y0219108D01*
X0070418Y0218967D01*
X0070542Y0218823D01*
X0070663Y0218677D01*
X0070781Y0218527D01*
X0070894Y0218374D01*
X0071004Y0218219D01*
X0071110Y0218061D01*
X0071213Y0217901D01*
X0071311Y0217738D01*
X0071406Y0217573D01*
X0071496Y0217405D01*
X0071582Y0217236D01*
X0071665Y0217064D01*
X0071743Y0216891D01*
X0071817Y0216715D01*
X0071886Y0216538D01*
X0071952Y0216359D01*
X0072013Y0216179D01*
X0072069Y0215998D01*
X0072121Y0215815D01*
X0072169Y0215630D01*
X0072212Y0215445D01*
X0072251Y0215259D01*
X0072286Y0215072D01*
X0072315Y0214884D01*
X0072341Y0214695D01*
X0072361Y0214506D01*
X0072377Y0214316D01*
X0072389Y0214126D01*
X0072396Y0213936D01*
X0072398Y0213746D01*
X0072396Y0213556D01*
X0072389Y0213366D01*
X0072377Y0213176D01*
X0072361Y0212986D01*
X0072341Y0212797D01*
X0072315Y0212608D01*
X0072286Y0212420D01*
X0072251Y0212233D01*
X0072212Y0212047D01*
X0072169Y0211862D01*
X0072121Y0211677D01*
X0072069Y0211494D01*
X0072013Y0211313D01*
X0071952Y0211133D01*
X0071886Y0210954D01*
X0071817Y0210777D01*
X0071743Y0210601D01*
X0071665Y0210428D01*
X0071582Y0210256D01*
X0071496Y0210087D01*
X0071406Y0209919D01*
X0071311Y0209754D01*
X0071213Y0209591D01*
X0071110Y0209431D01*
X0071004Y0209273D01*
X0070894Y0209118D01*
X0070781Y0208965D01*
X0070663Y0208815D01*
X0070542Y0208669D01*
X0070418Y0208525D01*
X0070290Y0208384D01*
X0070159Y0208246D01*
X0070024Y0208111D01*
X0069886Y0207980D01*
X0069745Y0207852D01*
X0069601Y0207728D01*
X0069455Y0207607D01*
X0069305Y0207489D01*
X0069152Y0207376D01*
X0068997Y0207266D01*
X0068839Y0207160D01*
X0068679Y0207057D01*
X0068516Y0206959D01*
X0068351Y0206864D01*
X0068183Y0206774D01*
X0068014Y0206688D01*
X0067842Y0206605D01*
X0067669Y0206527D01*
X0067493Y0206453D01*
X0067316Y0206384D01*
X0067137Y0206318D01*
X0066957Y0206257D01*
X0066776Y0206201D01*
X0066593Y0206149D01*
X0066408Y0206101D01*
X0066223Y0206058D01*
X0066037Y0206019D01*
X0065850Y0205984D01*
X0065662Y0205955D01*
X0065473Y0205929D01*
X0065284Y0205909D01*
X0065094Y0205893D01*
X0064904Y0205881D01*
X0064714Y0205874D01*
X0064524Y0205872D01*
X0060587Y0205872D01*
X0060397Y0205874D01*
X0060207Y0205881D01*
X0060017Y0205893D01*
X0059827Y0205909D01*
X0059638Y0205929D01*
X0059449Y0205955D01*
X0059261Y0205984D01*
X0059074Y0206019D01*
X0058888Y0206058D01*
X0058703Y0206101D01*
X0058518Y0206149D01*
X0058335Y0206201D01*
X0058154Y0206257D01*
X0057974Y0206318D01*
X0057795Y0206384D01*
X0057618Y0206453D01*
X0057442Y0206527D01*
X0057269Y0206605D01*
X0057097Y0206688D01*
X0056928Y0206774D01*
X0056760Y0206864D01*
X0056595Y0206959D01*
X0056432Y0207057D01*
X0056272Y0207160D01*
X0056114Y0207266D01*
X0055959Y0207376D01*
X0055806Y0207489D01*
X0055656Y0207607D01*
X0055510Y0207728D01*
X0055366Y0207852D01*
X0055225Y0207980D01*
X0055087Y0208111D01*
X0054952Y0208246D01*
X0054821Y0208384D01*
X0054693Y0208525D01*
X0054569Y0208669D01*
X0054448Y0208815D01*
X0054330Y0208965D01*
X0054217Y0209118D01*
X0054107Y0209273D01*
X0054001Y0209431D01*
X0053898Y0209591D01*
X0053800Y0209754D01*
X0053705Y0209919D01*
X0053615Y0210087D01*
X0053529Y0210256D01*
X0053446Y0210428D01*
X0053368Y0210601D01*
X0053294Y0210777D01*
X0053225Y0210954D01*
X0053159Y0211133D01*
X0053098Y0211313D01*
X0053042Y0211494D01*
X0052990Y0211677D01*
X0052942Y0211862D01*
X0052899Y0212047D01*
X0052860Y0212233D01*
X0052825Y0212420D01*
X0052796Y0212608D01*
X0052770Y0212797D01*
X0052750Y0212986D01*
X0052734Y0213176D01*
X0052722Y0213366D01*
X0052715Y0213556D01*
X0052713Y0213746D01*
X0052715Y0213936D01*
X0052722Y0214126D01*
X0052734Y0214316D01*
X0052750Y0214506D01*
X0052770Y0214695D01*
X0052796Y0214884D01*
X0052825Y0215072D01*
X0052860Y0215259D01*
X0052899Y0215445D01*
X0052942Y0215630D01*
X0052990Y0215815D01*
X0053042Y0215998D01*
X0053098Y0216179D01*
X0053159Y0216359D01*
X0053225Y0216538D01*
X0053294Y0216715D01*
X0053368Y0216891D01*
X0053446Y0217064D01*
X0053529Y0217236D01*
X0053615Y0217405D01*
X0053705Y0217573D01*
X0053800Y0217738D01*
X0053898Y0217901D01*
X0054001Y0218061D01*
X0054107Y0218219D01*
X0054217Y0218374D01*
X0054330Y0218527D01*
X0054448Y0218677D01*
X0054569Y0218823D01*
X0054693Y0218967D01*
X0054821Y0219108D01*
X0054952Y0219246D01*
X0055087Y0219381D01*
X0055225Y0219512D01*
X0055366Y0219640D01*
X0055510Y0219764D01*
X0055656Y0219885D01*
X0055806Y0220003D01*
X0055959Y0220116D01*
X0056114Y0220226D01*
X0056272Y0220332D01*
X0056432Y0220435D01*
X0056595Y0220533D01*
X0056760Y0220628D01*
X0056928Y0220718D01*
X0057097Y0220804D01*
X0057269Y0220887D01*
X0057442Y0220965D01*
X0057618Y0221039D01*
X0057795Y0221108D01*
X0057974Y0221174D01*
X0058154Y0221235D01*
X0058335Y0221291D01*
X0058518Y0221343D01*
X0058703Y0221391D01*
X0058888Y0221434D01*
X0059074Y0221473D01*
X0059261Y0221508D01*
X0059449Y0221537D01*
X0059638Y0221563D01*
X0059827Y0221583D01*
X0060017Y0221599D01*
X0060207Y0221611D01*
X0060397Y0221618D01*
X0060587Y0221620D01*
X0110894Y0220091D02*
X0114706Y0220091D01*
X0114706Y0208280D02*
X0110894Y0208280D01*
D14*
X0022059Y0210746D03*
D15*
X0015352Y0227685D02*
X0013150Y0227685D01*
X0012600Y0228236D01*
X0012600Y0229336D01*
X0013150Y0229887D01*
X0012600Y0231368D02*
X0012600Y0233570D01*
X0012600Y0232469D02*
X0015903Y0232469D01*
X0014802Y0231368D01*
X0015352Y0229887D02*
X0015903Y0229336D01*
X0015903Y0228236D01*
X0015352Y0227685D01*
X0015352Y0235051D02*
X0014802Y0235051D01*
X0014251Y0235602D01*
X0014251Y0237253D01*
X0013150Y0237253D02*
X0015352Y0237253D01*
X0015903Y0236703D01*
X0015903Y0235602D01*
X0015352Y0235051D01*
X0013150Y0235051D02*
X0012600Y0235602D01*
X0012600Y0236703D01*
X0013150Y0237253D01*
X0056985Y0232200D02*
X0056987Y0232238D01*
X0056993Y0232276D01*
X0057003Y0232313D01*
X0057016Y0232348D01*
X0057033Y0232382D01*
X0057053Y0232414D01*
X0057077Y0232444D01*
X0057104Y0232472D01*
X0057133Y0232496D01*
X0057165Y0232517D01*
X0057198Y0232535D01*
X0057233Y0232549D01*
X0057270Y0232560D01*
X0057307Y0232567D01*
X0057345Y0232570D01*
X0057384Y0232569D01*
X0057421Y0232564D01*
X0057458Y0232555D01*
X0057494Y0232543D01*
X0057529Y0232527D01*
X0057562Y0232507D01*
X0057592Y0232484D01*
X0057620Y0232458D01*
X0057645Y0232430D01*
X0057667Y0232399D01*
X0057686Y0232365D01*
X0057701Y0232331D01*
X0057713Y0232294D01*
X0057721Y0232257D01*
X0057725Y0232219D01*
X0057725Y0232181D01*
X0057721Y0232143D01*
X0057713Y0232106D01*
X0057701Y0232069D01*
X0057686Y0232035D01*
X0057667Y0232001D01*
X0057645Y0231970D01*
X0057620Y0231942D01*
X0057592Y0231916D01*
X0057562Y0231893D01*
X0057529Y0231873D01*
X0057494Y0231857D01*
X0057458Y0231845D01*
X0057421Y0231836D01*
X0057384Y0231831D01*
X0057345Y0231830D01*
X0057307Y0231833D01*
X0057270Y0231840D01*
X0057233Y0231851D01*
X0057198Y0231865D01*
X0057165Y0231883D01*
X0057133Y0231904D01*
X0057104Y0231928D01*
X0057077Y0231956D01*
X0057053Y0231986D01*
X0057033Y0232018D01*
X0057016Y0232052D01*
X0057003Y0232087D01*
X0056993Y0232124D01*
X0056987Y0232162D01*
X0056985Y0232200D01*
X0071798Y0209222D02*
X0071247Y0208672D01*
X0071247Y0207571D01*
X0071798Y0207020D01*
X0073449Y0207020D01*
X0073449Y0205919D02*
X0073449Y0209222D01*
X0071798Y0209222D01*
X0072348Y0207020D02*
X0071247Y0205919D01*
X0074930Y0206470D02*
X0074930Y0208672D01*
X0075481Y0209222D01*
X0077132Y0209222D01*
X0077132Y0205919D01*
X0075481Y0205919D01*
X0074930Y0206470D01*
X0078613Y0205919D02*
X0080815Y0205919D01*
X0080815Y0209222D01*
D16*
X0014500Y0225052D03*
D17*
X0098550Y0098859D02*
X0098550Y0097858D01*
X0098550Y0097386D02*
X0099050Y0096885D01*
X0098550Y0096635D02*
X0098800Y0096385D01*
X0099801Y0096385D01*
X0100051Y0096635D01*
X0100051Y0097136D01*
X0099801Y0097386D01*
X0098800Y0097386D01*
X0098550Y0097136D01*
X0098550Y0096635D01*
X0099551Y0097858D02*
X0100051Y0098359D01*
X0098550Y0098359D01*
M02*
